<svg width="1258" height="402" viewBox="0 0 1258 402" fill="none" xmlns="http://www.w3.org/2000/svg">
<path d="M8.27632 401.044C12.8472 401.044 16.5526 396.606 16.5526 391.131C16.5526 385.657 12.8472 381.219 8.27632 381.219C3.70543 381.219 0 385.657 0 391.131C0 396.606 3.70543 401.044 8.27632 401.044Z" fill="url(#paint0_linear_2545_513)"/>
<path d="M8.27632 305.739C12.8472 305.739 16.5526 301.301 16.5526 295.827C16.5526 290.352 12.8472 285.914 8.27632 285.914C3.70543 285.914 0 290.352 0 295.827C0 301.301 3.70543 305.739 8.27632 305.739Z" fill="url(#paint1_linear_2545_513)"/>
<path d="M8.27632 210.435C12.8472 210.435 16.5526 205.997 16.5526 200.522C16.5526 195.047 12.8472 190.609 8.27632 190.609C3.70543 190.609 0 195.047 0 200.522C0 205.997 3.70543 210.435 8.27632 210.435Z" fill="url(#paint2_linear_2545_513)"/>
<path d="M8.27632 115.13C12.8472 115.13 16.5526 110.692 16.5526 105.217C16.5526 99.7427 12.8472 95.3047 8.27632 95.3047C3.70543 95.3047 0 99.7427 0 105.217C0 110.692 3.70543 115.13 8.27632 115.13Z" fill="url(#paint3_linear_2545_513)"/>
<path d="M8.27632 19.8252C12.8472 19.8252 16.5526 15.3871 16.5526 9.91258C16.5526 4.43801 12.8472 0 8.27632 0C3.70543 0 0 4.43801 0 9.91258C0 15.3871 3.70543 19.8252 8.27632 19.8252Z" fill="url(#paint4_linear_2545_513)"/>
<path d="M111.73 401.044C116.301 401.044 120.006 396.606 120.006 391.131C120.006 385.657 116.301 381.219 111.73 381.219C107.159 381.219 103.454 385.657 103.454 391.131C103.454 396.606 107.159 401.044 111.73 401.044Z" fill="url(#paint5_linear_2545_513)"/>
<path d="M111.73 305.739C116.301 305.739 120.006 301.301 120.006 295.827C120.006 290.352 116.301 285.914 111.73 285.914C107.159 285.914 103.454 290.352 103.454 295.827C103.454 301.301 107.159 305.739 111.73 305.739Z" fill="url(#paint6_linear_2545_513)"/>
<path d="M111.73 210.435C116.301 210.435 120.006 205.997 120.006 200.522C120.006 195.047 116.301 190.609 111.73 190.609C107.159 190.609 103.454 195.047 103.454 200.522C103.454 205.997 107.159 210.435 111.73 210.435Z" fill="url(#paint7_linear_2545_513)"/>
<path d="M111.73 115.13C116.301 115.13 120.006 110.692 120.006 105.217C120.006 99.7427 116.301 95.3047 111.73 95.3047C107.159 95.3047 103.454 99.7427 103.454 105.217C103.454 110.692 107.159 115.13 111.73 115.13Z" fill="url(#paint8_linear_2545_513)"/>
<path d="M111.73 19.8252C116.301 19.8252 120.006 15.3871 120.006 9.91258C120.006 4.43801 116.301 0 111.73 0C107.159 0 103.454 4.43801 103.454 9.91258C103.454 15.3871 107.159 19.8252 111.73 19.8252Z" fill="url(#paint9_linear_2545_513)"/>
<path d="M215.184 401.044C219.755 401.044 223.461 396.606 223.461 391.131C223.461 385.657 219.755 381.219 215.184 381.219C210.613 381.219 206.908 385.657 206.908 391.131C206.908 396.606 210.613 401.044 215.184 401.044Z" fill="url(#paint10_linear_2545_513)"/>
<path d="M215.184 305.739C219.755 305.739 223.461 301.301 223.461 295.827C223.461 290.352 219.755 285.914 215.184 285.914C210.613 285.914 206.908 290.352 206.908 295.827C206.908 301.301 210.613 305.739 215.184 305.739Z" fill="url(#paint11_linear_2545_513)"/>
<path d="M215.184 210.435C219.755 210.435 223.461 205.997 223.461 200.522C223.461 195.047 219.755 190.609 215.184 190.609C210.613 190.609 206.908 195.047 206.908 200.522C206.908 205.997 210.613 210.435 215.184 210.435Z" fill="url(#paint12_linear_2545_513)"/>
<path d="M215.184 115.13C219.755 115.13 223.461 110.692 223.461 105.217C223.461 99.7427 219.755 95.3047 215.184 95.3047C210.613 95.3047 206.908 99.7427 206.908 105.217C206.908 110.692 210.613 115.13 215.184 115.13Z" fill="url(#paint13_linear_2545_513)"/>
<path d="M215.184 19.8252C219.755 19.8252 223.461 15.3871 223.461 9.91258C223.461 4.43801 219.755 0 215.184 0C210.613 0 206.908 4.43801 206.908 9.91258C206.908 15.3871 210.613 19.8252 215.184 19.8252Z" fill="url(#paint14_linear_2545_513)"/>
<path d="M318.638 401.044C323.209 401.044 326.914 396.606 326.914 391.131C326.914 385.657 323.209 381.219 318.638 381.219C314.067 381.219 310.362 385.657 310.362 391.131C310.362 396.606 314.067 401.044 318.638 401.044Z" fill="url(#paint15_linear_2545_513)"/>
<path d="M318.638 305.739C323.209 305.739 326.914 301.301 326.914 295.827C326.914 290.352 323.209 285.914 318.638 285.914C314.067 285.914 310.362 290.352 310.362 295.827C310.362 301.301 314.067 305.739 318.638 305.739Z" fill="url(#paint16_linear_2545_513)"/>
<path d="M318.638 210.435C323.209 210.435 326.914 205.997 326.914 200.522C326.914 195.047 323.209 190.609 318.638 190.609C314.067 190.609 310.362 195.047 310.362 200.522C310.362 205.997 314.067 210.435 318.638 210.435Z" fill="url(#paint17_linear_2545_513)"/>
<path d="M318.638 115.13C323.209 115.13 326.914 110.692 326.914 105.217C326.914 99.7427 323.209 95.3047 318.638 95.3047C314.067 95.3047 310.362 99.7427 310.362 105.217C310.362 110.692 314.067 115.13 318.638 115.13Z" fill="url(#paint18_linear_2545_513)"/>
<path d="M318.638 19.8252C323.209 19.8252 326.915 15.3871 326.915 9.91258C326.915 4.43801 323.209 0 318.638 0C314.067 0 310.362 4.43801 310.362 9.91258C310.362 15.3871 314.067 19.8252 318.638 19.8252Z" fill="url(#paint19_linear_2545_513)"/>
<path d="M422.092 401.044C426.663 401.044 430.369 396.606 430.369 391.131C430.369 385.657 426.663 381.219 422.092 381.219C417.521 381.219 413.816 385.657 413.816 391.131C413.816 396.606 417.521 401.044 422.092 401.044Z" fill="url(#paint20_linear_2545_513)"/>
<path d="M422.092 305.739C426.663 305.739 430.369 301.301 430.369 295.827C430.369 290.352 426.663 285.914 422.092 285.914C417.521 285.914 413.816 290.352 413.816 295.827C413.816 301.301 417.521 305.739 422.092 305.739Z" fill="url(#paint21_linear_2545_513)"/>
<path d="M422.092 210.435C426.663 210.435 430.369 205.997 430.369 200.522C430.369 195.047 426.663 190.609 422.092 190.609C417.521 190.609 413.816 195.047 413.816 200.522C413.816 205.997 417.521 210.435 422.092 210.435Z" fill="url(#paint22_linear_2545_513)"/>
<path d="M422.092 115.13C426.663 115.13 430.369 110.692 430.369 105.217C430.369 99.7427 426.663 95.3047 422.092 95.3047C417.521 95.3047 413.816 99.7427 413.816 105.217C413.816 110.692 417.521 115.13 422.092 115.13Z" fill="url(#paint23_linear_2545_513)"/>
<path d="M422.092 19.8252C426.663 19.8252 430.369 15.3871 430.369 9.91258C430.369 4.43801 426.663 0 422.092 0C417.521 0 413.816 4.43801 413.816 9.91258C413.816 15.3871 417.521 19.8252 422.092 19.8252Z" fill="url(#paint24_linear_2545_513)"/>
<path d="M525.546 401.044C530.117 401.044 533.822 396.606 533.822 391.131C533.822 385.657 530.117 381.219 525.546 381.219C520.975 381.219 517.27 385.657 517.27 391.131C517.27 396.606 520.975 401.044 525.546 401.044Z" fill="url(#paint25_linear_2545_513)"/>
<path d="M525.546 305.739C530.117 305.739 533.822 301.301 533.822 295.827C533.822 290.352 530.117 285.914 525.546 285.914C520.975 285.914 517.27 290.352 517.27 295.827C517.27 301.301 520.975 305.739 525.546 305.739Z" fill="url(#paint26_linear_2545_513)"/>
<path d="M525.546 210.435C530.117 210.435 533.822 205.997 533.822 200.522C533.822 195.047 530.117 190.609 525.546 190.609C520.975 190.609 517.27 195.047 517.27 200.522C517.27 205.997 520.975 210.435 525.546 210.435Z" fill="url(#paint27_linear_2545_513)"/>
<path d="M525.546 115.13C530.117 115.13 533.822 110.692 533.822 105.217C533.822 99.7427 530.117 95.3047 525.546 95.3047C520.975 95.3047 517.27 99.7427 517.27 105.217C517.27 110.692 520.975 115.13 525.546 115.13Z" fill="url(#paint28_linear_2545_513)"/>
<path d="M525.546 19.8252C530.117 19.8252 533.822 15.3871 533.822 9.91258C533.822 4.43801 530.117 0 525.546 0C520.975 0 517.27 4.43801 517.27 9.91258C517.27 15.3871 520.975 19.8252 525.546 19.8252Z" fill="url(#paint29_linear_2545_513)"/>
<path d="M629 401.044C633.571 401.044 637.277 396.606 637.277 391.131C637.277 385.657 633.571 381.219 629 381.219C624.429 381.219 620.724 385.657 620.724 391.131C620.724 396.606 624.429 401.044 629 401.044Z" fill="url(#paint30_linear_2545_513)"/>
<path d="M629 305.739C633.571 305.739 637.277 301.301 637.277 295.827C637.277 290.352 633.571 285.914 629 285.914C624.429 285.914 620.724 290.352 620.724 295.827C620.724 301.301 624.429 305.739 629 305.739Z" fill="url(#paint31_linear_2545_513)"/>
<path d="M629 210.435C633.571 210.435 637.277 205.997 637.277 200.522C637.277 195.047 633.571 190.609 629 190.609C624.429 190.609 620.724 195.047 620.724 200.522C620.724 205.997 624.429 210.435 629 210.435Z" fill="url(#paint32_linear_2545_513)"/>
<path d="M629 115.13C633.571 115.13 637.277 110.692 637.277 105.217C637.277 99.7427 633.571 95.3047 629 95.3047C624.429 95.3047 620.724 99.7427 620.724 105.217C620.724 110.692 624.429 115.13 629 115.13Z" fill="url(#paint33_linear_2545_513)"/>
<path d="M629 19.8252C633.571 19.8252 637.277 15.3871 637.277 9.91258C637.277 4.43801 633.571 0 629 0C624.429 0 620.724 4.43801 620.724 9.91258C620.724 15.3871 624.429 19.8252 629 19.8252Z" fill="url(#paint34_linear_2545_513)"/>
<path d="M732.454 401.044C737.025 401.044 740.73 396.606 740.73 391.131C740.73 385.657 737.025 381.219 732.454 381.219C727.883 381.219 724.177 385.657 724.177 391.131C724.177 396.606 727.883 401.044 732.454 401.044Z" fill="url(#paint35_linear_2545_513)"/>
<path d="M732.454 305.739C737.025 305.739 740.73 301.301 740.73 295.827C740.73 290.352 737.025 285.914 732.454 285.914C727.883 285.914 724.177 290.352 724.177 295.827C724.177 301.301 727.883 305.739 732.454 305.739Z" fill="url(#paint36_linear_2545_513)"/>
<path d="M732.454 210.435C737.025 210.435 740.73 205.997 740.73 200.522C740.73 195.047 737.025 190.609 732.454 190.609C727.883 190.609 724.177 195.047 724.177 200.522C724.177 205.997 727.883 210.435 732.454 210.435Z" fill="url(#paint37_linear_2545_513)"/>
<path d="M732.454 115.13C737.025 115.13 740.73 110.692 740.73 105.217C740.73 99.7427 737.025 95.3047 732.454 95.3047C727.883 95.3047 724.177 99.7427 724.177 105.217C724.177 110.692 727.883 115.13 732.454 115.13Z" fill="url(#paint38_linear_2545_513)"/>
<path d="M732.454 19.8252C737.025 19.8252 740.73 15.3871 740.73 9.91258C740.73 4.43801 737.025 0 732.454 0C727.883 0 724.177 4.43801 724.177 9.91258C724.177 15.3871 727.883 19.8252 732.454 19.8252Z" fill="url(#paint39_linear_2545_513)"/>
<path d="M835.908 401.044C840.479 401.044 844.184 396.606 844.184 391.131C844.184 385.657 840.479 381.219 835.908 381.219C831.337 381.219 827.632 385.657 827.632 391.131C827.632 396.606 831.337 401.044 835.908 401.044Z" fill="url(#paint40_linear_2545_513)"/>
<path d="M835.908 305.739C840.479 305.739 844.184 301.301 844.184 295.827C844.184 290.352 840.479 285.914 835.908 285.914C831.337 285.914 827.632 290.352 827.632 295.827C827.632 301.301 831.337 305.739 835.908 305.739Z" fill="url(#paint41_linear_2545_513)"/>
<path d="M835.908 210.435C840.479 210.435 844.184 205.997 844.184 200.522C844.184 195.047 840.479 190.609 835.908 190.609C831.337 190.609 827.632 195.047 827.632 200.522C827.632 205.997 831.337 210.435 835.908 210.435Z" fill="url(#paint42_linear_2545_513)"/>
<path d="M835.908 115.13C840.479 115.13 844.184 110.692 844.184 105.217C844.184 99.7427 840.479 95.3047 835.908 95.3047C831.337 95.3047 827.632 99.7427 827.632 105.217C827.632 110.692 831.337 115.13 835.908 115.13Z" fill="url(#paint43_linear_2545_513)"/>
<path d="M835.908 19.8252C840.479 19.8252 844.184 15.3871 844.184 9.91258C844.184 4.43801 840.479 0 835.908 0C831.337 0 827.632 4.43801 827.632 9.91258C827.632 15.3871 831.337 19.8252 835.908 19.8252Z" fill="url(#paint44_linear_2545_513)"/>
<path d="M939.362 401.044C943.933 401.044 947.638 396.606 947.638 391.131C947.638 385.657 943.933 381.219 939.362 381.219C934.791 381.219 931.085 385.657 931.085 391.131C931.085 396.606 934.791 401.044 939.362 401.044Z" fill="url(#paint45_linear_2545_513)"/>
<path d="M939.362 305.739C943.933 305.739 947.638 301.301 947.638 295.827C947.638 290.352 943.933 285.914 939.362 285.914C934.791 285.914 931.085 290.352 931.085 295.827C931.085 301.301 934.791 305.739 939.362 305.739Z" fill="url(#paint46_linear_2545_513)"/>
<path d="M939.362 210.435C943.933 210.435 947.638 205.997 947.638 200.522C947.638 195.047 943.933 190.609 939.362 190.609C934.791 190.609 931.085 195.047 931.085 200.522C931.085 205.997 934.791 210.435 939.362 210.435Z" fill="url(#paint47_linear_2545_513)"/>
<path d="M939.362 115.13C943.933 115.13 947.638 110.692 947.638 105.217C947.638 99.7427 943.933 95.3047 939.362 95.3047C934.791 95.3047 931.085 99.7427 931.085 105.217C931.085 110.692 934.791 115.13 939.362 115.13Z" fill="url(#paint48_linear_2545_513)"/>
<path d="M939.362 19.8252C943.933 19.8252 947.638 15.3871 947.638 9.91258C947.638 4.43801 943.933 0 939.362 0C934.791 0 931.085 4.43801 931.085 9.91258C931.085 15.3871 934.791 19.8252 939.362 19.8252Z" fill="url(#paint49_linear_2545_513)"/>
<path d="M1042.82 401.044C1047.39 401.044 1051.09 396.606 1051.09 391.131C1051.09 385.657 1047.39 381.219 1042.82 381.219C1038.25 381.219 1034.54 385.657 1034.54 391.131C1034.54 396.606 1038.25 401.044 1042.82 401.044Z" fill="url(#paint50_linear_2545_513)"/>
<path d="M1042.82 305.739C1047.39 305.739 1051.09 301.301 1051.09 295.827C1051.09 290.352 1047.39 285.914 1042.82 285.914C1038.25 285.914 1034.54 290.352 1034.54 295.827C1034.54 301.301 1038.25 305.739 1042.82 305.739Z" fill="url(#paint51_linear_2545_513)"/>
<path d="M1042.82 210.435C1047.39 210.435 1051.09 205.997 1051.09 200.522C1051.09 195.047 1047.39 190.609 1042.82 190.609C1038.25 190.609 1034.54 195.047 1034.54 200.522C1034.54 205.997 1038.25 210.435 1042.82 210.435Z" fill="url(#paint52_linear_2545_513)"/>
<path d="M1042.82 115.13C1047.39 115.13 1051.09 110.692 1051.09 105.217C1051.09 99.7427 1047.39 95.3047 1042.82 95.3047C1038.25 95.3047 1034.54 99.7427 1034.54 105.217C1034.54 110.692 1038.25 115.13 1042.82 115.13Z" fill="url(#paint53_linear_2545_513)"/>
<path d="M1042.82 19.8252C1047.39 19.8252 1051.09 15.3871 1051.09 9.91258C1051.09 4.43801 1047.39 0 1042.82 0C1038.25 0 1034.54 4.43801 1034.54 9.91258C1034.54 15.3871 1038.25 19.8252 1042.82 19.8252Z" fill="url(#paint54_linear_2545_513)"/>
<path d="M1146.27 401.044C1150.84 401.044 1154.55 396.606 1154.55 391.131C1154.55 385.657 1150.84 381.219 1146.27 381.219C1141.7 381.219 1137.99 385.657 1137.99 391.131C1137.99 396.606 1141.7 401.044 1146.27 401.044Z" fill="url(#paint55_linear_2545_513)"/>
<path d="M1146.27 305.739C1150.84 305.739 1154.55 301.301 1154.55 295.827C1154.55 290.352 1150.84 285.914 1146.27 285.914C1141.7 285.914 1137.99 290.352 1137.99 295.827C1137.99 301.301 1141.7 305.739 1146.27 305.739Z" fill="url(#paint56_linear_2545_513)"/>
<path d="M1146.27 210.435C1150.84 210.435 1154.55 205.997 1154.55 200.522C1154.55 195.047 1150.84 190.609 1146.27 190.609C1141.7 190.609 1137.99 195.047 1137.99 200.522C1137.99 205.997 1141.7 210.435 1146.27 210.435Z" fill="url(#paint57_linear_2545_513)"/>
<path d="M1146.27 115.13C1150.84 115.13 1154.55 110.692 1154.55 105.217C1154.55 99.7427 1150.84 95.3047 1146.27 95.3047C1141.7 95.3047 1137.99 99.7427 1137.99 105.217C1137.99 110.692 1141.7 115.13 1146.27 115.13Z" fill="url(#paint58_linear_2545_513)"/>
<path d="M1146.27 19.8252C1150.84 19.8252 1154.55 15.3871 1154.55 9.91258C1154.55 4.43801 1150.84 0 1146.27 0C1141.7 0 1137.99 4.43801 1137.99 9.91258C1137.99 15.3871 1141.7 19.8252 1146.27 19.8252Z" fill="url(#paint59_linear_2545_513)"/>
<path d="M1249.72 401.044C1254.29 401.044 1258 396.606 1258 391.131C1258 385.657 1254.29 381.219 1249.72 381.219C1245.15 381.219 1241.45 385.657 1241.45 391.131C1241.45 396.606 1245.15 401.044 1249.72 401.044Z" fill="url(#paint60_linear_2545_513)"/>
<path d="M1249.72 305.739C1254.29 305.739 1258 301.301 1258 295.827C1258 290.352 1254.29 285.914 1249.72 285.914C1245.15 285.914 1241.45 290.352 1241.45 295.827C1241.45 301.301 1245.15 305.739 1249.72 305.739Z" fill="url(#paint61_linear_2545_513)"/>
<path d="M1249.72 210.435C1254.29 210.435 1258 205.997 1258 200.522C1258 195.047 1254.29 190.609 1249.72 190.609C1245.15 190.609 1241.45 195.047 1241.45 200.522C1241.45 205.997 1245.15 210.435 1249.72 210.435Z" fill="url(#paint62_linear_2545_513)"/>
<path d="M1249.72 115.13C1254.29 115.13 1258 110.692 1258 105.217C1258 99.7427 1254.29 95.3047 1249.72 95.3047C1245.15 95.3047 1241.45 99.7427 1241.45 105.217C1241.45 110.692 1245.15 115.13 1249.72 115.13Z" fill="url(#paint63_linear_2545_513)"/>
<path d="M1249.72 19.8252C1254.29 19.8252 1258 15.3871 1258 9.91258C1258 4.43801 1254.29 0 1249.72 0C1245.15 0 1241.45 4.43801 1241.45 9.91258C1241.45 15.3871 1245.15 19.8252 1249.72 19.8252Z" fill="url(#paint64_linear_2545_513)"/>
<defs>
<linearGradient id="paint0_linear_2545_513" x1="0" y1="391.131" x2="16.5526" y2="391.131" gradientUnits="userSpaceOnUse">
<stop stop-color="#FB00B5"/>
<stop offset="1" stop-color="#451493"/>
</linearGradient>
<linearGradient id="paint1_linear_2545_513" x1="0" y1="295.827" x2="16.5526" y2="295.827" gradientUnits="userSpaceOnUse">
<stop stop-color="#FB00B5"/>
<stop offset="1" stop-color="#451493"/>
</linearGradient>
<linearGradient id="paint2_linear_2545_513" x1="0" y1="200.522" x2="16.5526" y2="200.522" gradientUnits="userSpaceOnUse">
<stop stop-color="#FB00B5"/>
<stop offset="1" stop-color="#451493"/>
</linearGradient>
<linearGradient id="paint3_linear_2545_513" x1="0" y1="105.217" x2="16.5526" y2="105.217" gradientUnits="userSpaceOnUse">
<stop stop-color="#FB00B5"/>
<stop offset="1" stop-color="#451493"/>
</linearGradient>
<linearGradient id="paint4_linear_2545_513" x1="0" y1="9.91258" x2="16.5526" y2="9.91258" gradientUnits="userSpaceOnUse">
<stop stop-color="#FB00B5"/>
<stop offset="1" stop-color="#451493"/>
</linearGradient>
<linearGradient id="paint5_linear_2545_513" x1="103.454" y1="391.131" x2="120.006" y2="391.131" gradientUnits="userSpaceOnUse">
<stop stop-color="#FB00B5"/>
<stop offset="1" stop-color="#451493"/>
</linearGradient>
<linearGradient id="paint6_linear_2545_513" x1="103.454" y1="295.827" x2="120.006" y2="295.827" gradientUnits="userSpaceOnUse">
<stop stop-color="#FB00B5"/>
<stop offset="1" stop-color="#451493"/>
</linearGradient>
<linearGradient id="paint7_linear_2545_513" x1="103.454" y1="200.522" x2="120.006" y2="200.522" gradientUnits="userSpaceOnUse">
<stop stop-color="#FB00B5"/>
<stop offset="1" stop-color="#451493"/>
</linearGradient>
<linearGradient id="paint8_linear_2545_513" x1="103.454" y1="105.217" x2="120.006" y2="105.217" gradientUnits="userSpaceOnUse">
<stop stop-color="#FB00B5"/>
<stop offset="1" stop-color="#451493"/>
</linearGradient>
<linearGradient id="paint9_linear_2545_513" x1="103.454" y1="9.91258" x2="120.006" y2="9.91258" gradientUnits="userSpaceOnUse">
<stop stop-color="#FB00B5"/>
<stop offset="1" stop-color="#451493"/>
</linearGradient>
<linearGradient id="paint10_linear_2545_513" x1="206.908" y1="391.131" x2="223.461" y2="391.131" gradientUnits="userSpaceOnUse">
<stop stop-color="#FB00B5"/>
<stop offset="1" stop-color="#451493"/>
</linearGradient>
<linearGradient id="paint11_linear_2545_513" x1="206.908" y1="295.827" x2="223.461" y2="295.827" gradientUnits="userSpaceOnUse">
<stop stop-color="#FB00B5"/>
<stop offset="1" stop-color="#451493"/>
</linearGradient>
<linearGradient id="paint12_linear_2545_513" x1="206.908" y1="200.522" x2="223.461" y2="200.522" gradientUnits="userSpaceOnUse">
<stop stop-color="#FB00B5"/>
<stop offset="1" stop-color="#451493"/>
</linearGradient>
<linearGradient id="paint13_linear_2545_513" x1="206.908" y1="105.217" x2="223.461" y2="105.217" gradientUnits="userSpaceOnUse">
<stop stop-color="#FB00B5"/>
<stop offset="1" stop-color="#451493"/>
</linearGradient>
<linearGradient id="paint14_linear_2545_513" x1="206.908" y1="9.91258" x2="223.461" y2="9.91258" gradientUnits="userSpaceOnUse">
<stop stop-color="#FB00B5"/>
<stop offset="1" stop-color="#451493"/>
</linearGradient>
<linearGradient id="paint15_linear_2545_513" x1="310.362" y1="391.131" x2="326.914" y2="391.131" gradientUnits="userSpaceOnUse">
<stop stop-color="#FB00B5"/>
<stop offset="1" stop-color="#451493"/>
</linearGradient>
<linearGradient id="paint16_linear_2545_513" x1="310.362" y1="295.827" x2="326.914" y2="295.827" gradientUnits="userSpaceOnUse">
<stop stop-color="#FB00B5"/>
<stop offset="1" stop-color="#451493"/>
</linearGradient>
<linearGradient id="paint17_linear_2545_513" x1="310.362" y1="200.522" x2="326.914" y2="200.522" gradientUnits="userSpaceOnUse">
<stop stop-color="#FB00B5"/>
<stop offset="1" stop-color="#451493"/>
</linearGradient>
<linearGradient id="paint18_linear_2545_513" x1="310.362" y1="105.217" x2="326.914" y2="105.217" gradientUnits="userSpaceOnUse">
<stop stop-color="#FB00B5"/>
<stop offset="1" stop-color="#451493"/>
</linearGradient>
<linearGradient id="paint19_linear_2545_513" x1="310.362" y1="9.91258" x2="326.915" y2="9.91258" gradientUnits="userSpaceOnUse">
<stop stop-color="#FB00B5"/>
<stop offset="1" stop-color="#451493"/>
</linearGradient>
<linearGradient id="paint20_linear_2545_513" x1="413.816" y1="391.131" x2="430.369" y2="391.131" gradientUnits="userSpaceOnUse">
<stop stop-color="#FB00B5"/>
<stop offset="1" stop-color="#451493"/>
</linearGradient>
<linearGradient id="paint21_linear_2545_513" x1="413.816" y1="295.827" x2="430.369" y2="295.827" gradientUnits="userSpaceOnUse">
<stop stop-color="#FB00B5"/>
<stop offset="1" stop-color="#451493"/>
</linearGradient>
<linearGradient id="paint22_linear_2545_513" x1="413.816" y1="200.522" x2="430.369" y2="200.522" gradientUnits="userSpaceOnUse">
<stop stop-color="#FB00B5"/>
<stop offset="1" stop-color="#451493"/>
</linearGradient>
<linearGradient id="paint23_linear_2545_513" x1="413.816" y1="105.217" x2="430.369" y2="105.217" gradientUnits="userSpaceOnUse">
<stop stop-color="#FB00B5"/>
<stop offset="1" stop-color="#451493"/>
</linearGradient>
<linearGradient id="paint24_linear_2545_513" x1="413.816" y1="9.91258" x2="430.369" y2="9.91258" gradientUnits="userSpaceOnUse">
<stop stop-color="#FB00B5"/>
<stop offset="1" stop-color="#451493"/>
</linearGradient>
<linearGradient id="paint25_linear_2545_513" x1="517.27" y1="391.131" x2="533.822" y2="391.131" gradientUnits="userSpaceOnUse">
<stop stop-color="#FB00B5"/>
<stop offset="1" stop-color="#451493"/>
</linearGradient>
<linearGradient id="paint26_linear_2545_513" x1="517.27" y1="295.827" x2="533.822" y2="295.827" gradientUnits="userSpaceOnUse">
<stop stop-color="#FB00B5"/>
<stop offset="1" stop-color="#451493"/>
</linearGradient>
<linearGradient id="paint27_linear_2545_513" x1="517.27" y1="200.522" x2="533.822" y2="200.522" gradientUnits="userSpaceOnUse">
<stop stop-color="#FB00B5"/>
<stop offset="1" stop-color="#451493"/>
</linearGradient>
<linearGradient id="paint28_linear_2545_513" x1="517.27" y1="105.217" x2="533.822" y2="105.217" gradientUnits="userSpaceOnUse">
<stop stop-color="#FB00B5"/>
<stop offset="1" stop-color="#451493"/>
</linearGradient>
<linearGradient id="paint29_linear_2545_513" x1="517.27" y1="9.91258" x2="533.822" y2="9.91258" gradientUnits="userSpaceOnUse">
<stop stop-color="#FB00B5"/>
<stop offset="1" stop-color="#451493"/>
</linearGradient>
<linearGradient id="paint30_linear_2545_513" x1="620.724" y1="391.131" x2="637.277" y2="391.131" gradientUnits="userSpaceOnUse">
<stop stop-color="#FB00B5"/>
<stop offset="1" stop-color="#451493"/>
</linearGradient>
<linearGradient id="paint31_linear_2545_513" x1="620.724" y1="295.827" x2="637.277" y2="295.827" gradientUnits="userSpaceOnUse">
<stop stop-color="#FB00B5"/>
<stop offset="1" stop-color="#451493"/>
</linearGradient>
<linearGradient id="paint32_linear_2545_513" x1="620.724" y1="200.522" x2="637.277" y2="200.522" gradientUnits="userSpaceOnUse">
<stop stop-color="#FB00B5"/>
<stop offset="1" stop-color="#451493"/>
</linearGradient>
<linearGradient id="paint33_linear_2545_513" x1="620.724" y1="105.217" x2="637.277" y2="105.217" gradientUnits="userSpaceOnUse">
<stop stop-color="#FB00B5"/>
<stop offset="1" stop-color="#451493"/>
</linearGradient>
<linearGradient id="paint34_linear_2545_513" x1="620.724" y1="9.91258" x2="637.277" y2="9.91258" gradientUnits="userSpaceOnUse">
<stop stop-color="#FB00B5"/>
<stop offset="1" stop-color="#451493"/>
</linearGradient>
<linearGradient id="paint35_linear_2545_513" x1="724.177" y1="391.131" x2="740.73" y2="391.131" gradientUnits="userSpaceOnUse">
<stop stop-color="#FB00B5"/>
<stop offset="1" stop-color="#451493"/>
</linearGradient>
<linearGradient id="paint36_linear_2545_513" x1="724.177" y1="295.827" x2="740.73" y2="295.827" gradientUnits="userSpaceOnUse">
<stop stop-color="#FB00B5"/>
<stop offset="1" stop-color="#451493"/>
</linearGradient>
<linearGradient id="paint37_linear_2545_513" x1="724.177" y1="200.522" x2="740.73" y2="200.522" gradientUnits="userSpaceOnUse">
<stop stop-color="#FB00B5"/>
<stop offset="1" stop-color="#451493"/>
</linearGradient>
<linearGradient id="paint38_linear_2545_513" x1="724.177" y1="105.217" x2="740.73" y2="105.217" gradientUnits="userSpaceOnUse">
<stop stop-color="#FB00B5"/>
<stop offset="1" stop-color="#451493"/>
</linearGradient>
<linearGradient id="paint39_linear_2545_513" x1="724.177" y1="9.91258" x2="740.73" y2="9.91258" gradientUnits="userSpaceOnUse">
<stop stop-color="#FB00B5"/>
<stop offset="1" stop-color="#451493"/>
</linearGradient>
<linearGradient id="paint40_linear_2545_513" x1="827.632" y1="391.131" x2="844.184" y2="391.131" gradientUnits="userSpaceOnUse">
<stop stop-color="#FB00B5"/>
<stop offset="1" stop-color="#451493"/>
</linearGradient>
<linearGradient id="paint41_linear_2545_513" x1="827.632" y1="295.827" x2="844.184" y2="295.827" gradientUnits="userSpaceOnUse">
<stop stop-color="#FB00B5"/>
<stop offset="1" stop-color="#451493"/>
</linearGradient>
<linearGradient id="paint42_linear_2545_513" x1="827.632" y1="200.522" x2="844.184" y2="200.522" gradientUnits="userSpaceOnUse">
<stop stop-color="#FB00B5"/>
<stop offset="1" stop-color="#451493"/>
</linearGradient>
<linearGradient id="paint43_linear_2545_513" x1="827.632" y1="105.217" x2="844.184" y2="105.217" gradientUnits="userSpaceOnUse">
<stop stop-color="#FB00B5"/>
<stop offset="1" stop-color="#451493"/>
</linearGradient>
<linearGradient id="paint44_linear_2545_513" x1="827.632" y1="9.91258" x2="844.184" y2="9.91258" gradientUnits="userSpaceOnUse">
<stop stop-color="#FB00B5"/>
<stop offset="1" stop-color="#451493"/>
</linearGradient>
<linearGradient id="paint45_linear_2545_513" x1="931.085" y1="391.131" x2="947.638" y2="391.131" gradientUnits="userSpaceOnUse">
<stop stop-color="#FB00B5"/>
<stop offset="1" stop-color="#451493"/>
</linearGradient>
<linearGradient id="paint46_linear_2545_513" x1="931.085" y1="295.827" x2="947.638" y2="295.827" gradientUnits="userSpaceOnUse">
<stop stop-color="#FB00B5"/>
<stop offset="1" stop-color="#451493"/>
</linearGradient>
<linearGradient id="paint47_linear_2545_513" x1="931.085" y1="200.522" x2="947.638" y2="200.522" gradientUnits="userSpaceOnUse">
<stop stop-color="#FB00B5"/>
<stop offset="1" stop-color="#451493"/>
</linearGradient>
<linearGradient id="paint48_linear_2545_513" x1="931.085" y1="105.217" x2="947.638" y2="105.217" gradientUnits="userSpaceOnUse">
<stop stop-color="#FB00B5"/>
<stop offset="1" stop-color="#451493"/>
</linearGradient>
<linearGradient id="paint49_linear_2545_513" x1="931.085" y1="9.91258" x2="947.638" y2="9.91258" gradientUnits="userSpaceOnUse">
<stop stop-color="#FB00B5"/>
<stop offset="1" stop-color="#451493"/>
</linearGradient>
<linearGradient id="paint50_linear_2545_513" x1="1034.54" y1="391.131" x2="1051.09" y2="391.131" gradientUnits="userSpaceOnUse">
<stop stop-color="#FB00B5"/>
<stop offset="1" stop-color="#451493"/>
</linearGradient>
<linearGradient id="paint51_linear_2545_513" x1="1034.54" y1="295.827" x2="1051.09" y2="295.827" gradientUnits="userSpaceOnUse">
<stop stop-color="#FB00B5"/>
<stop offset="1" stop-color="#451493"/>
</linearGradient>
<linearGradient id="paint52_linear_2545_513" x1="1034.54" y1="200.522" x2="1051.09" y2="200.522" gradientUnits="userSpaceOnUse">
<stop stop-color="#FB00B5"/>
<stop offset="1" stop-color="#451493"/>
</linearGradient>
<linearGradient id="paint53_linear_2545_513" x1="1034.54" y1="105.217" x2="1051.09" y2="105.217" gradientUnits="userSpaceOnUse">
<stop stop-color="#FB00B5"/>
<stop offset="1" stop-color="#451493"/>
</linearGradient>
<linearGradient id="paint54_linear_2545_513" x1="1034.54" y1="9.91258" x2="1051.09" y2="9.91258" gradientUnits="userSpaceOnUse">
<stop stop-color="#FB00B5"/>
<stop offset="1" stop-color="#451493"/>
</linearGradient>
<linearGradient id="paint55_linear_2545_513" x1="1137.99" y1="391.131" x2="1154.55" y2="391.131" gradientUnits="userSpaceOnUse">
<stop stop-color="#FB00B5"/>
<stop offset="1" stop-color="#451493"/>
</linearGradient>
<linearGradient id="paint56_linear_2545_513" x1="1137.99" y1="295.827" x2="1154.55" y2="295.827" gradientUnits="userSpaceOnUse">
<stop stop-color="#FB00B5"/>
<stop offset="1" stop-color="#451493"/>
</linearGradient>
<linearGradient id="paint57_linear_2545_513" x1="1137.99" y1="200.522" x2="1154.55" y2="200.522" gradientUnits="userSpaceOnUse">
<stop stop-color="#FB00B5"/>
<stop offset="1" stop-color="#451493"/>
</linearGradient>
<linearGradient id="paint58_linear_2545_513" x1="1137.99" y1="105.217" x2="1154.55" y2="105.217" gradientUnits="userSpaceOnUse">
<stop stop-color="#FB00B5"/>
<stop offset="1" stop-color="#451493"/>
</linearGradient>
<linearGradient id="paint59_linear_2545_513" x1="1137.99" y1="9.91258" x2="1154.55" y2="9.91258" gradientUnits="userSpaceOnUse">
<stop stop-color="#FB00B5"/>
<stop offset="1" stop-color="#451493"/>
</linearGradient>
<linearGradient id="paint60_linear_2545_513" x1="1241.45" y1="391.131" x2="1258" y2="391.131" gradientUnits="userSpaceOnUse">
<stop stop-color="#FB00B5"/>
<stop offset="1" stop-color="#451493"/>
</linearGradient>
<linearGradient id="paint61_linear_2545_513" x1="1241.45" y1="295.827" x2="1258" y2="295.827" gradientUnits="userSpaceOnUse">
<stop stop-color="#FB00B5"/>
<stop offset="1" stop-color="#451493"/>
</linearGradient>
<linearGradient id="paint62_linear_2545_513" x1="1241.45" y1="200.522" x2="1258" y2="200.522" gradientUnits="userSpaceOnUse">
<stop stop-color="#FB00B5"/>
<stop offset="1" stop-color="#451493"/>
</linearGradient>
<linearGradient id="paint63_linear_2545_513" x1="1241.45" y1="105.217" x2="1258" y2="105.217" gradientUnits="userSpaceOnUse">
<stop stop-color="#FB00B5"/>
<stop offset="1" stop-color="#451493"/>
</linearGradient>
<linearGradient id="paint64_linear_2545_513" x1="1241.45" y1="9.91258" x2="1258" y2="9.91258" gradientUnits="userSpaceOnUse">
<stop stop-color="#FB00B5"/>
<stop offset="1" stop-color="#451493"/>
</linearGradient>
</defs>
</svg>
