<svg width="391" height="278" viewBox="0 0 391 278" fill="none" xmlns="http://www.w3.org/2000/svg">
<rect width="391" height="278" rx="28" fill="white"/>
<path d="M59.0653 89H56.6648L63.608 70.0909H65.9716L72.9148 89H70.5142L64.8636 73.0824H64.7159L59.0653 89ZM59.9517 81.6136H69.6278V83.6449H59.9517V81.6136ZM84.5021 83.2017V74.8182H86.6811V89H84.5021V86.5994H84.3544C84.022 87.3196 83.505 87.9321 82.8033 88.4368C82.1016 88.9354 81.2152 89.1847 80.1442 89.1847C79.2578 89.1847 78.4699 88.9908 77.7805 88.603C77.0911 88.209 76.5495 87.6181 76.1555 86.8303C75.7616 86.0362 75.5646 85.036 75.5646 83.8295V74.8182H77.7436V83.6818C77.7436 84.7159 78.0329 85.5407 78.6115 86.1562C79.1963 86.7718 79.9411 87.0795 80.8459 87.0795C81.3875 87.0795 81.9384 86.9411 82.4986 86.6641C83.0649 86.3871 83.5388 85.9624 83.9205 85.3899C84.3082 84.8175 84.5021 84.0881 84.5021 83.2017ZM96.8397 74.8182V76.6648H89.4902V74.8182H96.8397ZM91.6323 71.4205H93.8113V84.9375C93.8113 85.553 93.9005 86.0147 94.079 86.3224C94.2637 86.6241 94.4976 86.8272 94.7807 86.9318C95.07 87.0303 95.3747 87.0795 95.6948 87.0795C95.9348 87.0795 96.1318 87.0672 96.2857 87.0426C96.4396 87.0118 96.5627 86.9872 96.655 86.9688L97.0982 88.9261C96.9505 88.9815 96.7443 89.0369 96.4796 89.0923C96.2149 89.1539 95.8794 89.1847 95.4732 89.1847C94.8577 89.1847 94.2544 89.0523 93.6635 88.7876C93.0788 88.523 92.5925 88.1198 92.2047 87.5781C91.8231 87.0365 91.6323 86.3532 91.6323 85.5284V71.4205ZM102.601 80.4688V89H100.422V70.0909H102.601V77.0341H102.786C103.118 76.3016 103.617 75.7199 104.281 75.2891C104.952 74.852 105.845 74.6335 106.959 74.6335C107.925 74.6335 108.772 74.8274 109.498 75.2152C110.224 75.5968 110.788 76.1847 111.188 76.9787C111.594 77.7666 111.797 78.7699 111.797 79.9886V89H109.618V80.1364C109.618 79.0099 109.326 78.139 108.741 77.5234C108.162 76.9018 107.359 76.5909 106.331 76.5909C105.617 76.5909 104.977 76.7417 104.411 77.0433C103.851 77.3449 103.407 77.785 103.081 78.3636C102.761 78.9422 102.601 79.6439 102.601 80.4688ZM121.729 89.2955C120.363 89.2955 119.184 88.9938 118.193 88.3906C117.208 87.7812 116.448 86.9318 115.913 85.8423C115.383 84.7467 115.119 83.4725 115.119 82.0199C115.119 80.5672 115.383 79.2869 115.913 78.179C116.448 77.0649 117.193 76.197 118.147 75.5753C119.107 74.9474 120.228 74.6335 121.508 74.6335C122.246 74.6335 122.976 74.7566 123.696 75.0028C124.416 75.2491 125.072 75.6491 125.663 76.2031C126.254 76.7509 126.724 77.4773 127.075 78.3821C127.426 79.2869 127.602 80.401 127.602 81.7244V82.6477H116.67V80.7642H125.386C125.386 79.964 125.226 79.25 124.906 78.6222C124.592 77.9943 124.142 77.4988 123.558 77.1357C122.979 76.7725 122.296 76.5909 121.508 76.5909C120.64 76.5909 119.889 76.8063 119.255 77.2372C118.627 77.6619 118.144 78.2159 117.805 78.8991C117.467 79.5824 117.298 80.3149 117.298 81.0966V82.3523C117.298 83.4233 117.482 84.3312 117.852 85.076C118.227 85.8146 118.747 86.3778 119.412 86.7656C120.077 87.1473 120.849 87.3381 121.729 87.3381C122.302 87.3381 122.819 87.258 123.281 87.098C123.748 86.9318 124.152 86.6856 124.49 86.3594C124.829 86.027 125.09 85.6146 125.275 85.1222L127.38 85.7131C127.158 86.4271 126.786 87.0549 126.263 87.5966C125.74 88.1321 125.093 88.5507 124.324 88.8523C123.554 89.1477 122.69 89.2955 121.729 89.2955ZM133.095 80.4688V89H130.916V74.8182H133.021V77.0341H133.206C133.538 76.3139 134.043 75.7353 134.72 75.2983C135.397 74.8551 136.271 74.6335 137.342 74.6335C138.303 74.6335 139.143 74.8305 139.863 75.2244C140.583 75.6122 141.143 76.2031 141.543 76.9972C141.943 77.785 142.143 78.7822 142.143 79.9886V89H139.964V80.1364C139.964 79.0223 139.675 78.1544 139.097 77.5327C138.518 76.9048 137.724 76.5909 136.714 76.5909C136.019 76.5909 135.397 76.7417 134.849 77.0433C134.308 77.3449 133.88 77.785 133.566 78.3636C133.252 78.9422 133.095 79.6439 133.095 80.4688ZM152.293 74.8182V76.6648H144.943V74.8182H152.293ZM147.085 71.4205H149.264V84.9375C149.264 85.553 149.354 86.0147 149.532 86.3224C149.717 86.6241 149.951 86.8272 150.234 86.9318C150.523 87.0303 150.828 87.0795 151.148 87.0795C151.388 87.0795 151.585 87.0672 151.739 87.0426C151.893 87.0118 152.016 86.9872 152.108 86.9688L152.551 88.9261C152.404 88.9815 152.197 89.0369 151.933 89.0923C151.668 89.1539 151.333 89.1847 150.926 89.1847C150.311 89.1847 149.708 89.0523 149.117 88.7876C148.532 88.523 148.046 88.1198 147.658 87.5781C147.276 87.0365 147.085 86.3532 147.085 85.5284V71.4205ZM155.57 89V74.8182H157.749V89H155.57ZM156.678 72.4545C156.254 72.4545 155.887 72.3099 155.58 72.0206C155.278 71.7313 155.127 71.3835 155.127 70.9773C155.127 70.571 155.278 70.2232 155.58 69.9339C155.887 69.6446 156.254 69.5 156.678 69.5C157.103 69.5 157.466 69.6446 157.768 69.9339C158.076 70.2232 158.23 70.571 158.23 70.9773C158.23 71.3835 158.076 71.7313 157.768 72.0206C157.466 72.3099 157.103 72.4545 156.678 72.4545ZM167.502 89.2955C166.172 89.2955 165.027 88.9815 164.067 88.3537C163.107 87.7259 162.368 86.861 161.851 85.7592C161.334 84.6574 161.076 83.3987 161.076 81.983C161.076 80.5426 161.34 79.2715 161.87 78.1697C162.405 77.0618 163.15 76.197 164.104 75.5753C165.064 74.9474 166.185 74.6335 167.465 74.6335C168.462 74.6335 169.361 74.8182 170.161 75.1875C170.961 75.5568 171.617 76.0739 172.127 76.7386C172.638 77.4034 172.955 78.179 173.078 79.0653H170.9C170.733 78.419 170.364 77.8466 169.792 77.348C169.225 76.8433 168.462 76.5909 167.502 76.5909C166.652 76.5909 165.908 76.8125 165.267 77.2557C164.633 77.6927 164.138 78.3113 163.781 79.1115C163.43 79.9055 163.255 80.8381 163.255 81.9091C163.255 83.0047 163.427 83.9588 163.772 84.7713C164.123 85.5838 164.615 86.2147 165.249 86.6641C165.889 87.1134 166.64 87.3381 167.502 87.3381C168.068 87.3381 168.582 87.2396 169.044 87.0426C169.505 86.8456 169.896 86.5625 170.216 86.1932C170.536 85.8239 170.764 85.3807 170.9 84.8636H173.078C172.955 85.7008 172.651 86.4548 172.164 87.1257C171.684 87.7905 171.047 88.3198 170.253 88.7138C169.465 89.1016 168.548 89.2955 167.502 89.2955ZM180.437 89.3324C179.538 89.3324 178.723 89.1631 177.99 88.8246C177.258 88.4799 176.676 87.9844 176.245 87.3381C175.815 86.6856 175.599 85.8977 175.599 84.9744C175.599 84.1619 175.759 83.5033 176.079 82.9986C176.399 82.4877 176.827 82.0876 177.363 81.7983C177.898 81.509 178.489 81.2936 179.135 81.152C179.788 81.0043 180.443 80.8873 181.102 80.8011C181.964 80.6903 182.662 80.6072 183.198 80.5518C183.739 80.4903 184.133 80.3887 184.38 80.2472C184.632 80.1056 184.758 79.8594 184.758 79.5085V79.4347C184.758 78.5237 184.509 77.8158 184.01 77.3111C183.518 76.8063 182.77 76.554 181.767 76.554C180.726 76.554 179.911 76.7817 179.32 77.2372C178.729 77.6927 178.314 78.179 178.074 78.696L176.005 77.9574C176.375 77.0956 176.867 76.4247 177.483 75.9446C178.104 75.4583 178.781 75.1198 179.514 74.929C180.252 74.732 180.979 74.6335 181.693 74.6335C182.148 74.6335 182.672 74.6889 183.262 74.7997C183.859 74.9044 184.435 75.1229 184.989 75.4553C185.549 75.7876 186.014 76.2893 186.383 76.9602C186.752 77.6312 186.937 78.5298 186.937 79.6562V89H184.758V87.0795H184.647C184.5 87.3873 184.253 87.7166 183.909 88.0675C183.564 88.4183 183.105 88.7169 182.533 88.9631C181.961 89.2093 181.262 89.3324 180.437 89.3324ZM180.77 87.375C181.631 87.375 182.358 87.2057 182.949 86.8672C183.546 86.5286 183.995 86.0916 184.297 85.5561C184.604 85.0206 184.758 84.4574 184.758 83.8665V81.8722C184.666 81.983 184.463 82.0845 184.149 82.1768C183.841 82.263 183.484 82.34 183.078 82.4077C182.678 82.4692 182.287 82.5246 181.905 82.5739C181.53 82.617 181.225 82.6539 180.991 82.6847C180.425 82.7585 179.895 82.8786 179.403 83.0447C178.917 83.2048 178.523 83.4479 178.221 83.7741C177.926 84.0942 177.778 84.5312 177.778 85.0852C177.778 85.8423 178.058 86.4148 178.618 86.8026C179.185 87.1842 179.902 87.375 180.77 87.375ZM197.082 74.8182V76.6648H189.732V74.8182H197.082ZM191.874 71.4205H194.053V84.9375C194.053 85.553 194.143 86.0147 194.321 86.3224C194.506 86.6241 194.74 86.8272 195.023 86.9318C195.312 87.0303 195.617 87.0795 195.937 87.0795C196.177 87.0795 196.374 87.0672 196.528 87.0426C196.682 87.0118 196.805 86.9872 196.897 86.9688L197.34 88.9261C197.193 88.9815 196.986 89.0369 196.722 89.0923C196.457 89.1539 196.122 89.1847 195.715 89.1847C195.1 89.1847 194.497 89.0523 193.906 88.7876C193.321 88.523 192.835 88.1198 192.447 87.5781C192.065 87.0365 191.874 86.3532 191.874 85.5284V71.4205ZM200.36 89V74.8182H202.539V89H200.36ZM201.468 72.4545C201.043 72.4545 200.677 72.3099 200.369 72.0206C200.067 71.7313 199.916 71.3835 199.916 70.9773C199.916 70.571 200.067 70.2232 200.369 69.9339C200.677 69.6446 201.043 69.5 201.468 69.5C201.892 69.5 202.255 69.6446 202.557 69.9339C202.865 70.2232 203.019 70.571 203.019 70.9773C203.019 71.3835 202.865 71.7313 202.557 72.0206C202.255 72.3099 201.892 72.4545 201.468 72.4545ZM212.291 89.2955C211.011 89.2955 209.887 88.9908 208.921 88.3814C207.961 87.772 207.21 86.9195 206.668 85.8239C206.132 84.7282 205.865 83.4479 205.865 81.983C205.865 80.5057 206.132 79.2161 206.668 78.1143C207.21 77.0125 207.961 76.157 208.921 75.5476C209.887 74.9382 211.011 74.6335 212.291 74.6335C213.571 74.6335 214.691 74.9382 215.652 75.5476C216.618 76.157 217.369 77.0125 217.904 78.1143C218.446 79.2161 218.717 80.5057 218.717 81.983C218.717 83.4479 218.446 84.7282 217.904 85.8239C217.369 86.9195 216.618 87.772 215.652 88.3814C214.691 88.9908 213.571 89.2955 212.291 89.2955ZM212.291 87.3381C213.263 87.3381 214.064 87.0888 214.691 86.5902C215.319 86.0916 215.784 85.4361 216.086 84.6236C216.387 83.8111 216.538 82.9309 216.538 81.983C216.538 81.035 216.387 80.1518 216.086 79.3331C215.784 78.5144 215.319 77.8527 214.691 77.348C214.064 76.8433 213.263 76.5909 212.291 76.5909C211.318 76.5909 210.518 76.8433 209.89 77.348C209.262 77.8527 208.798 78.5144 208.496 79.3331C208.194 80.1518 208.044 81.035 208.044 81.983C208.044 82.9309 208.194 83.8111 208.496 84.6236C208.798 85.4361 209.262 86.0916 209.89 86.5902C210.518 87.0888 211.318 87.3381 212.291 87.3381ZM224.222 80.4688V89H222.043V74.8182H224.148V77.0341H224.333C224.665 76.3139 225.17 75.7353 225.847 75.2983C226.524 74.8551 227.398 74.6335 228.469 74.6335C229.43 74.6335 230.27 74.8305 230.99 75.2244C231.71 75.6122 232.27 76.2031 232.67 76.9972C233.07 77.785 233.27 78.7822 233.27 79.9886V89H231.091V80.1364C231.091 79.0223 230.802 78.1544 230.224 77.5327C229.645 76.9048 228.851 76.5909 227.841 76.5909C227.146 76.5909 226.524 76.7417 225.976 77.0433C225.435 77.3449 225.007 77.785 224.693 78.3636C224.379 78.9422 224.222 79.6439 224.222 80.4688ZM247.298 77.9943L245.34 78.5483C245.217 78.2221 245.036 77.9051 244.795 77.5973C244.562 77.2834 244.241 77.0249 243.835 76.8217C243.429 76.6186 242.909 76.517 242.275 76.517C241.407 76.517 240.684 76.7171 240.105 77.1172C239.533 77.5111 239.246 78.0128 239.246 78.6222C239.246 79.1638 239.443 79.5916 239.837 79.9055C240.231 80.2195 240.847 80.4811 241.684 80.6903L243.789 81.2074C245.057 81.5152 246.002 81.986 246.624 82.62C247.245 83.2479 247.556 84.0573 247.556 85.0483C247.556 85.8608 247.322 86.5871 246.854 87.2273C246.393 87.8674 245.746 88.3722 244.915 88.7415C244.085 89.1108 243.118 89.2955 242.016 89.2955C240.57 89.2955 239.373 88.9815 238.425 88.3537C237.477 87.7259 236.877 86.8087 236.624 85.6023L238.692 85.0852C238.889 85.8485 239.262 86.4209 239.81 86.8026C240.364 87.1842 241.087 87.375 241.979 87.375C242.995 87.375 243.801 87.1596 244.398 86.7287C245.002 86.2917 245.303 85.7685 245.303 85.1591C245.303 84.6667 245.131 84.2543 244.786 83.9219C244.442 83.5833 243.912 83.331 243.198 83.1648L240.835 82.6108C239.536 82.303 238.582 81.826 237.972 81.1797C237.369 80.5272 237.067 79.7116 237.067 78.733C237.067 77.9328 237.292 77.2249 237.741 76.6094C238.197 75.9938 238.816 75.5107 239.597 75.1598C240.385 74.8089 241.278 74.6335 242.275 74.6335C243.678 74.6335 244.78 74.9413 245.58 75.5568C246.387 76.1723 246.959 76.9848 247.298 77.9943ZM59.0653 129H56.6648L63.608 110.091H65.9716L72.9148 129H70.5142L64.8636 113.082H64.7159L59.0653 129ZM59.9517 121.614H69.6278V123.645H59.9517V121.614ZM80.9197 129.295C79.7379 129.295 78.6946 128.997 77.7898 128.4C76.8849 127.797 76.1771 126.947 75.6662 125.852C75.1553 124.75 74.8999 123.448 74.8999 121.946C74.8999 120.456 75.1553 119.164 75.6662 118.068C76.1771 116.973 76.888 116.126 77.799 115.529C78.71 114.932 79.7625 114.634 80.9567 114.634C81.88 114.634 82.6094 114.787 83.1449 115.095C83.6866 115.397 84.099 115.741 84.3821 116.129C84.6714 116.511 84.8961 116.825 85.0561 117.071H85.2408V110.091H87.4197V129H85.3146V126.821H85.0561C84.8961 127.08 84.6683 127.406 84.3729 127.8C84.0774 128.187 83.6558 128.535 83.108 128.843C82.5601 129.145 81.8307 129.295 80.9197 129.295ZM81.2152 127.338C82.0893 127.338 82.8279 127.11 83.4311 126.655C84.0343 126.193 84.4929 125.556 84.8068 124.744C85.1207 123.925 85.2777 122.98 85.2777 121.909C85.2777 120.85 85.1238 119.924 84.8161 119.13C84.5083 118.33 84.0528 117.708 83.4496 117.265C82.8464 116.816 82.1016 116.591 81.2152 116.591C80.2919 116.591 79.5225 116.828 78.907 117.302C78.2976 117.77 77.839 118.407 77.5312 119.213C77.2296 120.013 77.0788 120.912 77.0788 121.909C77.0788 122.919 77.2327 123.836 77.5405 124.661C77.8544 125.479 78.3161 126.132 78.9254 126.618C79.541 127.098 80.3042 127.338 81.2152 127.338ZM97.0682 129.295C95.8864 129.295 94.843 128.997 93.9382 128.4C93.0334 127.797 92.3255 126.947 91.8146 125.852C91.3037 124.75 91.0483 123.448 91.0483 121.946C91.0483 120.456 91.3037 119.164 91.8146 118.068C92.3255 116.973 93.0365 116.126 93.9474 115.529C94.8584 114.932 95.911 114.634 97.1051 114.634C98.0284 114.634 98.7578 114.787 99.2933 115.095C99.835 115.397 100.247 115.741 100.531 116.129C100.82 116.511 101.045 116.825 101.205 117.071H101.389V110.091H103.568V129H101.463V126.821H101.205C101.045 127.08 100.817 127.406 100.521 127.8C100.226 128.187 99.8042 128.535 99.2564 128.843C98.7086 129.145 97.9792 129.295 97.0682 129.295ZM97.3636 127.338C98.2377 127.338 98.9763 127.11 99.5795 126.655C100.183 126.193 100.641 125.556 100.955 124.744C101.269 123.925 101.426 122.98 101.426 121.909C101.426 120.85 101.272 119.924 100.964 119.13C100.657 118.33 100.201 117.708 99.598 117.265C98.9948 116.816 98.25 116.591 97.3636 116.591C96.4403 116.591 95.6709 116.828 95.0554 117.302C94.446 117.77 93.9875 118.407 93.6797 119.213C93.3781 120.013 93.2273 120.912 93.2273 121.909C93.2273 122.919 93.3812 123.836 93.6889 124.661C94.0028 125.479 94.4645 126.132 95.0739 126.618C95.6894 127.098 96.4527 127.338 97.3636 127.338ZM124.112 123.202V114.818H126.29V129H124.112V126.599H123.964C123.631 127.32 123.114 127.932 122.413 128.437C121.711 128.935 120.825 129.185 119.754 129.185C118.867 129.185 118.079 128.991 117.39 128.603C116.701 128.209 116.159 127.618 115.765 126.83C115.371 126.036 115.174 125.036 115.174 123.83V114.818H117.353V123.682C117.353 124.716 117.642 125.541 118.221 126.156C118.806 126.772 119.55 127.08 120.455 127.08C120.997 127.08 121.548 126.941 122.108 126.664C122.674 126.387 123.148 125.962 123.53 125.39C123.918 124.817 124.112 124.088 124.112 123.202ZM130.281 134.318V114.818H132.387V117.071H132.645C132.805 116.825 133.027 116.511 133.31 116.129C133.599 115.741 134.012 115.397 134.547 115.095C135.089 114.787 135.821 114.634 136.744 114.634C137.939 114.634 138.991 114.932 139.902 115.529C140.813 116.126 141.524 116.973 142.035 118.068C142.546 119.164 142.801 120.456 142.801 121.946C142.801 123.448 142.546 124.75 142.035 125.852C141.524 126.947 140.816 127.797 139.911 128.4C139.007 128.997 137.963 129.295 136.781 129.295C135.87 129.295 135.141 129.145 134.593 128.843C134.045 128.535 133.624 128.187 133.328 127.8C133.033 127.406 132.805 127.08 132.645 126.821H132.46V134.318H130.281ZM132.423 121.909C132.423 122.98 132.58 123.925 132.894 124.744C133.208 125.556 133.667 126.193 134.27 126.655C134.873 127.11 135.612 127.338 136.486 127.338C137.397 127.338 138.157 127.098 138.767 126.618C139.382 126.132 139.844 125.479 140.151 124.661C140.465 123.836 140.622 122.919 140.622 121.909C140.622 120.912 140.468 120.013 140.161 119.213C139.859 118.407 139.401 117.77 138.785 117.302C138.176 116.828 137.409 116.591 136.486 116.591C135.6 116.591 134.855 116.816 134.252 117.265C133.648 117.708 133.193 118.33 132.885 119.13C132.577 119.924 132.423 120.85 132.423 121.909ZM152.293 114.818V116.665H144.943V114.818H152.293ZM147.085 111.42H149.264V124.938C149.264 125.553 149.354 126.015 149.532 126.322C149.717 126.624 149.951 126.827 150.234 126.932C150.523 127.03 150.828 127.08 151.148 127.08C151.388 127.08 151.585 127.067 151.739 127.043C151.893 127.012 152.016 126.987 152.108 126.969L152.551 128.926C152.404 128.982 152.197 129.037 151.933 129.092C151.668 129.154 151.333 129.185 150.926 129.185C150.311 129.185 149.708 129.052 149.117 128.788C148.532 128.523 148.046 128.12 147.658 127.578C147.276 127.036 147.085 126.353 147.085 125.528V111.42ZM161.18 129.295C159.899 129.295 158.776 128.991 157.809 128.381C156.849 127.772 156.098 126.92 155.557 125.824C155.021 124.728 154.753 123.448 154.753 121.983C154.753 120.506 155.021 119.216 155.557 118.114C156.098 117.013 156.849 116.157 157.809 115.548C158.776 114.938 159.899 114.634 161.18 114.634C162.46 114.634 163.58 114.938 164.54 115.548C165.507 116.157 166.258 117.013 166.793 118.114C167.335 119.216 167.606 120.506 167.606 121.983C167.606 123.448 167.335 124.728 166.793 125.824C166.258 126.92 165.507 127.772 164.54 128.381C163.58 128.991 162.46 129.295 161.18 129.295ZM161.18 127.338C162.152 127.338 162.952 127.089 163.58 126.59C164.208 126.092 164.673 125.436 164.974 124.624C165.276 123.811 165.427 122.931 165.427 121.983C165.427 121.035 165.276 120.152 164.974 119.333C164.673 118.514 164.208 117.853 163.58 117.348C162.952 116.843 162.152 116.591 161.18 116.591C160.207 116.591 159.407 116.843 158.779 117.348C158.151 117.853 157.686 118.514 157.385 119.333C157.083 120.152 156.932 121.035 156.932 121.983C156.932 122.931 157.083 123.811 157.385 124.624C157.686 125.436 158.151 126.092 158.779 126.59C159.407 127.089 160.207 127.338 161.18 127.338ZM184.855 110.091V129H182.565V112.491H182.455L177.838 115.557V113.23L182.565 110.091H184.855ZM196.461 129.259C195.07 129.259 193.885 128.88 192.906 128.123C191.928 127.36 191.18 126.255 190.663 124.808C190.146 123.356 189.887 121.601 189.887 119.545C189.887 117.502 190.146 115.757 190.663 114.31C191.186 112.858 191.937 111.75 192.915 110.987C193.9 110.217 195.082 109.832 196.461 109.832C197.84 109.832 199.018 110.217 199.997 110.987C200.982 111.75 201.733 112.858 202.25 114.31C202.773 115.757 203.035 117.502 203.035 119.545C203.035 121.601 202.776 123.356 202.259 124.808C201.742 126.255 200.994 127.36 200.016 128.123C199.037 128.88 197.852 129.259 196.461 129.259ZM196.461 127.227C197.84 127.227 198.911 126.562 199.674 125.233C200.437 123.903 200.819 122.008 200.819 119.545C200.819 117.908 200.643 116.514 200.293 115.363C199.948 114.212 199.449 113.335 198.797 112.732C198.151 112.128 197.372 111.827 196.461 111.827C195.094 111.827 194.027 112.501 193.257 113.849C192.488 115.191 192.103 117.089 192.103 119.545C192.103 121.183 192.275 122.574 192.62 123.719C192.965 124.864 193.46 125.735 194.107 126.332C194.759 126.929 195.544 127.227 196.461 127.227ZM222.83 123.202V114.818H225.009V129H222.83V126.599H222.683C222.35 127.32 221.833 127.932 221.131 128.437C220.43 128.935 219.543 129.185 218.472 129.185C217.586 129.185 216.798 128.991 216.109 128.603C215.419 128.209 214.878 127.618 214.484 126.83C214.09 126.036 213.893 125.036 213.893 123.83V114.818H216.072V123.682C216.072 124.716 216.361 125.541 216.94 126.156C217.524 126.772 218.269 127.08 219.174 127.08C219.716 127.08 220.267 126.941 220.827 126.664C221.393 126.387 221.867 125.962 222.249 125.39C222.636 124.817 222.83 124.088 222.83 123.202ZM239.046 117.994L237.088 118.548C236.965 118.222 236.784 117.905 236.544 117.597C236.31 117.283 235.99 117.025 235.583 116.822C235.177 116.619 234.657 116.517 234.023 116.517C233.155 116.517 232.432 116.717 231.853 117.117C231.281 117.511 230.994 118.013 230.994 118.622C230.994 119.164 231.191 119.592 231.585 119.906C231.979 120.219 232.595 120.481 233.432 120.69L235.537 121.207C236.805 121.515 237.75 121.986 238.372 122.62C238.993 123.248 239.304 124.057 239.304 125.048C239.304 125.861 239.07 126.587 238.602 127.227C238.141 127.867 237.494 128.372 236.664 128.741C235.833 129.111 234.866 129.295 233.764 129.295C232.318 129.295 231.121 128.982 230.173 128.354C229.225 127.726 228.625 126.809 228.372 125.602L230.441 125.085C230.637 125.848 231.01 126.421 231.558 126.803C232.112 127.184 232.835 127.375 233.727 127.375C234.743 127.375 235.549 127.16 236.146 126.729C236.75 126.292 237.051 125.768 237.051 125.159C237.051 124.667 236.879 124.254 236.534 123.922C236.19 123.583 235.66 123.331 234.946 123.165L232.583 122.611C231.284 122.303 230.33 121.826 229.72 121.18C229.117 120.527 228.816 119.712 228.816 118.733C228.816 117.933 229.04 117.225 229.49 116.609C229.945 115.994 230.564 115.511 231.345 115.16C232.133 114.809 233.026 114.634 234.023 114.634C235.426 114.634 236.528 114.941 237.328 115.557C238.135 116.172 238.707 116.985 239.046 117.994ZM248.53 129.295C247.164 129.295 245.985 128.994 244.994 128.391C244.009 127.781 243.249 126.932 242.713 125.842C242.184 124.747 241.919 123.473 241.919 122.02C241.919 120.567 242.184 119.287 242.713 118.179C243.249 117.065 243.994 116.197 244.948 115.575C245.908 114.947 247.028 114.634 248.309 114.634C249.047 114.634 249.777 114.757 250.497 115.003C251.217 115.249 251.873 115.649 252.463 116.203C253.054 116.751 253.525 117.477 253.876 118.382C254.227 119.287 254.402 120.401 254.402 121.724V122.648H243.471V120.764H252.186C252.186 119.964 252.026 119.25 251.706 118.622C251.392 117.994 250.943 117.499 250.358 117.136C249.78 116.772 249.096 116.591 248.309 116.591C247.441 116.591 246.69 116.806 246.056 117.237C245.428 117.662 244.945 118.216 244.606 118.899C244.268 119.582 244.098 120.315 244.098 121.097V122.352C244.098 123.423 244.283 124.331 244.652 125.076C245.028 125.815 245.548 126.378 246.213 126.766C246.877 127.147 247.65 127.338 248.53 127.338C249.103 127.338 249.62 127.258 250.081 127.098C250.549 126.932 250.952 126.686 251.291 126.359C251.629 126.027 251.891 125.615 252.076 125.122L254.181 125.713C253.959 126.427 253.587 127.055 253.064 127.597C252.54 128.132 251.894 128.551 251.125 128.852C250.355 129.148 249.49 129.295 248.53 129.295ZM257.717 129V114.818H259.822V116.96H259.97C260.228 116.259 260.696 115.689 261.373 115.252C262.05 114.815 262.814 114.597 263.663 114.597C263.823 114.597 264.023 114.6 264.263 114.606C264.503 114.612 264.685 114.621 264.808 114.634V116.849C264.734 116.831 264.565 116.803 264.3 116.766C264.042 116.723 263.768 116.702 263.478 116.702C262.789 116.702 262.173 116.846 261.632 117.136C261.096 117.419 260.672 117.813 260.358 118.317C260.05 118.816 259.896 119.385 259.896 120.026V129H257.717ZM277.436 117.994L275.479 118.548C275.356 118.222 275.174 117.905 274.934 117.597C274.7 117.283 274.38 117.025 273.974 116.822C273.568 116.619 273.048 116.517 272.414 116.517C271.546 116.517 270.822 116.717 270.244 117.117C269.671 117.511 269.385 118.013 269.385 118.622C269.385 119.164 269.582 119.592 269.976 119.906C270.37 120.219 270.985 120.481 271.823 120.69L273.928 121.207C275.196 121.515 276.141 121.986 276.762 122.62C277.384 123.248 277.695 124.057 277.695 125.048C277.695 125.861 277.461 126.587 276.993 127.227C276.531 127.867 275.885 128.372 275.054 128.741C274.223 129.111 273.257 129.295 272.155 129.295C270.709 129.295 269.511 128.982 268.563 128.354C267.615 127.726 267.015 126.809 266.763 125.602L268.831 125.085C269.028 125.848 269.401 126.421 269.948 126.803C270.502 127.184 271.226 127.375 272.118 127.375C273.134 127.375 273.94 127.16 274.537 126.729C275.14 126.292 275.442 125.768 275.442 125.159C275.442 124.667 275.27 124.254 274.925 123.922C274.58 123.583 274.051 123.331 273.337 123.165L270.973 122.611C269.674 122.303 268.72 121.826 268.111 121.18C267.508 120.527 267.206 119.712 267.206 118.733C267.206 117.933 267.431 117.225 267.88 116.609C268.336 115.994 268.954 115.511 269.736 115.16C270.524 114.809 271.416 114.634 272.414 114.634C273.817 114.634 274.919 114.941 275.719 115.557C276.525 116.172 277.098 116.985 277.436 117.994ZM73.2841 150.091V169H71.0682L60.7642 154.153H60.5795V169H58.2898V150.091H60.5057L70.8466 164.974H71.0312V150.091H73.2841ZM83.3319 169.295C82.0516 169.295 80.9282 168.991 79.9618 168.381C79.0016 167.772 78.2507 166.92 77.709 165.824C77.1735 164.728 76.9057 163.448 76.9057 161.983C76.9057 160.506 77.1735 159.216 77.709 158.114C78.2507 157.013 79.0016 156.157 79.9618 155.548C80.9282 154.938 82.0516 154.634 83.3319 154.634C84.6122 154.634 85.7324 154.938 86.6926 155.548C87.659 156.157 88.41 157.013 88.9455 158.114C89.4872 159.216 89.758 160.506 89.758 161.983C89.758 163.448 89.4872 164.728 88.9455 165.824C88.41 166.92 87.659 167.772 86.6926 168.381C85.7324 168.991 84.6122 169.295 83.3319 169.295ZM83.3319 167.338C84.3044 167.338 85.1046 167.089 85.7324 166.59C86.3603 166.092 86.825 165.436 87.1266 164.624C87.4282 163.811 87.579 162.931 87.579 161.983C87.579 161.035 87.4282 160.152 87.1266 159.333C86.825 158.514 86.3603 157.853 85.7324 157.348C85.1046 156.843 84.3044 156.591 83.3319 156.591C82.3593 156.591 81.5591 156.843 80.9313 157.348C80.3034 157.853 79.8387 158.514 79.5371 159.333C79.2355 160.152 79.0847 161.035 79.0847 161.983C79.0847 162.931 79.2355 163.811 79.5371 164.624C79.8387 165.436 80.3034 166.092 80.9313 166.59C81.5591 167.089 82.3593 167.338 83.3319 167.338ZM99.2518 154.818V156.665H91.9023V154.818H99.2518ZM94.0444 151.42H96.2234V164.938C96.2234 165.553 96.3126 166.015 96.4911 166.322C96.6758 166.624 96.9097 166.827 97.1928 166.932C97.4821 167.03 97.7868 167.08 98.1069 167.08C98.3469 167.08 98.5439 167.067 98.6978 167.043C98.8517 167.012 98.9748 166.987 99.0671 166.969L99.5103 168.926C99.3626 168.982 99.1564 169.037 98.8917 169.092C98.627 169.154 98.2915 169.185 97.8853 169.185C97.2698 169.185 96.6665 169.052 96.0756 168.788C95.4909 168.523 95.0046 168.12 94.6168 167.578C94.2352 167.036 94.0444 166.353 94.0444 165.528V151.42ZM102.529 169V154.818H104.708V169H102.529ZM103.637 152.455C103.213 152.455 102.846 152.31 102.539 152.021C102.237 151.731 102.086 151.384 102.086 150.977C102.086 150.571 102.237 150.223 102.539 149.934C102.846 149.645 103.213 149.5 103.637 149.5C104.062 149.5 104.425 149.645 104.727 149.934C105.035 150.223 105.189 150.571 105.189 150.977C105.189 151.384 105.035 151.731 104.727 152.021C104.425 152.31 104.062 152.455 103.637 152.455ZM115.015 154.818V156.665H107.37V154.818H115.015ZM109.66 169V152.861C109.66 152.048 109.85 151.371 110.232 150.83C110.614 150.288 111.109 149.882 111.719 149.611C112.328 149.34 112.971 149.205 113.648 149.205C114.184 149.205 114.621 149.248 114.959 149.334C115.298 149.42 115.55 149.5 115.716 149.574L115.089 151.457C114.978 151.42 114.824 151.374 114.627 151.319C114.436 151.263 114.184 151.236 113.87 151.236C113.15 151.236 112.63 151.417 112.309 151.781C111.996 152.144 111.839 152.676 111.839 153.378V169H109.66ZM118.069 169V154.818H120.248V169H118.069ZM119.176 152.455C118.752 152.455 118.386 152.31 118.078 152.021C117.776 151.731 117.625 151.384 117.625 150.977C117.625 150.571 117.776 150.223 118.078 149.934C118.386 149.645 118.752 149.5 119.176 149.5C119.601 149.5 119.964 149.645 120.266 149.934C120.574 150.223 120.728 150.571 120.728 150.977C120.728 151.384 120.574 151.731 120.266 152.021C119.964 152.31 119.601 152.455 119.176 152.455ZM130 169.295C128.67 169.295 127.525 168.982 126.565 168.354C125.605 167.726 124.866 166.861 124.349 165.759C123.832 164.657 123.574 163.399 123.574 161.983C123.574 160.543 123.838 159.272 124.368 158.17C124.903 157.062 125.648 156.197 126.602 155.575C127.562 154.947 128.683 154.634 129.963 154.634C130.96 154.634 131.859 154.818 132.659 155.188C133.459 155.557 134.115 156.074 134.626 156.739C135.136 157.403 135.453 158.179 135.577 159.065H133.398C133.231 158.419 132.862 157.847 132.29 157.348C131.723 156.843 130.96 156.591 130 156.591C129.15 156.591 128.406 156.812 127.765 157.256C127.131 157.693 126.636 158.311 126.279 159.112C125.928 159.906 125.753 160.838 125.753 161.909C125.753 163.005 125.925 163.959 126.27 164.771C126.621 165.584 127.113 166.215 127.747 166.664C128.387 167.113 129.138 167.338 130 167.338C130.566 167.338 131.08 167.24 131.542 167.043C132.003 166.846 132.394 166.562 132.714 166.193C133.034 165.824 133.262 165.381 133.398 164.864H135.577C135.453 165.701 135.149 166.455 134.662 167.126C134.182 167.79 133.545 168.32 132.751 168.714C131.963 169.102 131.046 169.295 130 169.295ZM142.935 169.332C142.037 169.332 141.221 169.163 140.488 168.825C139.756 168.48 139.174 167.984 138.743 167.338C138.313 166.686 138.097 165.898 138.097 164.974C138.097 164.162 138.257 163.503 138.577 162.999C138.897 162.488 139.325 162.088 139.861 161.798C140.396 161.509 140.987 161.294 141.633 161.152C142.286 161.004 142.941 160.887 143.6 160.801C144.462 160.69 145.16 160.607 145.696 160.552C146.238 160.49 146.631 160.389 146.878 160.247C147.13 160.106 147.256 159.859 147.256 159.509V159.435C147.256 158.524 147.007 157.816 146.508 157.311C146.016 156.806 145.268 156.554 144.265 156.554C143.224 156.554 142.409 156.782 141.818 157.237C141.227 157.693 140.812 158.179 140.572 158.696L138.503 157.957C138.873 157.096 139.365 156.425 139.981 155.945C140.602 155.458 141.279 155.12 142.012 154.929C142.751 154.732 143.477 154.634 144.191 154.634C144.646 154.634 145.17 154.689 145.76 154.8C146.358 154.904 146.933 155.123 147.487 155.455C148.047 155.788 148.512 156.289 148.881 156.96C149.251 157.631 149.435 158.53 149.435 159.656V169H147.256V167.08H147.145C146.998 167.387 146.751 167.717 146.407 168.067C146.062 168.418 145.604 168.717 145.031 168.963C144.459 169.209 143.76 169.332 142.935 169.332ZM143.268 167.375C144.129 167.375 144.856 167.206 145.447 166.867C146.044 166.529 146.493 166.092 146.795 165.556C147.102 165.021 147.256 164.457 147.256 163.866V161.872C147.164 161.983 146.961 162.085 146.647 162.177C146.339 162.263 145.982 162.34 145.576 162.408C145.176 162.469 144.785 162.525 144.403 162.574C144.028 162.617 143.723 162.654 143.489 162.685C142.923 162.759 142.394 162.879 141.901 163.045C141.415 163.205 141.021 163.448 140.719 163.774C140.424 164.094 140.276 164.531 140.276 165.085C140.276 165.842 140.556 166.415 141.116 166.803C141.683 167.184 142.4 167.375 143.268 167.375ZM159.58 154.818V156.665H152.23V154.818H159.58ZM154.373 151.42H156.551V164.938C156.551 165.553 156.641 166.015 156.819 166.322C157.004 166.624 157.238 166.827 157.521 166.932C157.81 167.03 158.115 167.08 158.435 167.08C158.675 167.08 158.872 167.067 159.026 167.043C159.18 167.012 159.303 166.987 159.395 166.969L159.838 168.926C159.691 168.982 159.484 169.037 159.22 169.092C158.955 169.154 158.62 169.185 158.213 169.185C157.598 169.185 156.995 169.052 156.404 168.788C155.819 168.523 155.333 168.12 154.945 167.578C154.563 167.036 154.373 166.353 154.373 165.528V151.42ZM162.858 169V154.818H165.037V169H162.858ZM163.966 152.455C163.541 152.455 163.175 152.31 162.867 152.021C162.565 151.731 162.414 151.384 162.414 150.977C162.414 150.571 162.565 150.223 162.867 149.934C163.175 149.645 163.541 149.5 163.966 149.5C164.39 149.5 164.753 149.645 165.055 149.934C165.363 150.223 165.517 150.571 165.517 150.977C165.517 151.384 165.363 151.731 165.055 152.021C164.753 152.31 164.39 152.455 163.966 152.455ZM174.789 169.295C173.509 169.295 172.385 168.991 171.419 168.381C170.459 167.772 169.708 166.92 169.166 165.824C168.631 164.728 168.363 163.448 168.363 161.983C168.363 160.506 168.631 159.216 169.166 158.114C169.708 157.013 170.459 156.157 171.419 155.548C172.385 154.938 173.509 154.634 174.789 154.634C176.069 154.634 177.189 154.938 178.15 155.548C179.116 156.157 179.867 157.013 180.403 158.114C180.944 159.216 181.215 160.506 181.215 161.983C181.215 163.448 180.944 164.728 180.403 165.824C179.867 166.92 179.116 167.772 178.15 168.381C177.189 168.991 176.069 169.295 174.789 169.295ZM174.789 167.338C175.761 167.338 176.562 167.089 177.189 166.59C177.817 166.092 178.282 165.436 178.584 164.624C178.885 163.811 179.036 162.931 179.036 161.983C179.036 161.035 178.885 160.152 178.584 159.333C178.282 158.514 177.817 157.853 177.189 157.348C176.562 156.843 175.761 156.591 174.789 156.591C173.816 156.591 173.016 156.843 172.388 157.348C171.76 157.853 171.296 158.514 170.994 159.333C170.693 160.152 170.542 161.035 170.542 161.983C170.542 162.931 170.693 163.811 170.994 164.624C171.296 165.436 171.76 166.092 172.388 166.59C173.016 167.089 173.816 167.338 174.789 167.338ZM186.72 160.469V169H184.541V154.818H186.646V157.034H186.831C187.163 156.314 187.668 155.735 188.345 155.298C189.022 154.855 189.896 154.634 190.967 154.634C191.928 154.634 192.768 154.83 193.488 155.224C194.208 155.612 194.768 156.203 195.168 156.997C195.568 157.785 195.768 158.782 195.768 159.989V169H193.589V160.136C193.589 159.022 193.3 158.154 192.722 157.533C192.143 156.905 191.349 156.591 190.339 156.591C189.644 156.591 189.022 156.742 188.474 157.043C187.933 157.345 187.505 157.785 187.191 158.364C186.877 158.942 186.72 159.644 186.72 160.469ZM207.838 159.545C207.838 157.219 208.14 155.08 208.743 153.129C209.352 151.171 210.22 149.371 211.347 147.727H213.267C212.824 148.337 212.409 149.088 212.021 149.98C211.639 150.866 211.304 151.842 211.014 152.907C210.725 153.966 210.497 155.061 210.331 156.194C210.171 157.326 210.091 158.444 210.091 159.545C210.091 161.01 210.233 162.497 210.516 164.005C210.799 165.513 211.181 166.913 211.661 168.206C212.141 169.499 212.676 170.551 213.267 171.364H211.347C210.22 169.72 209.352 167.923 208.743 165.972C208.14 164.014 207.838 161.872 207.838 159.545ZM216.778 169V150.091H228.19V152.122H219.068V158.511H227.599V160.543H219.068V166.969H228.338V169H216.778ZM232.022 169V154.818H234.127V157.034H234.311C234.607 156.277 235.084 155.689 235.743 155.271C236.401 154.846 237.192 154.634 238.115 154.634C239.051 154.634 239.83 154.846 240.451 155.271C241.079 155.689 241.569 156.277 241.919 157.034H242.067C242.43 156.302 242.975 155.72 243.701 155.289C244.428 154.852 245.299 154.634 246.314 154.634C247.582 154.634 248.619 155.031 249.426 155.825C250.232 156.612 250.635 157.84 250.635 159.509V169H248.456V159.509C248.456 158.462 248.17 157.714 247.598 157.265C247.025 156.816 246.351 156.591 245.576 156.591C244.578 156.591 243.806 156.893 243.258 157.496C242.71 158.093 242.436 158.85 242.436 159.767V169H240.221V159.287C240.221 158.481 239.959 157.831 239.436 157.339C238.913 156.84 238.239 156.591 237.414 156.591C236.847 156.591 236.318 156.742 235.826 157.043C235.339 157.345 234.945 157.763 234.644 158.299C234.348 158.828 234.201 159.441 234.201 160.136V169H232.022ZM258.793 169.332C257.894 169.332 257.078 169.163 256.346 168.825C255.613 168.48 255.032 167.984 254.601 167.338C254.17 166.686 253.955 165.898 253.955 164.974C253.955 164.162 254.115 163.503 254.435 162.999C254.755 162.488 255.183 162.088 255.718 161.798C256.254 161.509 256.844 161.294 257.491 161.152C258.143 161.004 258.799 160.887 259.457 160.801C260.319 160.69 261.018 160.607 261.553 160.552C262.095 160.49 262.489 160.389 262.735 160.247C262.987 160.106 263.114 159.859 263.114 159.509V159.435C263.114 158.524 262.864 157.816 262.366 157.311C261.873 156.806 261.125 156.554 260.122 156.554C259.082 156.554 258.266 156.782 257.675 157.237C257.085 157.693 256.669 158.179 256.429 158.696L254.361 157.957C254.73 157.096 255.223 156.425 255.838 155.945C256.46 155.458 257.137 155.12 257.869 154.929C258.608 154.732 259.334 154.634 260.048 154.634C260.504 154.634 261.027 154.689 261.618 154.8C262.215 154.904 262.79 155.123 263.344 155.455C263.905 155.788 264.369 156.289 264.739 156.96C265.108 157.631 265.293 158.53 265.293 159.656V169H263.114V167.08H263.003C262.855 167.387 262.609 167.717 262.264 168.067C261.92 168.418 261.461 168.717 260.888 168.963C260.316 169.209 259.617 169.332 258.793 169.332ZM259.125 167.375C259.987 167.375 260.713 167.206 261.304 166.867C261.901 166.529 262.35 166.092 262.652 165.556C262.96 165.021 263.114 164.457 263.114 163.866V161.872C263.021 161.983 262.818 162.085 262.504 162.177C262.196 162.263 261.839 162.34 261.433 162.408C261.033 162.469 260.642 162.525 260.261 162.574C259.885 162.617 259.58 162.654 259.347 162.685C258.78 162.759 258.251 162.879 257.759 163.045C257.272 163.205 256.878 163.448 256.577 163.774C256.281 164.094 256.134 164.531 256.134 165.085C256.134 165.842 256.414 166.415 256.974 166.803C257.54 167.184 258.257 167.375 259.125 167.375ZM269.27 169V154.818H271.449V169H269.27ZM270.378 152.455C269.953 152.455 269.587 152.31 269.279 152.021C268.977 151.731 268.827 151.384 268.827 150.977C268.827 150.571 268.977 150.223 269.279 149.934C269.587 149.645 269.953 149.5 270.378 149.5C270.802 149.5 271.166 149.645 271.467 149.934C271.775 150.223 271.929 150.571 271.929 150.977C271.929 151.384 271.775 151.731 271.467 152.021C271.166 152.31 270.802 152.455 270.378 152.455ZM277.619 150.091V169H275.44V150.091H277.619ZM286.263 161.023C286.263 163.349 285.958 165.491 285.349 167.449C284.746 169.4 283.881 171.197 282.754 172.841H280.834C281.277 172.232 281.69 171.481 282.071 170.588C282.459 169.702 282.798 168.729 283.087 167.67C283.376 166.606 283.601 165.507 283.761 164.374C283.927 163.236 284.01 162.118 284.01 161.023C284.01 159.558 283.869 158.071 283.585 156.563C283.302 155.055 282.921 153.655 282.441 152.362C281.96 151.07 281.425 150.017 280.834 149.205H282.754C283.881 150.848 284.746 152.648 285.349 154.606C285.958 156.557 286.263 158.696 286.263 161.023ZM64.125 209H58.2898V190.091H64.3835C66.2178 190.091 67.7874 190.469 69.0923 191.227C70.3973 191.978 71.3975 193.058 72.093 194.467C72.7886 195.871 73.1364 197.551 73.1364 199.509C73.1364 201.478 72.7855 203.174 72.0838 204.596C71.3821 206.012 70.3603 207.101 69.0185 207.864C67.6766 208.621 66.0455 209 64.125 209ZM60.5795 206.969H63.9773C65.5407 206.969 66.8364 206.667 67.8643 206.064C68.8923 205.461 69.6586 204.602 70.1634 203.488C70.6681 202.374 70.9205 201.047 70.9205 199.509C70.9205 197.982 70.6712 196.668 70.1726 195.566C69.674 194.458 68.9292 193.609 67.9382 193.018C66.9472 192.421 65.7131 192.122 64.2358 192.122H60.5795V206.969ZM82.4432 209.295C81.1629 209.295 80.0395 208.991 79.0732 208.381C78.1129 207.772 77.362 206.92 76.8203 205.824C76.2848 204.728 76.017 203.448 76.017 201.983C76.017 200.506 76.2848 199.216 76.8203 198.114C77.362 197.013 78.1129 196.157 79.0732 195.548C80.0395 194.938 81.1629 194.634 82.4432 194.634C83.7235 194.634 84.8438 194.938 85.804 195.548C86.7704 196.157 87.5213 197.013 88.0568 198.114C88.5985 199.216 88.8693 200.506 88.8693 201.983C88.8693 203.448 88.5985 204.728 88.0568 205.824C87.5213 206.92 86.7704 207.772 85.804 208.381C84.8438 208.991 83.7235 209.295 82.4432 209.295ZM82.4432 207.338C83.4157 207.338 84.2159 207.089 84.8438 206.59C85.4716 206.092 85.9363 205.436 86.2379 204.624C86.5395 203.811 86.6903 202.931 86.6903 201.983C86.6903 201.035 86.5395 200.152 86.2379 199.333C85.9363 198.514 85.4716 197.853 84.8438 197.348C84.2159 196.843 83.4157 196.591 82.4432 196.591C81.4706 196.591 80.6705 196.843 80.0426 197.348C79.4148 197.853 78.95 198.514 78.6484 199.333C78.3468 200.152 78.196 201.035 78.196 201.983C78.196 202.931 78.3468 203.811 78.6484 204.624C78.95 205.436 79.4148 206.092 80.0426 206.59C80.6705 207.089 81.4706 207.338 82.4432 207.338ZM94.9261 209L90.6051 194.818H92.8949L95.9602 205.676H96.108L99.1364 194.818H101.463L104.455 205.639H104.602L107.668 194.818H109.957L105.636 209H103.494L100.392 198.105H100.17L97.0682 209H94.9261ZM115.017 200.469V209H112.838V194.818H114.943V197.034H115.128C115.46 196.314 115.965 195.735 116.642 195.298C117.319 194.855 118.193 194.634 119.264 194.634C120.224 194.634 121.065 194.83 121.785 195.224C122.505 195.612 123.065 196.203 123.465 196.997C123.865 197.785 124.065 198.782 124.065 199.989V209H121.886V200.136C121.886 199.022 121.597 198.154 121.018 197.533C120.44 196.905 119.646 196.591 118.636 196.591C117.941 196.591 117.319 196.742 116.771 197.043C116.23 197.345 115.802 197.785 115.488 198.364C115.174 198.942 115.017 199.644 115.017 200.469ZM130.226 190.091V209H128.047V190.091H130.226ZM139.978 209.295C138.698 209.295 137.575 208.991 136.608 208.381C135.648 207.772 134.897 206.92 134.355 205.824C133.82 204.728 133.552 203.448 133.552 201.983C133.552 200.506 133.82 199.216 134.355 198.114C134.897 197.013 135.648 196.157 136.608 195.548C137.575 194.938 138.698 194.634 139.978 194.634C141.259 194.634 142.379 194.938 143.339 195.548C144.306 196.157 145.056 197.013 145.592 198.114C146.134 199.216 146.404 200.506 146.404 201.983C146.404 203.448 146.134 204.728 145.592 205.824C145.056 206.92 144.306 207.772 143.339 208.381C142.379 208.991 141.259 209.295 139.978 209.295ZM139.978 207.338C140.951 207.338 141.751 207.089 142.379 206.59C143.007 206.092 143.471 205.436 143.773 204.624C144.075 203.811 144.225 202.931 144.225 201.983C144.225 201.035 144.075 200.152 143.773 199.333C143.471 198.514 143.007 197.853 142.379 197.348C141.751 196.843 140.951 196.591 139.978 196.591C139.006 196.591 138.206 196.843 137.578 197.348C136.95 197.853 136.485 198.514 136.184 199.333C135.882 200.152 135.731 201.035 135.731 201.983C135.731 202.931 135.882 203.811 136.184 204.624C136.485 205.436 136.95 206.092 137.578 206.59C138.206 207.089 139.006 207.338 139.978 207.338ZM153.904 209.332C153.005 209.332 152.19 209.163 151.457 208.825C150.725 208.48 150.143 207.984 149.712 207.338C149.281 206.686 149.066 205.898 149.066 204.974C149.066 204.162 149.226 203.503 149.546 202.999C149.866 202.488 150.294 202.088 150.829 201.798C151.365 201.509 151.956 201.294 152.602 201.152C153.255 201.004 153.91 200.887 154.569 200.801C155.43 200.69 156.129 200.607 156.665 200.552C157.206 200.49 157.6 200.389 157.846 200.247C158.099 200.106 158.225 199.859 158.225 199.509V199.435C158.225 198.524 157.976 197.816 157.477 197.311C156.985 196.806 156.237 196.554 155.233 196.554C154.193 196.554 153.378 196.782 152.787 197.237C152.196 197.693 151.78 198.179 151.54 198.696L149.472 197.957C149.841 197.096 150.334 196.425 150.949 195.945C151.571 195.458 152.248 195.12 152.981 194.929C153.719 194.732 154.446 194.634 155.16 194.634C155.615 194.634 156.138 194.689 156.729 194.8C157.326 194.904 157.902 195.123 158.456 195.455C159.016 195.788 159.481 196.289 159.85 196.96C160.219 197.631 160.404 198.53 160.404 199.656V209H158.225V207.08H158.114C157.966 207.387 157.72 207.717 157.376 208.067C157.031 208.418 156.572 208.717 156 208.963C155.427 209.209 154.729 209.332 153.904 209.332ZM154.236 207.375C155.098 207.375 155.824 207.206 156.415 206.867C157.012 206.529 157.462 206.092 157.763 205.556C158.071 205.021 158.225 204.457 158.225 203.866V201.872C158.133 201.983 157.93 202.085 157.616 202.177C157.308 202.263 156.951 202.34 156.545 202.408C156.144 202.469 155.754 202.525 155.372 202.574C154.997 202.617 154.692 202.654 154.458 202.685C153.892 202.759 153.362 202.879 152.87 203.045C152.384 203.205 151.99 203.448 151.688 203.774C151.393 204.094 151.245 204.531 151.245 205.085C151.245 205.842 151.525 206.415 152.085 206.803C152.651 207.184 153.368 207.375 154.236 207.375ZM169.736 209.295C168.554 209.295 167.511 208.997 166.606 208.4C165.701 207.797 164.993 206.947 164.483 205.852C163.972 204.75 163.716 203.448 163.716 201.946C163.716 200.456 163.972 199.164 164.483 198.068C164.993 196.973 165.704 196.126 166.615 195.529C167.526 194.932 168.579 194.634 169.773 194.634C170.696 194.634 171.426 194.787 171.961 195.095C172.503 195.397 172.915 195.741 173.199 196.129C173.488 196.511 173.712 196.825 173.873 197.071H174.057V190.091H176.236V209H174.131V206.821H173.873C173.712 207.08 173.485 207.406 173.189 207.8C172.894 208.187 172.472 208.535 171.924 208.843C171.377 209.145 170.647 209.295 169.736 209.295ZM170.032 207.338C170.906 207.338 171.644 207.11 172.248 206.655C172.851 206.193 173.309 205.556 173.623 204.744C173.937 203.925 174.094 202.98 174.094 201.909C174.094 200.85 173.94 199.924 173.632 199.13C173.325 198.33 172.869 197.708 172.266 197.265C171.663 196.816 170.918 196.591 170.032 196.591C169.108 196.591 168.339 196.828 167.723 197.302C167.114 197.77 166.655 198.407 166.348 199.213C166.046 200.013 165.895 200.912 165.895 201.909C165.895 202.919 166.049 203.836 166.357 204.661C166.671 205.479 167.132 206.132 167.742 206.618C168.357 207.098 169.121 207.338 170.032 207.338ZM192.015 209.332C191.117 209.332 190.301 209.163 189.569 208.825C188.836 208.48 188.254 207.984 187.824 207.338C187.393 206.686 187.177 205.898 187.177 204.974C187.177 204.162 187.337 203.503 187.657 202.999C187.977 202.488 188.405 202.088 188.941 201.798C189.476 201.509 190.067 201.294 190.713 201.152C191.366 201.004 192.021 200.887 192.68 200.801C193.542 200.69 194.24 200.607 194.776 200.552C195.318 200.49 195.712 200.389 195.958 200.247C196.21 200.106 196.336 199.859 196.336 199.509V199.435C196.336 198.524 196.087 197.816 195.588 197.311C195.096 196.806 194.348 196.554 193.345 196.554C192.305 196.554 191.489 196.782 190.898 197.237C190.307 197.693 189.892 198.179 189.652 198.696L187.583 197.957C187.953 197.096 188.445 196.425 189.061 195.945C189.682 195.458 190.359 195.12 191.092 194.929C191.831 194.732 192.557 194.634 193.271 194.634C193.726 194.634 194.25 194.689 194.841 194.8C195.438 194.904 196.013 195.123 196.567 195.455C197.127 195.788 197.592 196.289 197.961 196.96C198.331 197.631 198.515 198.53 198.515 199.656V209H196.336V207.08H196.225C196.078 207.387 195.832 207.717 195.487 208.067C195.142 208.418 194.684 208.717 194.111 208.963C193.539 209.209 192.84 209.332 192.015 209.332ZM192.348 207.375C193.209 207.375 193.936 207.206 194.527 206.867C195.124 206.529 195.573 206.092 195.875 205.556C196.182 205.021 196.336 204.457 196.336 203.866V201.872C196.244 201.983 196.041 202.085 195.727 202.177C195.419 202.263 195.062 202.34 194.656 202.408C194.256 202.469 193.865 202.525 193.483 202.574C193.108 202.617 192.803 202.654 192.569 202.685C192.003 202.759 191.474 202.879 190.981 203.045C190.495 203.205 190.101 203.448 189.799 203.774C189.504 204.094 189.356 204.531 189.356 205.085C189.356 205.842 189.636 206.415 190.196 206.803C190.763 207.184 191.48 207.375 192.348 207.375ZM204.671 200.469V209H202.492V194.818H204.597V197.034H204.782C205.115 196.314 205.619 195.735 206.296 195.298C206.973 194.855 207.847 194.634 208.919 194.634C209.879 194.634 210.719 194.83 211.439 195.224C212.159 195.612 212.719 196.203 213.119 196.997C213.52 197.785 213.72 198.782 213.72 199.989V209H211.541V200.136C211.541 199.022 211.251 198.154 210.673 197.533C210.094 196.905 209.3 196.591 208.291 196.591C207.595 196.591 206.973 196.742 206.426 197.043C205.884 197.345 205.456 197.785 205.142 198.364C204.828 198.942 204.671 199.644 204.671 200.469ZM223.056 209.295C221.875 209.295 220.831 208.997 219.926 208.4C219.022 207.797 218.314 206.947 217.803 205.852C217.292 204.75 217.037 203.448 217.037 201.946C217.037 200.456 217.292 199.164 217.803 198.068C218.314 196.973 219.025 196.126 219.936 195.529C220.847 194.932 221.899 194.634 223.093 194.634C224.017 194.634 224.746 194.787 225.282 195.095C225.823 195.397 226.236 195.741 226.519 196.129C226.808 196.511 227.033 196.825 227.193 197.071H227.377V190.091H229.556V209H227.451V206.821H227.193C227.033 207.08 226.805 207.406 226.51 207.8C226.214 208.187 225.792 208.535 225.245 208.843C224.697 209.145 223.967 209.295 223.056 209.295ZM223.352 207.338C224.226 207.338 224.965 207.11 225.568 206.655C226.171 206.193 226.63 205.556 226.944 204.744C227.257 203.925 227.414 202.98 227.414 201.909C227.414 200.85 227.261 199.924 226.953 199.13C226.645 198.33 226.19 197.708 225.586 197.265C224.983 196.816 224.238 196.591 223.352 196.591C222.429 196.591 221.659 196.828 221.044 197.302C220.434 197.77 219.976 198.407 219.668 199.213C219.366 200.013 219.216 200.912 219.216 201.909C219.216 202.919 219.369 203.836 219.677 204.661C219.991 205.479 220.453 206.132 221.062 206.618C221.678 207.098 222.441 207.338 223.352 207.338ZM241.162 214.318V194.818H243.267V197.071H243.526C243.686 196.825 243.908 196.511 244.191 196.129C244.48 195.741 244.892 195.397 245.428 195.095C245.97 194.787 246.702 194.634 247.625 194.634C248.819 194.634 249.872 194.932 250.783 195.529C251.694 196.126 252.405 196.973 252.916 198.068C253.427 199.164 253.682 200.456 253.682 201.946C253.682 203.448 253.427 204.75 252.916 205.852C252.405 206.947 251.697 207.797 250.792 208.4C249.887 208.997 248.844 209.295 247.662 209.295C246.751 209.295 246.022 209.145 245.474 208.843C244.926 208.535 244.505 208.187 244.209 207.8C243.914 207.406 243.686 207.08 243.526 206.821H243.341V214.318H241.162ZM243.304 201.909C243.304 202.98 243.461 203.925 243.775 204.744C244.089 205.556 244.548 206.193 245.151 206.655C245.754 207.11 246.493 207.338 247.367 207.338C248.278 207.338 249.038 207.098 249.647 206.618C250.263 206.132 250.725 205.479 251.032 204.661C251.346 203.836 251.503 202.919 251.503 201.909C251.503 200.912 251.349 200.013 251.042 199.213C250.74 198.407 250.281 197.77 249.666 197.302C249.056 196.828 248.29 196.591 247.367 196.591C246.48 196.591 245.736 196.816 245.132 197.265C244.529 197.708 244.074 198.33 243.766 199.13C243.458 199.924 243.304 200.85 243.304 201.909ZM257.006 209V194.818H259.111V196.96H259.259C259.517 196.259 259.985 195.689 260.662 195.252C261.339 194.815 262.103 194.597 262.952 194.597C263.112 194.597 263.312 194.6 263.552 194.606C263.792 194.612 263.974 194.621 264.097 194.634V196.849C264.023 196.831 263.854 196.803 263.589 196.766C263.331 196.723 263.057 196.702 262.767 196.702C262.078 196.702 261.462 196.846 260.921 197.136C260.385 197.419 259.961 197.813 259.647 198.317C259.339 198.816 259.185 199.385 259.185 200.026V209H257.006ZM266.68 209V194.818H268.859V209H266.68ZM267.788 192.455C267.363 192.455 266.997 192.31 266.689 192.021C266.387 191.731 266.237 191.384 266.237 190.977C266.237 190.571 266.387 190.223 266.689 189.934C266.997 189.645 267.363 189.5 267.788 189.5C268.213 189.5 268.576 189.645 268.877 189.934C269.185 190.223 269.339 190.571 269.339 190.977C269.339 191.384 269.185 191.731 268.877 192.021C268.576 192.31 268.213 192.455 267.788 192.455ZM275.029 200.469V209H272.85V194.818H274.955V197.034H275.14C275.472 196.314 275.977 195.735 276.654 195.298C277.331 194.855 278.205 194.634 279.276 194.634C280.236 194.634 281.076 194.83 281.797 195.224C282.517 195.612 283.077 196.203 283.477 196.997C283.877 197.785 284.077 198.782 284.077 199.989V209H281.898V200.136C281.898 199.022 281.609 198.154 281.03 197.533C280.452 196.905 279.658 196.591 278.648 196.591C277.953 196.591 277.331 196.742 276.783 197.043C276.241 197.345 275.814 197.785 275.5 198.364C275.186 198.942 275.029 199.644 275.029 200.469ZM294.226 194.818V196.665H286.877V194.818H294.226ZM289.019 191.42H291.198V204.938C291.198 205.553 291.287 206.015 291.466 206.322C291.65 206.624 291.884 206.827 292.167 206.932C292.457 207.03 292.761 207.08 293.081 207.08C293.322 207.08 293.519 207.067 293.672 207.043C293.826 207.012 293.949 206.987 294.042 206.969L294.485 208.926C294.337 208.982 294.131 209.037 293.866 209.092C293.602 209.154 293.266 209.185 292.86 209.185C292.244 209.185 291.641 209.052 291.05 208.788C290.465 208.523 289.979 208.12 289.591 207.578C289.21 207.036 289.019 206.353 289.019 205.528V191.42ZM305.592 199.545C305.592 197.219 305.894 195.08 306.497 193.129C307.106 191.171 307.974 189.371 309.101 187.727H311.021C310.578 188.337 310.162 189.088 309.775 189.98C309.393 190.866 309.058 191.842 308.768 192.907C308.479 193.966 308.251 195.061 308.085 196.194C307.925 197.326 307.845 198.444 307.845 199.545C307.845 201.01 307.987 202.497 308.27 204.005C308.553 205.513 308.934 206.913 309.415 208.206C309.895 209.499 310.43 210.551 311.021 211.364H309.101C307.974 209.72 307.106 207.923 306.497 205.972C305.894 204.014 305.592 201.872 305.592 199.545ZM314.532 209V190.091H320.921C322.405 190.091 323.617 190.359 324.559 190.894C325.507 191.424 326.209 192.141 326.664 193.045C327.12 193.95 327.347 194.96 327.347 196.074C327.347 197.188 327.12 198.201 326.664 199.112C326.215 200.022 325.519 200.749 324.577 201.29C323.636 201.826 322.429 202.094 320.958 202.094H316.379V200.062H320.884C321.9 200.062 322.715 199.887 323.331 199.536C323.946 199.185 324.393 198.711 324.67 198.114C324.953 197.511 325.094 196.831 325.094 196.074C325.094 195.317 324.953 194.64 324.67 194.043C324.393 193.446 323.943 192.978 323.322 192.639C322.7 192.295 321.875 192.122 320.847 192.122H316.822V209H314.532ZM336.871 209H331.036V190.091H337.13C338.964 190.091 340.533 190.469 341.838 191.227C343.143 191.978 344.144 193.058 344.839 194.467C345.535 195.871 345.882 197.551 345.882 199.509C345.882 201.478 345.532 203.174 344.83 204.596C344.128 206.012 343.106 207.101 341.765 207.864C340.423 208.621 338.792 209 336.871 209ZM333.326 206.969H336.723C338.287 206.969 339.583 206.667 340.61 206.064C341.638 205.461 342.405 204.602 342.909 203.488C343.414 202.374 343.667 201.047 343.667 199.509C343.667 197.982 343.417 196.668 342.919 195.566C342.42 194.458 341.675 193.609 340.684 193.018C339.693 192.421 338.459 192.122 336.982 192.122H333.326V206.969ZM349.723 209V190.091H361.061V192.122H352.013V198.511H360.212V200.543H352.013V209H349.723ZM369.341 199.545C369.341 201.872 369.036 204.014 368.427 205.972C367.824 207.923 366.959 209.72 365.833 211.364H363.912C364.355 210.754 364.768 210.003 365.149 209.111C365.537 208.224 365.876 207.252 366.165 206.193C366.454 205.128 366.679 204.03 366.839 202.897C367.005 201.758 367.088 200.641 367.088 199.545C367.088 198.08 366.947 196.594 366.664 195.086C366.38 193.578 365.999 192.178 365.519 190.885C365.039 189.592 364.503 188.54 363.912 187.727H365.833C366.959 189.371 367.824 191.171 368.427 193.129C369.036 195.08 369.341 197.219 369.341 199.545Z" fill="black"/>
<path d="M33 67C30.8244 67 28.6977 67.6451 26.8887 68.8538C25.0798 70.0625 23.6699 71.7805 22.8373 73.7905C22.0048 75.8005 21.7869 78.0122 22.2114 80.146C22.6358 82.2798 23.6835 84.2398 25.2218 85.7782C26.7602 87.3165 28.7202 88.3642 30.854 88.7886C32.9878 89.2131 35.1995 88.9952 37.2095 88.1627C39.2195 87.3301 40.9375 85.9202 42.1462 84.1113C43.3549 82.3023 44 80.1756 44 78C44 75.0826 42.8411 72.2847 40.7782 70.2218C38.7153 68.1589 35.9174 67 33 67ZM31.4286 82.3921L27.5 78.4636L28.7493 77.2143L31.4286 79.8936L37.2507 74.0714L38.5047 75.3176L31.4286 82.3921Z" fill="black"/>
<path d="M33 107C30.8244 107 28.6977 107.645 26.8887 108.854C25.0798 110.063 23.6699 111.78 22.8373 113.79C22.0048 115.8 21.7869 118.012 22.2114 120.146C22.6358 122.28 23.6835 124.24 25.2218 125.778C26.7602 127.317 28.7202 128.364 30.854 128.789C32.9878 129.213 35.1995 128.995 37.2095 128.163C39.2195 127.33 40.9375 125.92 42.1462 124.111C43.3549 122.302 44 120.176 44 118C44 115.083 42.8411 112.285 40.7782 110.222C38.7153 108.159 35.9174 107 33 107ZM31.4286 122.392L27.5 118.464L28.7493 117.214L31.4286 119.894L37.2507 114.071L38.5047 115.318L31.4286 122.392Z" fill="black"/>
<path d="M33 147C30.8244 147 28.6977 147.645 26.8887 148.854C25.0798 150.063 23.6699 151.78 22.8373 153.79C22.0048 155.8 21.7869 158.012 22.2114 160.146C22.6358 162.28 23.6835 164.24 25.2218 165.778C26.7602 167.317 28.7202 168.364 30.854 168.789C32.9878 169.213 35.1995 168.995 37.2095 168.163C39.2195 167.33 40.9375 165.92 42.1462 164.111C43.3549 162.302 44 160.176 44 158C44 155.083 42.8411 152.285 40.7782 150.222C38.7153 148.159 35.9174 147 33 147ZM31.4286 162.392L27.5 158.464L28.7493 157.214L31.4286 159.894L37.2507 154.071L38.5047 155.318L31.4286 162.392Z" fill="black"/>
<path d="M33 187C30.8244 187 28.6977 187.645 26.8887 188.854C25.0798 190.063 23.6699 191.78 22.8373 193.79C22.0048 195.8 21.7869 198.012 22.2114 200.146C22.6358 202.28 23.6835 204.24 25.2218 205.778C26.7602 207.317 28.7202 208.364 30.854 208.789C32.9878 209.213 35.1995 208.995 37.2095 208.163C39.2195 207.33 40.9375 205.92 42.1462 204.111C43.3549 202.302 44 200.176 44 198C44 195.083 42.8411 192.285 40.7782 190.222C38.7153 188.159 35.9174 187 33 187ZM31.4286 202.392L27.5 198.464L28.7493 197.214L31.4286 199.894L37.2507 194.071L38.5047 195.318L31.4286 202.392Z" fill="black"/>
</svg>
