<svg width="1440" height="1508" viewBox="0 0 1440 1508" fill="none" xmlns="http://www.w3.org/2000/svg">
<path d="M-605 220.26C-523.99 168.869 -376.854 166.129 -290.104 214.39C-199.526 264.868 -184.43 351.998 -100.018 406.389C-19.008 458.562 108.992 469.519 224.872 463.78C340.752 458.041 454.931 438.606 571.024 442.128C687.117 445.65 812.14 479.562 855.728 546.866C893.362 605.17 861.256 670.387 842.545 731.952C824.047 793.517 827.874 868.517 910.159 904.908C1006.9 947.82 1129.37 910.908 1234.84 907.256C1413.87 901.256 1593.53 951.994 1692.4 1044.86C1793.4 1139.56 1801.05 1269.6 1711.54 1368.08" stroke="#9254FF" stroke-width="2" stroke-miterlimit="10"/>
<path d="M-581.399 210.738C-499.113 161.564 -353.678 159.868 -266.928 207.607C-196.124 246.476 -169.546 306.998 -122.131 357.737C-108.523 372.215 -93.4264 385.91 -75.1407 398.041C4.59331 450.606 127.49 464.04 237.842 461.432C313.323 459.606 387.529 451.78 461.735 448.78C496.18 447.345 530.413 447.084 565.07 449.171C609.084 451.78 655.01 459.084 697.748 470.953C761.535 488.692 817.243 516.214 844.884 555.083C852.113 565.127 857.003 575.301 860.405 585.735C875.927 633.735 855.302 685.909 842.12 736.256C839.993 744.213 838.292 752.43 836.804 760.778C828.086 816.473 837.867 876.473 905.269 908.951C916.963 914.559 928.87 918.864 941.415 922.125C988.83 934.777 1041.35 932.82 1094.72 928.125C1137.45 924.342 1180.83 918.603 1221.87 917.429C1231.86 917.168 1241.85 917.038 1251.85 917.038C1306.07 917.168 1360.07 921.994 1411.53 931.516C1519.54 951.733 1616.07 993.342 1679.86 1052.17C1699.42 1070.17 1715.58 1089.6 1728.12 1109.82C1781.28 1194.86 1772.35 1294.9 1699.85 1374.08" stroke="#9156FF" stroke-width="2" stroke-miterlimit="10"/>
<path d="M-557.585 201.216C-474.236 154.39 -330.502 153.608 -243.539 200.825C-172.523 239.172 -144.244 298.781 -96.6159 349.389C-83.0079 363.737 -68.1243 377.432 -50.0512 389.693C28.1945 442.78 146.413 458.562 251.237 459.084C322.891 459.345 392.845 453.997 462.373 452.954C494.692 452.432 526.798 453.084 559.542 455.954C601.004 459.606 644.592 467.954 686.479 480.345C748.777 498.997 805.335 525.605 834.678 563.04C842.332 572.692 847.86 582.605 851.688 592.649C869.973 639.083 853.389 690.213 842.119 740.43C840.418 748.387 838.717 756.604 837.654 764.952C830.212 820.647 837.442 879.995 901.229 913.125C912.073 918.864 923.554 923.299 935.461 926.821C980.538 940.386 1031.14 939.864 1083.24 936.603C1125.12 933.864 1168.5 928.777 1209.53 927.734C1219.53 927.473 1229.52 927.342 1239.51 927.342C1293.52 927.473 1347.31 931.777 1398.77 941.038C1506.57 960.342 1603.53 1001.43 1667.74 1059.73C1687.51 1077.6 1703.67 1096.78 1716.43 1116.99C1770.22 1201.65 1761.51 1301.56 1688.58 1380.34" stroke="#9158FF" stroke-width="2" stroke-miterlimit="10"/>
<path d="M-533.771 191.694C-449.147 147.216 -307.326 147.477 -220.15 194.042C-148.921 231.999 -118.729 290.563 -71.3136 340.911C-57.7056 355.259 -42.822 368.954 -25.1742 381.215C51.5831 434.693 164.912 452.954 264.207 456.606C332.034 458.954 397.735 456.084 462.586 457.128C492.778 457.519 522.758 459.084 553.376 462.867C592.286 467.693 633.748 476.954 674.572 489.867C735.595 509.301 792.578 534.997 823.621 571.127C831.701 580.388 837.655 589.909 842.12 599.562C863.169 644.431 850.412 694.518 841.269 744.604C839.781 752.561 838.505 760.648 837.654 768.995C831.701 824.56 836.379 883.256 896.126 917.168C906.332 923.038 917.176 927.603 928.232 931.386C970.757 945.733 1019.45 946.907 1070.69 944.82C1111.73 943.255 1155.1 938.69 1195.93 937.777C1205.92 937.516 1215.91 937.516 1225.69 937.516C1279.7 937.647 1333.28 941.56 1384.52 950.299C1492.32 968.69 1589.71 1009.25 1654.13 1066.91C1673.91 1084.65 1690.49 1103.69 1703.25 1123.78C1757.47 1207.91 1748.96 1307.82 1676.03 1386.34" stroke="#905AFF" stroke-width="2" stroke-miterlimit="10"/>
<path d="M-509.957 182.173C-424.27 140.043 -284.15 141.217 -196.549 187.26C-125.107 224.825 -93.2138 282.346 -45.586 332.564C-31.978 346.911 -17.307 360.476 0.128197 372.868C75.6098 426.737 183.835 447.476 277.603 454.259C341.815 458.693 403.263 458.432 463.223 461.302C491.29 462.606 518.931 464.954 547.848 469.65C584.419 475.519 623.542 485.824 663.515 499.258C723.263 519.476 780.884 544.388 813.415 579.084C821.92 588.084 828.299 597.214 833.402 606.475C857.216 649.779 848.498 698.953 841.269 748.779C839.993 756.605 839.143 764.692 838.505 773.039C834.04 828.604 835.954 886.517 892.086 921.212C901.654 927.082 911.86 932.038 922.279 935.951C962.465 951.082 1009.24 953.821 1059.21 953.169C1099.18 952.647 1142.77 948.734 1183.59 948.082C1193.59 947.951 1203.58 947.821 1213.36 947.821C1267.16 948.082 1320.52 951.343 1371.98 959.69C1479.78 977.169 1577.37 1017.08 1642.22 1074.34C1662.21 1091.95 1678.8 1110.86 1691.77 1130.82C1746.62 1214.56 1738.12 1314.21 1664.97 1392.47" stroke="#905DFF" stroke-width="2" stroke-miterlimit="10"/>
<path d="M-486.143 172.651C-399.18 132.738 -260.974 135.086 -173.16 180.477C-101.506 217.52 -67.6989 274.129 -20.0711 324.085C-6.46313 338.302 8.2079 351.867 25.2178 364.389C99.211 418.78 202.759 441.997 290.998 451.78C351.383 458.432 408.579 460.519 464.074 465.476C490.014 467.693 515.529 470.954 542.32 476.562C576.339 483.606 613.123 494.823 652.246 508.78C710.505 529.78 768.764 553.91 803.209 587.17C812.14 595.779 819.156 604.518 824.897 613.388C851.475 655.127 846.797 703.257 841.482 752.952C840.631 760.778 839.993 768.865 839.355 777.082C836.379 832.517 835.741 889.777 888.046 925.125C896.977 931.125 906.332 936.212 916.325 940.386C954.172 956.299 998.823 960.603 1047.94 961.255C1087.06 961.777 1130.65 958.516 1171.47 957.994C1181.47 957.864 1191.25 957.864 1201.24 957.864C1254.82 958.125 1308.19 960.994 1359.43 968.82C1467.02 985.386 1565.04 1024.78 1630.53 1081.52C1650.73 1098.99 1667.31 1117.78 1680.5 1137.6C1735.99 1220.95 1727.49 1320.47 1654.13 1398.34" stroke="#8F5FFF" stroke-width="2" stroke-miterlimit="10"/>
<path d="M-462.542 163.129C-374.515 125.564 -238.011 128.825 -149.984 173.695C-77.9048 210.347 -42.3966 265.912 5.23121 315.737C18.8392 329.955 33.2976 343.52 50.0949 356.041C122.6 410.824 221.257 436.519 303.968 449.302C360.526 458.171 413.257 462.736 464.287 469.519C488.1 472.78 511.489 476.823 536.153 483.215C567.622 491.432 602.28 503.562 640.339 518.171C697.322 540.084 756.007 563.301 792.153 595.127C801.508 603.344 808.95 611.823 815.329 620.301C844.671 660.474 844.033 707.692 840.844 756.996C840.419 764.822 839.781 772.778 839.568 780.996C837.867 836.3 834.678 892.908 883.156 929.038C891.448 935.168 900.166 940.386 909.521 944.821C945.03 961.647 987.767 967.516 1035.61 969.473C1073.88 971.038 1117.26 968.429 1158.08 968.168C1168.07 968.038 1177.85 968.038 1187.63 968.168C1241 968.429 1294.16 970.777 1345.4 978.212C1452.99 993.864 1551.43 1032.73 1617.13 1088.95C1637.33 1106.3 1654.34 1124.95 1667.53 1144.65C1723.45 1227.47 1715.15 1326.99 1641.59 1404.47" stroke="#8F61FF" stroke-width="2" stroke-miterlimit="10"/>
<path d="M-438.728 153.477C-349.426 118.26 -214.622 122.564 -126.596 166.782C-54.3035 202.912 -17.0943 257.564 30.7461 307.129C44.354 321.215 58.8125 334.911 75.1845 347.433C146.414 402.737 239.968 430.78 317.363 446.693C370.094 457.649 418.572 464.693 464.925 473.562C486.612 477.736 507.875 482.693 530.625 489.997C559.542 499.258 591.861 512.432 629.07 527.562C684.778 550.258 744.1 572.692 781.734 603.083C791.515 610.909 799.595 618.996 806.399 627.214C838.718 665.822 841.907 711.996 840.631 761.169C840.419 768.865 840.206 776.952 840.206 785.039C839.993 840.343 834.253 896.038 878.904 933.081C886.558 939.342 894.638 944.69 903.355 949.386C936.312 966.994 977.136 974.429 1024.13 977.69C1061.55 980.299 1104.92 978.342 1145.75 978.212C1155.74 978.212 1165.52 978.212 1175.3 978.212C1228.67 978.472 1281.61 980.429 1332.64 987.472C1440.23 1002.21 1538.89 1040.56 1605.01 1096.25C1625.43 1113.34 1642.44 1131.99 1656.04 1151.56C1712.6 1233.99 1704.31 1333.38 1630.53 1410.47" stroke="#8E63FF" stroke-width="2" stroke-miterlimit="10"/>
<path d="M-414.914 143.956C-324.549 110.956 -191.446 116.304 -102.994 159.999C-30.4897 195.738 8.63316 249.346 56.4736 298.65C70.0815 312.737 84.3273 326.433 100.274 339.085C170.015 394.78 258.679 425.302 330.546 444.345C379.45 457.388 423.463 466.91 465.562 477.736C484.911 482.693 504.26 488.693 524.884 496.78C551.25 507.214 581.442 521.301 617.801 536.953C672.233 560.431 731.98 582.083 771.528 611.04C781.734 618.605 790.239 626.17 797.681 633.996C832.764 671.17 839.993 716.17 840.631 765.213C840.844 772.908 840.844 780.865 840.844 788.952C841.907 844.125 833.827 899.168 874.439 936.994C881.242 943.386 888.897 948.994 896.977 953.82C927.594 972.212 966.505 981.211 1012.22 985.907C1048.79 989.559 1092.17 988.255 1132.99 988.255C1142.98 988.255 1152.76 988.255 1162.33 988.385C1215.49 988.646 1268.22 990.081 1319.46 996.733C1426.84 1010.69 1525.92 1048.38 1592.68 1103.43C1613.31 1120.38 1630.53 1138.91 1644.14 1158.34C1701.33 1240.38 1693.04 1339.51 1619.26 1416.34" stroke="#8E65FF" stroke-width="2" stroke-miterlimit="10"/>
<path d="M-391.1 134.434C-299.459 103.782 -168.27 110.173 -79.6059 153.217C-6.88849 188.434 34.148 241.129 81.9884 290.303C95.5963 304.39 109.842 317.955 125.364 330.737C193.616 386.824 277.39 419.824 343.941 441.998C389.23 457.128 428.566 469.128 466.2 481.91C483.423 487.78 500.645 494.562 519.143 503.693C542.957 515.301 570.811 530.301 606.319 546.475C659.263 570.736 719.861 591.605 760.897 618.997C771.528 626.17 780.671 633.475 788.538 640.909C826.598 676.518 837.442 720.605 840.206 769.387C840.631 777.083 840.844 784.909 841.269 793.126C843.82 848.3 832.977 902.56 869.973 941.169C876.139 947.69 882.943 953.429 890.598 958.516C918.877 977.69 955.873 988.255 1000.31 994.386C1036.03 999.212 1079.41 998.429 1120.23 998.69C1130.01 998.69 1140.01 998.82 1149.57 998.82C1202.52 999.212 1255.25 1000.12 1306.28 1006.26C1413.65 1019.3 1513.16 1056.34 1580.14 1110.99C1600.76 1127.82 1618.2 1146.21 1632.02 1165.52C1689.85 1247.04 1681.56 1346.17 1607.57 1422.6" stroke="#8D67FF" stroke-width="2" stroke-miterlimit="10"/>
<path d="M-367.499 124.912C-274.795 96.6078 -145.307 103.912 -56.4299 146.434C16.5002 181.259 59.2376 232.911 107.291 281.824C121.111 295.781 134.932 309.476 150.241 322.259C217.217 378.867 295.888 414.215 356.911 439.519C398.373 456.736 433.243 471.084 466.413 486.084C481.296 492.866 496.605 500.562 513.19 510.475C534.452 523.127 560.18 539.17 594.625 555.866C646.293 581.04 707.316 600.866 750.053 626.953C761.11 633.735 770.89 640.648 779.395 647.692C820.432 681.735 835.103 724.778 839.993 773.43C840.631 780.995 841.269 788.952 841.907 797.038C845.734 852.082 832.551 905.56 865.508 944.951C871.036 951.603 877.202 957.472 884.219 962.82C909.947 982.777 945.029 995.037 988.617 1002.34C1023.49 1008.21 1066.86 1008.08 1107.47 1008.47C1117.26 1008.6 1127.04 1008.6 1136.6 1008.73C1189.33 1009.12 1241.85 1009.52 1292.88 1015.25C1400.26 1027.38 1499.98 1063.91 1567.38 1118.04C1588.22 1134.73 1605.87 1152.86 1619.69 1172.17C1677.94 1253.3 1669.86 1352.3 1595.66 1428.34" stroke="#8D69FF" stroke-width="2" stroke-miterlimit="10"/>
<path d="M-343.685 115.391C-249.705 89.304 -122.131 97.7822 -33.0412 139.652C40.1015 173.956 84.7526 224.695 132.806 273.477C146.626 287.433 160.447 300.998 175.33 313.911C240.819 370.911 314.812 408.606 370.094 437.172C407.729 456.606 438.346 473.171 467.051 490.258C479.808 497.823 492.778 506.562 507.449 517.388C526.373 531.214 549.761 548.171 583.143 565.388C633.535 591.345 695.196 610.388 739.635 635.04C751.116 641.431 761.322 648.083 770.465 654.735C814.478 687.214 832.977 729.344 839.781 777.735C840.844 785.3 841.694 793.126 842.332 801.213C847.648 856.256 831.914 908.951 861.043 949.125C865.933 955.777 871.462 961.908 877.84 967.516C901.229 988.255 934.398 1002.08 976.711 1010.82C1010.73 1017.73 1053.89 1018.26 1094.72 1018.91C1104.5 1019.04 1114.28 1019.17 1123.85 1019.17C1176.58 1019.56 1228.88 1019.56 1279.91 1024.78C1387.07 1035.99 1487.22 1071.99 1555.05 1125.6C1576.1 1142.17 1593.75 1160.17 1607.78 1179.34C1666.68 1260.08 1658.6 1358.82 1584.18 1434.6" stroke="#8C6BFF" stroke-width="2" stroke-miterlimit="10"/>
<path d="M-319.871 105.869C-224.828 82.13 -98.9546 91.5213 -9.43988 132.869C64.1281 166.782 110.48 216.477 158.533 264.998C172.354 278.825 185.962 292.52 200.633 305.433C264.633 362.824 333.735 402.998 383.702 434.693C417.509 456.215 443.662 475.128 467.901 494.432C478.532 502.78 489.376 512.562 502.134 524.171C518.506 539.171 539.555 557.04 572.3 574.779C621.416 601.518 683.715 619.779 729.641 642.996C741.761 649.127 752.392 655.257 761.96 661.648C808.95 692.561 831.276 733.648 839.993 781.909C841.269 789.474 842.332 797.169 843.395 805.256C850.199 860.169 831.914 912.082 857.003 953.168C861.256 959.951 866.146 966.212 871.887 972.081C892.937 993.473 923.98 1008.99 965.442 1019.04C998.611 1026.99 1041.77 1028.17 1082.6 1028.95C1092.38 1029.08 1102.16 1029.21 1111.73 1029.34C1164.25 1029.73 1216.34 1029.21 1267.37 1034.17C1374.53 1044.47 1475.1 1079.95 1543.35 1133.04C1564.4 1149.47 1582.26 1167.34 1596.51 1186.38C1656.04 1266.6 1647.96 1365.34 1573.55 1440.73" stroke="#8C6EFF" stroke-width="2" stroke-miterlimit="10"/>
<path d="M-296.057 96.3473C-199.739 74.9561 -75.566 85.3909 13.9487 126.086C87.7292 159.608 135.782 208.26 184.048 256.52C197.869 270.346 211.476 283.911 225.722 296.955C288.446 354.868 352.446 397.389 396.885 432.215C427.077 455.823 448.552 476.954 468.326 498.475C476.831 507.736 485.549 518.432 496.18 530.953C510.001 547.127 528.924 565.91 560.605 584.171C608.233 611.692 671.17 629.17 718.797 650.953C731.342 656.692 742.399 662.561 752.605 668.431C802.571 697.648 828.511 737.822 839.355 785.822C841.056 793.256 842.332 801.082 843.608 809.039C851.9 863.821 831.063 915.082 852.325 956.951C855.94 963.864 859.98 970.255 865.083 976.386C883.794 998.559 912.923 1015.78 953.109 1027.12C985.215 1036.12 1028.59 1037.95 1069.2 1038.99C1078.98 1039.25 1088.76 1039.39 1098.12 1039.39C1150.42 1039.78 1202.52 1038.86 1253.33 1043.3C1360.5 1052.69 1461.28 1087.65 1529.96 1140.21C1551.22 1156.51 1569.29 1174.25 1583.54 1193.3C1643.71 1273.12 1635.85 1371.73 1561 1446.73" stroke="#8B70FF" stroke-width="2" stroke-miterlimit="10"/>
<path d="M-272.456 86.8259C-175.074 67.7826 -52.6025 79.1303 37.1249 119.304C111.118 152.304 161.085 200.043 209.35 248.173C223.171 261.999 236.566 275.564 250.599 288.607C311.835 346.911 370.945 391.911 410.068 429.867C436.433 455.563 453.868 478.911 468.964 502.78C475.343 512.693 481.934 524.562 490.439 537.867C501.709 555.214 518.293 575.04 549.124 593.692C595.476 622.127 659.05 638.562 708.167 659.04C721.137 664.388 732.831 669.866 743.462 675.475C796.405 703.127 826.173 742.387 838.93 790.126C840.844 797.561 842.545 805.256 844.033 813.213C853.601 867.995 830.425 918.343 847.648 960.995C850.412 968.038 854.027 974.56 858.492 980.951C874.864 1003.91 902.08 1022.69 941.203 1035.34C972.458 1045.52 1015.83 1047.86 1056.44 1049.04C1066.23 1049.3 1076.01 1049.43 1085.36 1049.56C1137.45 1050.08 1189.33 1048.52 1240.36 1052.56C1347.31 1061.04 1448.52 1095.34 1517.63 1147.38C1539.1 1163.43 1557.17 1181.17 1571.63 1200.08C1632.23 1279.51 1624.58 1377.99 1549.52 1452.6" stroke="#8B72FF" stroke-width="2" stroke-miterlimit="10"/>
<path d="M-248.642 77.3037C-149.985 60.4777 -29.4266 72.9993 60.5133 112.521C134.719 145.129 186.599 191.825 234.865 239.694C248.686 253.39 262.081 267.085 275.476 280.259C335.224 338.954 389.655 386.302 423.037 427.519C445.575 455.301 458.758 480.866 469.177 506.953C473.429 517.779 477.682 530.562 484.486 544.779C493.203 563.17 507.662 584.04 537.642 603.214C582.718 632.431 646.718 648.083 697.748 667.126C711.143 672.083 723.475 677.17 734.744 682.387C790.664 708.474 824.046 746.691 839.143 794.299C841.481 801.734 843.395 809.43 844.883 817.256C855.94 871.908 830.212 921.603 843.608 965.038C845.734 972.211 848.711 978.994 852.538 985.516C866.571 1009.25 891.661 1029.6 929.721 1043.69C960.126 1054.91 1003.29 1057.91 1044.11 1059.21C1053.89 1059.47 1063.46 1059.73 1072.82 1059.73C1124.7 1060.25 1176.36 1058.3 1227.39 1061.82C1334.34 1069.38 1435.98 1103.17 1505.29 1154.69C1526.77 1170.6 1545.27 1188.21 1559.73 1206.99C1620.96 1285.91 1613.31 1384.25 1538.04 1458.6" stroke="#8A74FF" stroke-width="2" stroke-miterlimit="10"/>
<path d="M-224.828 67.7823C-125.107 53.3041 -6.25051 66.7388 84.1147 105.739C158.533 137.825 212.114 183.608 260.38 231.347C274.201 245.042 287.383 258.607 300.566 271.912C359.038 331.129 408.367 380.824 436.433 425.172C455.356 455.041 464.499 482.823 469.815 511.258C471.941 522.867 474.067 536.693 478.745 551.693C484.911 571.258 497.031 593.04 526.16 612.866C569.961 642.866 634.598 657.735 687.117 675.344C700.937 680.04 713.695 684.735 725.602 689.561C784.499 713.952 821.708 751.257 838.718 798.735C841.269 806.039 843.395 813.734 845.309 821.691C857.854 876.343 829.575 925.125 839.143 969.473C840.631 976.647 842.97 983.69 846.159 990.473C857.854 1014.99 881.03 1036.91 918.026 1052.3C947.581 1064.56 990.744 1068.21 1031.36 1069.78C1041.14 1070.17 1050.7 1070.3 1060.06 1070.43C1111.94 1070.95 1163.39 1068.47 1214.21 1071.6C1321.16 1078.25 1423.01 1111.52 1492.96 1162.52C1514.65 1178.3 1533.15 1195.78 1547.82 1214.43C1609.69 1292.95 1602.04 1391.17 1526.56 1465.12" stroke="#8A76FF" stroke-width="2" stroke-miterlimit="10"/>
<path d="M-201.014 58.2601C-100.018 46.1298 16.9256 60.6079 107.503 98.9555C182.347 130.651 237.629 175.39 285.895 222.868C299.716 236.433 312.898 250.129 325.656 263.433C382.639 323.041 427.077 375.215 449.616 422.693C464.712 454.649 469.815 484.779 470.24 515.301C470.453 527.692 470.24 542.562 473.004 558.475C476.619 579.214 486.612 601.909 514.679 622.257C556.991 653.039 622.479 667.126 676.485 683.3C690.731 687.604 704.127 691.909 716.459 696.474C778.545 719.3 819.369 755.691 838.292 802.908C841.269 810.212 843.608 817.777 845.734 825.734C859.98 880.255 828.937 928.385 834.465 973.516C835.316 980.82 837.017 987.994 839.568 995.037C848.924 1020.34 869.973 1043.95 905.907 1060.65C934.611 1073.95 977.774 1078.25 1018.39 1079.95C1028.17 1080.34 1037.73 1080.6 1047.09 1080.6C1098.76 1081.12 1150 1078.25 1201.03 1080.99C1307.77 1086.73 1410.04 1119.47 1480.42 1169.95C1502.32 1185.6 1521.03 1202.95 1535.7 1221.47C1598.21 1299.47 1590.56 1397.69 1515.07 1471.25" stroke="#8978FF" stroke-width="2" stroke-miterlimit="10"/>
<path d="M-177.2 48.7386C-75.1409 38.8256 40.3141 54.3473 130.892 92.1732C205.948 123.347 263.144 167.173 311.41 214.52C325.23 228.085 338.2 241.651 350.745 255.085C406.24 315.215 446.001 369.606 462.798 420.345C474.067 454.388 475.343 486.867 470.878 519.605C469.177 532.779 466.413 548.692 467.263 565.388C468.326 587.301 476.193 610.909 503.197 631.779C544.233 663.474 610.147 676.518 666.067 691.387C680.738 695.3 694.771 699.213 707.529 703.387C772.591 724.517 817.03 759.995 838.08 807.082C841.269 814.386 844.033 821.951 846.159 829.778C861.681 884.169 828.299 931.516 830 977.429C830.213 984.864 831.276 992.168 833.189 999.342C840.206 1025.43 859.342 1050.6 894.212 1068.6C922.066 1082.95 965.229 1087.91 1005.84 1089.86C1015.62 1090.25 1025.19 1090.52 1034.33 1090.65C1085.79 1091.3 1137.03 1087.78 1187.85 1090.12C1294.58 1094.95 1397.28 1127.17 1467.87 1177.12C1489.77 1192.64 1508.7 1209.73 1523.58 1228.25C1586.52 1305.86 1579.07 1403.95 1503.38 1477.12" stroke="#897AFF" stroke-width="2" stroke-miterlimit="10"/>
<path d="M-153.599 39.0866C-50.2638 31.5214 63.2775 47.9561 154.068 85.2602C229.337 116.043 288.234 158.825 336.712 205.912C350.745 219.477 363.503 233.042 375.622 246.477C429.841 306.998 464.499 363.867 475.981 417.737C483.635 453.867 480.658 488.693 471.303 523.519C467.476 537.605 462.585 554.431 461.31 572.04C459.609 595.127 465.35 619.648 491.715 641.04C531.476 673.518 598.027 685.778 655.436 699.213C670.532 702.735 684.99 706.387 698.386 710.17C766.425 729.604 814.478 764.3 837.654 810.995C841.269 818.169 844.246 825.734 846.585 833.56C863.594 887.951 827.874 934.516 825.322 981.212C824.897 988.777 825.322 996.211 826.598 1003.65C831.488 1030.39 848.498 1057.25 882.093 1076.69C909.096 1092.21 952.259 1097.82 992.657 1099.78C1002.44 1100.3 1012.01 1100.56 1021.15 1100.69C1072.39 1101.34 1123.42 1097.43 1174.24 1099.25C1280.98 1103.17 1383.89 1134.73 1455.11 1184.17C1477.23 1199.56 1496.15 1216.51 1511.46 1234.91C1575.03 1312.12 1567.59 1409.95 1491.69 1482.86" stroke="#887CFF" stroke-width="2" stroke-miterlimit="10"/>
<path d="M-129.785 29.5646C-25.3867 24.3473 86.4536 41.8254 177.669 78.4774C253.151 108.738 313.961 150.607 362.44 197.433C376.473 210.868 389.018 224.433 400.925 237.998C453.655 298.911 483.848 358.258 489.376 415.258C493.416 453.475 486.399 490.779 471.941 527.562C466.2 542.431 458.971 560.301 455.782 578.692C451.529 602.822 455.144 628.387 480.446 650.3C518.931 683.561 586.12 694.909 645.017 707.039C660.751 710.169 675.635 713.43 689.456 716.822C760.472 734.561 812.352 768.343 837.654 814.908C841.482 822.082 844.671 829.516 847.435 837.342C865.934 891.603 827.661 937.385 821.282 984.994C820.219 992.689 819.794 1000.25 820.644 1007.95C823.196 1035.47 838.08 1064.04 870.824 1084.65C896.977 1101.21 939.927 1107.47 980.538 1109.69C990.106 1110.21 999.674 1110.47 1008.82 1110.6C1060.06 1111.25 1110.88 1106.82 1161.69 1108.25C1268.22 1111.38 1371.55 1142.3 1443.21 1191.21C1465.53 1206.47 1484.67 1223.3 1499.98 1241.56C1564.19 1318.25 1556.75 1416.08 1480.63 1488.6" stroke="#887FFF" stroke-width="2" stroke-miterlimit="10"/>
<path d="M-105.971 20.0438C-0.29727 17.1743 109.629 35.6959 201.058 71.6957C276.752 101.565 339.476 142.391 387.954 189.086C401.987 202.521 414.532 216.086 426.014 229.651C477.256 291.086 502.559 352.781 502.771 412.911C502.984 453.215 491.927 492.867 472.791 531.867C464.924 547.649 455.356 566.432 450.253 585.736C443.449 611.04 444.725 637.518 469.177 659.953C506.173 693.996 574 704.561 634.811 715.257C650.97 718.127 666.492 720.866 680.95 723.996C755.156 740.04 810.651 773.039 837.867 819.343C842.119 826.517 845.521 833.952 848.285 841.648C868.272 895.908 827.661 940.908 817.03 989.299C815.329 997.125 814.266 1004.82 814.478 1012.78C814.691 1041.08 827.661 1071.21 859.129 1093.25C884.219 1110.86 927.382 1117.78 967.993 1120.12C977.561 1120.65 987.129 1121.04 996.272 1121.17C1047.3 1121.82 1097.91 1116.99 1148.72 1117.91C1255.25 1120.12 1359.01 1150.52 1430.88 1198.91C1453.2 1213.91 1472.55 1230.73 1488.07 1248.86C1552.71 1325.17 1545.48 1422.86 1469.36 1495.12" stroke="#8781FF" stroke-width="2" stroke-miterlimit="10"/>
<path d="M-82.1572 10.5217C24.7927 9.86949 132.806 29.4346 224.447 64.9126C300.354 94.3907 364.779 134.173 413.469 180.608C427.503 193.912 439.835 207.477 451.104 221.303C501.071 283.129 521.27 347.302 515.954 410.563C512.34 452.954 497.243 495.084 473.217 536.04C463.436 552.736 451.529 572.301 444.3 592.518C434.945 618.996 434.094 646.387 457.483 669.344C493.204 704.3 561.668 713.952 623.967 723.213C640.552 725.691 656.499 728.039 671.595 730.909C748.778 745.256 807.887 777.343 837.229 823.517C841.695 830.56 845.522 837.995 848.498 845.691C869.761 899.821 827.023 944.168 812.352 993.342C810.014 1001.17 808.312 1009.25 807.887 1017.34C805.974 1046.43 816.605 1078.12 847.223 1101.6C871.462 1120.25 914.625 1127.82 955.023 1130.3C964.591 1130.95 974.159 1131.21 983.302 1131.34C1034.12 1131.99 1084.72 1126.65 1135.33 1127.3C1241.85 1128.6 1345.83 1158.47 1418.12 1206.34C1440.66 1221.21 1460.22 1237.91 1475.74 1255.91C1541.02 1331.82 1533.79 1429.38 1457.45 1501.25" stroke="#8783FF" stroke-width="2" stroke-miterlimit="10"/>
<path d="M-58.5562 1C139.184 4.13042 331.396 70.2605 438.772 172.129C558.692 285.998 555.29 418.65 473.429 540.084C446.213 580.649 406.027 637.388 445.788 678.735C489.376 723.996 588.246 726.083 662.239 737.691C754.518 752.3 824.259 791.561 848.711 849.604C875.076 912.342 809.801 960.864 801.083 1021.65C796.831 1051.52 805.548 1084.78 834.89 1109.56C863.807 1133.95 922.917 1140.6 969.906 1141.38C1020.51 1142.17 1070.9 1136.3 1121.72 1136.43C1261.2 1136.95 1397.49 1187.3 1463.19 1262.69C1529.11 1338.08 1521.88 1435.51 1445.33 1507.12" stroke="#8685FF" stroke-width="2" stroke-miterlimit="10"/>
<path d="M-77.2671 6.34766C23.7294 7.39113 123.45 23.8258 212.114 53.1735C298.865 81.869 375.197 122.956 429.841 173.564C471.516 212.042 498.732 253.129 512.34 295.52C525.31 335.563 526.16 376.389 516.805 416.693C509.788 446.954 496.818 476.823 479.383 506.301C472.154 518.562 464.074 530.692 455.356 542.823C444.512 557.692 431.968 574.779 422.612 592.518C406.453 622.779 398.586 655.779 423.675 682.257C450.891 710.822 501.07 722.561 552.526 729.865C582.931 734.169 613.761 736.909 641.615 740.822C666.705 744.474 690.306 749.691 711.781 756.604C760.259 772.256 798.744 796.126 821.708 827.821C826.173 833.821 830 840.212 833.189 846.734C850.624 882.342 837.654 914.168 821.92 946.646C810.651 969.733 798.106 992.951 794.704 1018.39C794.492 1019.3 794.492 1020.21 794.279 1021.12C791.09 1050.47 799.595 1082.82 828.299 1106.95C847.86 1123.38 880.817 1131.99 914.624 1136.04C932.059 1138.12 949.92 1138.91 966.292 1138.91C984.79 1139.04 1003.29 1138.12 1021.79 1136.95C1054.74 1134.86 1087.28 1131.86 1120.02 1131.21C1158.72 1130.43 1197.2 1133.3 1234.2 1139.3C1302.45 1150.38 1366.24 1172.69 1415.57 1204.38C1437.04 1218.08 1455.54 1233.6 1470.64 1250.3C1476.38 1256.82 1481.69 1263.47 1486.37 1270.25C1537.61 1343.69 1524.86 1433.17 1452.14 1499.43" stroke="#8B88FB" stroke-width="2" stroke-miterlimit="10"/>
<path d="M-96.1906 11.5654C6.08164 12.0872 107.078 27.3479 197.443 55.6521C285.682 83.4346 364.566 124 420.699 174.608C463.436 213.086 491.502 254.434 504.685 297.738C517.23 338.303 516.805 379.65 505.323 419.954C496.605 450.215 481.934 479.824 462.798 508.91C454.931 521.041 446.213 533.041 436.858 545.041C425.164 559.91 411.981 576.866 401.988 594.605C384.978 624.736 375.835 658.388 401.137 685.257C428.14 714.083 479.17 726.083 530.625 733.126C561.243 737.3 592.286 739.779 620.353 743.3C645.655 746.561 669.256 751.387 691.157 757.648C740.273 771.996 779.608 794.43 804.485 824.821C809.375 830.561 813.628 836.691 817.243 843.082C836.804 877.647 826.811 909.343 812.778 941.951C802.784 965.168 791.09 988.647 787.9 1014.08C787.688 1014.99 787.688 1015.91 787.688 1016.82C784.711 1046.3 792.791 1079.04 821.708 1103.3C841.694 1120.12 875.289 1128.99 909.947 1132.78C927.807 1134.73 945.88 1135.52 962.678 1135.38C981.601 1135.25 1000.52 1134.21 1019.24 1132.78C1052.62 1130.3 1085.57 1126.65 1118.74 1125.21C1157.87 1123.52 1196.56 1125.21 1233.99 1130.17C1303.09 1139.3 1369.21 1159.52 1420.88 1190.95C1443.21 1204.51 1462.56 1220.17 1478.29 1237.12C1484.24 1243.65 1489.77 1250.43 1494.66 1257.34C1548.03 1331.95 1534.64 1423.9 1459.15 1490.95" stroke="#8F8BF6" stroke-width="2" stroke-miterlimit="10"/>
<path d="M-115.114 16.9131C-11.7787 16.9131 90.7061 31 182.772 58.3911C272.712 85.1301 353.722 125.304 411.556 175.912C455.356 214.26 484.061 256.129 497.031 300.346C509.15 341.433 507.237 383.302 493.841 423.606C483.635 453.867 467.051 483.084 446.214 511.91C437.496 523.91 428.353 535.91 418.36 547.78C405.815 562.649 391.994 579.475 381.363 597.344C363.503 627.344 353.297 661.779 378.386 688.909C405.39 717.865 457.057 730.257 508.725 737.039C539.556 741.083 570.811 743.3 599.09 746.431C624.605 749.3 648.419 753.604 670.319 759.474C720.073 772.648 760.472 793.387 787.263 822.604C792.366 828.213 797.043 834.082 801.083 840.343C822.771 873.865 815.754 905.43 803.422 938.169C794.704 961.516 783.861 985.255 781.097 1010.82C781.097 1011.73 780.884 1012.65 780.884 1013.56C778.332 1043.17 785.562 1076.17 814.904 1100.69C835.528 1117.91 869.761 1126.91 905.056 1130.69C923.342 1132.65 941.628 1133.17 958.85 1132.91C978.199 1132.65 997.335 1131.34 1016.26 1129.52C1050.07 1126.52 1083.45 1122.21 1116.83 1119.99C1156.17 1117.38 1195.29 1118.04 1233.35 1121.82C1303.51 1128.86 1371.77 1147.12 1425.77 1178.3C1448.95 1191.73 1469.15 1207.51 1485.52 1224.73C1491.9 1231.38 1497.43 1238.3 1502.53 1245.21C1558.03 1321.12 1543.99 1415.43 1465.75 1483.12" stroke="#948DF2" stroke-width="2" stroke-miterlimit="10"/>
<path d="M-134.038 22.2612C-29.4265 21.8699 74.1214 34.6524 168.101 61.0001C259.53 86.826 343.091 126.478 402.626 177.086C447.489 215.434 477.044 257.695 489.376 302.694C501.071 344.303 497.881 386.694 482.36 426.867C470.665 457.128 451.954 485.954 429.841 514.519C420.486 526.389 410.493 538.258 400.074 550.128C386.891 564.997 372.008 581.693 360.951 599.562C342.24 629.431 330.759 664.518 356.061 692.04C382.852 721.127 435.37 733.909 487.037 740.431C518.081 744.344 549.336 746.3 578.04 749.04C603.555 751.518 627.582 755.431 649.907 760.648C700.087 772.518 741.548 791.822 770.253 819.735C775.781 825.082 780.884 830.822 785.349 836.822C808.95 869.169 804.91 900.734 794.492 933.604C787.05 957.082 776.844 981.082 774.505 1006.78C774.505 1007.69 774.293 1008.6 774.293 1009.52C771.954 1039.39 778.758 1072.65 808.1 1097.17C829.15 1114.78 864.02 1124.04 899.953 1127.69C918.452 1129.65 937.375 1130.04 954.81 1129.52C974.372 1128.99 993.933 1127.43 1013.07 1125.47C1047.3 1121.95 1081.11 1116.99 1114.7 1114.12C1154.46 1110.6 1193.8 1110.08 1232.5 1112.82C1303.73 1117.91 1374.11 1134.08 1430.24 1164.86C1454.48 1178.17 1475.31 1194.08 1492.32 1211.56C1498.92 1218.34 1504.87 1225.25 1509.97 1232.43C1567.38 1309.64 1552.92 1406.17 1471.91 1474.77" stroke="#9990EE" stroke-width="2" stroke-miterlimit="10"/>
<path d="M-152.961 27.4781C-47.287 26.5651 57.7492 38.1737 153.43 63.6083C246.347 88.5212 332.46 127.651 393.483 178.26C439.41 216.607 469.815 259.129 481.722 305.042C492.991 347.172 488.526 390.085 470.878 430.258C457.483 460.519 437.071 489.084 413.257 517.258C403.263 528.997 392.632 540.736 381.363 552.475C367.33 567.344 351.808 583.91 340.114 601.779C320.765 631.518 307.795 667.257 333.097 695.17C359.675 724.387 413.044 737.43 464.712 743.952C495.755 747.735 527.436 749.43 556.353 751.778C582.08 753.865 606.319 757.387 628.858 762.083C679.675 772.778 722.2 790.387 752.605 817.126C758.558 822.213 764.087 827.691 768.764 833.56C794.492 864.864 793.216 896.299 784.711 929.299C778.545 952.907 769.19 977.168 767.063 1002.99C767.063 1003.91 766.851 1004.82 766.851 1005.73C764.937 1035.73 771.103 1069.25 800.658 1094.04C822.133 1111.91 857.641 1121.56 894.425 1125.08C913.349 1126.91 932.485 1127.3 950.345 1126.65C970.332 1125.99 990.106 1124.17 1009.67 1121.82C1044.54 1117.78 1078.56 1112.3 1112.58 1108.52C1152.76 1104.21 1192.31 1102.52 1231.65 1104.21C1303.94 1107.21 1376.66 1121.56 1434.92 1151.95C1460.01 1165.12 1481.69 1181.17 1499.34 1198.78C1506.14 1205.56 1512.31 1212.73 1517.84 1219.91C1577.37 1298.3 1562.28 1397.3 1478.5 1466.56" stroke="#9D93E9" stroke-width="2" stroke-miterlimit="10"/>
<path d="M-171.885 32.8264C-64.9349 31.3916 41.1646 41.8263 138.759 66.2175C233.377 90.0869 321.616 128.695 384.34 179.565C431.33 217.912 462.373 260.825 474.067 307.52C484.698 350.172 478.958 393.607 459.396 433.781C444.512 464.041 422.187 492.215 396.672 520.128C386.041 531.736 374.772 543.345 362.865 555.084C347.981 569.823 331.822 586.519 319.489 604.388C299.29 633.866 285.257 670.388 310.559 698.562C336.925 727.909 391.144 741.344 443.024 747.605C474.28 751.257 506.173 752.692 535.303 754.779C561.03 756.605 585.482 759.474 608.446 763.648C659.688 773.039 703.489 789.213 735.807 814.648C741.974 819.604 747.927 824.822 753.243 830.561C780.884 860.822 782.797 892.126 775.993 925.256C771.103 948.995 762.598 973.517 760.684 999.473C760.684 1000.39 760.472 1001.3 760.472 1002.21C758.771 1032.34 764.299 1066.26 794.066 1091.04C816.179 1109.3 852.325 1119.08 889.747 1122.6C909.096 1124.43 928.445 1124.56 946.731 1123.78C967.142 1122.86 987.129 1120.91 1006.9 1118.3C1042.2 1113.73 1076.64 1107.6 1110.88 1103.17C1151.27 1097.95 1191.46 1095.21 1231.01 1095.73C1304.15 1096.65 1379.21 1109.04 1439.59 1139.17C1465.75 1152.21 1488.07 1168.38 1506.36 1186.25C1513.37 1193.17 1519.75 1200.34 1525.49 1207.78C1587.15 1287.47 1571.42 1388.82 1484.88 1458.86" stroke="#A296E5" stroke-width="2" stroke-miterlimit="10"/>
<path d="M-190.596 38.043C-82.5825 36.0865 25.0053 45.3473 124.088 68.8255C220.194 91.7819 310.985 129.869 375.197 180.738C423.25 219.085 454.931 262.39 466.413 309.998C476.619 353.172 469.602 397.128 448.127 437.302C431.755 467.562 407.516 495.475 380.3 522.997C368.818 534.475 356.911 546.084 344.579 557.562C328.845 572.301 312.048 588.866 299.29 606.735C278.241 636.083 262.932 673.257 288.234 701.822C314.599 731.3 369.456 745.126 421.337 751.126C452.805 754.778 484.699 755.821 514.253 757.517C540.193 758.952 564.858 761.43 587.821 765.082C639.701 773.3 684.353 787.778 718.585 812.038C725.176 816.734 731.555 821.821 737.083 827.299C766.851 856.386 771.741 887.69 766.638 920.951C763.024 944.82 755.369 969.603 753.668 995.69C753.668 996.603 753.455 997.516 753.455 998.429C751.967 1028.69 757.07 1062.99 787.05 1087.91C809.588 1106.56 846.372 1116.6 884.645 1119.99C904.206 1121.69 924.193 1121.82 942.691 1120.91C963.315 1119.86 983.727 1117.51 1003.93 1114.65C1039.65 1109.56 1074.52 1102.78 1109.18 1097.56C1150 1091.43 1190.4 1087.52 1230.58 1086.99C1304.79 1085.95 1381.97 1096.25 1444.7 1126.12C1471.7 1139.04 1494.88 1155.34 1513.8 1173.47C1521.03 1180.51 1527.62 1187.82 1533.57 1195.25C1597.36 1276.25 1580.99 1379.82 1491.69 1450.77" stroke="#A799E1" stroke-width="2" stroke-miterlimit="10"/>
<path d="M-209.519 43.3903C-100.23 40.912 8.63316 48.8685 109.417 71.4336C207.224 93.4769 300.353 131.042 366.054 181.911C415.383 220.128 447.702 263.954 458.546 312.345C468.326 356.041 460.034 400.519 436.433 440.692C418.36 470.953 392.42 498.475 363.503 525.735C351.383 537.083 338.838 548.561 325.868 560.039C309.284 574.778 291.848 591.213 278.453 609.213C256.553 638.43 240.181 676.256 265.27 705.212C291.423 734.821 346.918 749.038 399.224 754.777C430.905 758.299 463.011 759.082 492.778 760.386C518.718 761.429 543.595 763.386 566.984 766.516C619.29 773.429 665.216 786.342 701.15 809.429C708.166 813.864 714.97 818.69 720.924 824.038C752.605 852.081 760.472 883.385 757.283 916.776C754.944 940.776 748.14 965.689 746.651 991.906C746.651 992.819 746.651 993.732 746.439 994.776C745.376 1025.17 749.628 1059.73 780.033 1084.91C802.997 1103.95 840.631 1114.12 879.329 1117.51C899.315 1119.21 919.515 1119.21 938.438 1118.04C959.488 1116.73 980.325 1114.25 1000.52 1111.12C1036.88 1105.51 1071.97 1098.21 1106.84 1092.21C1148.09 1085.17 1188.7 1080.21 1229.52 1078.51C1304.79 1075.38 1384.1 1083.73 1449.16 1113.34C1477.02 1126.12 1501.04 1142.56 1520.6 1160.95C1528.05 1167.99 1534.85 1175.43 1541.02 1182.99C1606.93 1265.17 1589.92 1371.21 1497.85 1442.82" stroke="#AC9CDC" stroke-width="2" stroke-miterlimit="10"/>
<path d="M-228.443 48.7391C-118.091 45.7391 -7.95153 52.5217 94.7459 74.1737C194.041 95.1736 289.51 132.347 356.911 183.217C407.303 221.434 440.473 265.651 450.891 314.824C460.247 359.042 450.466 404.041 424.951 444.085C405.39 474.345 377.536 501.606 347.131 528.475C334.373 539.693 321.191 551.04 307.583 562.388C290.147 577.127 272.074 593.432 258.041 611.431C235.503 640.518 217.643 679.127 242.945 708.344C268.885 738.213 325.23 752.692 377.536 758.3C409.43 761.691 441.748 762.344 471.516 763.126C497.669 763.909 522.758 765.344 546.359 767.822C599.303 773.431 646.293 784.909 684.14 806.822C691.369 811.126 698.598 815.691 704.977 820.778C738.572 847.778 749.628 878.952 748.14 912.473C747.077 936.604 740.91 961.777 739.847 988.125C739.847 989.038 739.847 989.951 739.847 990.995C738.997 1021.52 742.824 1056.47 773.229 1081.65C796.618 1100.95 834.89 1111.52 874.438 1114.78C894.85 1116.47 915.262 1116.21 934.824 1114.91C956.299 1113.47 977.348 1110.73 997.973 1107.34C1034.76 1101.21 1070.27 1093.25 1105.35 1086.47C1146.81 1078.52 1187.85 1072.39 1229.31 1069.65C1305.64 1064.56 1387.29 1070.82 1454.26 1100.04C1483.18 1112.69 1507.85 1129.25 1528.04 1147.91C1535.7 1155.08 1542.72 1162.65 1549.09 1170.34C1617.13 1253.82 1599.27 1362.21 1504.66 1434.6" stroke="#B09ED8" stroke-width="2" stroke-miterlimit="10"/>
<path d="M-247.366 53.9562C-135.739 50.4345 -24.3236 56.0432 80.0749 76.6518C181.071 96.7386 278.878 133.391 347.769 184.39C399.224 222.607 433.243 267.085 443.237 317.172C452.167 361.911 441.111 407.432 413.469 447.476C392.42 477.736 362.44 504.606 330.546 531.214C317.151 542.301 303.33 553.519 289.084 564.866C270.799 579.605 251.875 595.779 237.417 613.779C214.028 642.735 195.105 681.996 220.194 711.605C245.922 741.604 303.118 756.343 355.423 761.822C387.529 765.083 419.848 765.474 450.041 765.865C476.406 766.256 501.496 767.3 525.522 769.256C578.891 773.691 627.157 783.474 666.705 804.213C674.359 808.256 682.014 812.561 688.818 817.647C724.326 843.473 738.572 874.647 738.784 908.299C738.997 932.56 733.681 957.994 732.831 984.473C732.831 985.386 732.831 986.429 732.831 987.342C732.193 1017.99 735.382 1053.21 766.213 1078.65C790.239 1098.34 828.937 1109.17 869.336 1112.3C890.173 1113.86 911.01 1113.6 930.784 1112.17C952.472 1110.47 973.947 1107.47 994.784 1103.82C1031.99 1097.17 1067.71 1088.56 1103.43 1081.12C1145.32 1072.25 1186.57 1065.08 1228.46 1061.3C1305.85 1054.12 1389.63 1058.43 1458.94 1087.38C1488.71 1099.91 1514.44 1116.6 1535.06 1135.52C1542.93 1142.82 1550.16 1150.38 1556.75 1158.21C1626.92 1242.99 1608.42 1353.6 1511.04 1426.77" stroke="#B5A1D4" stroke-width="2" stroke-miterlimit="10"/>
<path d="M-266.29 59.3044C-153.599 55.261 -40.9083 59.6957 65.4038 79.3912C167.889 98.565 268.247 134.565 338.838 185.695C391.357 223.912 426.014 268.781 435.795 319.651C444.3 364.911 431.968 410.955 402.2 450.998C379.45 481.258 347.769 507.867 314.174 534.084C299.928 545.041 285.47 556.128 270.799 567.475C251.663 582.084 232.101 598.388 217.005 616.388C192.766 645.214 172.566 685.127 197.869 715.127C223.596 745.257 281.43 760.387 333.948 765.605C366.267 768.735 398.798 768.605 429.204 768.865C455.569 769.126 481.084 769.387 505.11 770.822C559.117 774.083 608.446 782.17 649.695 801.735C657.775 805.517 665.642 809.691 673.084 814.517C710.505 839.3 727.728 870.343 729.854 904.126C731.343 928.517 726.877 954.212 726.24 980.821C726.24 981.734 726.24 982.777 726.24 983.69C726.027 1014.47 728.578 1050.08 759.409 1075.52C783.861 1095.6 823.409 1106.56 864.445 1109.56C885.495 1111.12 906.757 1110.73 926.957 1109.04C949.069 1107.21 970.757 1103.95 992.02 1100.04C1029.65 1092.99 1065.8 1083.73 1101.73 1075.39C1144.05 1065.6 1185.72 1057.39 1228.03 1052.43C1306.28 1043.3 1392.39 1045.65 1464.04 1074.21C1494.88 1086.6 1521.24 1103.43 1542.5 1122.6C1550.58 1130.04 1558.02 1137.73 1564.83 1145.56C1637.12 1231.52 1617.98 1344.6 1517.63 1418.56" stroke="#BAA4CF" stroke-width="2" stroke-miterlimit="10"/>
<path d="M-285.213 64.5215C-171.247 60.0867 -57.2803 63.2171 50.7327 81.8692C154.706 100.13 257.616 135.608 329.696 186.738C383.277 224.955 418.785 270.216 427.928 321.998C436.008 367.781 422.4 414.346 390.506 454.389C366.267 484.65 332.672 510.867 297.377 536.823C282.493 547.649 267.397 558.736 252.088 569.823C232.101 584.432 211.902 600.605 196.168 618.605C171.078 647.301 149.603 687.866 174.905 718.126C200.42 748.387 259.104 763.909 311.622 768.865C344.154 771.865 376.685 771.735 407.516 771.474C434.094 771.213 459.609 771.213 484.061 772.126C538.492 774.083 589.097 780.735 632.26 798.996C640.765 802.517 649.057 806.561 656.711 811.126C696.047 834.865 716.459 865.778 720.286 899.691C723.05 924.212 719.435 950.169 719.01 976.908C719.01 977.821 719.01 978.864 719.01 979.777C719.01 1010.82 721.137 1046.56 752.18 1072.25C777.057 1092.73 817.243 1103.95 858.917 1106.82C880.392 1108.39 901.867 1107.86 922.491 1106.04C945.03 1104.08 966.93 1100.56 988.405 1096.25C1026.68 1088.69 1063.04 1078.78 1099.18 1069.78C1141.71 1059.08 1183.81 1049.69 1226.76 1043.69C1306.07 1032.47 1394.3 1032.86 1468.08 1061.17C1499.77 1073.43 1526.98 1090.39 1548.88 1109.69C1557.39 1117.12 1565.04 1124.95 1571.85 1133.04C1646.26 1220.3 1626.49 1335.73 1523.37 1410.47" stroke="#BEA7CB" stroke-width="2" stroke-miterlimit="10"/>
<path d="M-303.924 69.869C-188.895 64.9125 -73.4398 66.869 36.2742 84.6081C141.948 101.825 246.985 136.912 320.765 188.042C375.41 226.129 411.768 271.911 420.486 324.476C428.14 370.78 413.044 417.867 379.237 457.91C353.509 488.171 318.001 514.127 281.217 539.692C265.696 550.388 249.749 561.344 234.015 572.431C213.177 587.04 192.34 603.083 175.968 621.214C150.241 649.779 127.49 690.996 152.792 721.648C178.094 752.039 237.629 767.952 290.147 772.778C322.892 775.647 355.636 775.256 386.679 774.604C413.257 773.952 439.197 773.561 463.861 773.821C518.931 774.604 570.598 779.561 615.462 796.647C624.18 800.039 632.897 803.821 641.19 808.256C682.439 830.952 706.04 861.734 711.781 895.777C716.033 920.429 712.844 946.647 713.057 973.516C713.057 974.429 713.057 975.472 713.057 976.386C713.269 1007.56 714.758 1043.69 746.226 1069.38C771.528 1090.25 812.565 1101.6 854.877 1104.47C876.777 1105.91 898.677 1105.25 919.515 1103.3C942.265 1101.08 964.803 1097.3 986.491 1092.86C1025.19 1084.78 1061.97 1074.21 1098.54 1064.43C1141.49 1052.82 1183.81 1042.39 1227.18 1035.21C1307.55 1021.91 1398.13 1020.34 1474.04 1048.39C1506.78 1060.39 1534.64 1077.6 1557.17 1097.17C1565.89 1104.73 1573.76 1112.69 1580.78 1120.78C1657.32 1209.34 1636.91 1327.12 1531.02 1402.51" stroke="#C3AAC6" stroke-width="2" stroke-miterlimit="10"/>
<path d="M-322.848 75.2167C-206.542 69.7385 -90.0244 70.5211 21.6032 87.2167C128.766 103.521 236.354 138.086 311.623 189.216C367.33 227.303 404.539 273.346 412.832 326.824C420.061 373.65 403.689 421.258 367.968 461.171C340.539 491.432 303.33 516.997 264.845 542.301C248.686 552.866 232.101 563.692 215.729 574.649C194.041 589.257 172.566 605.17 155.556 623.3C128.978 651.605 104.952 693.604 130.254 724.648C155.344 755.169 215.729 771.343 268.46 776.039C301.417 778.908 334.373 778.256 365.629 777.082C392.42 776.169 418.36 775.126 443.237 774.995C498.944 774.473 551.463 777.865 598.24 793.778C607.383 796.908 616.525 800.43 625.03 804.734C668.193 826.386 694.771 857.038 702.426 891.212C707.954 916.125 705.615 942.472 706.04 969.342C706.04 970.385 706.04 971.298 706.04 972.342C706.678 1003.65 707.529 1040.04 738.997 1065.99C764.937 1087.12 806.399 1098.86 849.562 1101.6C871.674 1103.04 894 1102.25 915.262 1100.04C938.438 1097.69 961.189 1093.65 983.089 1088.82C1022.21 1080.21 1059.42 1069.12 1096.21 1058.56C1139.58 1046.17 1182.11 1034.56 1226.12 1026.21C1307.55 1010.95 1400.26 1007.3 1478.29 1035.08C1511.89 1046.95 1540.59 1064.3 1563.77 1084.12C1572.7 1091.82 1580.78 1099.78 1588.01 1107.99C1666.68 1197.73 1645.63 1317.86 1536.98 1394.17" stroke="#FFB5EA" stroke-width="2" stroke-miterlimit="10"/>
<path d="M-341.771 80.4341C-224.19 74.4342 -106.397 74.0429 6.93212 89.8254C115.796 105.217 225.722 139.26 302.48 190.52C359.25 228.607 397.31 275.042 405.177 329.302C412.194 376.65 394.333 424.78 356.486 464.693C327.569 495.084 288.446 520.127 248.26 545.171C231.251 555.605 214.241 566.301 197.231 577.257C174.693 591.735 152.58 607.648 135.144 625.779C107.929 653.953 82.6263 696.735 107.929 728.039C133.018 758.821 194.041 775.256 246.772 779.691C279.941 782.43 312.898 781.517 344.579 779.952C371.582 778.647 397.735 777.213 422.825 776.43C478.958 774.734 532.751 776.561 581.442 791.169C591.01 794.039 600.579 797.43 609.509 801.473C654.585 822.082 684.352 852.603 693.708 886.908C700.512 911.951 699.024 938.429 699.661 965.559C699.661 966.603 699.661 967.516 699.661 968.559C700.512 999.994 700.725 1036.78 732.618 1062.86C758.984 1084.38 801.296 1096.25 845.096 1098.99C867.634 1100.43 890.172 1099.52 911.86 1097.17C935.461 1094.69 958.425 1090.38 980.75 1085.3C1020.51 1076.17 1057.93 1064.43 1094.93 1053.08C1138.52 1039.78 1181.47 1026.99 1226.12 1017.73C1308.62 1000.39 1403.45 994.777 1483.82 1022.17C1518.26 1033.91 1547.82 1051.38 1571.63 1071.47C1580.78 1079.17 1589.07 1087.38 1596.51 1095.73C1677.31 1186.78 1655.62 1309.25 1544.2 1386.21" stroke="#FFB3DA" stroke-width="2" stroke-miterlimit="10"/>
<path d="M-360.695 85.7818C-242.051 79.2601 -122.981 77.5644 -7.95146 92.4339C102.4 106.782 214.666 140.303 293.124 191.694C350.958 229.781 389.868 276.607 397.098 331.78C403.689 379.65 384.34 428.302 344.579 468.214C314.174 498.605 272.925 523.388 231.251 548.04C213.603 558.475 195.742 568.909 178.307 579.866C154.919 594.344 132.168 610.257 114.095 628.387C86.0284 656.431 59.4504 699.865 84.7527 731.561C109.63 762.473 171.503 779.299 224.447 783.473C257.616 786.082 290.998 784.908 322.892 782.952C349.895 781.256 376.26 779.43 401.775 778.125C458.546 775.256 513.403 775.386 563.795 788.821C573.788 791.43 583.569 794.691 592.924 798.473C639.914 818.038 672.871 848.429 683.927 882.864C692.007 908.038 691.369 934.777 692.22 962.037C692.22 963.081 692.22 963.994 692.432 965.037C693.495 996.602 693.283 1033.78 725.176 1059.86C751.967 1081.78 794.917 1093.91 839.356 1096.51C862.319 1097.82 885.07 1096.91 907.183 1094.3C930.997 1091.56 954.385 1086.99 976.923 1081.65C1017.11 1071.99 1054.96 1059.6 1092.38 1047.6C1136.39 1033.38 1179.55 1019.56 1224.84 1009.12C1308.19 989.82 1405.57 982.255 1488.07 1009.25C1523.58 1020.86 1553.77 1038.47 1578.22 1058.82C1587.58 1066.65 1596.08 1074.86 1603.74 1083.34C1686.66 1175.56 1664.34 1300.51 1550.16 1378.25" stroke="#FFBCEC" stroke-width="2" stroke-miterlimit="10"/>
<path d="M-379.618 90.9995C-259.698 83.9561 -139.353 81.0866 -22.6226 95.043C89.2177 108.478 204.035 141.478 283.981 192.869C342.878 230.825 382.639 278.042 389.443 334.129C395.609 382.65 374.984 431.693 333.098 471.606C300.991 501.997 258.041 526.388 214.666 550.779C196.38 561.084 177.882 571.388 159.809 582.214C135.57 596.692 112.181 612.475 93.4702 630.605C64.5533 658.518 36.9122 702.605 62.2144 734.561C86.8788 765.604 149.603 782.822 202.546 786.865C235.928 789.343 269.523 787.908 301.629 785.561C328.845 783.604 355.423 781.256 381.151 779.3C438.347 775.126 494.479 773.691 546.572 785.952C556.778 788.43 567.197 791.3 576.977 795.082C625.881 813.604 662.027 843.865 674.784 878.43C684.14 903.734 684.353 930.734 685.416 958.125C685.416 959.168 685.416 960.081 685.628 961.125C687.117 992.82 686.054 1030.25 718.372 1056.6C745.801 1078.91 789.176 1091.3 834.465 1093.78C857.641 1095.08 881.03 1093.91 903.355 1091.17C927.595 1088.3 951.196 1083.47 973.947 1077.86C1014.56 1067.69 1052.83 1054.78 1090.46 1041.86C1134.9 1026.73 1178.49 1011.73 1223.99 1000.26C1308.4 978.864 1407.91 969.342 1492.54 996.081C1528.9 1007.56 1559.94 1025.3 1585.03 1045.91C1594.6 1053.86 1603.31 1062.21 1611.18 1070.82C1696.23 1164.34 1673.05 1291.51 1556.32 1370.17" stroke="#FFA9E7" stroke-width="2" stroke-miterlimit="10"/>
<path d="M-398.542 96.3471C-277.559 88.782 -155.725 84.7385 -37.2938 97.6515C76.2475 110.173 193.403 142.651 275.051 194.042C335.224 231.998 375.41 279.607 382.001 336.476C387.742 385.519 365.841 435.084 321.828 474.997C288.234 505.388 243.37 529.518 198.506 553.518C179.583 563.692 160.447 573.866 141.736 584.692C116.646 599.17 92.6196 614.822 73.2708 633.083C43.716 660.866 14.5865 705.604 39.8888 737.952C64.3405 769.126 127.703 786.734 180.859 790.517C214.453 792.865 248.048 791.3 280.579 788.56C307.795 786.213 334.586 783.343 360.526 780.865C418.36 775.517 475.555 772.387 529.349 783.473C539.981 785.691 550.612 788.43 560.818 791.952C611.635 809.43 650.758 839.691 665.429 874.386C676.06 899.821 676.911 927.081 678.399 954.603C678.399 955.646 678.612 956.559 678.612 957.603C680.313 989.429 678.824 1027.25 711.356 1053.6C739.209 1076.17 783.435 1088.82 829.362 1091.3C852.963 1092.6 876.565 1091.3 899.315 1088.43C923.98 1085.3 948.006 1080.34 970.97 1074.34C1012.22 1063.65 1050.7 1050.08 1088.76 1036.39C1133.41 1020.34 1177.43 1004.3 1223.57 991.646C1309.04 968.168 1410.68 956.69 1497.64 983.168C1535.06 994.516 1566.74 1012.39 1592.47 1033.25C1602.25 1041.21 1611.18 1049.69 1619.26 1058.43C1706.44 1153.25 1682.62 1282.77 1563.13 1362.08" stroke="#FD92DF" stroke-width="2" stroke-miterlimit="10"/>
<path d="M-417.466 101.695C-295.207 93.6081 -172.31 88.3907 -51.9648 100.391C63.0648 111.999 182.772 143.956 265.908 195.347C327.144 233.303 368.18 281.303 374.347 338.955C379.662 388.519 356.273 438.606 310.347 478.388C275.264 508.78 228.486 532.519 181.922 556.258C162.148 566.301 142.374 576.475 123.237 587.04C97.2973 601.388 72.6329 617.04 52.6462 635.301C22.241 662.953 -8.16422 708.344 17.138 741.083C41.5898 772.387 105.59 790.256 158.958 793.908C192.765 796.126 226.573 794.3 259.317 791.169C286.745 788.561 313.749 785.169 339.901 782.169C398.16 775.517 456.632 770.822 512.339 780.735C523.396 782.691 534.452 785.3 545.084 788.561C597.814 804.995 640.339 835.126 656.499 869.951C668.618 895.516 670.107 923.038 671.808 950.69C671.808 951.734 672.02 952.777 672.02 953.69C673.934 985.777 672.02 1023.73 704.552 1050.34C732.831 1073.3 777.694 1086.21 824.472 1088.56C848.498 1089.73 872.312 1088.43 895.701 1085.3C920.578 1082.04 945.03 1076.82 968.206 1070.56C1009.88 1059.34 1048.79 1045.12 1087.06 1030.78C1132.14 1013.82 1176.36 996.733 1223.14 982.907C1309.68 957.473 1413.44 943.908 1502.53 970.125C1540.8 981.342 1573.33 999.342 1599.7 1020.47C1609.69 1028.56 1618.84 1037.17 1627.13 1045.91C1716.43 1141.91 1691.98 1273.91 1569.72 1353.99" stroke="#FF8DDF" stroke-width="2" stroke-miterlimit="10"/>
<path d="M-436.176 106.912C-312.854 98.3035 -188.469 91.9122 -66.4231 102.869C50.3075 113.434 172.141 144.868 256.978 196.52C319.277 234.477 361.164 282.868 366.905 341.302C371.795 391.389 347.131 441.997 299.29 481.779C262.719 512.171 214.028 535.649 165.762 558.996C145.35 568.909 124.939 578.953 105.165 589.518C78.3739 603.866 53.0716 619.518 32.4471 637.648C1.40394 665.17 -30.2771 711.213 -4.9748 744.343C19.2643 775.778 84.1147 794.039 137.483 797.43C171.503 799.647 205.31 797.43 238.48 793.908C266.121 790.908 293.124 787.125 319.702 783.473C378.599 775.647 438.134 769.256 495.542 777.995C507.024 779.691 518.293 782.169 529.349 785.299C583.994 800.691 629.495 830.69 647.569 865.647C660.964 891.342 663.303 919.125 665.216 946.777C665.216 947.82 665.429 948.864 665.429 949.777C667.768 981.994 665.004 1020.34 697.96 1047.08C726.665 1070.43 772.379 1083.47 819.581 1085.69C844.033 1086.86 868.272 1085.43 891.874 1082.17C917.176 1078.65 941.84 1073.17 965.442 1066.65C1007.54 1055.04 1046.88 1040.17 1085.36 1024.91C1130.86 1007.04 1175.3 988.776 1222.72 973.907C1310.11 946.385 1416.42 930.864 1507.63 956.69C1546.76 967.777 1580.14 985.907 1607.14 1007.17C1617.56 1015.39 1626.91 1023.99 1635.21 1032.99C1726.64 1130.3 1701.55 1264.64 1576.52 1345.38" stroke="#FF6DD6" stroke-width="2" stroke-miterlimit="10"/>
<path d="M-455.1 112.26C-330.502 103.26 -205.054 95.564 -81.0942 105.607C37.1248 115.26 161.51 146.172 247.835 197.824C311.197 235.781 353.935 284.432 359.038 343.91C363.503 394.519 337.563 445.649 287.596 485.431C249.324 515.822 198.932 538.909 148.965 561.996C127.915 571.779 106.653 581.691 86.4536 592.126C58.8124 606.344 32.8723 621.996 11.6099 640.256C-20.0711 667.778 -53.2404 714.473 -27.9382 747.864C-3.91165 779.429 61.7892 798.082 115.158 801.342C149.39 803.429 183.41 801.082 216.792 797.038C244.433 793.777 271.862 789.343 298.652 785.299C357.975 776.169 418.785 768.212 477.895 775.777C489.589 777.212 501.496 779.43 512.978 782.43C569.536 796.908 618.226 826.647 638 861.733C652.672 887.559 655.861 915.603 657.987 943.385C657.987 944.429 658.2 945.472 658.2 946.515C660.751 978.863 657.562 1017.47 690.731 1044.34C720.073 1068.08 766.213 1081.38 814.266 1083.47C838.93 1084.51 863.595 1082.95 887.621 1079.56C913.349 1075.91 938.226 1070.17 962.04 1063.38C1004.56 1051.25 1044.11 1035.73 1083.24 1019.82C1128.95 1001.04 1173.81 981.733 1221.65 965.82C1310.11 936.342 1418.54 918.863 1512.1 944.298C1552.28 955.255 1586.3 973.515 1613.95 995.037C1624.58 1003.25 1634.14 1012.12 1642.65 1021.12C1736.2 1119.73 1710.48 1256.3 1582.69 1337.95" stroke="#FF41CA" stroke-width="2" stroke-miterlimit="10"/>
<path d="M-474.024 117.477C-348.363 107.956 -221.426 99.0861 -95.7654 108.086C24.1546 116.825 150.879 147.216 238.692 198.868C303.117 236.694 346.493 285.868 351.383 346.128C355.423 397.258 327.994 448.91 276.114 488.692C236.353 519.084 183.835 541.91 132.38 564.605C110.693 574.257 88.7923 584.04 67.9552 594.474C39.4635 608.692 12.8855 624.213 -8.80215 642.474C-41.3336 669.735 -75.5661 717.213 -50.2639 750.995C-26.45 782.821 40.1014 801.734 93.6827 804.734C128.128 806.69 162.36 804.082 195.955 799.647C223.809 795.995 251.237 791.169 278.24 786.473C338.2 776.169 400.074 766.517 461.097 772.908C473.217 774.212 485.336 776.169 497.243 778.908C555.715 792.473 607.595 821.951 629.07 857.168C645.017 883.125 648.844 911.299 651.608 939.342C651.608 940.385 651.821 941.429 651.821 942.472C654.798 974.95 650.758 1013.95 684.14 1040.95C713.907 1065.08 760.684 1078.51 809.588 1080.6C834.678 1081.65 859.555 1079.95 884.006 1076.3C909.947 1072.51 935.249 1066.51 959.488 1059.34C1002.65 1046.69 1042.41 1030.52 1081.75 1013.82C1127.89 994.124 1173.18 973.776 1221.44 956.69C1310.96 925.124 1421.52 905.69 1517.2 930.864C1558.24 941.69 1593.11 960.081 1621.39 981.863C1632.23 990.211 1642.01 999.081 1650.73 1008.21C1746.41 1107.99 1720.04 1247.04 1589.49 1329.47" stroke="#FF1BBF" stroke-width="2" stroke-miterlimit="10"/>
<path d="M-492.947 122.825C-366.01 112.782 -237.798 102.738 -110.436 110.825C99.849 124.26 333.31 204.216 343.729 348.607C347.343 400.258 318.639 452.432 264.633 492.084C223.384 522.475 168.952 544.91 116.008 567.344C62.8524 589.779 9.48369 613.257 -29.4265 644.822C-62.8085 671.952 -98.3167 720.083 -73.0145 754.126C-49.2006 786.082 17.9887 805.386 71.57 808.126C134.719 811.517 196.806 799.386 257.403 787.778C318.001 776.169 380.725 764.952 443.662 770.169C517.655 776.3 591.648 810.212 619.715 852.864C637.575 879.864 642.04 909.473 644.805 938.69C647.994 971.298 643.529 1010.69 677.123 1037.69C707.316 1062.08 754.944 1075.91 804.485 1077.86C857.003 1079.95 909.096 1069.91 956.299 1055.69C1051.13 1026.99 1130.01 981.603 1220.59 948.081C1311.17 914.56 1423.86 893.038 1521.88 917.951C1579.93 932.69 1626.06 962.429 1658.38 995.951C1756.19 1097.04 1729.19 1238.43 1595.87 1321.51" stroke="#F900B3" stroke-width="2" stroke-miterlimit="10"/>
</svg>
