<svg width="1440" height="2630" viewBox="0 0 1440 2630" fill="none" xmlns="http://www.w3.org/2000/svg">
  <path d="M1993.88 1146.49C1933.74 1246.1 1801.85 1327.43 1711.63 1320.54C1617.39 1313.25 1582.01 1225.5 1492.35 1210.63C1406.32 1196.39 1288.25 1252.47 1185.28 1320.45C1082.31 1388.44 984.293 1470.57 878.814 1528.49C773.335 1586.4 652.211 1615.66 596.11 1564.87C547.623 1520.8 560.242 1432.02 561.706 1354.38C562.979 1276.85 540.777 1196.43 457.539 1200.22C359.644 1204.54 258.528 1310.3 164.422 1370.44C4.61885 1472.32 -169.946 1512.17 -282.249 1462.69C-396.924 1412.34 -436.338 1273.45 -380.311 1117.54"
    stroke="#9254FF" stroke-width="2" stroke-miterlimit="10">
    <animate attributeName="d" dur="5s" repeatCount="indefinite"
      values="M1993.88 1146.49C1933.74 1246.1 1801.85 1327.43 1711.63 1320.54C1617.39 1313.25 1582.01 1225.5 1492.35 1210.63C1406.32 1196.39 1288.25 1252.47 1185.28 1320.45C1082.31 1388.44 984.293 1470.57 878.814 1528.49C773.335 1586.4 652.211 1615.66 596.11 1564.87C547.623 1520.8 560.242 1432.02 561.706 1354.38C562.979 1276.85 540.777 1196.43 457.539 1200.22C359.644 1204.54 258.528 1310.3 164.422 1370.44C4.61885 1472.32 -169.946 1512.17 -282.249 1462.69C-396.924 1412.34 -436.338 1273.45 -380.311 1117.54"/>
  </path>
<path d="M1973.79 1169.36C1911.99 1267.15 1781.48 1346.38 1691.45 1340.08C1618 1335.05 1578.95 1282.7 1523.59 1252.19C1507.72 1243.52 1490.71 1236.51 1471.22 1232.91C1386.3 1217.58 1272.3 1268.2 1173.6 1329.77C1106.1 1371.93 1041.25 1420 975.186 1462.77C944.532 1482.67 913.777 1501.17 882.053 1517.31C841.775 1537.86 798.602 1554.27 757.16 1563.96C695.301 1578.41 638.273 1577.81 603.679 1549.81C594.662 1542.63 587.719 1534.05 582.05 1524.4C556.087 1479.93 561.626 1411.64 560.92 1349.32C560.847 1339.45 560.326 1329.52 559.582 1319.55C553.52 1253.73 529.73 1193.03 460.935 1193.2C449.006 1193.26 437.21 1194.87 425.102 1197.96C379.253 1209.28 332.458 1239.37 285.582 1272.92C248.049 1299.81 210.431 1329.19 173.778 1352.31C164.846 1357.91 155.881 1363.37 146.884 1368.69C98.0368 1397.38 48.2083 1420.81 -0.495831 1437.72C-102.792 1472.97 -200.093 1478.62 -272.213 1447.93C-294.32 1438.56 -313.723 1425.81 -330.067 1410.27C-399.164 1345.13 -416.109 1230.48 -370.605 1104.93" stroke="#9156FF" stroke-width="2" stroke-miterlimit="10"/>
<path d="M1953.51 1192.33C1890.21 1288.05 1761.09 1365.33 1671.08 1359.74C1597.62 1355.4 1557.31 1305.01 1501.84 1274.78C1486.02 1266.26 1469.21 1259.14 1449.9 1255.3C1366.26 1238.63 1255.97 1284.16 1161.53 1339.32C1097 1377.13 1035.41 1420.19 973.115 1458.31C944.17 1476.06 915.123 1492.42 884.949 1506.68C846.737 1524.71 805.441 1538.72 764.666 1547.39C703.967 1560.04 646.447 1560.91 610.711 1535.42C601.417 1528.89 593.971 1520.95 588.023 1511.96C559.989 1470.71 562.155 1405.77 559.767 1344.66C559.312 1335.02 558.793 1325.09 557.667 1315.37C550.469 1250.27 529.161 1188.97 463.511 1186.52C452.323 1185.99 440.888 1187.22 429.297 1189.69C385.361 1198.77 339.965 1226.24 293.913 1257.52C256.913 1282.8 219.159 1311.44 182.501 1334.41C173.576 1340.01 164.618 1345.46 155.627 1350.78C107.008 1379.35 57.5385 1403.23 8.93708 1420.42C-92.8607 1456.55 -190.336 1463 -262.649 1433.14C-284.896 1424.04 -304.217 1411.58 -320.737 1396.17C-390.249 1331.85 -407.329 1217.55 -361.37 1092.29" stroke="#9158FF" stroke-width="2" stroke-miterlimit="10"/>
<path d="M1933.26 1215.26C1868.27 1309.02 1740.71 1384.1 1650.74 1379.35C1577.26 1375.57 1535.52 1327.38 1480.36 1297.35C1464.55 1288.85 1447.76 1281.74 1428.84 1277.67C1346.51 1259.8 1240.09 1300 1149.91 1348.76C1088.36 1382.23 1030.01 1420.29 971.452 1453.6C944.212 1469.22 916.872 1483.43 888.405 1495.56C852.225 1510.94 812.645 1522.81 772.729 1530.35C713.031 1541.46 655.404 1543.56 618.496 1520.42C608.925 1514.56 601.201 1507.28 594.782 1499.07C564.681 1461.04 563.67 1399.33 559.411 1339.53C558.766 1330.01 557.898 1320.47 556.583 1310.86C548.092 1246.75 529.263 1184.86 467.104 1179.41C456.467 1178.4 445.581 1179.15 434.7 1180.88C392.897 1187.74 348.834 1212.33 303.29 1241.85C266.79 1265.37 228.935 1293.43 192.464 1316.12C183.545 1321.72 174.562 1327.03 165.769 1332.23C117.187 1360.79 68.0456 1384.97 19.8039 1402.61C-81.6855 1439.73 -179.334 1446.98 -251.612 1417.99C-273.808 1409.04 -293.461 1396.96 -309.934 1381.71C-379.634 1318.25 -396.881 1204.15 -350.884 1079.27" stroke="#905AFF" stroke-width="2" stroke-miterlimit="10"/>
<path d="M1913 1238.19C1846.51 1329.87 1720.36 1403 1630.21 1399.07C1556.69 1395.84 1513.73 1349.74 1458.45 1320C1442.65 1311.51 1426.1 1304.43 1407.35 1300.11C1326.15 1281.16 1223.77 1315.92 1137.86 1358.28C1079.07 1387.53 1023.94 1420.45 969.366 1449.15C943.831 1462.63 918.418 1474.74 891.274 1484.95C856.963 1497.94 819.256 1507.42 780.006 1513.93C721.306 1523.51 663.348 1526.81 625.492 1506.06C615.613 1500.72 607.611 1494.1 600.723 1486.66C568.556 1451.85 564.15 1393.33 558.245 1334.88C557.443 1325.62 556.195 1316.31 554.69 1306.82C544.874 1243.56 528.744 1181.1 469.688 1172.89C459.633 1171.54 449.232 1171.53 438.899 1172.77C399.037 1177.54 356.337 1199.38 311.616 1226.63C275.839 1248.43 237.659 1275.87 201.151 1298.27C192.207 1303.72 183.263 1309.17 174.477 1314.36C126.091 1342.65 77.3403 1367.42 29.0428 1385.6C-72.1398 1423.7 -169.737 1431.79 -242.239 1403.48C-264.574 1394.8 -284.178 1382.88 -300.795 1367.9C-370.909 1305.26 -388.067 1191.53 -341.84 1066.91" stroke="#905DFF" stroke-width="2" stroke-miterlimit="10"/>
<path d="M1892.75 1261.08C1824.62 1350.95 1699.98 1421.74 1609.88 1418.65C1536.36 1416.12 1491.95 1372.07 1436.78 1342.65C1421.03 1334.3 1404.49 1327.24 1386.11 1322.55C1306.18 1302.27 1207.47 1331.81 1125.83 1367.94C1069.98 1392.71 1018.12 1420.78 967.081 1444.81C943.246 1456.15 919.534 1466.13 894.094 1474.21C861.808 1484.55 826.003 1491.79 787.418 1497.28C729.907 1505.21 671.618 1509.71 632.434 1491.57C622.278 1486.88 613.808 1481.04 606.451 1474.37C572.221 1442.77 564.457 1387.58 556.876 1330.34C555.694 1321.32 554.257 1312.12 552.787 1302.79C541.681 1240.5 528.021 1177.46 472.287 1166.51C462.78 1164.68 453.119 1164.08 443.112 1164.81C405.186 1167.48 364.038 1186.46 319.791 1211.82C284.545 1232.02 246.232 1258.73 209.719 1280.97C200.782 1286.42 192.003 1291.61 183.033 1296.91C134.875 1325.07 86.2596 1350.26 38.3205 1368.89C-62.365 1407.86 -160.136 1416.75 -233.019 1389.38C-255.493 1380.96 -275.048 1369.2 -291.808 1354.49C-362.335 1292.67 -379.437 1179.17 -332.95 1054.96" stroke="#8F5FFF" stroke-width="2" stroke-miterlimit="10"/>
<path d="M1872.72 1283.83C1803.1 1371.63 1679.87 1440.48 1589.78 1438.08C1516.04 1436.22 1470.4 1394.26 1415.31 1365.01C1399.58 1356.67 1383.25 1349.5 1365.07 1344.71C1286.45 1323.23 1191.59 1347.46 1114.23 1377.35C1061.31 1397.65 1012.88 1420.63 965.432 1440.28C943.265 1449.34 921.285 1457.33 897.578 1463.42C867.316 1471.12 833.221 1476.24 795.461 1480.44C738.915 1486.7 680.521 1492.43 640.202 1476.78C629.772 1472.75 620.993 1467.42 613.167 1461.53C576.879 1433.14 565.729 1381.14 556.35 1325.5C554.789 1316.71 553.385 1307.66 551.536 1298.56C539.333 1237.14 528.14 1173.51 475.693 1159.7C466.734 1157.39 457.62 1156.31 448.129 1156.42C412.106 1156.84 372.32 1173.09 328.929 1196.33C294.215 1214.92 255.962 1240.79 219.413 1262.73C210.483 1268.18 201.711 1273.37 192.907 1278.41C144.978 1306.44 96.7222 1332.07 48.9196 1351.12C-51.4565 1391.07 -149.396 1400.77 -222.276 1374.11C-244.699 1365.85 -264.584 1354.46 -281.297 1339.91C-352.01 1278.95 -369.279 1165.65 -322.533 1041.85" stroke="#8F61FF" stroke-width="2" stroke-miterlimit="10"/>
<path d="M1852.52 1306.81C1781.23 1392.66 1659.36 1459.43 1569.51 1457.76C1495.77 1456.59 1448.87 1416.57 1393.71 1387.74C1378.02 1379.56 1361.67 1372.25 1343.9 1367.24C1266.35 1344.54 1175.56 1363.49 1102.26 1387.12C1052.29 1403.1 1007.1 1421.11 963.36 1435.99C942.89 1442.92 922.606 1448.78 900.407 1452.85C872.198 1458.06 839.969 1460.79 802.873 1463.98C747.323 1468.7 688.6 1475.63 647.339 1462.35C636.633 1458.98 627.387 1454.43 619.253 1449.05C580.717 1423.98 566.41 1375.19 555.361 1320.75C553.643 1312.22 551.829 1303.27 549.824 1294.43C536.301 1233.85 527.636 1169.92 478.438 1153.09C470.026 1150.3 461.459 1148.74 452.483 1148.23C418.583 1146.45 380.155 1159.97 337.237 1181.32C303.055 1198.31 264.67 1223.44 228.118 1245.23C219.163 1250.53 210.398 1255.72 201.633 1260.9C153.743 1288.91 105.813 1314.84 58.3366 1334.2C-41.7318 1375.13 -139.651 1385.51 -212.719 1359.68C-235.248 1351.82 -255.116 1340.45 -272.162 1326.27C-343.285 1266.14 -360.498 1153.08 -313.494 1029.68" stroke="#8E63FF" stroke-width="2" stroke-miterlimit="10"/>
<path d="M1832.31 1329.62C1759.57 1413.55 1639.06 1478.24 1549.04 1477.37C1475.27 1476.75 1426.96 1438.92 1371.91 1410.41C1356.24 1402.23 1340.09 1394.82 1322.68 1389.45C1246.44 1365.56 1159.49 1379.2 1090.42 1396.48C1043.4 1408.15 1001.63 1421.07 961.257 1431.55C942.704 1436.39 923.893 1440.09 903.422 1442.18C877.23 1444.75 846.706 1445.36 810.274 1447.53C755.72 1450.73 696.859 1458.73 654.276 1448.06C643.264 1445.2 633.775 1441.44 625.173 1436.84C584.553 1414.82 566.935 1369.49 554.218 1316.26C552.122 1307.96 550.152 1299.27 548.149 1290.44C533.533 1230.73 527.136 1166.32 481.404 1146.52C473.729 1143.14 465.486 1141.07 457.056 1140.08C425.085 1136.21 388.016 1147 345.919 1166.09C312.268 1181.48 273.753 1205.89 237.198 1227.52C228.25 1232.82 219.492 1238 210.893 1242.93C163.231 1270.81 115.66 1297.18 68.1292 1317.07C-31.4726 1358.72 -129.528 1370.04 -202.942 1345.29C-225.609 1337.7 -245.617 1326.59 -262.615 1312.57C-334.148 1253.26 -351.273 1140.57 -304.235 1017.56" stroke="#8E65FF" stroke-width="2" stroke-miterlimit="10"/>
<path d="M1812.1 1352.42C1737.7 1434.4 1618.75 1496.9 1528.77 1496.87C1455 1496.94 1405.25 1461.15 1350.29 1432.81C1334.63 1424.65 1318.53 1417.38 1301.48 1411.65C1226.54 1386.58 1143.43 1394.92 1078.4 1405.96C1034.14 1413.43 995.983 1421.16 959.15 1427.14C942.29 1429.85 925.204 1431.57 906.395 1431.4C882.218 1431.34 853.588 1429.72 817.819 1430.87C764.451 1432.43 705.073 1441.74 661.584 1433.57C650.298 1431.37 640.311 1428.24 631.434 1424.29C588.575 1405.58 567.968 1363.2 553.428 1311.42C551.144 1303.25 549.018 1294.82 546.605 1286.08C530.674 1227.21 526.954 1162.24 484.304 1139.69C477.174 1135.84 469.668 1133.18 461.561 1131.68C431.518 1125.73 395.805 1133.79 354.53 1150.63C321.378 1164.28 282.765 1188.1 246.177 1209.44C237.426 1214.61 228.453 1219.76 219.893 1224.83C172.429 1252.44 125.026 1279.37 77.855 1299.7C-21.4369 1342.32 -119.627 1354.58 -193.068 1330.4C-215.682 1322.96 -235.83 1312.12 -252.97 1298.37C-324.877 1240.01 -341.979 1127.43 -294.686 1004.82" stroke="#8D67FF" stroke-width="2" stroke-miterlimit="10"/>
<path d="M1792.12 1375.05C1716.24 1454.98 1598.69 1515.54 1508.73 1516.2C1434.93 1516.82 1383.97 1483.1 1328.93 1455.19C1313.12 1447.29 1297.38 1439.67 1280.54 1433.83C1206.68 1407.54 1127.62 1410.62 1066.82 1415.32C1025.5 1418.49 990.788 1421.29 957.431 1422.49C942.451 1422.97 926.864 1422.68 909.59 1420.65C887.457 1418.1 860.494 1414.22 825.578 1414.24C773.171 1414.13 713.723 1424.8 669.074 1418.97C657.514 1417.43 647.063 1415.06 637.72 1411.88C592.625 1396.47 568.876 1357.3 552.484 1306.83C550.045 1298.92 547.509 1290.58 544.941 1282.1C527.92 1224.1 526.492 1158.8 487.299 1133.28C480.714 1128.95 473.751 1125.82 466.158 1123.7C438.229 1115.55 403.838 1120.75 363.069 1135.85C330.447 1147.9 291.705 1171 255.305 1192.06C246.53 1197.09 237.786 1202.27 229.201 1207.19C181.967 1234.67 134.923 1262.04 87.888 1282.78C-11.0945 1326.38 -109.261 1339.32 -182.887 1315.96C-205.639 1308.78 -225.894 1298.35 -243.018 1284.61C-315.141 1226.97 -332.378 1114.73 -284.831 992.531" stroke="#8D69FF" stroke-width="2" stroke-miterlimit="10"/>
<path d="M1771.93 1397.79C1694.43 1475.92 1578.39 1534.15 1488.49 1535.64C1414.7 1536.94 1362.29 1505.27 1307.34 1477.53C1291.55 1469.64 1275.86 1462.16 1259.38 1455.97C1186.82 1428.49 1111.43 1426.55 1055 1424.66C1016.59 1423.39 985.16 1421.53 955.306 1418.1C942.045 1416.6 928.304 1413.94 912.528 1409.9C892.215 1404.84 867.14 1398.74 833.076 1397.63C781.663 1396 721.89 1407.86 676.116 1404.5C664.284 1403.61 653.527 1401.76 643.719 1399.35C596.393 1387.23 569.475 1351.11 551.456 1301.98C548.64 1294.3 545.949 1286.23 543.384 1277.75C525.053 1220.59 526.103 1154.85 490.172 1126.49C484.162 1121.82 477.712 1118.07 470.63 1115.33C444.623 1105.1 411.585 1107.58 371.637 1120.43C339.546 1130.89 300.866 1153.15 264.242 1174.03C255.474 1179.06 246.706 1184.09 238.161 1189.15C190.967 1216.61 144.25 1244.27 97.3841 1265.57C-1.09761 1310.02 -99.428 1323.76 -173.238 1301.22C-196.126 1294.3 -216.331 1284.02 -233.596 1270.55C-306.125 1213.73 -323.274 1101.87 -275.507 979.947" stroke="#8C6BFF" stroke-width="2" stroke-miterlimit="10"/>
<path d="M1751.75 1420.5C1672.79 1496.58 1558.14 1552.88 1468.07 1555.17C1394.06 1557.13 1340.44 1527.53 1285.6 1500.1C1269.86 1492.35 1254.34 1484.63 1238.07 1478.33C1166.81 1449.68 1095.24 1442.46 1042.83 1434.36C1007.36 1428.8 979.36 1422.03 952.971 1413.83C941.426 1410.36 929.338 1405.44 915.092 1399.54C896.784 1391.87 873.595 1383.54 840.001 1381.53C789.579 1378.38 729.483 1391.42 682.775 1390.42C670.449 1390.15 659.45 1389.1 649.336 1387.2C599.783 1378.38 569.733 1345.45 550.058 1297.51C547.055 1289.95 544.209 1282.14 541.267 1273.9C521.66 1217.71 525.183 1151.53 492.666 1120.06C487.199 1114.93 481.292 1110.7 474.722 1107.34C450.664 1095.18 419.136 1094.69 379.66 1105.66C348.098 1114.53 309.29 1136.07 272.666 1156.79C263.906 1161.82 255.145 1166.84 246.575 1171.76C199.611 1199.09 153.252 1227.18 106.491 1248.76C8.31914 1294.17 -90.1754 1308.7 -164.169 1286.98C-187.004 1280.21 -207.348 1270.2 -224.754 1257C-297.655 1201.13 -314.782 1089.37 -266.953 967.969" stroke="#8C6EFF" stroke-width="2" stroke-miterlimit="10"/>
<path d="M1731.6 1443.17C1650.99 1517.3 1537.71 1571.53 1447.88 1574.54C1373.84 1577.04 1319.02 1549.5 1264.1 1522.5C1248.38 1514.76 1232.91 1507.19 1216.99 1500.53C1146.81 1470.67 1079.28 1458.22 1031.08 1443.8C998.352 1434.07 974.003 1422.43 951.074 1409.46C941.211 1403.88 930.805 1396.85 918.244 1388.85C901.939 1378.56 880.443 1368.12 847.7 1364.99C798.46 1360.21 738.042 1374.44 690.214 1375.9C677.616 1376.28 666.313 1375.74 655.768 1374.74C604.025 1369.35 571.006 1339.35 549.521 1292.87C546.174 1285.69 543.11 1277.85 540.014 1269.87C519.133 1214.66 525.092 1147.9 495.827 1113.59C490.902 1107.98 485.727 1103.17 479.668 1099.19C457.526 1084.96 427.315 1081.61 388.692 1090.49C357.85 1097.66 318.726 1118.58 282.26 1138.89C273.475 1143.77 264.723 1148.8 256.381 1153.74C209.649 1180.94 163.427 1209.44 117.027 1231.45C19.1676 1277.83 -79.2978 1293.04 -153.472 1272.13C-176.444 1265.63 -196.925 1255.88 -214.315 1242.69C-287.617 1187.64 -304.879 1076.24 -256.611 955.138" stroke="#8B70FF" stroke-width="2" stroke-miterlimit="10"/>
<path d="M1711.66 1465.69C1629.59 1537.77 1517.7 1590.07 1427.89 1593.77C1353.86 1596.95 1297.61 1571.45 1242.78 1544.61C1227.07 1536.88 1211.8 1529.21 1196.09 1522.44C1127.2 1491.4 1063.48 1473.69 1019.3 1453.09C989.493 1439.08 968.22 1422.91 948.903 1404.94C940.783 1397.54 931.992 1388.12 921.145 1378.15C906.84 1365.24 887.191 1352.45 855.14 1348.45C806.856 1342.01 746.182 1357.7 697.392 1361.37C684.523 1362.4 672.759 1362.62 661.909 1362.14C607.946 1360.03 571.775 1333.07 548.671 1287.93C545.138 1280.86 541.731 1273.39 538.448 1265.53C516.454 1211.05 524.719 1144.11 498.889 1106.85C494.695 1100.65 489.871 1095.47 484.322 1090.88C464.092 1074.58 435.229 1068.53 397.267 1075.43C366.922 1080.87 327.705 1101.2 291.239 1121.36C282.462 1126.24 273.717 1131.26 265.351 1136.05C218.817 1162.98 172.986 1192.06 126.533 1214.59C29.1751 1261.82 -69.4194 1277.95 -143.775 1257.86C-166.851 1251.76 -187.312 1242.02 -204.843 1229.1C-278.358 1174.76 -295.754 1063.71 -247.239 943.022" stroke="#8B72FF" stroke-width="2" stroke-miterlimit="10"/>
<path d="M1691.52 1488.29C1607.85 1558.58 1497.47 1608.56 1407.72 1613.08C1333.67 1616.81 1276.02 1593.47 1221.31 1566.95C1205.64 1559.37 1190.36 1551.56 1175.2 1544.33C1107.61 1512.11 1047.53 1489.41 1007.7 1462.26C980.817 1443.98 962.805 1423.18 947.126 1400.35C940.682 1390.84 933.757 1379.2 924.21 1367.35C911.934 1351.98 893.94 1336.95 862.548 1331.94C815.253 1323.99 754.448 1340.75 704.353 1346.98C691.214 1348.66 678.989 1349.64 667.678 1349.92C611.501 1351.09 572.404 1327.2 547.274 1283.47C543.367 1276.63 539.773 1269.29 536.527 1261.58C513.263 1208.07 523.955 1140.55 501.365 1100.46C497.711 1093.79 493.396 1088 488.388 1082.94C470.067 1064.56 442.739 1055.7 405.406 1060.48C375.59 1064.33 336.437 1083.84 299.783 1103.95C291.014 1108.82 282.434 1113.58 274.108 1118.52C227.805 1145.31 182.301 1174.68 136.018 1197.76C38.9729 1245.95 -59.7806 1262.86 -134.127 1243.48C-157.148 1237.53 -177.937 1228.16 -195.418 1215.4C-269.301 1162.01 -286.643 1051.2 -237.913 930.794" stroke="#8A74FF" stroke-width="2" stroke-miterlimit="10"/>
<path d="M1671.39 1510.88C1586.27 1579.13 1477.29 1627.18 1387.37 1632.49C1313.33 1636.9 1254.45 1615.48 1199.82 1589.13C1184.17 1581.55 1169.12 1573.79 1154.14 1566.3C1087.62 1532.88 1031.56 1504.97 995.729 1471.65C971.574 1449.23 956.629 1423.91 944.927 1395.87C940.188 1384.4 934.906 1370.52 927.067 1356.72C916.784 1338.74 900.664 1321.5 869.899 1315.35C823.592 1305.89 762.469 1323.81 711.451 1332.39C698.01 1334.58 685.514 1336.21 673.742 1337.24C615.388 1341.82 573.151 1320.96 546.378 1278.43C542.318 1271.85 538.539 1264.62 534.886 1257C510.324 1204.33 523.502 1136.52 504.115 1093.46C501.031 1086.46 497.224 1080.06 492.724 1074.38C476.31 1053.94 450.326 1042.39 413.653 1045.19C384.366 1047.46 345.09 1066.24 308.595 1085.94C299.802 1090.67 291.262 1095.57 282.912 1100.36C236.652 1127.13 191.507 1156.93 145.553 1180.31C48.8221 1229.45 -49.8986 1247.03 -124.612 1228.57C-147.768 1222.88 -168.504 1213.67 -186.125 1201.17C-260.405 1148.6 -277.694 1038.04 -228.719 918.048" stroke="#8A76FF" stroke-width="2" stroke-miterlimit="10"/>
<path d="M1651.28 1533.42C1564.53 1599.73 1457.1 1645.61 1367.24 1651.75C1292.98 1656.8 1232.91 1637.43 1178.4 1611.39C1162.8 1603.97 1147.73 1596.06 1133.14 1588.36C1067.91 1553.77 1015.65 1520.63 983.992 1481.05C962.751 1454.37 950.834 1424.4 942.978 1391.55C939.753 1378.24 936.298 1362.01 929.943 1346.22C921.65 1325.65 907.212 1306.32 877.293 1299.05C832.162 1287.97 770.533 1307.18 718.593 1318.09C704.883 1320.92 691.929 1323.31 679.855 1324.86C619.107 1332.81 573.924 1314.87 545.543 1273.66C541.109 1267.31 537.178 1260.35 533.339 1252.85C507.324 1201.26 523.108 1132.77 507.139 1086.77C504.593 1079.3 501.324 1072.43 497.332 1066.14C482.82 1043.64 458.336 1029.14 422.323 1029.97C393.564 1030.66 354.165 1048.72 317.672 1068.27C308.888 1072.99 300.324 1077.75 292.013 1082.67C245.986 1109.31 201.168 1139.39 155.164 1163.29C58.9372 1213.27 -39.939 1231.63 -114.829 1213.99C-138.119 1208.56 -158.992 1199.61 -176.564 1187.26C-251.209 1135.65 -268.475 1025.19 -219.447 905.733" stroke="#8978FF" stroke-width="2" stroke-miterlimit="10"/>
<path d="M1631.19 1555.9C1543.04 1620.32 1436.77 1664.25 1347.12 1670.95C1272.88 1676.68 1211.39 1659.32 1156.97 1633.46C1141.38 1626.04 1126.55 1618.18 1112.13 1610.23C1048.16 1574.33 999.56 1536.36 972.234 1490.27C953.901 1459.34 944.82 1424.85 940.769 1387.06C939.055 1371.9 937.613 1353.22 932.772 1335.6C926.465 1312.43 913.705 1291.01 884.632 1282.62C840.454 1269.9 778.763 1290.45 725.494 1303.77C711.516 1307.25 698.104 1310.39 685.76 1312.59C622.844 1323.94 574.722 1308.9 544.515 1269C539.897 1262.77 535.592 1256.04 531.79 1248.68C504.702 1197.96 522.741 1129.15 509.994 1080.34C507.985 1072.4 505.254 1065.05 501.8 1058.29C489.188 1033.74 466.043 1016.55 430.69 1015.41C402.458 1014.53 362.938 1031.87 326.416 1051.11C317.64 1055.84 309.084 1060.59 300.938 1065.25C255.112 1091.62 210.496 1122.38 164.821 1146.57C68.9092 1197.5 -30.1206 1216.64 -104.998 1199.69C-128.233 1194.41 -149.21 1185.86 -166.952 1173.64C-241.804 1122.73 -259.206 1012.63 -209.936 893.596" stroke="#897AFF" stroke-width="2" stroke-miterlimit="10"/>
<path d="M1611.34 1578.37C1521.57 1640.87 1416.88 1682.77 1327.26 1690.14C1253 1696.4 1190.32 1681.09 1135.82 1655.64C1120.06 1648.35 1105.43 1640.38 1091.4 1632.22C1028.54 1595.26 983.903 1551.97 960.554 1499.74C944.934 1464.69 939.059 1425.46 938.841 1382.88C938.79 1365.63 939.013 1344.86 935.839 1325.15C931.703 1299.29 920.618 1275.78 892.012 1266.5C848.818 1252.28 786.813 1273.99 732.627 1289.64C718.381 1293.76 704.669 1297.41 691.867 1300.36C626.789 1315.1 575.7 1302.83 543.736 1264.51C538.777 1258.65 534.288 1252.03 530.301 1244.8C501.922 1194.91 522.211 1125.78 513.057 1073.93C511.585 1065.53 509.39 1057.71 506.442 1050.34C495.569 1023.99 473.918 1003.87 439.38 1000.51C411.643 997.915 372.002 1014.53 335.704 1033.65C326.905 1038.23 318.357 1042.97 310.219 1047.64C264.625 1073.86 220.336 1104.92 174.833 1129.65C79.2375 1181.52 -19.7244 1201.47 -94.965 1185.44C-118.334 1180.41 -139.258 1172.02 -157.328 1160.18C-232.573 1110.08 -249.89 1000.36 -200.412 881.612" stroke="#887CFF" stroke-width="2" stroke-miterlimit="10"/>
<path d="M1591.27 1600.79C1500.07 1661.24 1396.73 1701.09 1306.99 1709.39C1232.74 1716.33 1168.65 1703.02 1114.27 1677.88C1098.56 1670.74 1084.14 1662.67 1070.28 1654.26C1008.69 1616.14 967.457 1567.87 948.641 1509.19C935.73 1470.02 932.836 1426.02 936.661 1378.69C938.115 1359.61 940.155 1336.51 938.489 1314.96C936.363 1286.65 926.919 1260.93 899.155 1250.54C856.944 1234.81 794.657 1257.83 739.525 1275.65C724.823 1280.53 710.843 1284.83 697.773 1288.42C630.536 1306.55 576.331 1297.29 542.548 1260.26C537.406 1254.52 532.765 1248.16 528.406 1241.16C498.77 1192.25 521.492 1122.68 515.516 1067.89C514.579 1059.02 513.108 1050.62 510.476 1042.75C501.495 1014.36 481.336 991.309 447.299 986.236C420.088 982.072 380.514 997.86 344 1016.79C335.397 1021.25 326.858 1025.99 318.728 1030.65C273.179 1056.86 229.248 1088.33 183.885 1113.47C88.7619 1166.02 -10.3201 1186.89 -85.7348 1171.66C-109.237 1166.9 -130.296 1158.77 -148.316 1147.08C-223.923 1097.93 -241.22 988.322 -191.503 869.993" stroke="#887FFF" stroke-width="2" stroke-miterlimit="10"/>
<path d="M1571.2 1623.17C1478.4 1681.71 1376.6 1719.38 1286.92 1728.49C1212.65 1735.96 1147.19 1724.8 1092.91 1699.84C1077.21 1692.7 1062.8 1684.64 1049.33 1676.02C989.004 1636.59 951.566 1583.27 936.712 1518.48C926.693 1475.09 926.805 1426.49 934.226 1374.36C937.338 1353.2 941.223 1327.9 941.03 1304.39C940.879 1273.51 933.291 1245.6 906.182 1234.21C865.141 1216.88 802.545 1241.05 746.126 1261.41C731.126 1266.79 716.724 1271.98 703.166 1276.19C633.589 1297.8 576.433 1291.29 541.056 1255.59C535.544 1250.08 530.72 1243.84 526.397 1236.98C495.476 1188.9 520.436 1119.03 518.041 1061.22C517.637 1051.88 516.701 1043.01 514.572 1034.54C507.48 1004.1 488.654 978.382 455.431 971.099C428.935 965.255 389.054 980.438 352.545 999.209C343.952 1003.67 335.389 1008.26 327.267 1012.92C281.953 1038.99 238.351 1070.74 193.16 1096.42C98.3575 1149.91 -0.871438 1171.54 -76.2686 1157.01C-99.6829 1152.53 -120.908 1144.52 -139.065 1133.1C-214.874 1084.65 -232.306 975.407 -182.574 857.478" stroke="#8781FF" stroke-width="2" stroke-miterlimit="10"/>
<path d="M1551.16 1645.49C1456.78 1702.24 1356.54 1737.76 1266.88 1747.54C1192.6 1755.53 1125.96 1746.41 1071.61 1721.86C1055.96 1714.87 1041.76 1706.7 1028.43 1697.7C969.194 1657.23 935.703 1598.62 924.99 1527.63C917.857 1480.02 920.937 1426.69 932.198 1369.93C936.776 1346.8 942.535 1319.47 943.999 1293.88C945.818 1260.43 939.897 1230.45 913.629 1217.95C873.536 1198.98 810.664 1224.46 753.338 1247.13C738.074 1253.15 723.405 1258.97 709.361 1263.79C637.639 1288.77 577.571 1285.16 540.384 1250.75C534.721 1245.49 529.526 1239.48 525.02 1232.75C493.037 1185.52 520.011 1115.31 520.999 1054.6C521.16 1044.93 520.694 1035.32 519.099 1026.38C513.704 994.016 496.585 965.412 463.799 956.144C437.829 948.737 397.831 963.202 361.516 981.703C352.9 986.015 344.378 990.748 336.264 995.399C291.185 1021.33 247.755 1053.62 202.863 1079.44C108.381 1133.86 9.19551 1156.15 -66.3709 1142.42C-89.9166 1138.2 -111.276 1130.45 -129.382 1119.18C-205.578 1071.54 -222.958 962.554 -172.992 845.056" stroke="#8783FF" stroke-width="2" stroke-miterlimit="10"/>
<path d="M1531.34 1667.64C1355.97 1767.8 1170.15 1797.21 1050.54 1743.71C916.936 1683.85 887.659 1539.19 930.392 1365.53C944.553 1307.59 966.23 1225.44 921.058 1201.72C871.554 1175.79 783.74 1225.31 715.577 1251.55C630.536 1284.13 559.398 1278.36 523.681 1228.64C485.132 1174.87 530.964 1088.43 523.87 1018.4C520.356 984.001 504.564 952.741 472.623 941.411C441.153 930.28 387.338 954.063 345.654 977.824C300.778 1003.48 257.708 1036.18 212.803 1062.65C89.5096 1135.12 -43.0936 1152.25 -119.457 1105.45C-196.008 1058.75 -213.335 950.023 -163.17 832.817" stroke="#8685FF" stroke-width="2" stroke-miterlimit="10"/>
<path d="M1547.6 1652.26C1458.09 1704.06 1365.95 1738.6 1280.45 1753.42C1196.79 1767.95 1119.32 1763.65 1058.7 1737.73C1012.49 1718.09 978.432 1688.06 956.08 1649.49C934.864 1613.12 924.168 1569.56 922.619 1521.2C921.449 1484.91 925.636 1445.91 933.865 1405C937.267 1387.99 941.453 1370.68 946.203 1353.04C952.165 1331.32 959.09 1306.33 963.037 1282.31C969.948 1241.22 968.863 1201.52 940.239 1186.12C909.228 1169.59 862.021 1183.23 814.767 1202.32C786.846 1213.61 758.932 1226.81 733.362 1237.19C710.298 1246.4 688.169 1253.14 667.506 1256.95C620.849 1265.48 581.022 1259.91 553.007 1237.77C547.6 1233.65 542.66 1228.76 538.253 1223.4C514.17 1194.15 517.881 1153.05 523.876 1109.79C528.212 1079 533.643 1047.4 530.455 1018.19C530.42 1017.1 530.198 1016.11 530.163 1015.02C525.834 981.71 510.438 951.296 479.192 940.324C457.9 932.858 426.677 940.847 395.814 954.204C379.896 961.09 363.921 969.605 349.451 978.184C333.071 987.737 316.945 998.415 300.882 1009.37C272.264 1028.89 244.244 1049.17 215.464 1067.03C181.454 1088.16 146.743 1105.23 112.584 1118.15C49.5632 1141.96 -12.2441 1151.34 -63.5606 1143.02C-85.8759 1139.51 -106.005 1132.47 -123.414 1122.38C-130.076 1118.36 -136.394 1113.98 -142.18 1109.12C-205.355 1056.8 -215.875 953.661 -167.748 844.127" stroke="#8B88FB" stroke-width="2" stroke-miterlimit="10"/>
<path d="M1564.11 1636.87C1473.52 1689.95 1380.47 1726.45 1293.63 1743.3C1208.81 1759.6 1129.14 1757.2 1067.15 1732.03C1019.96 1712.93 985.057 1683.04 962.838 1643.23C941.851 1606.04 932.146 1561.2 932.476 1511.7C932.809 1474.48 938.568 1434.84 948.403 1393.42C952.404 1376.2 957.19 1358.68 962.539 1340.83C969.258 1318.65 976.785 1293.44 981.3 1269.06C989 1227.63 988.882 1186.53 959.95 1170.81C929.036 1153.87 880.972 1167.68 833.74 1187.07C805.639 1198.62 777.576 1212.23 751.891 1223.15C728.715 1232.9 706.662 1240.07 685.763 1244.8C638.82 1255.08 598.556 1251.5 569.141 1231.76C563.416 1228.13 558.16 1223.74 553.404 1218.74C527.674 1191.71 528.786 1152.27 533.248 1109.73C536.427 1079.44 541.047 1047.97 537.667 1018.86C537.633 1017.76 537.41 1016.77 537.188 1015.79C532.634 982.423 517.505 951.337 486.011 940.326C464.23 932.653 432.351 940.701 400.772 954.796C384.497 962.052 368.319 970.685 353.493 979.635C336.786 989.7 320.302 1000.75 304.101 1012.11C275.177 1032.29 246.915 1053.52 217.925 1072.46C183.732 1094.81 149.089 1113.27 114.779 1127.55C51.4279 1153.94 -11.9933 1166.8 -65.3601 1159.98C-88.4155 1157.05 -109.347 1150.31 -127.398 1140.27C-134.255 1136.36 -140.798 1131.94 -146.809 1127.04C-212.207 1074.53 -222.778 968.291 -172.357 856.37" stroke="#8F8BF6" stroke-width="2" stroke-miterlimit="10"/>
<path d="M1580.6 1621.34C1489.12 1675.57 1394.96 1714.15 1306.77 1732.89C1220.62 1751.22 1139.1 1750.36 1075.55 1726.06C1027.41 1707.64 991.782 1677.49 969.509 1636.55C948.753 1598.54 940.23 1552.33 942.253 1501.77C943.903 1463.74 951.455 1423.48 962.868 1381.42C967.657 1363.89 972.822 1346.13 978.773 1328.07C986.25 1305.43 994.379 1280 999.43 1255.13C1007.92 1213.36 1008.55 1170.82 979.72 1154.69C948.748 1137.59 899.983 1151.33 852.587 1171.12C824.306 1182.94 796.094 1196.95 770.295 1208.41C747.007 1218.7 724.874 1226.55 704.054 1231.71C656.792 1243.59 615.966 1242.4 585.118 1224.91C579.232 1221.53 573.659 1217.65 568.554 1213.01C541.174 1188.19 539.682 1150.43 542.611 1108.6C544.63 1078.81 548.437 1047.49 544.645 1018.43C544.423 1017.44 544.388 1016.34 544.165 1015.36C539.198 982.046 524.745 950.205 492.785 939.126C470.324 931.358 437.822 939.606 405.652 954.046C388.987 961.53 372.671 970.564 357.488 979.885C340.422 990.322 323.799 1001.77 307.492 1013.68C278.295 1034.66 249.792 1056.83 220.781 1076.74C186.594 1100.21 151.8 1120.03 117.183 1135.93C53.3464 1165.15 -11.533 1181.25 -66.9521 1175.93C-90.7483 1173.59 -112.482 1167.14 -131.178 1157.15C-138.448 1153.31 -145.03 1148.75 -151.234 1143.96C-218.889 1091.11 -229.479 981.91 -176.729 867.742" stroke="#948DF2" stroke-width="2" stroke-miterlimit="10"/>
<path d="M1597.12 1605.76C1504.53 1661.13 1409.66 1701.7 1319.96 1722.59C1232.64 1742.7 1148.92 1743.73 1083.81 1720.31C1034.69 1702.43 998.18 1672.28 976.261 1630.12C955.736 1591.29 948.207 1543.8 952.146 1492.23C955.116 1453.39 964.653 1412.4 977.268 1369.92C982.658 1352.18 988.613 1334.1 994.945 1315.8C1002.99 1292.8 1012.1 1266.94 1017.53 1241.82C1026.82 1199.71 1028.42 1155.76 999.277 1139.31C968.434 1121.94 918.78 1135.71 871.408 1155.8C842.947 1167.88 814.775 1182.18 788.674 1194.3C765.461 1205.02 743.217 1213.41 722.162 1219.5C674.802 1233.03 633.351 1233.94 601.1 1218.85C594.895 1215.97 588.972 1212.45 583.55 1208.31C554.737 1185.75 550.606 1149.51 551.809 1108.52C552.667 1079.23 555.848 1047.93 551.643 1018.94C551.42 1017.95 551.386 1016.85 551.163 1015.86C545.939 982.353 531.786 949.98 499.798 938.89C476.846 930.915 443.688 939.222 410.958 954.149C394.09 961.75 377.227 971.267 361.907 980.988C344.702 991.827 327.753 1003.79 311.275 1015.96C281.805 1037.75 253.061 1060.86 223.997 1081.61C189.628 1106.3 154.903 1127.52 119.947 1144.89C55.5935 1176.8 -10.7148 1196.29 -67.9691 1192.5C-92.6955 1190.85 -115.045 1184.6 -134.385 1174.64C-141.882 1170.78 -148.846 1166.43 -155.12 1161.36C-224.847 1108.06 -235.613 996.148 -180.595 879.449" stroke="#9990EE" stroke-width="2" stroke-miterlimit="10"/>
<path d="M1613.68 1590.3C1520.19 1646.84 1424.21 1689.49 1333.15 1712.27C1244.66 1734.16 1158.73 1737.1 1092.25 1714.44C1042.14 1697.1 1004.79 1667.09 983.001 1623.68C962.707 1584.04 956.174 1535.27 962.001 1482.54C966.481 1442.77 977.597 1401.14 991.825 1358.15C997.817 1340.2 1004.37 1321.91 1011.5 1303.29C1020.3 1279.83 1030.02 1253.76 1036.02 1228.28C1045.91 1185.94 1048.67 1140.47 1019.41 1123.57C988.695 1105.94 938.181 1119.89 890.769 1139.99C862.317 1152.22 833.809 1167.03 807.593 1179.69C784.268 1190.96 761.913 1199.89 740.779 1206.66C693.101 1221.8 651.087 1225.11 617.587 1212.17C611.064 1209.79 604.822 1206.77 599.239 1202.88C568.771 1182.55 562.216 1147.87 561.69 1107.71C561.385 1078.93 563.749 1047.77 559.32 1018.72C559.097 1017.73 559.062 1016.63 558.839 1015.65C553.201 982.19 539.537 949.172 507.269 937.901C483.857 929.86 450.01 938.084 416.53 953.609C399.303 961.581 382.239 971.217 366.56 981.31C348.996 992.521 331.908 1004.89 315.136 1017.71C285.203 1040.41 256.375 1064.22 227.132 1086.2C192.55 1111.97 157.895 1134.6 122.599 1153.44C57.7599 1188.19 -10.2309 1210.9 -69.3233 1208.65C-94.7928 1207.58 -117.947 1201.63 -137.902 1191.86C-145.594 1188.1 -152.816 1183.58 -159.472 1178.73C-231.432 1125.23 -242.251 1010.21 -184.898 891.259" stroke="#9D93E9" stroke-width="2" stroke-miterlimit="10"/>
<path d="M1630.2 1574.7C1535.64 1632.51 1438.93 1677.02 1346.35 1701.96C1256.53 1725.89 1168.78 1730.51 1100.66 1708.43C1049.57 1691.64 1011.52 1661.51 989.714 1617.11C969.841 1576.53 964.305 1526.49 971.833 1472.71C977.636 1432.13 990.554 1389.88 1006.37 1346.25C1012.96 1328.09 1020.12 1309.59 1027.81 1290.62C1037.42 1266.84 1047.67 1240.26 1054.24 1214.43C1064.95 1171.9 1068.47 1124.98 1039.12 1107.79C1008.54 1089.89 957.133 1103.86 909.558 1124.37C880.926 1136.86 852.27 1152.08 825.908 1165.15C802.629 1176.7 780.226 1186.46 758.825 1194.02C711.051 1210.81 668.221 1216.34 633.314 1205.81C626.629 1203.68 620.068 1201.17 613.946 1197.75C582.01 1179.53 572.65 1146.65 570.58 1107.21C569.11 1078.93 570.657 1047.92 566.003 1018.81C565.779 1017.82 565.744 1016.72 565.521 1015.73C559.657 982.221 546.451 948.417 513.968 937.247C489.874 929.111 455.401 937.534 421.329 953.406C403.71 961.607 386.507 971.643 370.47 982.109C352.579 993.834 335.32 1006.47 318.41 1019.69C288.203 1043.2 259.135 1067.95 229.84 1090.76C195.264 1117.66 160.271 1141.76 125.045 1162C59.9099 1199.49 -9.73288 1225.55 -70.697 1224.7C-97.099 1224.34 -120.871 1218.57 -141.472 1208.84C-149.391 1205.05 -156.807 1200.64 -163.722 1195.61C-237.949 1141.77 -248.788 1023.79 -189.131 902.441" stroke="#A296E5" stroke-width="2" stroke-miterlimit="10"/>
<path d="M1646.58 1559.32C1551.12 1618.3 1453.3 1664.89 1359.54 1691.61C1268.56 1717.33 1178.59 1723.86 1109.09 1702.55C1057.02 1686.29 1018.27 1656.05 996.413 1610.52C976.771 1569.11 972.235 1517.8 981.467 1462.97C988.595 1421.57 1003.29 1378.57 1020.72 1334.42C1028.1 1315.94 1035.83 1297.1 1043.98 1278.17C1054.34 1253.92 1065.2 1227.13 1072.15 1201.06C1083.66 1158.18 1088.15 1109.85 1058.68 1092.22C1028.04 1074.16 975.932 1088.06 928.383 1108.86C899.538 1121.47 870.955 1137.13 844.29 1150.85C820.899 1162.95 798.385 1173.25 777.095 1181.38C729.002 1199.78 685.797 1207.6 649.449 1199.34C642.445 1197.72 635.533 1195.57 629.281 1192.54C595.716 1176.7 583.704 1145.35 580.088 1106.63C577.451 1078.87 578.179 1047.99 573.299 1018.83C573.075 1017.84 573.04 1016.74 572.817 1015.75C566.726 982.185 553.789 947.705 521.059 936.495C496.471 928.151 461.34 936.632 426.516 953.104C408.727 961.564 390.943 971.943 374.737 982.669C356.674 994.656 339.12 1007.94 321.882 1021.69C291.402 1046 262.092 1071.7 232.588 1095.6C197.83 1123.73 162.907 1149.24 127.343 1170.95C61.69 1211.15 -9.38647 1240.61 -72.4143 1241.26C-99.5615 1241.49 -124.14 1236.02 -145.389 1226.34C-153.536 1222.52 -161.179 1218.07 -168.289 1213.15C-244.786 1158.97 -255.616 1038.15 -193.682 914.267" stroke="#A799E1" stroke-width="2" stroke-miterlimit="10"/>
<path d="M1663.14 1543.66C1566.6 1603.92 1467.88 1652.63 1372.76 1681.25C1280.42 1708.87 1188.43 1717.2 1117.55 1696.65C1064.33 1681.19 1024.86 1650.7 1003.35 1603.94C983.945 1561.71 980.41 1509.12 991.537 1453.13C1000.18 1410.8 1016.49 1367.29 1035.51 1322.5C1043.5 1303.81 1051.84 1284.76 1060.55 1265.48C1071.68 1240.77 1083.15 1213.76 1090.64 1187.19C1102.94 1143.97 1108.22 1094.34 1078.82 1076.15C1048.31 1057.83 995.494 1071.64 947.594 1092.97C918.569 1105.84 889.839 1121.9 863.059 1136.17C839.746 1148.7 817.153 1159.68 795.596 1168.61C747.407 1188.67 703.417 1198.86 665.815 1192.75C658.491 1191.64 651.259 1189.99 644.656 1187.33C609.619 1173.61 594.95 1143.81 589.597 1105.92C585.79 1078.67 585.729 1048.07 580.623 1018.86C580.4 1017.87 580.176 1016.88 580.109 1015.64C573.601 982.127 561.346 946.888 528.146 935.609C503.064 927.056 467.117 935.849 431.888 952.555C413.706 961.245 395.751 971.885 379.218 983.125C360.827 995.628 342.913 1009.29 325.726 1023.32C294.783 1048.56 265.389 1074.96 235.865 1099.83C200.927 1129.2 166.043 1155.96 130.171 1179.3C64.0337 1222.35 -8.5094 1255.07 -73.6032 1257.24C-101.496 1258.05 -126.883 1252.89 -148.781 1243.25C-157.123 1239.53 -164.994 1235.05 -172.33 1230.1C-251.07 1175.72 -261.953 1051.78 -197.676 925.64" stroke="#AC9CDC" stroke-width="2" stroke-miterlimit="10"/>
<path d="M1679.71 1527.98C1582.28 1589.41 1482.63 1640.1 1385.96 1670.74C1292.47 1700.29 1198.42 1710.27 1125.97 1690.6C1071.76 1675.69 1031.4 1645.19 1010.07 1597.32C990.889 1554.27 988.544 1500.28 1001.41 1443.38C1011.39 1400.23 1029.47 1355.97 1049.93 1310.78C1058.52 1291.89 1067.46 1272.62 1076.78 1253.14C1088.68 1227.95 1100.75 1200.73 1108.82 1173.8C1121.73 1130.36 1128.14 1079.05 1098.46 1060.68C1068.05 1041.94 1014.37 1055.93 966.466 1077.41C937.261 1090.55 908.351 1106.87 881.678 1121.71C858.22 1134.65 835.549 1146.32 813.945 1156.07C765.471 1177.89 720.851 1190.2 681.804 1186.37C674.317 1185.51 666.765 1184.37 659.842 1182.21C623.329 1170.62 605.842 1142.62 598.937 1105.46C593.96 1078.71 593.266 1048.15 587.745 1019C587.521 1018 587.297 1017.01 587.04 1015.88C580.305 982.312 568.32 946.397 535.093 935.106C509.548 926.486 472.908 935.195 436.926 952.502C418.352 961.422 400.258 972.464 383.176 984.19C364.424 997.067 346.371 1011.13 328.856 1025.69C297.638 1051.73 268.003 1079.08 238.459 1104.93C203.528 1135.42 168.527 1163.7 132.316 1188.53C65.6601 1234.28 -8.50956 1270.53 -75.2629 1274.13C-104.093 1275.64 -130.1 1270.66 -152.647 1261.07C-161.218 1257.32 -169.316 1252.81 -176.88 1247.82C-257.898 1193.1 -268.615 1066.06 -202.213 937.634" stroke="#B09ED8" stroke-width="2" stroke-miterlimit="10"/>
<path d="M1696.31 1512.43C1597.8 1575.13 1497.23 1627.8 1399.22 1660.49C1304.37 1691.94 1208.29 1703.73 1134.43 1684.68C1079.23 1670.31 1038.02 1639.95 1016.81 1590.83C997.871 1546.95 996.529 1491.69 1011.3 1433.62C1022.6 1389.65 1042.69 1344.66 1064.55 1298.94C1073.75 1279.84 1083.3 1260.37 1093.19 1240.53C1105.85 1214.88 1118.72 1187.33 1127.17 1160.16C1140.88 1116.37 1148.08 1063.76 1118.47 1044.83C1088.19 1025.82 1033.65 1039.99 985.74 1061.62C956.356 1075.02 927.487 1091.64 900.511 1107.14C876.943 1120.62 854.35 1132.72 832.479 1143.27C783.877 1166.6 738.504 1181.44 698.2 1179.77C690.392 1179.42 682.52 1178.78 675.212 1176.85C637.255 1167.53 616.913 1141.19 608.455 1104.75C602.305 1078.52 600.788 1048.09 595.039 1018.89C594.815 1017.9 594.559 1016.76 594.334 1015.77C587.371 982.148 575.879 945.584 542.182 934.224C515.953 925.507 478.841 934.161 442.106 952.069C423.171 961.36 404.684 972.634 387.433 984.622C368.541 997.903 350.16 1012.49 332.506 1027.44C301.015 1054.29 271.329 1082.48 241.354 1109.4C206.242 1141.12 171.282 1170.67 134.921 1196.87C67.7807 1245.49 -7.85847 1285 -76.6827 1290.11C-106.26 1292.21 -133.267 1287.65 -156.275 1277.99C-165.074 1274.21 -173.369 1269.81 -181.159 1264.78C-264.457 1209.72 -275.165 1079.84 -206.448 949.011" stroke="#B5A1D4" stroke-width="2" stroke-miterlimit="10"/>
<path d="M1712.9 1496.7C1613.49 1560.57 1512 1615.23 1412.43 1649.93C1316.41 1683.19 1218.14 1697.03 1142.67 1678.71C1086.48 1664.9 1044.56 1634.42 1023.34 1584.3C1004.63 1539.59 1004.29 1483.04 1020.96 1423.81C1033.79 1378.91 1055.47 1333.27 1078.96 1287.05C1088.95 1267.62 1099.11 1247.94 1109.39 1227.86C1122.85 1201.89 1136.26 1173.84 1145.29 1146.31C1159.79 1102.19 1167.97 1048.15 1138.05 1028.9C1107.72 1009.73 1052.47 1023.81 1004.4 1045.86C974.83 1059.51 945.878 1076.82 918.724 1092.59C895.169 1106.22 872.372 1119.4 850.613 1130.52C801.693 1155.48 755.754 1172.73 714.19 1173.24C706.061 1173.39 698.025 1173 690.208 1171.69C650.771 1164.5 627.791 1139.85 617.588 1104.26C610.263 1078.53 607.922 1048.25 601.946 1018.99C601.721 1018 601.464 1016.87 601.24 1015.88C593.858 982.307 582.827 944.953 549.103 933.581C522.377 924.655 484.446 933.62 447.146 952.018C428.007 961.427 409.159 973.074 391.579 985.578C372.327 999.233 353.806 1014.22 335.824 1029.7C304.025 1057.22 274.098 1086.36 244.136 1114.4C208.843 1147.36 173.734 1178.29 137.255 1206.01C69.7863 1257.23 -7.51422 1300.13 -78.3811 1306.9C-108.898 1309.7 -136.527 1305.33 -160.186 1295.71C-169.214 1291.9 -177.737 1287.46 -185.724 1282.55C-271.274 1227.28 -282.038 1094.27 -210.812 960.924" stroke="#BAA4CF" stroke-width="2" stroke-miterlimit="10"/>
<path d="M1729.53 1481.09C1629.01 1546.1 1526.62 1602.88 1425.72 1639.63C1328.52 1674.68 1228.03 1690.44 1151.17 1672.9C1093.99 1659.62 1051.19 1629.15 1030.29 1577.65C1011.81 1532.12 1012.48 1474.29 1031.06 1413.89C1045.22 1368.18 1068.72 1321.92 1093.8 1275.05C1104.41 1255.41 1115.14 1235.38 1126.06 1215.24C1140.28 1188.79 1154.31 1160.53 1163.91 1132.65C1179.22 1088.18 1188.38 1032.72 1158.37 1013.17C1128.17 993.73 1072.02 1007.84 1023.97 1030.18C994.229 1044.1 965.255 1061.42 937.83 1077.99C914.197 1092.31 891.447 1105.78 869.42 1117.7C820.406 1144.32 773.648 1163.81 730.667 1166.75C722.217 1167.41 713.827 1167.39 705.879 1166.46C664.962 1161.42 639.151 1138.57 627.39 1103.71C618.888 1078.5 615.721 1048.36 609.517 1019.05C609.292 1018.06 609.035 1016.92 608.811 1015.93C601.168 982.162 590.473 944.413 556.469 932.859C529.246 923.723 490.654 932.745 452.789 951.633C433.256 961.271 414.237 973.18 396.297 986.059C376.683 1000.09 358.023 1015.49 339.935 1031.51C307.673 1059.95 277.695 1089.93 247.682 1118.81C212.399 1152.9 177.174 1185.35 140.356 1214.56C72.4033 1268.64 -6.36931 1314.82 -79.1223 1323C-110.388 1326.39 -138.829 1322.32 -163.109 1312.89C-172.523 1309.3 -181.274 1304.83 -189.332 1299.62C-277.168 1244.01 -287.956 1108.02 -214.409 972.264" stroke="#BEA7CB" stroke-width="2" stroke-miterlimit="10"/>
<path d="M1745.93 1465.45C1644.51 1531.63 1541.01 1590.51 1438.73 1629.18C1340.2 1666.28 1237.83 1683.59 1159.39 1666.93C1101.24 1654.34 1057.52 1623.72 1036.79 1571.11C1018.54 1524.75 1020.41 1465.52 1040.71 1404.07C1056.21 1357.53 1081.49 1310.51 1108.02 1263.25C1119.23 1243.4 1130.76 1223.05 1142.07 1202.67C1157.06 1175.75 1171.7 1147.28 1181.84 1118.89C1197.76 1074.2 1207.9 1017.32 1177.77 997.321C1147.7 977.61 1090.66 991.75 1042.61 1014.25C1012.68 1028.43 983.559 1046.16 956.02 1063.27C932.465 1078.03 909.415 1092.16 887.343 1104.91C838.011 1133.16 790.686 1155.07 746.443 1160.18C737.828 1161.09 729.117 1161.58 720.625 1161.14C678.225 1158.23 649.579 1137.19 636.067 1103.17C626.197 1078.58 622.582 1048.36 615.77 1019.22C615.545 1018.23 615.288 1017.09 615.063 1016.1C607.19 982.28 596.958 943.738 562.546 932.397C534.826 923.051 495.412 932.384 456.949 951.62C437.054 961.631 417.673 973.914 399.562 987.055C379.808 1001.49 360.629 1017.52 342.37 1033.81C309.833 1063.06 279.614 1094 249.392 1123.97C213.928 1159.3 178.744 1193.02 141.808 1223.75C73.3708 1280.71 -7.06676 1330.28 -81.71 1339.86C-113.885 1344.1 -142.982 1340.08 -167.915 1330.69C-177.558 1327.07 -186.539 1322.56 -194.793 1317.47C-284.92 1261.51 -295.734 1122.52 -219.83 984.498" stroke="#C3AAC6" stroke-width="2" stroke-miterlimit="10"/>
<path d="M1762.55 1449.64C1660.05 1517.1 1555.81 1577.86 1452.01 1618.7C1352.29 1657.6 1247.7 1676.83 1167.87 1660.94C1108.73 1648.9 1064.14 1618.42 1043.55 1564.55C1025.54 1517.36 1028.41 1456.84 1050.47 1394.48C1067.49 1347.01 1094.41 1299.49 1122.54 1251.57C1134.36 1231.52 1146.5 1210.96 1158.41 1190.37C1174.18 1162.98 1189.43 1134.29 1200.14 1105.55C1216.9 1060.66 1227.99 1002.21 1197.74 981.77C1167.8 961.788 1109.89 976.099 1061.65 998.865C1031.51 1013.17 1002.24 1031.3 974.62 1049.11C950.922 1064.27 928.016 1079.12 905.834 1092.42C856.218 1122.44 808.484 1146.51 762.788 1153.91C753.852 1155.34 744.819 1156.34 736.162 1156.14C692.278 1155.38 660.983 1136.04 645.718 1102.86C634.635 1078.65 630.224 1048.71 623.216 1019.67C622.958 1018.53 622.733 1017.53 622.475 1016.4C614.183 982.634 604.446 943.441 569.943 931.805C541.567 922.503 501.647 931.638 462.428 951.477C442.328 961.606 422.586 974.263 404.146 987.922C384.03 1002.73 364.712 1019.17 346.346 1036C313.534 1066.07 283.043 1097.82 252.802 1128.78C217.127 1165.21 182.017 1200.34 144.774 1232.71C75.8206 1292.39 -6.05996 1345.39 -82.5945 1356.38C-115.521 1361.22 -145.433 1357.5 -171.019 1348.16C-180.892 1344.49 -190.07 1340.1 -198.552 1334.97C-290.941 1278.81 -301.779 1136.82 -223.582 996.25" stroke="#FFB5EA" stroke-width="2" stroke-miterlimit="10"/>
<path d="M1779.19 1433.97C1675.6 1502.72 1570.44 1565.47 1465.27 1608.22C1364.18 1649.04 1257.54 1670.08 1176.29 1654.81C1116.15 1643.33 1070.68 1612.84 1050.25 1557.85C1032.28 1509.95 1036.36 1448.03 1060.32 1384.49C1078.66 1336.06 1107.44 1288.06 1137.16 1239.5C1149.79 1219.13 1162.35 1198.47 1174.84 1177.52C1191.41 1149.82 1207.24 1120.77 1218.34 1091.78C1235.7 1046.67 1247.75 986.643 1217.41 965.903C1187.39 945.619 1128.8 959.988 1080.58 983.051C1050.26 997.614 1021.04 1016.05 993.112 1034.51C969.303 1050.22 946.287 1065.62 924.059 1079.75C874.317 1111.3 825.794 1137.76 778.675 1147.6C769.417 1149.53 760.029 1150.9 751.05 1151.22C705.68 1152.6 671.542 1135.07 654.71 1102.63C642.446 1078.92 637.237 1049.27 629.967 1020.03C629.709 1018.9 629.484 1017.9 629.226 1016.76C620.704 982.944 611.43 942.958 576.487 931.393C547.612 921.88 506.87 931.326 467.052 951.513C446.557 961.873 426.642 974.793 407.842 988.826C387.363 1004.01 367.905 1020.86 349.211 1038.21C315.935 1069.2 285.393 1101.8 255.134 1133.74C219.468 1171.31 184.244 1207.97 146.629 1241.68C77.1912 1304.24 -6.16611 1360.53 -84.7524 1373.19C-118.432 1378.62 -149.159 1375.2 -175.4 1365.9C-185.471 1362.35 -194.91 1357.78 -203.622 1352.61C-298.307 1296.11 -309.172 1151.12 -228.613 1008.28" stroke="#FFB3DA" stroke-width="2" stroke-miterlimit="10"/>
<path d="M1795.82 1418.13C1691.33 1488.05 1585.27 1552.93 1478.73 1597.6C1376.5 1640.36 1267.82 1663.22 1184.96 1648.69C1123.82 1637.75 1077.45 1607.27 1057.35 1550.9C1039.62 1502.17 1044.9 1438.85 1070.59 1374.26C1090.27 1325.01 1121.03 1276.14 1152.2 1227.18C1165.4 1206.46 1178.8 1185.62 1191.68 1164.44C1209.02 1136.26 1225.43 1106.86 1237.11 1077.51C1255.27 1032.06 1268.3 970.608 1237.84 949.424C1207.96 928.868 1148.47 943.265 1100.09 966.738C1069.78 981.45 1040.22 1000.4 1012.18 1019.42C988.454 1035.56 965.328 1051.51 942.834 1066.44C892.776 1099.62 843.687 1128.52 795.303 1140.54C785.722 1142.98 776.169 1144.6 766.868 1145.43C720.011 1148.96 683.027 1133.25 664.627 1101.54C651.179 1078.35 645.14 1048.84 637.641 1019.55C637.383 1018.41 637.157 1017.42 636.709 1016.39C627.956 982.52 618.957 941.853 583.987 930.277C554.613 920.553 513.206 930.055 472.822 950.733C451.964 961.466 431.845 974.505 412.715 989.056C392.097 1004.65 372.31 1022.01 353.477 1039.78C319.926 1071.58 289.144 1105.13 258.646 1138.03C222.801 1176.84 187.621 1214.77 149.7 1250.13C79.9371 1315.31 -5.27693 1375.11 -85.7255 1389.33C-120.348 1395.46 -151.701 1392.23 -178.597 1382.98C-188.898 1379.39 -198.535 1374.93 -207.475 1369.73C-304.426 1313.03 -315.349 1164.89 -232.46 1019.64" stroke="#FFBCEC" stroke-width="2" stroke-miterlimit="10"/>
<path d="M1812.48 1402.4C1706.91 1473.6 1599.93 1540.48 1492.01 1587.06C1388.61 1631.63 1277.69 1656.42 1193.43 1642.66C1131.34 1632.41 1084.07 1601.92 1064.1 1544.3C1046.58 1494.59 1052.9 1430.13 1080.51 1364.37C1101.72 1314.18 1134.12 1264.81 1166.9 1215.2C1180.71 1194.27 1194.72 1173.22 1208.21 1151.83C1226.32 1123.19 1243.35 1093.57 1255.6 1063.87C1274.57 1018.08 1288.4 955.308 1257.85 933.822C1228.1 912.995 1167.71 927.419 1119.33 951.046C1088.84 966.021 1059.13 985.38 1030.98 1004.95C1007.11 1021.5 983.909 1038.14 961.37 1053.9C911.219 1088.75 861.342 1120.05 811.691 1134.25C801.945 1136.95 791.911 1139.34 782.223 1140.39C733.877 1146.07 694.042 1132.18 674.073 1101.2C659.44 1078.53 652.569 1049.17 644.839 1019.83C644.581 1018.69 644.355 1017.69 643.907 1016.66C634.732 982.848 626.42 941.417 590.979 929.77C560.915 919.947 519.033 929.393 477.892 950.674C456.829 961.525 436.19 975.195 416.889 990.009C395.907 1005.98 375.981 1023.75 357.01 1041.92C323.185 1074.54 292.131 1108.91 261.648 1142.94C225.625 1182.99 190.33 1222.45 152.452 1259.08C82.2065 1327.14 -4.4855 1390.24 -86.8307 1405.87C-122.208 1412.6 -154.377 1409.67 -181.929 1400.46C-192.46 1396.84 -202.327 1392.35 -211.497 1387.12C-310.747 1330.06 -321.476 1178.95 -236.477 1031.26" stroke="#FFA9E7" stroke-width="2" stroke-miterlimit="10"/>
<path d="M1829.12 1386.52C1722.65 1458.89 1614.55 1527.87 1505.29 1576.52C1400.51 1623.01 1287.55 1649.61 1201.71 1636.74C1138.42 1627.16 1090.64 1596.44 1070.65 1537.8C1053.36 1487.26 1060.7 1421.51 1090.23 1354.58C1112.78 1303.57 1146.98 1253.44 1181.21 1203.44C1195.64 1182.3 1210.26 1161.04 1224.33 1139.3C1243.21 1110.19 1260.85 1080.36 1273.66 1050.15C1293.24 1004.14 1308.25 939.824 1277.57 917.892C1247.96 896.792 1186.85 911.131 1138.31 935.168C1107.65 950.405 1077.95 969.918 1049.5 990.15C1025.71 1007.14 1002.43 1024.47 979.811 1040.92C929.345 1077.41 878.9 1111.14 827.981 1127.54C817.911 1130.75 807.712 1133.39 797.701 1134.95C747.864 1142.78 705.333 1130.46 683.601 1100.33C667.781 1078.17 660.267 1048.84 652.117 1019.56C651.859 1018.42 651.442 1017.54 651.184 1016.4C641.777 982.528 633.741 940.414 598.082 928.868C567.549 918.976 524.811 928.59 483.069 950.22C461.61 961.302 440.798 975.234 421.135 990.425C399.824 1006.92 379.535 1025.06 360.457 1043.79C326.167 1077.33 295.064 1112.54 264.373 1147.68C228.361 1188.87 192.921 1229.72 154.736 1267.99C84.0078 1338.93 -4.16405 1405.33 -88.5993 1422.49C-124.922 1429.92 -157.719 1427.19 -185.927 1418.02C-196.657 1414.51 -206.754 1409.98 -216.154 1404.72C-317.709 1347.32 -328.466 1193.19 -241.1 1043.23" stroke="#FD92DF" stroke-width="2" stroke-miterlimit="10"/>
<path d="M1845.76 1370.61C1738.21 1444.27 1629.37 1515.13 1518.55 1565.82C1412.59 1614.12 1297.39 1642.65 1210.15 1630.54C1145.86 1621.52 1097.18 1590.8 1077.36 1531.03C1060.31 1479.66 1068.85 1412.51 1100.14 1344.66C1124.05 1292.83 1160.08 1242.08 1195.92 1191.44C1211.15 1169.97 1226.35 1148.37 1240.88 1126.67C1260.57 1097.23 1278.79 1067.04 1292.17 1036.48C1312.56 990.127 1328.55 924.381 1297.76 902.003C1268.09 880.743 1206.31 895.139 1157.57 919.443C1126.73 934.943 1096.89 954.864 1068.32 975.647C1044.39 993.042 1021.03 1011.07 998.336 1028.21C947.777 1066.37 896.543 1102.51 844.164 1121.21C833.771 1124.93 823.216 1127.94 812.88 1130.01C761.552 1140 715.973 1129.61 692.857 1100.1C675.657 1078.58 667.5 1049.28 659.119 1019.95C658.86 1018.81 658.411 1017.78 658.184 1016.78C648.514 982.717 640.817 940.205 605.067 928.363C574.033 918.258 530.628 927.928 488.127 950.162C466.305 961.618 445.288 975.67 425.105 991.493C403.62 1008.25 383.002 1026.92 363.785 1046.05C329.221 1080.41 297.877 1116.58 267.138 1152.56C230.948 1195 195.552 1237.13 157.061 1277.04C85.8182 1350.73 -3.80166 1420.58 -90.1383 1439.15C-127.217 1447.18 -160.832 1444.75 -189.698 1435.63C-200.659 1432.08 -210.987 1427.52 -220.585 1422.36C-324.414 1364.75 -335.231 1207.48 -245.528 1055.1" stroke="#FF8DDF" stroke-width="2" stroke-miterlimit="10"/>
<path d="M1862.25 1354.91C1753.79 1429.74 1643.84 1502.72 1531.67 1555.47C1424.37 1605.84 1307.32 1636.07 1218.42 1624.57C1153.13 1616.09 1103.56 1585.37 1083.9 1524.48C1067.09 1472.28 1076.64 1403.83 1109.67 1334.92C1134.92 1282.27 1172.76 1230.76 1210.25 1179.61C1226.09 1157.94 1241.9 1136.12 1257.01 1114.07C1277.48 1084.16 1296.28 1053.62 1310.28 1022.84C1331.28 976.264 1348.27 909.085 1317.35 886.26C1287.81 864.727 1225.13 879.15 1176.43 903.751C1145.37 919.371 1115.6 939.731 1086.73 961.179C1062.69 979.124 1039.41 997.587 1016.48 1015.68C965.611 1055.49 913.809 1094.06 860.159 1114.95C849.442 1119.19 838.721 1122.46 828.029 1124.9C775.207 1137.04 726.957 1128.36 702.073 1099.7C683.683 1078.7 674.69 1049.54 666.111 1020.3C665.852 1019.16 665.402 1018.13 665.175 1017.13C655.082 983.128 648.042 939.707 611.851 927.936C580.316 917.619 536.084 927.599 493.205 950.213C470.986 961.899 449.606 976.327 429.25 992.415C407.435 1009.69 386.676 1028.77 367.131 1048.42C332.259 1083.46 300.676 1120.59 269.952 1157.7C233.583 1201.39 198.265 1244.94 159.436 1286.36C87.9015 1362.83 -3.58154 1436.2 -91.7897 1456.34C-129.625 1464.96 -164.061 1462.83 -193.553 1453.9C-204.935 1450.43 -215.462 1445.98 -225.132 1440.53C-331.272 1382.58 -342.118 1222.28 -250.043 1067.63" stroke="#FF6DD6" stroke-width="2" stroke-miterlimit="10"/>
<path d="M1878.89 1338.98C1769.32 1414.96 1658.66 1489.96 1544.93 1544.75C1436.45 1596.93 1317.15 1629.1 1226.86 1618.37C1160.57 1610.44 1110.13 1579.86 1090.77 1517.45C1074.19 1464.41 1084.77 1394.67 1119.72 1324.6C1146.51 1271.01 1186 1219 1225.1 1167.2C1241.56 1145.32 1258.17 1123.18 1273.71 1101.04C1294.98 1070.8 1314.36 1039.9 1328.91 1008.63C1350.5 961.681 1368.66 892.955 1337.66 869.828C1308.26 848.022 1244.67 862.471 1195.97 887.225C1164.73 903.109 1134.79 923.734 1105.84 945.878C1081.84 964.117 1058.33 983.529 1035.3 1002.17C984.334 1043.65 931.743 1084.64 876.822 1107.73C865.972 1112.36 854.736 1116.25 843.688 1119.06C789.339 1133.23 738.258 1126.51 711.797 1098.6C692.215 1078.11 682.386 1049.1 673.576 1019.81C673.316 1018.67 672.866 1017.64 672.607 1016.5C662.281 982.438 655.55 938.477 619.11 926.665C586.883 916.248 542.175 926.17 498.536 949.388C476.145 961.336 454.401 976.139 433.684 992.604C411.505 1010.26 390.608 1029.74 370.924 1049.81C335.778 1085.66 304.146 1123.64 272.994 1161.82C236.639 1206.65 201.177 1251.59 162.202 1294.4C90.1545 1373.62 -2.8091 1450.3 -93.0785 1472.11C-131.861 1481.44 -166.925 1479.51 -197.076 1470.61C-208.657 1467.26 -219.447 1462.63 -229.314 1457.29C-337.764 1398.99 -348.607 1235.82 -254.225 1078.61" stroke="#FF41CA" stroke-width="2" stroke-miterlimit="10"/>
<path d="M1895.58 1323.12C1785.11 1400.27 1673.33 1477.39 1558.26 1534.26C1448.4 1588.36 1327.05 1622.35 1235.36 1612.39C1168.1 1605.16 1116.92 1574.32 1097.54 1510.9C1081.2 1457.03 1092.98 1385.88 1129.67 1314.75C1157.82 1260.34 1199.3 1207.45 1239.86 1155.26C1256.93 1133.17 1274.16 1110.82 1290.28 1088.33C1312.33 1057.62 1332.33 1026.51 1347.26 994.986C1369.7 947.847 1388.63 877.656 1357.5 854.081C1328.21 831.86 1263.74 846.477 1214.88 871.641C1183.47 887.788 1153.38 908.822 1124.31 931.519C1100.21 950.31 1076.78 970.161 1053.7 989.644C1002.42 1032.77 949.266 1076.2 892.881 1101.6C881.674 1106.6 870.305 1110.9 858.932 1114.22C803.054 1130.4 749.137 1125.66 721.095 1098.48C700.32 1078.51 689.877 1049.68 680.42 1020.42C680.161 1019.28 679.71 1018.25 679.451 1017.1C668.7 983.104 662.628 938.233 625.938 926.379C593.207 915.749 547.863 925.869 503.431 949.549C480.643 961.728 458.726 976.795 437.678 993.78C415.326 1011.7 394.098 1031.71 374.117 1052.44C338.506 1089.22 306.826 1128.05 275.657 1167.22C239.125 1213.3 203.519 1259.64 164.429 1303.99C91.9002 1386.1 -2.54687 1466.1 -94.7237 1489.32C-134.265 1499.25 -170.15 1497.62 -200.961 1488.77C-212.774 1485.38 -223.762 1480.86 -233.861 1475.49C-344.593 1416.98 -355.499 1250.65 -258.774 1091.02" stroke="#FF1BBF" stroke-width="2" stroke-miterlimit="10"/>
<path d="M1912.23 1307.12C1800.68 1385.57 1687.98 1464.69 1571.52 1523.48C1379.23 1620.46 1149.56 1656.83 1104.25 1504.07C1088.14 1449.37 1100.94 1376.92 1139.6 1304.76C1169.1 1249.53 1212.42 1196.02 1254.4 1143.3C1296.58 1090.47 1338.69 1036.38 1365.79 981.108C1389.03 933.633 1408.96 862.006 1377.75 838.127C1348.39 815.744 1283.22 830.275 1234.39 855.736C1176.8 885.564 1124.04 931.845 1072.48 976.762C1020.92 1021.68 967.353 1067.3 909.504 1095.01C841.493 1127.6 766.566 1129.73 730.729 1097.88C707.959 1077.77 696.576 1047.68 686.818 1017.12C675.834 983.066 670.04 937.51 633.132 925.757C599.931 915.057 553.694 925.201 508.693 949.374C460.984 974.985 416.678 1013.67 377.805 1054.33C299.741 1136.16 240.163 1227.83 167.122 1312.7C94.0806 1397.56 -1.817 1481.02 -96.0924 1505.78C-151.918 1520.46 -200.779 1512.37 -238.164 1492.79C-351.212 1433.93 -362.149 1264.58 -263.047 1102.67" stroke="#F900B3" stroke-width="2" stroke-miterlimit="10"/>
</svg>
