<svg width="1440" height="2881" viewBox="0 0 1440 2881" fill="none" xmlns="http://www.w3.org/2000/svg">
<path d="M1801.55 536.119C1800.84 652.476 1729.12 789.819 1648.07 830.063C1563.38 872.01 1488.08 814.715 1403.44 847.805C1322.23 879.582 1249.47 988.168 1195.78 1099.26C1142.08 1210.35 1099.88 1331.07 1038.88 1434.79C977.879 1538.52 888.773 1625.62 814.584 1610.68C750.378 1597.62 715.8 1514.88 677.338 1447.42C638.77 1380.16 578.554 1322.42 508.971 1368.26C427.063 1422.05 394.288 1564.65 344.198 1664.47C259.011 1833.76 129.403 1957.3 7.59777 1972.25C-116.694 1987.65 -221.614 1888.47 -253.232 1725.85" stroke="#9254FF" stroke-width="2" stroke-miterlimit="10"/>
<path d="M1795.99 566.04C1792.92 681.683 1721.31 816.528 1640.74 857.176C1575.05 890.429 1514.72 865.426 1451.54 867.529C1433.47 868.201 1415.27 870.877 1396.68 877.757C1315.88 908.028 1243.82 1009.84 1190.51 1113.24C1154.08 1184 1122.94 1258.48 1088.06 1329.02C1071.91 1361.8 1054.94 1393.43 1035.94 1423.53C1011.85 1461.79 983.147 1497.98 952.499 1527.51C906.738 1571.57 857.431 1600.23 813.385 1593.87C801.961 1592.31 791.608 1588.49 781.798 1583.1C736.739 1558.17 706.564 1496.66 674.075 1443.48C668.963 1435.03 663.434 1426.77 657.698 1418.59C618.817 1365.13 567.318 1325.14 508.298 1360.49C498.078 1366.64 488.765 1374.06 479.942 1382.91C446.341 1416.09 421.526 1465.88 398.411 1518.69C379.918 1561 362.625 1605.49 342.959 1644.1C338.151 1653.49 333.241 1662.76 328.23 1671.93C300.941 1721.58 270.112 1767.2 236.916 1806.65C167.054 1889.27 86.3369 1943.9 8.66827 1954.43C-15.119 1957.69 -38.3148 1956.66 -60.3057 1951.67C-153.003 1931.04 -226.217 1841.2 -251.345 1710.05" stroke="#9156FF" stroke-width="2" stroke-miterlimit="10"/>
<path d="M1790.32 596.156C1784.9 710.783 1713.49 843.238 1633.29 884.484C1567.96 918.339 1507.54 895.66 1444.41 898.066C1426.46 898.844 1408.38 901.324 1389.81 907.9C1309.42 936.364 1237.95 1031.91 1185.02 1127.62C1148.92 1193.12 1118.03 1261.63 1084 1326.25C1068.22 1356.31 1051.62 1385.23 1032.99 1412.91C1009.39 1447.96 981.073 1481.13 950.473 1509.44C904.789 1551.36 855.809 1581.53 812.063 1577.91C800.739 1577.05 790.278 1574.04 780.568 1569.36C735.379 1548.26 704.016 1491.35 670.699 1440.06C665.378 1432.01 659.854 1423.75 653.91 1415.97C614.425 1363.72 564.755 1321.95 507.093 1353.43C497.207 1358.69 488.014 1365.61 479.316 1373.66C446.208 1403.93 421.26 1450.77 397.691 1501.2C378.831 1541.85 361.047 1585.78 341.298 1624.26C336.493 1633.64 331.588 1642.91 326.581 1652.07C299.423 1701.5 269.133 1747.32 236.168 1786.96C167.182 1870.08 86.7284 1925.49 9.32042 1936.83C-14.4511 1940.39 -37.4238 1939.57 -59.5017 1934.78C-152.133 1915.08 -225.287 1825.6 -249.876 1694.47" stroke="#9158FF" stroke-width="2" stroke-miterlimit="10"/>
<path d="M1784.65 626.221C1776.77 740.026 1705.58 869.79 1625.85 911.738C1560.77 946.087 1500.26 926.03 1437.5 928.455C1419.56 929.234 1401.5 931.714 1383.16 937.896C1303.28 964.661 1232.4 1053.64 1179.87 1141.67C1144.1 1201.92 1113.44 1264.47 1080.17 1323.06C1064.75 1350.41 1048.53 1376.61 1030.27 1401.59C1007.06 1433.32 979.123 1463.77 948.679 1490.66C903.069 1530.75 854.627 1562.03 811.081 1561.04C799.858 1560.9 789.497 1558.6 779.78 1554.82C734.461 1537.55 702.021 1485.04 667.771 1435.84C662.348 1427.99 656.718 1420.23 650.672 1412.65C610.579 1361.91 562.738 1318.36 506.543 1345.48C496.885 1350.05 487.918 1356.27 479.452 1363.32C447.044 1390.6 421.762 1434.27 397.73 1482.94C378.403 1521.82 360.23 1565.29 340.504 1603.45C335.704 1612.82 330.702 1621.98 325.806 1630.95C298.672 1680.34 268.819 1726.26 236.395 1766.1C168.18 1849.91 87.9902 1906.1 11.0516 1918.16C-12.5972 1921.83 -35.6607 1921.51 -57.6174 1916.83C-149.973 1897.96 -223.166 1808.74 -247.53 1677.91" stroke="#905AFF" stroke-width="2" stroke-miterlimit="10"/>
<path d="M1778.97 656.282C1768.75 769.072 1697.76 896.45 1618.29 939.188C1553.47 974.029 1492.97 956.397 1430.26 959.124C1412.34 959.903 1394.5 962.293 1376.18 968.171C1296.71 993.435 1226.53 1075.67 1174.38 1156.03C1138.83 1211.23 1108.31 1267.72 1076.1 1320.3C1061.05 1344.94 1045.41 1368.35 1027.31 1391.01C1004.48 1419.72 976.93 1447.16 946.534 1472.84C900.997 1511.09 852.885 1543.58 809.745 1545.12C798.521 1545.58 788.26 1543.99 778.536 1541.12C733.088 1527.67 699.363 1479.64 664.389 1432.44C658.966 1424.9 653.128 1417.53 646.982 1410.15C606.18 1360.81 560.371 1315.4 505.427 1338.56C496.096 1342.54 487.154 1347.85 478.913 1354.21C447.097 1378.69 421.583 1419.31 397.099 1465.6C377.512 1502.64 358.745 1545.75 338.834 1583.67C333.937 1592.93 329.04 1602.18 324.149 1611.14C297.044 1660.2 267.829 1706.42 235.631 1746.75C168.183 1831.25 88.464 1888.14 11.6846 1900.9C-11.9484 1904.87 -34.8902 1904.66 -56.8326 1900.28C-149.121 1882.33 -222.047 1793.39 -246.08 1662.67" stroke="#905DFF" stroke-width="2" stroke-miterlimit="10"/>
<path d="M1773.29 686.308C1760.72 798.385 1689.84 922.973 1610.84 966.41C1546.38 1001.85 1485.68 986.727 1423.23 989.667C1405.43 990.552 1387.6 992.942 1369.41 998.321C1290.35 1021.78 1220.65 1097.67 1168.99 1170.47C1133.67 1220.33 1103.48 1270.98 1071.91 1317.74C1057.24 1339.68 1041.96 1360.38 1024.24 1380.34C1001.79 1405.74 974.731 1430.28 944.383 1454.73C899.024 1490.97 851.242 1524.66 808.294 1529.12C797.171 1530.28 786.903 1529.59 777.171 1527.63C731.594 1517.99 696.688 1474.54 660.89 1429.24C655.259 1422.09 649.321 1414.93 643.281 1407.65C601.873 1359.82 557.884 1312.64 504.397 1331.75C495.292 1335.04 486.682 1339.46 478.459 1345.21C447.235 1366.9 421.594 1404.27 396.548 1448.7C376.596 1484.08 357.34 1526.63 337.346 1564.42C332.453 1573.67 327.566 1582.62 322.573 1591.77C295.599 1640.6 266.712 1687.11 235.052 1727.65C168.477 1812.64 89.0199 1870.3 12.3938 1884.07C-11.2234 1888.34 -34.044 1888.23 -55.972 1884.16C-148.194 1867.13 -220.954 1778.36 -244.556 1647.85" stroke="#8F5FFF" stroke-width="2" stroke-miterlimit="10"/>
<path d="M1767.71 716.102C1752.81 827.162 1682.15 949.365 1603.52 993.394C1539.2 1029.52 1478.52 1016.81 1416.22 1019.86C1398.44 1020.75 1380.73 1022.94 1362.67 1028.12C1284.12 1049.89 1215.01 1119.23 1163.84 1184.49C1128.75 1229.01 1098.9 1273.53 1068.18 1314.69C1053.77 1333.82 1038.97 1351.92 1021.71 1369.29C999.653 1391.39 972.974 1413.22 942.682 1436.16C897.295 1470.46 850.052 1505.25 807.404 1512.44C796.381 1514.31 786.112 1514.22 776.373 1513.16C730.668 1507.33 694.485 1468.36 657.961 1425.35C652.123 1418.59 646.291 1411.54 640.044 1404.66C598.139 1358.14 555.969 1309.19 503.838 1324.15C494.959 1326.75 486.574 1330.48 478.475 1335.43C447.742 1354.23 421.87 1388.54 396.475 1430.71C376.16 1464.44 356.524 1506.24 336.346 1543.79C331.458 1553.04 326.576 1561.98 321.592 1570.82C294.749 1619.43 266.399 1666.14 235.071 1706.96C169.263 1792.64 90.0705 1851.07 13.8129 1865.45C-9.68161 1869.82 -32.5924 1870.21 -54.3993 1866.26C-146.345 1850.05 -219.142 1761.54 -242.313 1631.25" stroke="#8F61FF" stroke-width="2" stroke-miterlimit="10"/>
<path d="M1762.12 746.184C1744.78 856.423 1674.22 976.139 1596.16 1020.67C1532.2 1057.39 1471.43 1046.99 1409.29 1050.45C1391.63 1051.44 1373.84 1053.52 1356 1058.31C1277.76 1078.48 1209.44 1141.21 1158.55 1199.02C1123.79 1238.31 1094.17 1276.9 1064.2 1312.06C1050.16 1328.49 1035.73 1343.9 1018.74 1358.76C997.164 1377.66 970.871 1396.5 940.627 1418.22C895.313 1450.69 848.399 1486.69 806.156 1496.39C795.234 1498.97 784.958 1499.79 775.218 1499.33C729.279 1497.5 692.025 1462.89 654.682 1421.77C648.844 1415.32 642.704 1408.56 636.458 1401.99C593.849 1356.86 553.696 1306.36 502.815 1317.07C494.162 1318.98 486.002 1322.02 478.027 1326.17C447.99 1341.99 421.887 1373.26 395.932 1413.56C375.254 1445.64 355.131 1486.88 334.872 1524.3C329.887 1533.43 325.009 1542.37 320.131 1551.31C293.312 1599.88 265.396 1646.68 234.505 1687.6C169.462 1773.96 90.6389 1832.98 14.6418 1848.17C-8.73579 1852.94 -31.6256 1853.33 -53.5239 1849.87C-145.401 1834.59 -218.031 1746.25 -240.772 1616.17" stroke="#8E63FF" stroke-width="2" stroke-miterlimit="10"/>
<path d="M1756.42 776.122C1736.85 885.452 1666.4 1002.68 1588.61 1048C1524.9 1085.2 1464.04 1077.41 1402.16 1081.08C1384.51 1082.07 1366.84 1083.96 1349.13 1088.25C1271.41 1106.73 1203.67 1162.94 1153.17 1213.12C1118.73 1247.19 1089.46 1279.66 1060.12 1309.33C1046.66 1322.97 1032.39 1335.78 1015.87 1348.05C994.681 1363.66 968.766 1379.8 938.571 1400.3C893.332 1430.95 846.853 1467.94 804.802 1480.56C793.879 1483.74 783.804 1485.36 774.057 1485.8C727.89 1487.67 689.564 1457.73 651.402 1418.5C645.358 1412.44 639.218 1405.98 632.978 1399.42C589.874 1355.59 551.426 1303.52 502.002 1309.9C493.68 1310.93 485.537 1313.37 477.787 1316.83C448.339 1329.86 422.006 1358.09 395.604 1396.04C374.563 1426.47 353.956 1467.15 333.614 1504.44C328.634 1513.57 323.761 1522.5 318.892 1531.13C292.204 1579.47 264.822 1626.47 234.155 1667.87C169.882 1754.62 91.4231 1814.51 15.6815 1830.8C-7.6798 1835.87 -30.5539 1836.56 -52.3312 1833.21C-144.139 1818.84 -216.501 1730.78 -239.019 1601.02" stroke="#8E65FF" stroke-width="2" stroke-miterlimit="10"/>
<path d="M1750.72 806.048C1728.73 914.556 1658.49 1029.11 1581.17 1075.11C1517.82 1112.91 1456.77 1107.62 1395.04 1111.39C1377.41 1112.38 1359.86 1114.38 1342.28 1118.17C1265.06 1134.97 1197.92 1184.65 1147.69 1227.41C1113.48 1256.47 1084.65 1282.63 1056.06 1306.61C1042.96 1317.57 1029.16 1327.79 1012.91 1337.26C992.106 1349.58 966.676 1362.83 936.531 1382.12C891.472 1410.76 845.216 1449.14 803.671 1464.37C792.848 1468.25 782.666 1470.67 773.018 1471.82C726.62 1477.67 687.234 1451.8 648.251 1414.75C642.107 1408.89 635.968 1402.74 629.421 1396.46C585.617 1354.03 549.184 1300.11 501.003 1302.56C492.906 1302.89 485.094 1304.45 477.362 1307.31C448.503 1317.56 421.94 1342.76 395.092 1378.34C373.589 1407.03 352.599 1447.26 332.075 1484.3C327.206 1493.23 322.13 1502.25 317.367 1510.98C290.709 1558.98 263.755 1606.37 233.625 1647.97C170.116 1735.39 92.0219 1796.16 16.5475 1812.95C-6.69122 1818.13 -29.5488 1819.12 -51.3109 1816.07C-142.948 1802.72 -215.241 1714.73 -237.33 1585.19" stroke="#8D67FF" stroke-width="2" stroke-miterlimit="10"/>
<path d="M1745.12 835.719C1720.82 943.212 1650.79 1055.39 1573.84 1101.98C1510.74 1140.26 1449.7 1137.37 1388.13 1141.54C1370.51 1142.84 1353.09 1144.34 1335.63 1147.94C1258.72 1163.14 1192.37 1206.23 1142.53 1241.38C1108.65 1265.23 1080.25 1285.41 1052.2 1303.5C1039.58 1311.57 1026.04 1319.3 1010.15 1326.39C989.833 1335.52 964.681 1345.98 934.69 1363.86C889.605 1390.58 843.985 1430.16 802.637 1447.99C791.914 1452.58 781.726 1455.9 772.071 1457.94C725.441 1467.77 684.993 1446.26 645.09 1411.28C638.946 1405.73 632.501 1399.87 625.955 1393.89C581.658 1352.76 547.026 1297.39 500.296 1295.52C492.423 1295.17 484.836 1296.03 477.227 1298.1C449.061 1305.38 422.17 1327.44 394.865 1361.27C373.002 1388.32 351.529 1427.98 331.03 1464.7C326.065 1473.52 321.2 1482.44 316.341 1491.06C289.814 1538.84 263.392 1586.42 233.592 1628.3C170.846 1716.4 93.1207 1777.74 17.9076 1795.34C-5.31461 1800.81 -28.0556 1802.21 -49.7973 1799.16C-141.258 1786.53 -213.488 1698.91 -235.149 1569.59" stroke="#8D69FF" stroke-width="2" stroke-miterlimit="10"/>
<path d="M1739.41 865.587C1712.79 972.363 1642.87 1081.76 1566.39 1129.04C1503.65 1167.91 1442.42 1167.5 1381.01 1171.79C1363.41 1173.08 1346.1 1174.68 1328.77 1177.79C1252.37 1191.3 1186.6 1228.2 1137.15 1255.45C1103.5 1274 1075.54 1288.49 1048.13 1300.81C1035.97 1306.31 1022.8 1311.05 1007.18 1315.65C987.14 1321.7 962.471 1329.28 932.636 1345.76C887.625 1370.66 842.334 1411.43 801.285 1431.96C790.662 1437.25 780.473 1441.16 770.811 1444.1C723.952 1457.91 682.343 1440.64 641.728 1407.65C635.378 1402.49 628.934 1396.93 622.395 1390.96C577.4 1351.22 544.672 1294.2 499.286 1288.21C491.738 1287.27 484.274 1287.35 476.789 1288.62C449.21 1293.13 422.09 1312.16 394.342 1343.65C372.119 1369.05 350.271 1407.96 329.484 1444.64C324.524 1453.45 319.564 1462.26 314.81 1470.98C288.308 1518.71 262.318 1566.38 232.948 1608.66C171.07 1697.24 93.6088 1759.34 18.6578 1777.74C-4.54747 1783.5 -27.1664 1785.01 -48.8926 1782.27C-140.282 1770.55 -212.242 1683.21 -233.575 1554.01" stroke="#8C6BFF" stroke-width="2" stroke-miterlimit="10"/>
<path d="M1733.69 895.425C1704.76 1001.19 1635.06 1108.21 1558.84 1156.26C1496.25 1195.81 1435.04 1197.8 1373.88 1202.29C1356.39 1203.69 1339.11 1205 1321.9 1207.91C1246.01 1219.74 1180.83 1250.16 1131.66 1270.01C1098.33 1283.38 1070.81 1291.89 1043.94 1298.34C1032.24 1301.26 1019.34 1303.22 1004.08 1305.44C984.426 1308.21 960.241 1312.92 930.35 1328.38C885.413 1351.47 840.45 1393.42 799.804 1416.45C789.075 1422.53 779.085 1427.25 769.422 1430.79C722.332 1448.56 679.666 1435.64 638.239 1404.52C631.791 1399.56 625.347 1394.3 618.603 1388.73C573.013 1350.48 542.184 1291.82 498.145 1281.41C490.82 1279.8 483.579 1279.18 476.218 1279.66C449.324 1281.52 421.982 1297.22 393.68 1326.85C371.098 1350.62 348.769 1388.97 327.902 1425.52C322.947 1434.32 317.991 1443.12 313.141 1451.73C286.77 1499.23 261.311 1547.09 232.169 1589.55C171.052 1678.8 93.8544 1741.67 19.1645 1760.86C-3.91853 1766.73 -26.5213 1768.53 -48.232 1766.09C-139.45 1755.39 -211.341 1668.12 -232.353 1539.34" stroke="#8C6EFF" stroke-width="2" stroke-miterlimit="10"/>
<path d="M1727.97 925.206C1696.63 1030.14 1627.04 1134.69 1551.39 1183.23C1489.06 1223.26 1427.87 1227.64 1366.87 1232.54C1349.4 1233.93 1332.23 1235.35 1315.15 1237.76C1239.57 1248.01 1175.18 1271.86 1126.39 1284.13C1093.29 1292.51 1066.41 1294.97 1040.08 1295.56C1028.75 1295.81 1016.21 1295.09 1001.32 1294.64C982.047 1294.14 958.238 1296.17 928.503 1310.23C883.748 1331.31 839.113 1374.45 798.765 1400.17C788.137 1406.94 778.146 1412.26 768.577 1416.8C721.36 1438.64 677.643 1429.76 635.404 1400.81C628.851 1396.35 622.208 1391.18 615.465 1385.91C569.282 1349.15 540.249 1288.74 497.551 1274.24C490.449 1271.93 483.537 1270.44 476.299 1270.13C449.991 1269.22 422.323 1281.81 393.679 1309.2C370.845 1331.13 347.932 1369.12 326.99 1405.23C321.939 1413.92 316.989 1422.71 312.349 1431.23C286.109 1478.5 260.976 1526.64 232.369 1569.29C172.012 1659.21 95.1859 1722.64 20.7592 1742.63C-2.30642 1748.79 -24.8923 1750.89 -46.5817 1748.46C-137.726 1738.66 -209.552 1651.77 -230.032 1523.02" stroke="#8B70FF" stroke-width="2" stroke-miterlimit="10"/>
<path d="M1722.36 954.761C1688.72 1058.68 1619.34 1160.86 1544.06 1209.98C1482.08 1250.59 1420.7 1257.45 1359.86 1262.45C1342.41 1263.84 1325.36 1265.06 1308.4 1267.28C1233.33 1275.85 1169.52 1293.24 1121.02 1298.14C1088.24 1301.35 1061.69 1298.34 1035.9 1292.78C1025.13 1290.57 1012.76 1286.98 998.339 1283.96C979.446 1280.19 956.018 1279.25 926.433 1292.21C881.653 1311.38 837.546 1355.9 797.501 1384.01C786.972 1391.48 776.975 1397.69 767.405 1402.82C719.959 1428.62 675.089 1423.96 632.143 1396.99C625.491 1392.73 618.744 1388.06 611.902 1382.98C565.132 1347.42 537.987 1285.67 496.731 1266.87C489.957 1263.7 483.163 1261.71 476.047 1260.61C450.323 1256.95 422.429 1266.52 393.339 1291.86C370.048 1312.06 346.756 1349.6 325.735 1385.57C320.689 1394.25 315.743 1403.04 311.008 1411.44C284.799 1458.38 260.296 1506.81 231.911 1549.94C172.419 1640.33 95.9562 1704.63 21.7912 1725.41C-1.1573 1731.97 -23.7212 1734.07 -45.3949 1731.94C-136.361 1722.85 -208.122 1636.33 -228.177 1507.82" stroke="#8B72FF" stroke-width="2" stroke-miterlimit="10"/>
<path d="M1716.62 984.484C1680.69 1087.69 1611.42 1187.1 1536.61 1236.9C1474.89 1277.99 1413.42 1287.42 1352.84 1292.63C1335.5 1294.13 1318.37 1295.24 1301.65 1296.77C1227.09 1303.67 1163.86 1314.9 1115.74 1311.95C1083.29 1310 1057.17 1301.34 1032.02 1289.75C1021.62 1284.87 1009.72 1278.41 995.452 1273.12C977.041 1266.19 953.889 1262.48 924.354 1274.24C879.649 1291.6 835.975 1337.11 796.122 1368.09C785.693 1376.26 775.69 1383.35 766.113 1389.38C718.441 1419.12 672.626 1418.6 628.664 1393.88C621.808 1390 614.962 1385.53 608.227 1380.57C560.867 1346.49 535.511 1283.01 495.59 1260.12C489.039 1256.26 482.367 1253.49 475.475 1251.7C450.334 1245.29 422.32 1251.65 392.685 1274.86C369.038 1293.42 345.375 1330.21 324.169 1366.24C319.128 1374.92 314.192 1383.4 309.561 1391.9C283.483 1438.6 259.409 1487.12 231.452 1530.63C172.718 1621.68 96.5203 1686.74 22.7229 1708.11C-0.102942 1714.78 -22.7551 1717.37 -44.3074 1715.34C-135.1 1707.27 -206.69 1620.93 -226.42 1492.54" stroke="#8A74FF" stroke-width="2" stroke-miterlimit="10"/>
<path d="M1710.88 1014.19C1672.66 1116.38 1603.6 1213.42 1529.05 1263.99C1467.69 1305.65 1406.14 1317.36 1345.72 1322.67C1328.4 1324.17 1311.5 1325.2 1294.79 1326.43C1220.54 1331.74 1158.1 1336.44 1110.26 1326.15C1078.03 1319.23 1052.24 1305.13 1027.84 1287.02C1017.9 1279.59 1006.26 1270.37 992.464 1262.52C974.434 1252.33 951.763 1245.77 922.179 1256.22C877.551 1271.78 834.204 1318.45 794.754 1351.92C784.324 1360.68 774.421 1368.47 764.838 1375.38C717.04 1409.17 670.078 1412.86 625.314 1390.01C618.46 1386.43 611.516 1382.15 604.477 1377.47C556.428 1344.79 533.059 1279.78 494.372 1252.7C488.143 1248.26 481.593 1244.7 474.823 1242.13C450.265 1232.97 422.027 1236.33 391.948 1257.5C367.947 1274.43 343.808 1310.66 322.529 1346.26C317.393 1354.82 312.562 1363.4 307.836 1371.79C281.784 1418.46 258.239 1467.16 230.715 1510.76C172.739 1602.46 96.9121 1668.08 23.273 1690.44C0.46481 1697.39 -22.0646 1700.09 -43.6005 1698.36C-134.317 1691.2 -205.736 1605.04 -225.04 1476.89" stroke="#8A76FF" stroke-width="2" stroke-miterlimit="10"/>
<path d="M1705.13 1043.85C1664.52 1145.21 1595.68 1239.59 1521.6 1290.83C1460.39 1333.16 1398.86 1347.25 1338.7 1352.76C1321.5 1354.36 1304.51 1355.28 1288.03 1356.13C1214.29 1359.78 1152.43 1358.04 1104.98 1340.22C1073.08 1328.17 1047.51 1308.52 1023.96 1284.31C1014.37 1274.52 1003.1 1262.34 989.567 1252.03C971.918 1238.6 949.622 1229.37 920.194 1238.43C875.747 1252 832.623 1300.03 793.574 1335.98C783.245 1345.43 773.336 1354.11 763.752 1361.61C715.624 1399.52 667.622 1407.22 622.158 1386.34C615.1 1383.15 608.158 1379.18 601.022 1374.69C552.281 1343.68 530.8 1276.75 493.548 1245.4C487.541 1240.29 481.213 1236.05 474.565 1232.69C450.589 1220.79 422.132 1220.85 391.612 1239.99C367.256 1255.3 342.643 1290.97 321.286 1326.43C316.155 1334.98 311.229 1343.45 306.608 1351.93C280.687 1398.37 257.57 1447.15 230.268 1491.22C173.154 1583.39 97.5925 1649.75 24.2168 1672.9C1.42632 1680.15 -21.0857 1683.14 -42.5001 1681.52C-133.041 1675.36 -204.388 1589.28 -223.373 1461.56" stroke="#8978FF" stroke-width="2" stroke-miterlimit="10"/>
<path d="M1699.37 1073.44C1656.58 1173.89 1587.75 1266 1514.15 1317.62C1453.29 1360.53 1391.58 1377.07 1331.58 1382.68C1314.39 1384.29 1297.63 1385.12 1281.17 1385.67C1207.84 1387.55 1146.66 1379.79 1099.6 1354.16C1068.02 1336.97 1042.57 1311.98 1019.76 1281.58C1010.53 1269.43 999.738 1254.12 986.561 1241.45C969.292 1224.77 947.37 1212.9 918.097 1220.56C873.628 1232.23 831.135 1281.45 792.178 1320.14C781.949 1330.29 772.034 1339.85 762.549 1348.05C714.297 1389.99 665.258 1401.69 618.89 1382.86C611.735 1379.87 604.59 1376.28 597.561 1371.91C548.339 1342.19 528.632 1273.83 492.709 1238.41C486.923 1232.62 480.817 1227.7 474.391 1223.66C450.995 1209.02 422.316 1206.09 391.354 1223.2C366.646 1236.88 341.559 1272 320.024 1307.22C314.899 1315.77 309.978 1324.23 305.367 1332.4C279.477 1378.5 256.882 1427.76 230.012 1471.91C173.653 1564.73 98.3576 1631.84 25.3503 1655.59C2.68271 1662.94 -19.712 1666.33 -41.2095 1664.9C-131.57 1659.45 -202.848 1573.75 -221.411 1446.27" stroke="#897AFF" stroke-width="2" stroke-miterlimit="10"/>
<path d="M1693.81 1102.9C1648.64 1202.53 1580.13 1292.09 1506.89 1344.27C1446.29 1387.65 1384.6 1406.55 1324.76 1412.57C1307.49 1414.36 1290.84 1415 1274.61 1415.17C1201.69 1415.57 1141.19 1401.21 1094.41 1368.28C1063.05 1346.15 1037.94 1315.45 1015.97 1278.97C1007.1 1264.18 996.665 1246.22 983.852 1230.91C967.067 1210.8 945.519 1196.28 916.193 1202.94C871.8 1212.81 829.634 1263.19 791.078 1304.35C780.948 1315.19 771.033 1325.34 761.542 1334.42C713.166 1380.38 662.993 1395.97 615.923 1379.4C608.665 1376.9 601.422 1373.51 594.295 1369.33C544.391 1340.99 526.454 1271.21 492.067 1231.34C486.501 1224.88 480.616 1219.28 474.312 1214.46C451.49 1197.38 422.594 1191.17 391.198 1205.95C366.038 1217.91 340.479 1252.47 319.071 1287.46C313.851 1295.9 308.935 1304.35 304.329 1312.52C278.57 1358.38 256.402 1407.72 229.957 1452.25C174.353 1545.72 99.5275 1613.49 26.6786 1638.21C4.0289 1645.85 -18.2434 1649.34 -39.8291 1648.41C-130.113 1643.85 -201.119 1558.45 -219.359 1431.1" stroke="#887CFF" stroke-width="2" stroke-miterlimit="10"/>
<path d="M1688.03 1132.43C1640.6 1231.04 1572.19 1318.14 1499.32 1371.18C1439.08 1415.13 1377.2 1436.48 1317.62 1442.7C1300.47 1444.6 1283.94 1445.04 1267.74 1444.91C1195.32 1443.66 1135.19 1423.28 1089 1382.49C1057.87 1355.43 1032.88 1319.12 1011.95 1276.49C1003.44 1259.35 993.37 1238.46 980.916 1220.79C964.609 1197.56 943.334 1180.29 914.163 1185.57C869.848 1193.65 828.106 1245.29 789.852 1288.81C779.716 1300.52 769.9 1311.36 760.508 1321.14C712.008 1371.11 660.698 1390.89 612.729 1376.36C605.373 1374.05 598.133 1370.96 590.804 1367.18C540.317 1340.31 524.252 1268.91 491.088 1224.89C485.743 1217.75 480.183 1211.29 473.896 1205.87C451.652 1186.07 422.54 1176.58 390.699 1189.63C365.188 1199.97 339.263 1233.79 317.573 1268.73C312.463 1276.97 307.552 1285.41 302.95 1293.57C277.218 1339.39 255.575 1388.91 229.456 1433.71C174.61 1527.53 100.149 1596.15 27.5627 1621.65C4.93086 1629.58 -17.3238 1633.37 -38.788 1632.54C-128.896 1628.99 -199.83 1543.66 -217.648 1416.56" stroke="#887FFF" stroke-width="2" stroke-miterlimit="10"/>
<path d="M1682.24 1161.93C1632.44 1259.71 1564.26 1344.15 1491.86 1397.86C1431.87 1442.27 1369.91 1466.18 1310.49 1472.49C1293.36 1474.39 1276.85 1474.84 1260.87 1474.32C1188.86 1471.31 1129.42 1444.65 1083.51 1396.58C1052.7 1364.42 1027.94 1322.61 1007.64 1274.01C999.488 1254.24 989.887 1230.52 977.692 1210.41C961.763 1183.96 940.966 1163.86 911.847 1167.94C867.714 1174.04 826.3 1226.84 788.238 1273.2C778.102 1285.49 768.38 1297.32 758.883 1307.87C710.158 1362.03 657.72 1385.68 609.059 1373.11C601.502 1371.19 594.165 1368.3 586.943 1364.62C535.777 1339.12 521.476 1266.31 489.843 1217.87C484.718 1210.05 479.379 1202.91 473.213 1196.72C451.547 1174.19 422.215 1161.73 389.943 1172.47C364.187 1181 337.687 1214.45 315.921 1249.25C310.817 1257.48 305.812 1265.81 301.215 1273.97C275.615 1319.55 254.397 1369.14 228.703 1414.32C174.611 1508.78 100.417 1578.13 28.201 1604.22C5.79194 1612.35 -16.5438 1616.33 -37.9904 1615.8C-127.913 1612.95 -198.778 1528.01 -216.378 1401.24" stroke="#8781FF" stroke-width="2" stroke-miterlimit="10"/>
<path d="M1676.44 1191.36C1624.38 1288.41 1556.41 1370.21 1484.38 1424.47C1424.65 1469.35 1362.72 1495.6 1303.46 1502.31C1286.44 1504.31 1270.06 1504.56 1254 1503.65C1182.4 1499.18 1123.64 1465.95 1078.11 1410.43C1047.63 1373.18 1022.99 1325.77 1003.63 1271.25C995.736 1249.03 986.699 1222.6 974.867 1199.86C959.316 1170.19 938.89 1147.46 909.928 1150.16C865.775 1154.37 824.786 1208.43 787.126 1257.23C777.09 1270.21 767.467 1282.72 757.865 1294.05C709.02 1352.21 655.557 1379.83 606.002 1369.29C598.448 1367.67 590.91 1365.16 583.591 1361.68C531.953 1337.47 519.208 1263.34 488.998 1210.67C484.192 1202.28 478.875 1194.26 472.93 1187.39C451.737 1162.34 422.394 1146.53 389.483 1155.34C363.378 1162.26 336.411 1195.15 314.673 1229.62C309.475 1237.74 304.575 1246.16 299.983 1254.31C274.515 1299.65 253.717 1349.61 228.354 1394.76C175.015 1489.86 101.193 1559.76 29.2421 1586.62C6.85186 1595.04 -15.4651 1599.31 -36.7895 1598.89C-126.632 1596.93 -197.321 1512.18 -214.5 1385.66" stroke="#8783FF" stroke-width="2" stroke-miterlimit="10"/>
<path d="M1670.74 1220.53C1571.3 1396.31 1426.68 1516.65 1296.54 1531.86C1151.12 1548.78 1051.95 1439.46 999.831 1268.39C982.356 1211.36 958.954 1129.68 908.007 1132.41C852.207 1135.46 802.088 1222.93 756.943 1280.35C700.541 1351.85 636.464 1383.28 580.341 1358.84C519.71 1332.36 514.869 1234.64 472.946 1178.1C452.329 1150.34 422.767 1131.56 389.526 1138.16C356.791 1144.7 322.72 1192.66 299.059 1234.4C273.624 1279.4 253.349 1329.54 228.305 1375.25C159.441 1500.6 54.2689 1583.15 -35.2885 1582.01C-124.95 1581.05 -195.464 1496.49 -212.322 1370.12" stroke="#8685FF" stroke-width="2" stroke-miterlimit="10"/>
<path d="M1676.85 1199C1626.43 1289.3 1564.94 1366.11 1499.05 1422.6C1434.6 1477.87 1365.84 1513.82 1300.49 1522.56C1250.74 1529.32 1206.11 1520.94 1167.17 1499.23C1130.34 1478.84 1098.86 1446.88 1072.79 1406.13C1053.22 1375.54 1036.87 1339.89 1023 1300.52C1017.23 1284.17 1011.97 1267.16 1007.02 1249.56C1001.04 1227.86 994.202 1202.84 985.303 1180.18C970.22 1141.34 948.979 1107.78 916.509 1109.2C881.405 1110.86 847.821 1146.73 816.984 1187.31C798.772 1211.29 781.541 1236.92 764.879 1258.91C749.774 1278.63 734.21 1295.74 718.4 1309.58C682.674 1340.78 645.607 1356.37 610.211 1351.68C603.453 1350.9 596.71 1349.23 590.182 1346.88C554.525 1334.07 536.685 1296.85 519.706 1256.62C507.678 1227.94 496.178 1198.01 478.499 1174.55C477.909 1173.63 477.214 1172.89 476.624 1171.97C455.863 1145.57 427.075 1127.31 394.615 1133.87C372.501 1138.34 349.76 1161.18 330.074 1188.45C319.921 1202.51 310.55 1218 302.507 1232.77C293.319 1249.36 284.926 1266.78 276.731 1284.42C262.127 1315.83 248.426 1347.59 232.835 1377.66C214.418 1413.21 193.328 1445.64 170.587 1474.21C128.62 1526.91 80.3119 1566.59 31.9631 1585.7C10.993 1594.1 -9.90399 1598.35 -30.0226 1598.59C-37.8047 1598.54 -45.4771 1598 -52.9353 1596.79C-133.979 1584.16 -195.785 1500.91 -210.469 1382.18" stroke="#8B88FB" stroke-width="2" stroke-miterlimit="10"/>
<path d="M1683.16 1177.33C1632.47 1269.28 1571.19 1348.25 1505.2 1407.15C1440.65 1464.55 1370.97 1503.25 1304.83 1513.34C1254.52 1521.06 1209.23 1513.24 1169.78 1490.4C1132.72 1469.18 1101.44 1435.62 1076.4 1392.91C1057.64 1360.76 1042.31 1323.76 1029.57 1283.14C1024.2 1266.3 1019.35 1248.8 1014.82 1230.72C1009.24 1208.23 1002.81 1182.72 994.221 1159.46C979.642 1119.92 958.513 1084.66 925.611 1085.96C890.382 1087.22 856.151 1123.68 825.485 1164.5C807.251 1188.8 790.099 1214.85 773.616 1237.37C758.691 1257.6 743.41 1275.05 727.874 1289.8C692.796 1322.65 656.37 1340.17 620.995 1338.26C614.22 1338.07 607.461 1336.99 600.817 1335.13C564.877 1325.06 545.656 1290.61 527.727 1251.77C514.962 1224.12 502.834 1194.72 485.035 1171.43C484.444 1170.51 483.749 1169.77 483.054 1169.04C462.071 1142.7 433.168 1123.73 400.475 1130.38C377.834 1134.93 354.561 1158.15 334.638 1186.42C324.365 1200.98 314.882 1216.68 306.721 1231.95C297.515 1249.15 289.005 1267.07 280.896 1285.12C266.368 1317.26 252.943 1349.96 237.725 1381.06C219.778 1417.76 199.458 1451.35 177.282 1481.17C136.349 1536.25 88.4369 1579.75 39.0934 1601.19C17.7857 1610.47 -3.64738 1615.39 -24.2963 1615.99C-32.1899 1616.14 -40.073 1615.69 -47.7418 1614.56C-130.797 1602.89 -194.232 1517.02 -208.166 1395.06" stroke="#8F8BF6" stroke-width="2" stroke-miterlimit="10"/>
<path d="M1689.38 1155.55C1638.52 1248.95 1577.35 1330.27 1511.16 1391.49C1446.52 1451.31 1376.03 1492.27 1308.99 1503.91C1258.21 1512.71 1212.17 1505.03 1172.09 1481.25C1134.81 1459.21 1103.85 1423.86 1079.72 1379.39C1061.68 1345.86 1047.58 1307.41 1035.86 1265.43C1031.01 1247.91 1026.36 1230.01 1022.23 1211.45C1017.08 1188.17 1011.06 1162.17 1002.67 1138.21C988.595 1097.97 967.375 1061.1 934.35 1061.99C898.991 1063.15 864.118 1099.9 833.52 1141.15C815.264 1165.77 798.191 1192.24 781.888 1215.29C767.143 1236.05 752.142 1254.11 736.89 1269.2C702.363 1303.59 666.674 1323.45 631.222 1324.2C624.436 1324.31 617.66 1323.83 610.9 1322.45C574.678 1315.14 554.075 1283.45 535.193 1246.01C521.69 1219.38 508.935 1190.52 490.811 1167.49C490.115 1166.76 489.524 1165.83 488.828 1165.1C467.519 1139.02 438.811 1119.05 405.681 1125.88C382.408 1130.7 358.701 1154.41 338.447 1183.28C327.956 1198.24 318.559 1214.35 310.281 1230.12C300.957 1247.82 292.533 1266.16 284.612 1284.73C270.259 1317.7 257.11 1351.33 242.37 1383.28C224.999 1420.93 205.247 1455.77 183.633 1487.13C143.731 1544.9 96.2227 1591.93 45.8841 1615.71C24.2387 1625.87 2.26887 1631.45 -18.9107 1632.42C-27.1199 1632.85 -35.1093 1632.29 -42.8894 1631.36C-128.057 1620.56 -193.022 1532.15 -206.105 1407.06" stroke="#948DF2" stroke-width="2" stroke-miterlimit="10"/>
<path d="M1695.6 1133.71C1644.37 1228.65 1583.61 1312.05 1517.22 1375.89C1452.49 1437.84 1381.08 1481.56 1313.15 1494.74C1261.8 1504.5 1215 1497.28 1174.6 1472.27C1137.1 1449.41 1106.34 1412.45 1083.34 1366.13C1066.02 1331.23 1053.25 1291.14 1042.35 1248.18C1037.91 1230.18 1033.78 1211.6 1029.85 1192.63C1025 1168.76 1019.6 1141.88 1011.42 1117.51C997.85 1076.58 976.742 1038 943.285 1038.77C907.901 1039.63 872.28 1076.86 841.855 1118.36C823.578 1143.3 806.689 1170 790.46 1193.76C776.002 1214.85 761.181 1233.44 746.204 1249.44C712.432 1285.29 677.284 1307.29 641.852 1310.82C635.05 1311.52 628.159 1311.53 621.382 1310.74C585.082 1306.1 562.995 1277.07 543.054 1241.23C528.811 1215.63 515.532 1187.11 497.084 1164.35C496.387 1163.61 495.796 1162.69 495.099 1161.95C473.467 1135.83 444.745 1115.26 411.586 1122.09C387.785 1126.98 363.544 1151.08 343.058 1180.65C332.454 1195.81 322.833 1212.62 314.643 1228.81C305.405 1246.92 296.963 1265.88 289.029 1284.76C274.853 1318.56 261.98 1353.12 247.621 1385.82C230.721 1424.61 211.743 1460.61 190.591 1493.42C151.624 1553.76 104.619 1604.43 53.4877 1630.47C31.3993 1641.7 8.9969 1647.76 -12.7142 1649.1C-21.1348 1649.61 -29.3406 1649.44 -37.3265 1648.29C-124.506 1638.17 -191.009 1547.52 -203.438 1419.1" stroke="#9990EE" stroke-width="2" stroke-miterlimit="10"/>
<path d="M1701.92 1111.96C1650.52 1208.36 1589.87 1294.11 1523.28 1360.27C1458.45 1424.35 1386.12 1470.84 1317.4 1485.38C1265.48 1496.11 1218.02 1489.44 1177.1 1463.29C1139.38 1439.6 1108.82 1401.05 1086.85 1352.76C1070.35 1316.29 1058.61 1274.84 1048.84 1230.62C1044.8 1212.13 1041.08 1193.06 1037.68 1173.42C1033.24 1148.76 1028.25 1121.38 1020.37 1096.42C1007.21 1054.99 986.317 1014.5 952.533 1014.95C917.123 1015.52 880.853 1053.34 850.401 1094.87C832.208 1119.93 815.295 1147.25 799.246 1171.54C784.968 1193.15 770.329 1212.26 755.632 1228.89C722.413 1266.29 688.004 1290.62 652.6 1296.64C645.781 1297.94 638.873 1298.54 632.086 1298.05C595.502 1296.17 572.132 1269.73 551.132 1235.49C536.148 1210.91 522.238 1182.93 503.57 1160.24C502.873 1159.5 502.28 1158.57 501.583 1157.84C479.623 1131.98 450.991 1110.6 417.5 1117.42C393.27 1122.49 368.395 1146.87 347.571 1177.34C336.847 1193 327.114 1210.01 318.806 1226.71C309.45 1245.32 301.095 1264.69 293.243 1284.29C279.139 1319.11 266.548 1354.32 252.664 1388.16C236.137 1428 217.934 1465.16 197.246 1499.41C159.314 1562.44 112.509 1616.73 60.5843 1645.03C38.157 1657.15 15.2161 1663.88 -6.92789 1665.69C-15.4606 1666.4 -23.9774 1666.21 -32.1799 1665.44C-121.379 1656.29 -189.518 1563 -201.093 1431.45" stroke="#9D93E9" stroke-width="2" stroke-miterlimit="10"/>
<path d="M1708.14 1090.1C1656.46 1188.15 1596.14 1275.87 1529.34 1344.66C1464.42 1411.17 1391.37 1460.03 1321.55 1475.91C1269.07 1487.62 1220.96 1481.2 1179.51 1454.21C1141.67 1429.51 1111.32 1389.34 1090.27 1339.28C1074.49 1301.44 1063.98 1258.54 1055.24 1212.95C1051.62 1193.98 1048.31 1174.42 1045.22 1154.18C1041.3 1128.84 1036.51 1100.76 1028.95 1075.2C1016.39 1033.17 995.407 991.06 961.394 991.305C925.96 991.568 888.94 1029.88 858.557 1071.84C840.343 1097.22 823.509 1124.96 807.541 1149.67C793.451 1171.51 779.193 1191.35 764.672 1208.79C732.211 1247.66 698.24 1274.32 662.858 1283.13C656.028 1284.73 649.104 1285.92 642.096 1286.12C605.334 1286.8 580.47 1263.34 558.513 1230.5C542.787 1206.96 528.247 1179.52 509.358 1156.89C508.66 1156.16 508.067 1155.23 507.37 1154.5C485.186 1128.7 456.546 1106.41 422.921 1113.43C398.057 1118.77 372.746 1143.64 351.589 1174.71C340.647 1190.77 330.999 1208.19 322.575 1225.39C313.2 1244.62 304.833 1264.3 297.069 1284.32C283.141 1319.97 270.829 1356.11 257.326 1390.69C241.378 1431.49 223.642 1470.11 203.728 1505.52C166.939 1571.05 120.435 1629.07 67.6162 1659.53C44.7449 1672.72 21.3702 1679.93 -1.30679 1682.11C-10.0513 1682.91 -18.6804 1682.91 -27.194 1682.13C-118.515 1673.84 -188.191 1578.01 -199.009 1443.22" stroke="#A296E5" stroke-width="2" stroke-miterlimit="10"/>
<path d="M1714.34 1068.51C1662.49 1168.01 1602.28 1258.1 1535.39 1329.02C1470.37 1397.67 1396.4 1449.3 1325.79 1466.54C1272.73 1479.22 1223.97 1473.06 1181.89 1445.11C1143.83 1419.59 1113.68 1377.82 1093.56 1325.98C1078.51 1286.76 1069.13 1242.3 1061.53 1195.45C1058.42 1175.79 1055.42 1155.65 1052.73 1135.22C1049.23 1109.08 1044.86 1080.51 1037.49 1054.54C1025.45 1011.82 1004.58 967.989 970.236 967.919C934.671 968.077 897.006 1006.68 866.796 1048.88C848.462 1074.47 831.913 1102.55 816.02 1127.98C802.112 1150.34 788.036 1170.71 773.902 1188.58C741.996 1229 708.872 1257.82 673.413 1269.32C666.567 1271.51 659.526 1273.2 652.606 1273.8C615.661 1277.35 589.306 1256.57 566.39 1225.15C549.921 1202.64 534.748 1175.74 515.638 1153.18C514.94 1152.44 514.347 1151.52 513.649 1150.78C491.242 1125.05 462.487 1102.05 428.629 1109.16C403.234 1114.57 377.387 1139.83 355.892 1171.8C344.935 1188.17 334.964 1206.18 326.527 1223.69C317.139 1243.23 308.854 1263.63 301.073 1284.25C287.322 1320.74 275.288 1357.82 262.162 1393.44C246.689 1435.4 229.73 1475.18 210.282 1512.03C174.433 1580.15 128.435 1641.83 74.6153 1674.64C51.4041 1688.72 27.4896 1696.6 4.2787 1699.15C-4.67805 1700.03 -13.5193 1700.12 -22.1453 1699.53C-115.592 1692.11 -186.708 1593.84 -196.87 1455.71" stroke="#A799E1" stroke-width="2" stroke-miterlimit="10"/>
<path d="M1720.56 1046.58C1668.44 1147.74 1608.54 1240.1 1541.45 1313.36C1476.23 1384.33 1401.45 1438.54 1330.04 1457.15C1276.41 1471.09 1226.89 1465.09 1184.49 1435.91C1146.21 1409.56 1116.27 1366.18 1097.18 1312.37C1082.95 1271.58 1074.71 1225.86 1068.14 1177.64C1065.44 1157.5 1062.86 1136.86 1060.48 1115.84C1057.4 1088.91 1053.44 1059.84 1046.28 1033.17C1034.74 989.746 1013.88 944.396 979.32 943.816C943.731 943.675 905.419 982.566 875.173 1025.4C856.818 1051.3 840.349 1079.8 824.638 1105.76C811.017 1128.46 797.224 1149.45 783.267 1168.15C752.122 1210.03 719.538 1241.3 684.106 1255.29C677.244 1258.08 670.187 1260.36 663.151 1261.45C626.027 1267.59 598.178 1249.49 574.197 1219.68C556.984 1198.2 541.278 1171.95 521.947 1149.46C521.248 1148.72 520.55 1147.99 519.856 1146.95C497.12 1121.49 468.562 1097.48 434.265 1104.77C408.339 1110.25 381.95 1136.2 360.227 1168.58C349.05 1185.34 339.066 1203.67 330.611 1221.79C321.205 1241.94 312.803 1262.84 305.214 1283.7C291.536 1321.21 279.786 1358.93 267.143 1395.4C252.145 1438.51 235.866 1479.35 216.985 1517.76C182.177 1588.58 136.587 1653.81 81.7656 1688.97C58.2143 1703.94 33.7593 1712.49 10.0138 1715.41C0.944432 1716.49 -8.10913 1716.67 -16.9473 1716.16C-112.423 1709.72 -185.18 1608.79 -194.483 1467.53" stroke="#AC9CDC" stroke-width="2" stroke-miterlimit="10"/>
<path d="M1726.77 1024.63C1674.48 1127.25 1614.8 1221.79 1547.41 1297.57C1482.2 1370.79 1406.49 1427.48 1334.18 1447.64C1279.97 1462.56 1229.69 1457 1186.87 1426.79C1148.37 1399.61 1118.73 1354.42 1100.68 1298.95C1087.18 1256.77 1080.07 1209.48 1074.53 1160.2C1072.25 1139.56 1070.08 1118.44 1068.12 1096.92C1065.45 1069.2 1061.9 1039.64 1055.05 1012.37C1043.92 968.438 1023.18 921.071 988.281 920.472C952.567 919.927 913.602 959.407 883.429 1002.38C865.054 1028.6 848.566 1057.42 833.24 1083.82C819.703 1106.93 806.192 1128.56 792.618 1147.99C762.13 1191.53 730.091 1224.94 694.581 1241.63C687.708 1244.72 680.634 1247.6 673.582 1249.29C636.279 1258.01 606.929 1242.89 581.985 1214.5C564.026 1194.06 547.792 1168.15 528.134 1145.93C527.434 1145.19 526.735 1144.46 525.936 1143.61C502.975 1118.22 474.303 1093.49 439.977 1100.79C413.618 1106.45 386.591 1132.68 364.529 1165.95C353.132 1183.12 343.234 1201.86 334.556 1220.68C325.032 1241.34 316.717 1262.66 309.112 1284.12C295.611 1322.47 284.14 1361.13 271.98 1398.46C257.564 1442.53 241.96 1484.73 223.547 1524.59C189.682 1598.01 144.495 1667.09 88.9791 1704.33C64.9816 1720.38 40.0901 1729.41 15.8089 1732.7C6.52662 1733.87 -2.73978 1734.13 -11.7906 1733.72C-109.399 1728.14 -183.597 1624.48 -192.245 1480.16" stroke="#B09ED8" stroke-width="2" stroke-miterlimit="10"/>
<path d="M1733.08 1002.77C1680.51 1107.05 1621.05 1203.75 1553.56 1281.98C1488.15 1357.53 1411.63 1416.81 1338.42 1438.23C1283.64 1454.12 1232.7 1449.12 1189.35 1417.76C1150.62 1389.75 1121.2 1342.95 1104.18 1285.5C1091.4 1241.94 1085.65 1193.01 1081.04 1142.54C1079.17 1121.42 1077.41 1099.8 1075.76 1077.7C1073.52 1049.18 1070.49 1018.93 1063.84 991.255C1053.22 946.623 1032.49 897.728 997.368 896.619C961.629 895.774 922.01 935.844 891.913 978.948C873.516 1005.49 857.215 1034.54 841.966 1061.66C828.612 1085.3 815.39 1107.25 801.994 1127.51C772.17 1172.42 740.773 1208.38 705.292 1227.57C698.402 1231.26 691.312 1234.74 684.043 1236.81C646.662 1248.22 615.708 1236 589.802 1209.02C571.096 1189.63 554.227 1164.26 534.347 1142.11C533.647 1141.37 532.847 1140.53 532.147 1139.79C508.962 1114.46 480.382 1088.92 445.617 1096.4C418.62 1102.33 391.16 1128.75 368.759 1162.93C357.242 1180.6 347.125 1199.75 338.435 1218.87C328.997 1239.95 320.664 1261.88 313.148 1283.77C299.825 1322.95 288.74 1362.36 276.754 1400.82C262.815 1446.04 247.893 1489.31 230.054 1530.43C197.235 1606.55 152.457 1679.19 95.9374 1718.79C71.5988 1735.73 46.0604 1745.63 21.3484 1749.1C11.8531 1750.35 2.47362 1750.81 -6.79005 1750.48C-106.532 1745.78 -182.177 1639.67 -190.064 1492.1" stroke="#B5A1D4" stroke-width="2" stroke-miterlimit="10"/>
<path d="M1739.29 980.774C1686.55 1086.51 1627.31 1185.4 1559.51 1266.15C1494.01 1343.85 1416.66 1406.02 1342.44 1428.89C1287.09 1445.76 1235.49 1441.02 1191.61 1408.81C1152.66 1379.97 1123.44 1331.55 1107.47 1272.13C1095.52 1226.99 1090.8 1176.68 1087.33 1124.95C1085.98 1103.14 1084.64 1081.04 1083.2 1058.53C1081.47 1029.32 1078.66 998.363 1072.32 970.091C1062.22 924.758 1041.6 874.14 1006.04 872.906C970.171 871.954 929.902 912.317 899.874 955.855C881.457 982.714 865.437 1012.4 850.17 1039.84C836.905 1063.6 824.061 1086.59 811.054 1107.28C781.79 1153.75 751.141 1192.07 715.687 1213.77C708.781 1218.06 701.68 1221.84 694.289 1224.71C656.728 1238.71 624.373 1229.29 597.396 1203.92C577.942 1185.57 560.437 1160.74 540.335 1138.66C539.635 1137.93 538.834 1137.08 538.133 1136.35C514.618 1111.28 486.029 1084.83 451.235 1092.31C423.704 1098.31 395.7 1125.42 373.063 1160.31C361.431 1178.19 351.195 1197.83 342.487 1217.57C332.93 1239.16 324.685 1261.51 317.152 1284.01C303.908 1323.92 293.102 1364.27 281.702 1403.69C268.241 1450.07 253.896 1494.6 236.732 1537.08C204.965 1615.61 160.492 1692.01 103.066 1734.09C78.28 1752.11 52.3037 1762.49 27.0545 1766.33C17.3457 1767.67 7.75276 1768.22 -1.62413 1768.08C-103.406 1764.36 -180.7 1655.58 -187.719 1504.57" stroke="#BAA4CF" stroke-width="2" stroke-miterlimit="10"/>
<path d="M1745.59 958.847C1692.48 1066.13 1633.55 1167.3 1565.66 1250.5C1500.07 1330.34 1421.79 1395.29 1346.78 1419.54C1290.85 1437.39 1238.49 1433.1 1194.18 1399.55C1155.02 1369.88 1126 1319.84 1111.07 1258.44C1099.85 1211.92 1096.38 1160.15 1093.95 1107.04C1093.01 1084.75 1091.99 1062.05 1091.06 1039.15C1089.76 1009.15 1087.35 977.694 1081.33 948.822C1071.74 902.789 1051.24 850.447 1015.45 849.001C979.555 847.748 938.531 888.595 908.679 932.374C890.242 959.549 874.208 989.256 859.119 1017.52C846.138 1041.91 833.484 1065.13 820.657 1086.64C792.159 1134.59 761.954 1175.26 726.524 1199.76C719.602 1204.65 712.384 1208.93 705.082 1212.2C667.343 1228.8 633.479 1222.38 605.537 1198.44C585.334 1181.12 567.193 1156.85 546.869 1134.84C546.167 1134.1 545.366 1133.25 544.665 1132.52C520.824 1107.41 492.323 1080.45 457.194 1087.92C429.13 1094 400.585 1121.49 377.714 1157.09C365.862 1175.37 355.612 1195.33 346.786 1215.57C337.111 1237.66 328.954 1260.44 321.61 1283.46C308.439 1324.4 298.02 1365.5 287.006 1405.67C274.13 1453.01 260.464 1498.91 243.771 1542.84C213.054 1624.08 168.993 1704.05 110.665 1748.3C85.5372 1767.21 59.0177 1778.26 33.3313 1782.58C23.4036 1784.31 13.5973 1784.95 4.01235 1784.6C-99.9086 1781.75 -178.753 1670.42 -185.008 1516.15" stroke="#BEA7CB" stroke-width="2" stroke-miterlimit="10"/>
<path d="M1751.68 937.022C1698.4 1045.77 1639.58 1149.32 1571.49 1234.86C1505.81 1317.15 1426.7 1384.4 1350.78 1410.2C1294.39 1429.14 1241.15 1425.2 1196.42 1390.6C1157.03 1360.1 1128.33 1308.25 1114.33 1245.06C1103.84 1197.15 1101.52 1143.82 1100.12 1089.63C1099.61 1066.85 1099.1 1043.46 1098.39 1020.16C1097.5 989.367 1095.52 957.411 1089.71 927.832C1080.52 881.291 1060.13 827.222 1024.01 825.457C988.094 823.903 946.313 865.235 916.536 909.15C898.078 936.643 882.126 966.775 867.219 995.568C854.528 1020.3 841.954 1044.23 829.511 1066.48C801.575 1115.99 772.12 1159.03 736.719 1186.05C729.785 1191.24 722.551 1196.12 715.026 1200.08C677.107 1219.27 641.733 1215.86 612.716 1193.53C591.658 1177.46 573.089 1153.34 552.331 1131.79C551.629 1131.05 550.827 1130.21 550.126 1129.47C526.059 1104.43 497.55 1076.55 462.18 1084.41C433.58 1090.56 404.489 1118.75 381.282 1154.95C369.309 1173.73 358.94 1194.2 350.101 1214.76C340.513 1237.27 332.234 1260.85 324.878 1284.19C311.886 1325.97 301.749 1368.01 291.116 1409.23C278.72 1457.73 265.739 1504.7 249.723 1550C220.056 1633.95 176.301 1717.69 117.069 1764.11C91.5932 1784.22 64.5343 1795.65 38.3092 1800.34C28.1674 1802.15 18.1469 1802.88 8.44841 1802.72C-97.618 1800.75 -178.017 1686.86 -183.407 1529.43" stroke="#C3AAC6" stroke-width="2" stroke-miterlimit="10"/>
<path d="M1757.88 914.935C1704.32 1025.34 1645.83 1130.88 1577.54 1219.07C1511.76 1303.5 1431.73 1373.54 1355 1400.72C1298.03 1420.64 1244.13 1417.25 1198.87 1381.5C1159.26 1350.17 1130.77 1296.7 1117.81 1231.83C1108.16 1182.34 1106.97 1127.73 1106.63 1072.17C1106.53 1048.9 1106.44 1025.02 1106.14 1001.23C1105.68 969.637 1104.1 937.184 1098.61 907.004C1090.04 859.867 1069.66 803.964 1033.21 801.88C997.272 800.025 954.833 841.947 925.026 886.191C906.447 913.896 890.577 944.452 875.954 973.882C863.348 999.031 851.265 1023.51 839.007 1046.28C811.735 1097.46 783.038 1142.57 747.559 1172.31C740.61 1178.1 733.359 1183.58 725.823 1187.84C687.725 1209.64 650.943 1209.03 620.852 1188.33C598.941 1173.2 579.835 1149.73 558.954 1128.36C558.151 1127.51 557.449 1126.77 556.646 1125.93C532.249 1101.16 503.832 1072.47 468.232 1080.12C439.092 1086.64 409.465 1114.92 385.916 1152.03C373.828 1171.01 363.34 1191.99 354.483 1213.16C344.776 1236.18 336.585 1260.18 329.418 1284.04C316.606 1326.66 306.651 1369.54 296.505 1411.61C284.49 1461.17 272.296 1509.31 256.854 1556.18C228.14 1642.74 184.898 1730.16 124.762 1778.76C98.943 1799.76 71.3391 1811.87 44.5749 1816.93C34.2188 1818.83 24.0845 1819.75 14.1721 1819.69C-93.9406 1818.7 -175.895 1702.24 -180.619 1541.45" stroke="#FFB5EA" stroke-width="2" stroke-miterlimit="10"/>
<path d="M1764.16 892.96C1710.32 1005.03 1652.06 1112.74 1583.57 1203.28C1517.59 1290.07 1436.73 1362.7 1359.11 1391.15C1301.56 1412.05 1246.89 1409.12 1201.2 1372.32C1161.26 1340.35 1133.09 1285.06 1121.17 1218.21C1112.15 1167.22 1112.32 1111.25 1113.02 1054.32C1113.44 1030.36 1113.66 1006.18 1113.69 981.792C1113.74 949.51 1112.49 916.453 1107.2 885.865C1099.04 838.22 1078.68 780.481 1042 778.183C1005.83 776.114 962.834 818.434 933.203 862.918C914.604 890.94 898.922 921.729 884.376 951.882C871.955 977.56 860.058 1002.57 848.187 1026.08C821.585 1078.63 793.434 1126.2 757.98 1158.75C751.014 1165.15 743.646 1171.13 736.093 1175.99C697.816 1200.39 659.519 1202.8 628.457 1183.53C605.793 1169.44 586.148 1146.62 564.943 1125.22C564.14 1124.38 563.437 1123.64 562.634 1122.79C538.01 1098.09 509.585 1068.48 473.645 1076.42C443.968 1083.02 413.793 1111.98 389.908 1149.69C377.598 1169.08 367.096 1190.37 358.121 1212.04C348.296 1235.57 340.193 1260 333.01 1284.47C320.272 1328.12 310.705 1371.76 301.048 1414.68C289.62 1465.21 278.108 1514.73 263.039 1562.94C235.38 1652.22 192.552 1743.22 131.505 1794.31C105.342 1816.2 77.1924 1828.98 49.8882 1834.42C39.4179 1836.52 28.9688 1837.42 18.842 1837.44C-91.421 1837.33 -174.933 1718.3 -178.79 1554.36" stroke="#FFB3DA" stroke-width="2" stroke-miterlimit="10"/>
<path d="M1770.34 870.842C1716.33 984.373 1658.4 1094.38 1589.71 1187.27C1523.74 1276.31 1442.06 1351.55 1363.42 1381.45C1305.3 1403.33 1249.86 1400.86 1203.75 1362.72C1163.59 1329.91 1135.73 1272.81 1124.76 1204.17C1116.47 1151.78 1117.9 1094.05 1119.64 1036.04C1120.38 1011.48 1121.23 986.723 1121.46 961.932C1121.94 928.854 1121 895.193 1116.02 864.003C1108.38 815.657 1088.14 756.187 1051.13 753.569C1014.93 751.198 971.18 794.002 941.621 838.92C923.108 867.065 907.403 898.473 893.041 929.157C880.912 955.168 869.201 980.702 857.51 1005.04C831.475 1059.16 804.08 1109.1 768.655 1144.18C761.673 1151.18 754.294 1157.46 746.724 1162.93C708.269 1189.93 668.454 1195.36 636.421 1177.52C613.004 1164.48 592.719 1142.21 571.291 1120.88C570.487 1120.04 569.784 1119.3 568.874 1118.64C544.024 1094.02 515.487 1063.68 479.518 1071.62C449.304 1078.3 418.587 1107.64 394.466 1146.07C382.036 1165.96 371.419 1187.46 362.427 1209.75C352.689 1233.7 344.569 1258.74 337.475 1283.63C324.917 1328.12 315.634 1372.7 306.26 1416.57C295.316 1468.26 284.493 1518.85 269.999 1568.63C243.402 1660.32 200.778 1755.3 138.926 1808.67C112.314 1831.65 83.7243 1844.92 55.88 1850.73C45.195 1852.92 34.6318 1854.01 24.2907 1854.12C-88.0226 1855 -173.194 1733.3 -176.281 1566.09" stroke="#FFBCEC" stroke-width="2" stroke-miterlimit="10"/>
<path d="M1776.61 848.801C1722.33 963.99 1664.62 1076.18 1595.73 1171.42C1529.68 1262.62 1447.06 1340.65 1367.62 1371.94C1309.02 1394.9 1252.81 1392.89 1206.17 1353.59C1165.69 1319.84 1138.14 1261.22 1128.22 1190.59C1120.77 1136.62 1123.35 1077.62 1126.14 1018.23C1127.3 993.176 1128.56 967.927 1129.22 942.644C1130.12 908.768 1129.6 874.61 1124.93 842.817C1117.81 793.768 1097.58 732.761 1060.34 729.928C1024.12 727.254 979.605 770.543 950.124 815.594C931.59 844.057 915.968 875.89 901.791 907.105C889.748 933.538 878.324 959.706 867.021 984.78C841.759 1040.38 814.914 1092.79 779.52 1130.39C772.527 1137.7 765.126 1144.88 757.339 1150.74C718.705 1180.36 677.371 1188.8 644.365 1172.4C620.193 1160.4 599.267 1138.69 577.616 1117.43C576.811 1116.59 576.107 1115.85 575.197 1115.19C550.015 1090.83 521.677 1059.49 485.267 1067.61C454.409 1074.55 423.255 1104.09 398.793 1143.43C386.246 1163.52 375.505 1185.83 366.5 1208.43C356.643 1232.89 348.612 1258.35 341.608 1283.67C329.231 1329 320.131 1374.42 311.348 1419.25C300.887 1472.1 290.75 1524.06 276.943 1574.91C251.405 1669.33 209.197 1767.9 146.44 1823.45C119.484 1847.33 90.3466 1861.27 61.9614 1867.45C51.0615 1869.73 40.2834 1870.92 29.7277 1871.11C-84.7393 1872.87 -171.265 1748.51 -173.789 1578.13" stroke="#FFA9E7" stroke-width="2" stroke-miterlimit="10"/>
<path d="M1782.78 826.642C1728.33 943.298 1670.73 1057.87 1601.75 1155.57C1535.5 1249.12 1452.05 1329.76 1371.7 1362.62C1312.42 1386.76 1255.65 1384.81 1208.48 1344.65C1167.77 1310.08 1140.43 1249.82 1131.56 1177.21C1124.85 1121.84 1128.59 1061.27 1132.42 1000.8C1134 975.254 1135.69 949.512 1136.66 923.63C1137.99 888.955 1137.88 854.298 1133.43 821.796C1126.72 772.24 1106.71 709.303 1069.13 706.15C1032.89 703.172 987.725 746.753 958.315 792.238C939.761 821.019 924.227 852.977 910.129 884.917C898.378 911.684 887.242 938.487 876.227 964.194C851.533 1021.37 825.445 1076.15 790.081 1116.29C783.072 1124.2 775.66 1131.69 767.856 1138.15C729.042 1170.38 686.192 1181.54 652.105 1166.77C627.178 1155.83 605.716 1134.47 583.734 1113.48C582.929 1112.64 582.118 1112.09 581.313 1111.24C555.904 1086.95 527.454 1054.88 490.908 1063.2C459.613 1070.32 427.809 1100.45 403.009 1140.39C390.24 1160.89 379.485 1183.51 370.362 1206.62C360.486 1231.69 352.338 1257.66 345.525 1283.51C333.222 1329.87 324.512 1376.04 316.115 1421.93C306.244 1475.74 296.692 1528.98 283.462 1581.4C258.985 1678.54 217.194 1780.7 153.422 1838.63C126.015 1863.6 96.4362 1878.03 67.509 1884.59C56.4945 1887.06 45.5011 1888.34 34.7303 1888.62C-81.8946 1891.25 -169.984 1764.33 -171.636 1590.78" stroke="#FD92DF" stroke-width="2" stroke-miterlimit="10"/>
<path d="M1788.94 804.459C1734.21 922.777 1676.95 1039.35 1607.66 1139.59C1541.32 1235.3 1456.94 1318.75 1375.78 1352.98C1315.92 1378.11 1258.39 1376.62 1210.78 1335.41C1169.85 1299.99 1142.83 1237.92 1135.01 1163.62C1129.03 1106.85 1134.03 1044.81 1138.92 982.961C1141.02 956.727 1143.03 930.387 1144.41 904.311C1146.27 868.943 1146.48 833.682 1142.34 800.576C1136.15 750.317 1116.26 685.645 1078.35 682.17C1041.98 679.083 996.257 723.061 966.819 768.873C948.245 797.972 932.795 830.356 918.882 862.828C907.217 890.018 896.368 917.455 885.642 943.796C861.724 1002.45 836.188 1059.71 800.748 1102.57C793.723 1111.09 786.194 1119.08 778.373 1126.14C739.38 1160.99 694.9 1175.37 659.943 1161.85C634.153 1152.15 612.154 1131.15 589.949 1110.24C589.143 1109.39 588.231 1108.73 587.526 1107.99C561.789 1083.67 533.427 1051.08 496.651 1059.19C464.817 1066.39 432.468 1096.9 407.325 1137.75C394.435 1158.76 383.566 1181.58 374.319 1205.5C364.43 1230.89 356.265 1257.48 349.541 1283.75C337.42 1330.96 328.995 1378.07 320.989 1424.71C311.604 1479.69 302.744 1534 290.092 1587.99C266.577 1687.75 225.304 1793.61 160.623 1853.74C132.871 1879.6 102.744 1894.71 73.2744 1901.64C62.0443 1904.21 50.8354 1905.57 39.95 1906.05C-78.7344 1909.67 -168.49 1780.06 -169.369 1603.24" stroke="#FF8DDF" stroke-width="2" stroke-miterlimit="10"/>
<path d="M1795.07 782.533C1740.17 902.319 1683.03 1021.27 1613.64 1123.99C1547.21 1222.15 1462.1 1308.02 1379.83 1343.61C1319.4 1369.73 1261.08 1368.69 1213.05 1326.43C1171.89 1290.18 1145.09 1226.47 1138.21 1150.37C1132.98 1092.22 1139.13 1028.6 1145.18 965.471C1147.7 938.743 1150.13 911.909 1151.83 885.234C1154.11 849.067 1154.64 813.2 1150.92 779.596C1145.14 728.828 1125.37 662.418 1087.13 658.621C1050.73 655.231 1004.25 699.694 974.989 745.746C956.294 775.056 941.134 807.778 927.3 840.977C915.823 868.696 905.268 896.468 894.825 923.744C871.477 983.973 846.701 1043.62 811.292 1089.02C804.25 1098.14 796.71 1106.43 788.771 1114C749.599 1151.46 703.699 1168.68 667.658 1156.79C641.11 1148.15 618.467 1127.7 596.138 1106.96C595.331 1106.11 594.419 1105.46 593.713 1104.72C567.643 1080.66 539.38 1046.96 502.262 1055.36C469.888 1062.62 436.988 1093.83 411.714 1135.2C398.602 1156.6 387.612 1179.94 378.352 1204.17C368.445 1230.18 360.369 1257.19 353.63 1284.08C341.59 1332.02 333.45 1380.08 326.037 1427.69C317.138 1483.83 309.072 1539.32 296.899 1594.78C274.554 1697.08 233.488 1806.92 167.996 1869.35C139.899 1896.12 109.222 1911.9 79.31 1919.31C67.7579 1922.16 56.4341 1923.72 45.3384 1923.98C-75.5098 1928.49 -166.833 1796.31 -166.839 1616.32" stroke="#FF6DD6" stroke-width="2" stroke-miterlimit="10"/>
<path d="M1801.22 760.333C1745.94 881.673 1689.23 1002.73 1619.55 1107.99C1553.03 1208.32 1466.98 1296.99 1383.91 1333.96C1322.9 1361.07 1263.91 1360.59 1215.36 1316.87C1173.98 1279.79 1147.38 1214.45 1141.57 1136.36C1137.18 1076.61 1144.49 1011.72 1151.59 947.211C1154.53 919.99 1157.49 892.468 1159.5 865.494C1162.31 828.634 1163.16 792.162 1159.66 757.849C1154.19 706.467 1134.64 638.125 1096.17 634.112C1059.75 630.418 1012.51 675.365 983.326 721.549C964.612 751.177 949.435 784.218 935.889 818.055C924.604 846.001 914.334 874.709 904.079 902.514C881.51 964.227 857.29 1026.35 821.912 1074.28C814.961 1083.82 807.298 1092.91 799.242 1100.97C759.791 1140.95 712.465 1161.31 675.446 1150.86C648.14 1143.28 624.853 1123.38 602.3 1102.72C601.493 1101.87 600.58 1101.22 599.772 1100.37C573.475 1076.39 545.202 1042.06 507.849 1050.55C474.829 1058.09 441.49 1089.48 415.873 1131.76C402.746 1153.48 391.636 1177.32 382.258 1202.07C372.232 1228.58 364.246 1256.02 357.597 1283.33C345.739 1332.11 337.991 1380.93 330.759 1429.67C322.453 1486.79 314.977 1543.55 303.389 1600.27C282.01 1705.19 241.364 1818.64 174.958 1883.56C146.409 1911.42 115.29 1927.7 84.8353 1935.48C73.1683 1938.52 61.5279 1940.06 50.3176 1940.52C-72.6927 1945.91 -165.482 1811.26 -164.814 1627.9" stroke="#FF41CA" stroke-width="2" stroke-miterlimit="10"/>
<path d="M1807.45 738.17C1752 860.979 1695.41 984.424 1625.63 1092.15C1558.92 1194.84 1472.04 1286.13 1388.16 1324.48C1326.67 1352.68 1266.91 1352.36 1217.82 1307.78C1176.22 1269.86 1149.94 1202.69 1145.08 1122.8C1141.43 1061.66 1150.01 994.989 1158.16 929.4C1161.53 901.685 1164.9 873.669 1167.24 846.095C1170.48 808.434 1171.75 771.463 1168.45 736.739C1163.61 684.76 1143.97 614.765 1105.17 610.431C1068.62 606.326 1020.71 651.864 991.606 698.482C972.872 728.428 957.779 761.895 944.419 796.265C933.322 824.741 923.347 853.784 913.483 882.331C891.487 945.62 868.028 1010.13 832.575 1060.8C825.507 1070.84 817.934 1080.34 809.861 1089.01C770.13 1131.51 721.374 1155.01 683.375 1146C655.309 1139.47 631.585 1120.04 608.493 1099.74C607.685 1098.89 606.771 1098.24 605.963 1097.39C579.332 1073.67 551.159 1038.23 513.569 1046.81C480.008 1054.42 446.223 1086.32 420.161 1129.39C406.811 1151.52 395.688 1175.67 386.292 1201.04C376.253 1227.87 368.249 1255.92 361.686 1283.95C349.904 1333.77 342.549 1383.34 335.81 1432.95C327.993 1491.23 321.106 1549.26 310.206 1607.37C289.894 1715.02 249.669 1832.08 182.35 1899.19C153.455 1927.95 121.786 1944.91 90.7862 1953.07C78.9029 1956.2 67.1471 1957.94 55.7208 1958.49C-69.3572 1964.86 -163.819 1827.53 -162.375 1640.88" stroke="#FF1BBF" stroke-width="2" stroke-miterlimit="10"/>
<path d="M1813.58 715.907C1757.86 840.378 1701.5 966.017 1631.52 1076.11C1515.91 1257.81 1337.17 1406.56 1220.09 1298.49C1178.26 1259.72 1152.2 1190.93 1148.5 1109.15C1145.59 1046.6 1155.44 978.462 1164.54 911.685C1173.75 844.713 1182.26 776.695 1177.27 715.336C1172.95 662.654 1153.43 590.918 1114.4 586.367C1077.72 582.152 1029.16 627.981 1000.23 674.837C966.009 729.927 944.348 796.686 923.026 861.658C901.704 926.629 879.016 993.229 843.488 1046.64C801.722 1109.43 738.432 1149.59 691.346 1140.56C661.493 1134.93 636.32 1114.9 612.301 1093.63C585.442 1069.99 557.157 1033.81 519.433 1042.6C485.431 1050.39 450.893 1082.76 424.593 1126.55C396.703 1172.96 378.423 1228.87 365.824 1283.69C340.615 1393.94 336.319 1503.19 316.976 1613.47C297.633 1723.76 257.931 1844.53 189.593 1914.03C149.135 1955.21 103.013 1973.25 60.8739 1975.55C-66.373 1982.81 -162.407 1842.9 -160.084 1653.08" stroke="#F900B3" stroke-width="2" stroke-miterlimit="10"/>
</svg>
