<svg width="1440" height="1509" viewBox="0 0 1440 1509" fill="none" xmlns="http://www.w3.org/2000/svg">
<path d="M-605 221.176C-523.99 169.785 -376.854 167.045 -290.104 215.306C-199.526 265.784 -184.43 352.914 -100.018 407.305C-19.008 459.479 108.992 470.435 224.872 464.696C340.752 458.957 454.931 439.522 571.024 443.044C687.117 446.566 812.14 480.478 855.728 547.782C893.362 606.086 861.256 671.303 842.545 732.868C824.047 794.433 827.874 869.433 910.159 905.824C1006.9 948.737 1129.37 911.824 1234.84 908.172C1413.87 902.172 1593.53 952.91 1692.4 1045.78C1793.4 1140.47 1801.05 1270.52 1711.54 1368.99" stroke="#9254FF" stroke-width="2" stroke-miterlimit="10"/>
<path d="M-581.399 211.654C-499.113 162.48 -353.678 160.785 -266.928 208.524C-196.124 247.393 -169.546 307.914 -122.131 358.653C-108.523 373.131 -93.4264 386.827 -75.1407 398.957C4.59331 451.522 127.49 464.957 237.842 462.348C313.323 460.522 387.529 452.696 461.735 449.696C496.18 448.261 530.413 448 565.07 450.087C609.084 452.696 655.01 460 697.748 471.87C761.535 489.609 817.243 517.13 844.884 556C852.113 566.043 857.003 576.217 860.405 586.652C875.927 634.651 855.302 686.825 842.12 737.173C839.993 745.129 838.292 753.346 836.804 761.694C828.086 817.39 837.867 877.389 905.269 909.867C916.963 915.476 928.87 919.78 941.415 923.041C988.83 935.693 1041.35 933.737 1094.72 929.041C1137.45 925.258 1180.83 919.519 1221.87 918.345C1231.86 918.085 1241.85 917.954 1251.85 917.954C1306.07 918.085 1360.07 922.911 1411.53 932.432C1519.54 952.65 1616.07 994.258 1679.86 1053.08C1699.42 1071.08 1715.58 1090.52 1728.12 1110.74C1781.28 1195.78 1772.35 1295.82 1699.85 1374.99" stroke="#9156FF" stroke-width="2" stroke-miterlimit="10"/>
<path d="M-557.585 202.133C-474.236 155.307 -330.502 154.524 -243.539 201.741C-172.523 240.089 -144.244 299.697 -96.6159 350.306C-83.0079 364.653 -68.1243 378.349 -50.0512 390.61C28.1945 443.696 146.413 459.479 251.237 460.001C322.891 460.262 392.845 454.914 462.373 453.87C494.692 453.348 526.798 454.001 559.542 456.87C601.004 460.522 644.592 468.87 686.479 481.261C748.777 499.913 805.335 526.522 834.678 563.957C842.332 573.609 847.86 583.522 851.688 593.565C869.973 640 853.389 691.13 842.119 741.347C840.418 749.303 838.717 757.521 837.654 765.868C830.212 821.564 837.442 880.911 901.229 914.042C912.073 919.781 923.554 924.215 935.461 927.737C980.538 941.302 1031.14 940.78 1083.24 937.52C1125.12 934.781 1168.5 929.694 1209.53 928.65C1219.53 928.389 1229.52 928.259 1239.51 928.259C1293.52 928.389 1347.31 932.694 1398.77 941.954C1506.57 961.259 1603.53 1002.35 1667.74 1060.65C1687.51 1078.52 1703.67 1097.69 1716.43 1117.91C1770.22 1202.56 1761.51 1302.47 1688.58 1381.26" stroke="#9158FF" stroke-width="2" stroke-miterlimit="10"/>
<path d="M-533.771 192.611C-449.147 148.133 -307.326 148.394 -220.15 194.959C-148.921 232.915 -118.729 291.48 -71.3136 341.827C-57.7056 356.175 -42.822 369.871 -25.1742 382.132C51.5831 435.609 164.912 453.87 264.207 457.522C332.034 459.87 397.735 457.001 462.586 458.044C492.778 458.435 522.758 460.001 553.376 463.783C592.286 468.609 633.748 477.87 674.572 490.783C735.595 510.218 792.578 535.913 823.621 572.043C831.701 581.304 837.655 590.826 842.12 600.478C863.169 645.347 850.412 695.434 841.269 745.521C839.781 753.477 838.505 761.564 837.654 769.912C831.701 825.477 836.379 884.172 896.126 918.085C906.332 923.954 917.176 928.52 928.232 932.302C970.757 946.65 1019.45 947.824 1070.69 945.737C1111.73 944.172 1155.1 939.606 1195.93 938.693C1205.92 938.433 1215.91 938.433 1225.69 938.433C1279.7 938.563 1333.28 942.476 1384.52 951.215C1492.32 969.606 1589.71 1010.17 1654.13 1067.82C1673.91 1085.56 1690.49 1104.61 1703.25 1124.69C1757.47 1208.82 1748.96 1308.73 1676.03 1387.26" stroke="#905AFF" stroke-width="2" stroke-miterlimit="10"/>
<path d="M-509.957 183.09C-424.27 140.959 -284.15 142.133 -196.549 188.177C-125.107 225.742 -93.2138 283.263 -45.586 333.48C-31.978 347.828 -17.307 361.393 0.128197 373.784C75.6098 427.653 183.835 448.392 277.603 455.175C341.815 459.61 403.263 459.349 463.223 462.218C491.29 463.523 518.931 465.871 547.848 470.566C584.419 476.436 623.542 486.74 663.515 500.175C723.263 520.392 780.884 545.305 813.415 580C821.92 589 828.299 598.131 833.402 607.392C857.216 650.696 848.498 699.869 841.269 749.695C839.993 757.521 839.143 765.608 838.505 773.956C834.04 829.521 835.954 887.433 892.086 922.129C901.654 927.998 911.86 932.955 922.279 936.868C962.465 951.998 1009.24 954.737 1059.21 954.085C1099.18 953.563 1142.77 949.65 1183.59 948.998C1193.59 948.868 1203.58 948.737 1213.36 948.737C1267.16 948.998 1320.52 952.259 1371.98 960.607C1479.78 978.085 1577.37 1018 1642.22 1075.26C1662.21 1092.87 1678.8 1111.78 1691.77 1131.74C1746.62 1215.47 1738.12 1315.13 1664.97 1393.39" stroke="#905DFF" stroke-width="2" stroke-miterlimit="10"/>
<path d="M-486.143 173.568C-399.18 133.655 -260.974 136.003 -173.16 181.394C-101.506 218.437 -67.6989 275.045 -20.0711 325.002C-6.46313 339.219 8.2079 352.784 25.2178 365.306C99.211 419.697 202.759 442.914 290.998 452.696C351.383 459.349 408.579 461.436 464.074 466.392C490.014 468.609 515.529 471.87 542.32 477.479C576.339 484.522 613.123 495.74 652.246 509.696C710.505 530.696 768.764 554.826 803.209 588.087C812.14 596.696 819.156 605.435 824.897 614.304C851.475 656.043 846.797 704.173 841.482 753.869C840.631 761.695 839.993 769.782 839.355 777.999C836.379 833.433 835.741 890.694 888.046 926.042C896.977 932.042 906.332 937.128 916.325 941.302C954.172 957.215 998.823 961.52 1047.94 962.172C1087.06 962.693 1130.65 959.433 1171.47 958.911C1181.47 958.78 1191.25 958.78 1201.24 958.78C1254.82 959.041 1308.19 961.911 1359.43 969.737C1467.02 986.302 1565.04 1025.69 1630.53 1082.43C1650.73 1099.91 1667.31 1118.69 1680.5 1138.52C1735.99 1221.87 1727.49 1321.39 1654.13 1399.26" stroke="#8F5FFF" stroke-width="2" stroke-miterlimit="10"/>
<path d="M-462.542 164.046C-374.515 126.481 -238.011 129.742 -149.984 174.611C-77.9048 211.263 -42.3966 266.828 5.23121 316.654C18.8392 330.871 33.2976 344.436 50.0949 356.958C122.6 411.74 221.257 437.436 303.968 450.218C360.526 459.088 413.257 463.653 464.287 470.436C488.1 473.696 511.489 477.74 536.153 484.131C567.622 492.348 602.28 504.479 640.339 519.087C697.322 541 756.007 564.218 792.153 596.044C801.508 604.261 808.95 612.739 815.329 621.217C844.671 661.391 844.033 708.608 840.844 757.912C840.419 765.738 839.781 773.695 839.568 781.912C837.867 837.216 834.678 893.824 883.156 929.955C891.448 936.085 900.166 941.302 909.521 945.737C945.03 962.563 987.767 968.433 1035.61 970.389C1073.88 971.954 1117.26 969.346 1158.08 969.085C1168.07 968.954 1177.85 968.954 1187.63 969.085C1241 969.346 1294.16 971.693 1345.4 979.128C1452.99 994.78 1551.43 1033.65 1617.13 1089.87C1637.33 1107.21 1654.34 1125.87 1667.53 1145.56C1723.45 1228.39 1715.15 1327.91 1641.59 1405.39" stroke="#8F61FF" stroke-width="2" stroke-miterlimit="10"/>
<path d="M-438.728 154.394C-349.426 119.177 -214.622 123.481 -126.596 167.698C-54.3035 203.828 -17.0943 258.48 30.7461 308.045C44.354 322.132 58.8125 335.828 75.1845 348.349C146.414 403.653 239.968 431.697 317.363 447.61C370.094 458.566 418.572 465.609 464.925 474.479C486.612 478.653 507.875 483.609 530.625 490.914C559.542 500.174 591.861 513.348 629.07 528.479C684.778 551.174 744.1 573.609 781.734 604C791.515 611.826 799.595 619.913 806.399 628.13C838.718 666.739 841.907 712.912 840.631 762.086C840.419 769.782 840.206 777.868 840.206 785.955C839.993 841.259 834.253 896.955 878.904 933.998C886.558 940.259 894.638 945.607 903.355 950.302C936.312 967.911 977.136 975.346 1024.13 978.606C1061.55 981.215 1104.92 979.259 1145.75 979.128C1155.74 979.128 1165.52 979.128 1175.3 979.128C1228.67 979.389 1281.61 981.346 1332.64 988.389C1440.23 1003.13 1538.89 1041.48 1605.01 1097.17C1625.43 1114.26 1642.44 1132.91 1656.04 1152.47C1712.6 1234.91 1704.31 1334.3 1630.53 1411.39" stroke="#8E63FF" stroke-width="2" stroke-miterlimit="10"/>
<path d="M-414.914 144.872C-324.549 111.872 -191.446 117.22 -102.994 160.915C-30.4897 196.654 8.63316 250.263 56.4736 299.567C70.0815 313.654 84.3273 327.349 100.274 340.001C170.015 395.697 258.679 426.218 330.546 445.262C379.45 458.305 423.463 467.827 465.562 478.653C484.911 483.609 504.26 489.609 524.884 497.696C551.25 508.131 581.442 522.218 617.801 537.87C672.233 561.348 731.98 583 771.528 611.956C781.734 619.521 790.239 627.087 797.681 634.913C832.764 672.086 839.993 717.086 840.631 766.129C840.844 773.825 840.844 781.781 840.844 789.868C841.907 845.042 833.827 900.085 874.439 937.911C881.242 944.302 888.897 949.911 896.977 954.737C927.594 973.128 966.505 982.128 1012.22 986.824C1048.79 990.476 1092.17 989.171 1132.99 989.171C1142.98 989.171 1152.76 989.171 1162.33 989.302C1215.49 989.563 1268.22 990.997 1319.46 997.65C1426.84 1011.61 1525.92 1049.3 1592.68 1104.34C1613.31 1121.3 1630.53 1139.82 1644.14 1159.26C1701.33 1241.3 1693.04 1340.43 1619.26 1417.26" stroke="#8E65FF" stroke-width="2" stroke-miterlimit="10"/>
<path d="M-391.1 135.351C-299.459 104.699 -168.27 111.09 -79.6059 154.133C-6.88849 189.35 34.148 242.046 81.9884 291.219C95.5963 305.306 109.842 318.871 125.364 331.654C193.616 387.741 277.39 420.74 343.941 442.914C389.23 458.044 428.566 470.044 466.2 482.827C483.423 488.696 500.645 495.479 519.143 504.609C542.957 516.218 570.811 531.218 606.319 547.392C659.263 571.652 719.861 592.522 760.897 619.913C771.528 627.087 780.671 634.391 788.538 641.826C826.598 677.434 837.442 721.521 840.206 770.303C840.631 777.999 840.844 785.825 841.269 794.042C843.82 849.216 832.977 903.477 869.973 942.085C876.139 948.607 882.943 954.346 890.598 959.433C918.877 978.607 955.873 989.172 1000.31 995.302C1036.03 1000.13 1079.41 999.346 1120.23 999.606C1130.01 999.606 1140.01 999.737 1149.57 999.737C1202.52 1000.13 1255.25 1001.04 1306.28 1007.17C1413.65 1020.22 1513.16 1057.26 1580.14 1111.91C1600.76 1128.74 1618.2 1147.13 1632.02 1166.43C1689.85 1247.95 1681.56 1347.08 1607.57 1423.52" stroke="#8D67FF" stroke-width="2" stroke-miterlimit="10"/>
<path d="M-367.499 125.828C-274.795 97.5243 -145.307 104.829 -56.4299 147.35C16.5002 182.176 59.2376 233.828 107.291 282.741C121.111 296.697 134.932 310.393 150.241 323.175C217.217 379.784 295.888 415.131 356.911 440.435C398.373 457.653 433.243 472 466.413 487C481.296 493.783 496.605 501.478 513.19 511.391C534.452 524.044 560.18 540.087 594.625 556.782C646.293 581.956 707.316 601.782 750.053 627.869C761.11 634.652 770.89 641.565 779.395 648.608C820.432 682.651 835.103 725.695 839.993 774.346C840.631 781.912 841.269 789.868 841.907 797.955C845.734 852.998 832.551 906.476 865.508 945.867C871.036 952.519 877.202 958.389 884.219 963.737C909.947 983.693 945.029 995.954 988.617 1003.26C1023.49 1009.13 1066.86 1009 1107.47 1009.39C1117.26 1009.52 1127.04 1009.52 1136.6 1009.65C1189.33 1010.04 1241.85 1010.43 1292.88 1016.17C1400.26 1028.3 1499.98 1064.82 1567.38 1118.95C1588.22 1135.65 1605.87 1153.78 1619.69 1173.08C1677.94 1254.21 1669.86 1353.21 1595.66 1429.26" stroke="#8D69FF" stroke-width="2" stroke-miterlimit="10"/>
<path d="M-343.685 116.307C-249.705 90.2205 -122.131 98.6988 -33.0412 140.568C40.1015 174.872 84.7526 225.611 132.806 274.393C146.626 288.35 160.447 301.915 175.33 314.828C240.819 371.828 314.812 409.523 370.094 438.088C407.729 457.523 438.346 474.088 467.051 491.175C479.808 498.74 492.778 507.479 507.449 518.305C526.373 532.131 549.761 549.087 583.143 566.305C633.535 592.261 695.196 611.304 739.635 635.956C751.116 642.348 761.322 649 770.465 655.652C814.478 688.13 832.977 730.26 839.781 778.651C840.844 786.216 841.694 794.043 842.332 802.129C847.648 857.173 831.914 909.868 861.043 950.042C865.933 956.694 871.462 962.824 877.84 968.433C901.229 989.172 934.398 1003 976.711 1011.74C1010.73 1018.65 1053.89 1019.17 1094.72 1019.82C1104.5 1019.95 1114.28 1020.08 1123.85 1020.08C1176.58 1020.48 1228.88 1020.48 1279.91 1025.69C1387.07 1036.91 1487.22 1072.91 1555.05 1126.52C1576.1 1143.08 1593.75 1161.08 1607.78 1180.26C1666.68 1261 1658.6 1359.73 1584.18 1435.52" stroke="#8C6BFF" stroke-width="2" stroke-miterlimit="10"/>
<path d="M-319.871 106.786C-224.828 83.0465 -98.9546 92.4378 -9.43988 133.785C64.1281 167.698 110.48 217.394 158.533 265.915C172.354 279.741 185.962 293.437 200.633 306.35C264.633 363.741 333.735 403.914 383.702 435.61C417.509 457.131 443.662 476.044 467.901 495.348C478.532 503.696 489.376 513.479 502.134 525.087C518.506 540.087 539.555 557.957 572.3 575.696C621.416 602.435 683.715 620.696 729.641 643.913C741.761 650.043 752.392 656.174 761.96 662.565C808.95 693.478 831.276 734.564 839.993 782.825C841.269 790.39 842.332 798.086 843.395 806.173C850.199 861.086 831.914 912.998 857.003 954.085C861.256 960.868 866.146 967.128 871.887 972.998C892.937 994.389 923.98 1009.91 965.442 1019.95C998.611 1027.91 1041.77 1029.08 1082.6 1029.87C1092.38 1030 1102.16 1030.13 1111.73 1030.26C1164.25 1030.65 1216.34 1030.13 1267.37 1035.08C1374.53 1045.39 1475.1 1080.87 1543.35 1133.95C1564.4 1150.39 1582.26 1168.26 1596.51 1187.3C1656.04 1267.52 1647.96 1366.26 1573.55 1441.65" stroke="#8C6EFF" stroke-width="2" stroke-miterlimit="10"/>
<path d="M-296.057 97.2638C-199.739 75.8726 -75.566 86.3074 13.9487 127.003C87.7292 160.524 135.782 209.176 184.048 257.437C197.869 271.263 211.476 284.828 225.722 297.871C288.446 355.784 352.446 398.306 396.885 433.131C427.077 456.74 448.552 477.87 468.326 499.392C476.831 508.653 485.549 519.348 496.18 531.87C510.001 548.044 528.924 566.826 560.605 585.087C608.233 612.609 671.17 630.087 718.797 651.869C731.342 657.608 742.399 663.478 752.605 669.347C802.571 698.565 828.511 738.738 839.355 786.738C841.056 794.173 842.332 801.999 843.608 809.955C851.9 864.738 831.063 915.998 852.325 957.867C855.94 964.78 859.98 971.172 865.083 977.302C883.794 999.476 912.923 1016.69 953.109 1028.04C985.215 1037.04 1028.59 1038.87 1069.2 1039.91C1078.98 1040.17 1088.76 1040.3 1098.12 1040.3C1150.42 1040.69 1202.52 1039.78 1253.33 1044.21C1360.5 1053.61 1461.28 1088.56 1529.96 1141.13C1551.22 1157.43 1569.29 1175.17 1583.54 1194.21C1643.71 1274.04 1635.85 1372.65 1561 1447.65" stroke="#8B70FF" stroke-width="2" stroke-miterlimit="10"/>
<path d="M-272.456 87.7424C-175.074 68.6991 -52.6025 80.0468 37.1249 120.221C111.118 153.22 161.085 200.959 209.35 249.089C223.171 262.915 236.566 276.48 250.599 289.524C311.835 347.828 370.945 392.828 410.068 430.784C436.433 456.479 453.868 479.827 468.964 503.697C475.343 513.609 481.934 525.479 490.439 538.783C501.709 556.131 518.293 575.957 549.124 594.609C595.476 623.044 659.05 639.478 708.167 659.956C721.137 665.304 732.831 670.782 743.462 676.391C796.405 704.043 826.173 743.304 838.93 791.043C840.844 798.477 842.545 806.173 844.033 814.129C853.601 868.912 830.425 919.259 847.648 961.911C850.412 968.955 854.027 975.476 858.492 981.868C874.864 1004.82 902.08 1023.61 941.203 1036.26C972.458 1046.43 1015.83 1048.78 1056.44 1049.95C1066.23 1050.22 1076.01 1050.35 1085.36 1050.48C1137.45 1051 1189.33 1049.43 1240.36 1053.48C1347.31 1061.95 1448.52 1096.26 1517.63 1148.3C1539.1 1164.34 1557.17 1182.08 1571.63 1201C1632.23 1280.43 1624.58 1378.91 1549.52 1453.52" stroke="#8B72FF" stroke-width="2" stroke-miterlimit="10"/>
<path d="M-248.642 78.2202C-149.985 61.3942 -29.4266 73.9158 60.5133 113.437C134.719 146.046 186.599 192.741 234.865 240.611C248.686 254.306 262.081 268.002 275.476 281.175C335.224 339.871 389.655 387.218 423.037 428.435C445.575 456.218 458.758 481.783 469.177 507.87C473.429 518.696 477.682 531.478 484.486 545.696C493.203 564.087 507.662 584.956 537.642 604.13C582.718 633.347 646.718 648.999 697.748 668.043C711.143 672.999 723.475 678.086 734.744 683.304C790.664 709.39 824.046 747.607 839.143 795.216C841.481 802.651 843.395 810.346 844.883 818.172C855.94 872.824 830.212 922.519 843.608 965.954C845.734 973.128 848.711 979.91 852.538 986.432C866.571 1010.17 891.661 1030.52 929.721 1044.61C960.126 1055.82 1003.29 1058.82 1044.11 1060.13C1053.89 1060.39 1063.46 1060.65 1072.82 1060.65C1124.7 1061.17 1176.36 1059.21 1227.39 1062.74C1334.34 1070.3 1435.98 1104.08 1505.29 1155.61C1526.77 1171.52 1545.27 1189.13 1559.73 1207.91C1620.96 1286.82 1613.31 1385.17 1538.04 1459.52" stroke="#8A74FF" stroke-width="2" stroke-miterlimit="10"/>
<path d="M-224.828 68.6988C-125.107 54.2206 -6.25051 67.6554 84.1147 106.655C158.533 138.742 212.114 184.524 260.38 232.263C274.201 245.959 287.383 259.524 300.566 272.828C359.038 332.045 408.367 381.74 436.433 426.088C455.356 455.957 464.499 483.74 469.815 512.174C471.941 523.783 474.067 537.609 478.745 552.609C484.911 572.174 497.031 593.957 526.16 613.783C569.961 643.782 634.598 658.652 687.117 676.26C700.937 680.956 713.695 685.652 725.602 690.478C784.499 714.869 821.708 752.173 838.718 799.651C841.269 806.955 843.395 814.651 845.309 822.607C857.854 877.259 829.575 926.042 839.143 970.389C840.631 977.563 842.97 984.606 846.159 991.389C857.854 1015.91 881.03 1037.82 918.026 1053.21C947.581 1065.48 990.744 1069.13 1031.36 1070.69C1041.14 1071.08 1050.7 1071.21 1060.06 1071.35C1111.94 1071.87 1163.39 1069.39 1214.21 1072.52C1321.16 1079.17 1423.01 1112.43 1492.96 1163.43C1514.65 1179.21 1533.15 1196.69 1547.82 1215.34C1609.69 1293.87 1602.04 1392.08 1526.56 1466.04" stroke="#8A76FF" stroke-width="2" stroke-miterlimit="10"/>
<path d="M-201.014 59.1766C-100.018 47.0463 16.9256 61.5244 107.503 99.872C182.347 131.568 237.629 176.306 285.895 223.784C299.716 237.349 312.898 251.045 325.656 264.349C382.639 323.958 427.077 376.131 449.616 423.609C464.712 455.566 469.815 485.696 470.24 516.217C470.453 528.609 470.24 543.478 473.004 559.391C476.619 580.13 486.612 602.826 514.679 623.173C556.991 653.956 622.479 668.043 676.485 684.216C690.731 688.521 704.127 692.825 716.459 697.39C778.545 720.216 819.369 756.607 838.292 803.824C841.269 811.129 843.608 818.694 845.734 826.65C859.98 881.172 828.937 929.302 834.465 974.432C835.316 981.736 837.017 988.91 839.568 995.954C848.924 1021.26 869.973 1044.87 905.907 1061.56C934.611 1074.87 977.774 1079.17 1018.39 1080.87C1028.17 1081.26 1037.73 1081.52 1047.09 1081.52C1098.76 1082.04 1150 1079.17 1201.03 1081.91C1307.77 1087.65 1410.04 1120.39 1480.42 1170.87C1502.32 1186.52 1521.03 1203.87 1535.7 1222.39C1598.21 1300.39 1590.56 1398.6 1515.07 1472.17" stroke="#8978FF" stroke-width="2" stroke-miterlimit="10"/>
<path d="M-177.2 49.6551C-75.1409 39.7421 40.3141 55.2638 130.892 93.0897C205.948 124.263 263.144 168.089 311.41 215.437C325.23 229.002 338.2 242.567 350.745 256.002C406.24 316.132 446.001 370.523 462.798 421.262C474.067 455.305 475.343 487.783 470.878 520.522C469.177 533.696 466.413 549.609 467.263 566.304C468.326 588.217 476.193 611.826 503.197 632.695C544.233 664.391 610.147 677.434 666.067 692.304C680.738 696.217 694.771 700.13 707.529 704.304C772.591 725.434 817.03 760.912 838.08 807.999C841.269 815.303 844.033 822.868 846.159 830.694C861.681 885.085 828.299 932.433 830 978.345C830.213 985.78 831.276 993.084 833.189 1000.26C840.206 1026.35 859.342 1051.52 894.212 1069.52C922.066 1083.87 965.229 1088.82 1005.84 1090.78C1015.62 1091.17 1025.19 1091.43 1034.33 1091.56C1085.79 1092.21 1137.03 1088.69 1187.85 1091.04C1294.58 1095.87 1397.28 1128.08 1467.87 1178.04C1489.77 1193.56 1508.7 1210.65 1523.58 1229.17C1586.52 1306.78 1579.07 1404.86 1503.38 1478.04" stroke="#897AFF" stroke-width="2" stroke-miterlimit="10"/>
<path d="M-153.599 40.0031C-50.2638 32.4379 63.2775 48.8726 154.068 86.1768C229.337 116.959 288.234 159.742 336.712 206.828C350.745 220.393 363.503 233.959 375.622 247.393C429.841 307.915 464.499 364.784 475.981 418.653C483.635 454.783 480.658 489.609 471.303 524.435C467.476 538.522 462.585 555.348 461.31 572.957C459.609 596.043 465.35 620.565 491.715 641.956C531.476 674.434 598.027 686.695 655.436 700.13C670.532 703.651 684.99 707.304 698.386 711.086C766.425 730.521 814.478 765.216 837.654 811.912C841.269 819.086 844.246 826.651 846.585 834.477C863.594 888.868 827.874 935.433 825.322 982.128C824.897 989.693 825.322 997.128 826.598 1004.56C831.488 1031.3 848.498 1058.17 882.093 1077.61C909.096 1093.13 952.259 1098.74 992.657 1100.69C1002.44 1101.21 1012.01 1101.48 1021.15 1101.61C1072.39 1102.26 1123.42 1098.34 1174.24 1100.17C1280.98 1104.08 1383.89 1135.65 1455.11 1185.08C1477.23 1200.47 1496.15 1217.43 1511.46 1235.82C1575.03 1313.04 1567.59 1410.86 1491.69 1483.78" stroke="#887CFF" stroke-width="2" stroke-miterlimit="10"/>
<path d="M-129.785 30.4811C-25.3867 25.2638 86.4536 42.7419 177.669 79.3939C253.151 109.655 313.961 151.524 362.44 198.35C376.473 211.784 389.018 225.35 400.925 238.915C453.655 299.827 483.848 359.175 489.376 416.175C493.416 454.392 486.399 491.696 471.941 528.478C466.2 543.348 458.971 561.217 455.782 579.608C451.529 603.739 455.144 629.304 480.446 651.217C518.931 684.477 586.12 695.825 645.017 707.955C660.751 711.086 675.635 714.347 689.456 717.738C760.472 735.477 812.352 769.259 837.654 815.824C841.482 822.998 844.671 830.433 847.435 838.259C865.934 892.52 827.661 938.302 821.282 985.91C820.219 993.606 819.794 1001.17 820.644 1008.87C823.196 1036.39 838.08 1064.95 870.824 1085.56C896.977 1102.13 939.927 1108.39 980.538 1110.61C990.106 1111.13 999.674 1111.39 1008.82 1111.52C1060.06 1112.17 1110.88 1107.74 1161.69 1109.17C1268.22 1112.3 1371.55 1143.21 1443.21 1192.13C1465.53 1207.39 1484.67 1224.21 1499.98 1242.47C1564.19 1319.17 1556.75 1416.99 1480.63 1489.52" stroke="#887FFF" stroke-width="2" stroke-miterlimit="10"/>
<path d="M-105.971 20.9603C-0.29727 18.0908 109.629 36.6124 201.058 72.6122C276.752 102.482 339.476 143.307 387.954 190.003C401.987 203.438 414.532 217.003 426.014 230.568C477.256 292.002 502.559 353.697 502.771 413.828C502.984 454.132 491.927 493.784 472.791 532.783C464.924 548.566 455.356 567.348 450.253 586.653C443.449 611.957 444.725 638.435 469.177 660.87C506.173 694.913 574 705.478 634.811 716.174C650.97 719.043 666.492 721.782 680.95 724.913C755.156 740.956 810.651 773.956 837.867 820.26C842.119 827.434 845.521 834.869 848.285 842.564C868.272 896.825 827.661 941.824 817.03 990.215C815.329 998.041 814.266 1005.74 814.478 1013.69C814.691 1042 827.661 1072.13 859.129 1094.17C884.219 1111.78 927.382 1118.69 967.993 1121.04C977.561 1121.56 987.129 1121.95 996.272 1122.08C1047.3 1122.74 1097.91 1117.91 1148.72 1118.82C1255.25 1121.04 1359.01 1151.43 1430.88 1199.82C1453.2 1214.82 1472.55 1231.65 1488.07 1249.78C1552.71 1326.08 1545.48 1423.78 1469.36 1496.04" stroke="#8781FF" stroke-width="2" stroke-miterlimit="10"/>
<path d="M-82.1572 11.4382C24.7927 10.786 132.806 30.3511 224.447 65.8292C300.354 95.3072 364.779 135.09 413.469 181.524C427.503 194.828 439.835 208.394 451.104 222.22C501.071 284.045 521.27 348.219 515.954 411.479C512.34 453.87 497.243 496.001 473.217 536.957C463.436 553.652 451.529 573.217 444.3 593.435C434.945 619.913 434.094 647.304 457.483 670.26C493.204 705.217 561.668 714.869 623.967 724.13C640.552 726.608 656.499 728.956 671.595 731.825C748.778 746.173 807.887 778.26 837.229 824.433C841.695 831.477 845.522 838.912 848.498 846.607C869.761 900.737 827.023 945.085 812.352 994.258C810.014 1002.08 808.312 1010.17 807.887 1018.26C805.974 1047.35 816.605 1079.04 847.223 1102.52C871.462 1121.17 914.625 1128.74 955.023 1131.21C964.591 1131.87 974.159 1132.13 983.302 1132.26C1034.12 1132.91 1084.72 1127.56 1135.33 1128.21C1241.85 1129.52 1345.83 1159.39 1418.12 1207.26C1440.66 1222.13 1460.22 1238.82 1475.74 1256.82C1541.02 1332.73 1533.79 1430.3 1457.45 1502.17" stroke="#8783FF" stroke-width="2" stroke-miterlimit="10"/>
<path d="M-58.5562 1.9165C139.184 5.04692 331.396 71.177 438.772 173.046C558.692 286.915 555.29 419.566 473.429 541C446.213 581.565 406.027 638.304 445.788 679.652C489.376 724.912 588.246 726.999 662.239 738.608C754.518 753.216 824.259 792.477 848.711 850.52C875.076 913.259 809.801 961.78 801.083 1022.56C796.831 1052.43 805.548 1085.69 834.89 1110.48C863.807 1134.87 922.917 1141.52 969.906 1142.3C1020.51 1143.08 1070.9 1137.21 1121.72 1137.34C1261.2 1137.87 1397.49 1188.21 1463.19 1263.6C1529.11 1339 1521.88 1436.43 1445.33 1508.04" stroke="#8685FF" stroke-width="2" stroke-miterlimit="10"/>
<path d="M-77.2671 7.26416C23.7294 8.30763 123.45 24.7423 212.114 54.09C298.865 82.7855 375.197 123.872 429.841 174.481C471.516 212.959 498.732 254.045 512.34 296.436C525.31 336.48 526.16 377.305 516.805 417.61C509.788 447.87 496.818 477.74 479.383 507.218C472.154 519.479 464.074 531.609 455.356 543.739C444.512 558.609 431.968 575.696 422.612 593.435C406.453 623.695 398.586 656.695 423.675 683.173C450.891 711.738 501.07 723.477 552.526 730.782C582.931 735.086 613.761 737.825 641.615 741.738C666.705 745.39 690.306 750.608 711.781 757.521C760.259 773.173 798.744 797.042 821.708 828.738C826.173 834.738 830 841.129 833.189 847.65C850.624 883.259 837.654 915.085 821.92 947.563C810.651 970.65 798.106 993.867 794.704 1019.3C794.492 1020.21 794.492 1021.13 794.279 1022.04C791.09 1051.39 799.595 1083.74 828.299 1107.87C847.86 1124.3 880.817 1132.91 914.624 1136.95C932.059 1139.04 949.92 1139.82 966.292 1139.82C984.79 1139.95 1003.29 1139.04 1021.79 1137.87C1054.74 1135.78 1087.28 1132.78 1120.02 1132.13C1158.72 1131.34 1197.2 1134.21 1234.2 1140.21C1302.45 1151.3 1366.24 1173.61 1415.57 1205.3C1437.04 1219 1455.54 1234.52 1470.64 1251.21C1476.38 1257.74 1481.69 1264.39 1486.37 1271.17C1537.61 1344.6 1524.86 1434.08 1452.14 1500.34" stroke="#8B88FB" stroke-width="2" stroke-miterlimit="10"/>
<path d="M-96.1906 12.4819C6.08164 13.0037 107.078 28.2645 197.443 56.5686C285.682 84.3511 364.566 124.916 420.699 175.524C463.436 214.002 491.502 255.35 504.685 298.654C517.23 339.219 516.805 380.567 505.323 420.871C496.605 451.132 481.934 480.74 462.798 509.827C454.931 521.957 446.213 533.957 436.858 545.957C425.164 560.827 411.981 577.783 401.988 595.522C384.978 625.652 375.835 659.304 401.137 686.174C428.14 715 479.17 726.999 530.625 734.043C561.243 738.217 592.286 740.695 620.353 744.217C645.655 747.478 669.256 752.304 691.157 758.564C740.273 772.912 779.608 795.347 804.485 825.738C809.375 831.477 813.628 837.607 817.243 843.999C836.804 878.564 826.811 910.259 812.778 942.868C802.784 966.085 791.09 989.563 787.9 1015C787.688 1015.91 787.688 1016.82 787.688 1017.74C784.711 1047.21 792.791 1079.95 821.708 1104.21C841.694 1121.04 875.289 1129.91 909.947 1133.69C927.807 1135.65 945.88 1136.43 962.678 1136.3C981.601 1136.17 1000.52 1135.13 1019.24 1133.69C1052.62 1131.21 1085.57 1127.56 1118.74 1126.13C1157.87 1124.43 1196.56 1126.13 1233.99 1131.08C1303.09 1140.21 1369.21 1160.43 1420.88 1191.87C1443.21 1205.43 1462.56 1221.08 1478.29 1238.04C1484.24 1244.56 1489.77 1251.34 1494.66 1258.26C1548.03 1332.87 1534.64 1424.82 1459.15 1491.86" stroke="#8F8BF6" stroke-width="2" stroke-miterlimit="10"/>
<path d="M-115.114 17.8296C-11.7787 17.8296 90.7061 31.9165 182.772 59.3076C272.712 86.0466 353.722 126.22 411.556 176.829C455.356 215.176 484.061 257.046 497.031 301.263C509.15 342.349 507.237 384.219 493.841 424.523C483.635 454.784 467.051 484.001 446.214 512.827C437.496 524.827 428.353 536.827 418.36 548.696C405.815 563.565 391.994 580.391 381.363 598.261C363.503 628.261 353.297 662.695 378.386 689.826C405.39 718.782 457.057 731.173 508.725 737.956C539.556 741.999 570.811 744.217 599.09 747.347C624.605 750.217 648.419 754.521 670.319 760.39C720.073 773.564 760.472 794.303 787.263 823.521C792.366 829.129 797.043 834.999 801.083 841.26C822.771 874.781 815.754 906.346 803.422 939.085C794.704 962.433 783.861 986.172 781.097 1011.74C781.097 1012.65 780.884 1013.56 780.884 1014.48C778.332 1044.08 785.562 1077.08 814.904 1101.61C835.528 1118.82 869.761 1127.82 905.056 1131.61C923.342 1133.56 941.628 1134.08 958.85 1133.82C978.199 1133.56 997.335 1132.26 1016.26 1130.43C1050.07 1127.43 1083.45 1123.13 1116.83 1120.91C1156.17 1118.3 1195.29 1118.95 1233.35 1122.74C1303.51 1129.78 1371.77 1148.04 1425.77 1179.21C1448.95 1192.65 1469.15 1208.43 1485.52 1225.65C1491.9 1232.3 1497.43 1239.21 1502.53 1246.13C1558.03 1322.04 1543.99 1416.34 1465.75 1484.04" stroke="#948DF2" stroke-width="2" stroke-miterlimit="10"/>
<path d="M-134.038 23.1777C-29.4265 22.7864 74.1214 35.5689 168.101 61.9166C259.53 87.7425 343.091 127.394 402.626 178.003C447.489 216.35 477.044 258.611 489.376 303.611C501.071 345.219 497.881 387.61 482.36 427.784C470.665 458.045 451.954 486.871 429.841 515.436C420.486 527.305 410.493 539.175 400.074 551.044C386.891 565.914 372.008 582.609 360.951 600.479C342.24 630.348 330.759 665.435 356.061 692.956C382.852 722.043 435.37 734.826 487.037 741.347C518.081 745.26 549.336 747.217 578.04 749.956C603.555 752.434 627.582 756.347 649.907 761.565C700.087 773.434 741.548 792.738 770.253 820.651C775.781 825.999 780.884 831.738 785.349 837.738C808.95 870.086 804.91 901.651 794.492 934.52C787.05 957.998 776.844 981.998 774.505 1007.69C774.505 1008.61 774.293 1009.52 774.293 1010.43C771.954 1040.3 778.758 1073.56 808.1 1098.08C829.15 1115.69 864.02 1124.95 899.953 1128.61C918.452 1130.56 937.375 1130.95 954.81 1130.43C974.372 1129.91 993.933 1128.35 1013.07 1126.39C1047.3 1122.87 1081.11 1117.91 1114.7 1115.04C1154.46 1111.52 1193.8 1111 1232.5 1113.74C1303.73 1118.82 1374.11 1135 1430.24 1165.78C1454.48 1179.08 1475.31 1195 1492.32 1212.48C1498.92 1219.26 1504.87 1226.17 1509.97 1233.34C1567.38 1310.56 1552.92 1407.08 1471.91 1475.69" stroke="#9990EE" stroke-width="2" stroke-miterlimit="10"/>
<path d="M-152.961 28.3946C-47.287 27.4816 57.7492 39.0902 153.43 64.5248C246.347 89.4377 332.46 128.568 393.483 179.176C439.41 217.524 469.815 260.045 481.722 305.958C492.991 348.088 488.526 391.001 470.878 431.175C457.483 461.436 437.071 490.001 413.257 518.174C403.263 529.913 392.632 541.652 381.363 553.392C367.33 568.261 351.808 584.826 340.114 602.696C320.765 632.434 307.795 668.173 333.097 696.086C359.675 725.303 413.044 738.347 464.712 744.869C495.755 748.651 527.436 750.347 556.353 752.695C582.08 754.782 606.319 758.303 628.858 762.999C679.675 773.695 722.2 791.303 752.605 818.042C758.558 823.129 764.087 828.607 768.764 834.477C794.492 865.781 793.216 897.216 784.711 930.215C778.545 953.824 769.19 978.085 767.063 1003.91C767.063 1004.82 766.851 1005.74 766.851 1006.65C764.937 1036.65 771.103 1070.17 800.658 1094.95C822.133 1112.82 857.641 1122.48 894.425 1126C913.349 1127.82 932.485 1128.21 950.345 1127.56C970.332 1126.91 990.106 1125.08 1009.67 1122.74C1044.54 1118.69 1078.56 1113.21 1112.58 1109.43C1152.76 1105.13 1192.31 1103.43 1231.65 1105.13C1303.94 1108.13 1376.66 1122.48 1434.92 1152.87C1460.01 1166.04 1481.69 1182.08 1499.34 1199.69C1506.14 1206.47 1512.31 1213.65 1517.84 1220.82C1577.37 1299.21 1562.28 1398.21 1478.5 1467.47" stroke="#9D93E9" stroke-width="2" stroke-miterlimit="10"/>
<path d="M-171.885 33.7429C-64.9349 32.3081 41.1646 42.7428 138.759 67.134C233.377 91.0034 321.616 129.612 384.34 180.481C431.33 218.829 462.373 261.742 474.067 308.437C484.698 351.089 478.958 394.523 459.396 434.697C444.512 464.958 422.187 493.131 396.672 521.044C386.041 532.653 374.772 544.262 362.865 556.001C347.981 570.74 331.822 587.435 319.489 605.305C299.29 634.783 285.257 671.304 310.559 699.478C336.925 728.826 391.144 742.26 443.024 748.521C474.28 752.173 506.173 753.608 535.303 755.695C561.03 757.521 585.482 760.391 608.446 764.565C659.688 773.956 703.489 790.13 735.807 815.564C741.974 820.521 747.927 825.738 753.243 831.477C780.884 861.738 782.797 893.042 775.993 926.172C771.103 949.911 762.598 974.433 760.684 1000.39C760.684 1001.3 760.472 1002.22 760.472 1003.13C758.771 1033.26 764.299 1067.17 794.066 1091.95C816.179 1110.21 852.325 1120 889.747 1123.52C909.096 1125.35 928.445 1125.48 946.731 1124.69C967.142 1123.78 987.129 1121.82 1006.9 1119.21C1042.2 1114.65 1076.64 1108.52 1110.88 1104.08C1151.27 1098.87 1191.46 1096.13 1231.01 1096.65C1304.15 1097.56 1379.21 1109.95 1439.59 1140.08C1465.75 1153.13 1488.07 1169.3 1506.36 1187.17C1513.37 1194.08 1519.75 1201.26 1525.49 1208.69C1587.15 1288.39 1571.42 1389.73 1484.88 1459.78" stroke="#A296E5" stroke-width="2" stroke-miterlimit="10"/>
<path d="M-190.596 38.9595C-82.5825 37.003 25.0053 46.2639 124.088 69.742C220.194 92.6984 310.985 130.785 375.197 181.654C423.25 220.002 454.931 263.306 466.413 310.914C476.619 354.088 469.602 398.044 448.127 438.218C431.755 468.479 407.516 496.392 380.3 523.913C368.818 535.391 356.911 547 344.579 558.478C328.845 573.217 312.048 589.782 299.29 607.652C278.241 636.999 262.932 674.173 288.234 702.738C314.599 732.216 369.456 746.042 421.337 752.042C452.805 755.694 484.699 756.738 514.253 758.434C540.193 759.868 564.858 762.347 587.821 765.999C639.701 774.216 684.353 788.694 718.585 812.955C725.176 817.651 731.555 822.738 737.083 828.216C766.851 857.303 771.741 888.607 766.638 921.867C763.024 945.737 755.369 970.519 753.668 996.606C753.668 997.519 753.455 998.432 753.455 999.345C751.967 1029.61 757.07 1063.91 787.05 1088.82C809.588 1107.47 846.372 1117.52 884.645 1120.91C904.206 1122.61 924.193 1122.74 942.691 1121.82C963.315 1120.78 983.727 1118.43 1003.93 1115.56C1039.65 1110.47 1074.52 1103.69 1109.18 1098.47C1150 1092.34 1190.4 1088.43 1230.58 1087.91C1304.79 1086.87 1381.97 1097.17 1444.7 1127.04C1471.7 1139.95 1494.88 1156.26 1513.8 1174.39C1521.03 1181.43 1527.62 1188.74 1533.57 1196.17C1597.36 1277.17 1580.99 1380.73 1491.69 1451.69" stroke="#A799E1" stroke-width="2" stroke-miterlimit="10"/>
<path d="M-209.519 44.3068C-100.23 41.8285 8.63316 49.785 109.417 72.3501C207.224 94.3934 300.353 131.958 366.054 182.828C415.383 221.045 447.702 264.871 458.546 313.262C468.326 356.957 460.034 401.435 436.433 441.609C418.36 471.869 392.42 499.391 363.503 526.652C351.383 538 338.838 549.478 325.868 560.956C309.284 575.695 291.848 592.13 278.453 610.13C256.553 639.347 240.181 677.173 265.27 706.129C291.423 735.737 346.918 749.955 399.224 755.694C430.905 759.216 463.011 759.998 492.778 761.303C518.718 762.346 543.595 764.303 566.984 767.433C619.29 774.346 665.216 787.259 701.15 810.346C708.166 814.781 714.97 819.607 720.924 824.954C752.605 852.998 760.472 884.302 757.283 917.693C754.944 941.693 748.14 966.606 746.651 992.823C746.651 993.736 746.651 994.649 746.439 995.692C745.376 1026.08 749.628 1060.65 780.033 1085.82C802.997 1104.87 840.631 1115.04 879.329 1118.43C899.315 1120.13 919.515 1120.13 938.438 1118.95C959.488 1117.65 980.325 1115.17 1000.52 1112.04C1036.88 1106.43 1071.97 1099.13 1106.84 1093.13C1148.09 1086.08 1188.7 1081.13 1229.52 1079.43C1304.79 1076.3 1384.1 1084.65 1449.16 1114.26C1477.02 1127.04 1501.04 1143.47 1520.6 1161.87C1528.05 1168.91 1534.85 1176.34 1541.02 1183.91C1606.93 1266.08 1589.92 1372.13 1497.85 1443.73" stroke="#AC9CDC" stroke-width="2" stroke-miterlimit="10"/>
<path d="M-228.443 49.6556C-118.091 46.6556 -7.95153 53.4382 94.7459 75.0902C194.041 96.0901 289.51 133.264 356.911 184.133C407.303 222.35 440.473 266.567 450.891 315.741C460.247 359.958 450.466 404.958 424.951 445.001C405.39 475.262 377.536 502.522 347.131 529.392C334.373 540.609 321.191 551.957 307.583 563.305C290.147 578.044 272.074 594.348 258.041 612.348C235.503 641.435 217.643 680.043 242.945 709.26C268.885 739.13 325.23 753.608 377.536 759.217C409.43 762.608 441.748 763.26 471.516 764.043C497.669 764.825 522.758 766.26 546.359 768.738C599.303 774.347 646.293 785.825 684.14 807.738C691.369 812.043 698.598 816.608 704.977 821.695C738.572 848.694 749.628 879.868 748.14 913.39C747.077 937.52 740.91 962.694 739.847 989.041C739.847 989.955 739.847 990.868 739.847 991.911C738.997 1022.43 742.824 1057.39 773.229 1082.56C796.618 1101.87 834.89 1112.43 874.438 1115.69C894.85 1117.39 915.262 1117.13 934.824 1115.82C956.299 1114.39 977.348 1111.65 997.973 1108.26C1034.76 1102.13 1070.27 1094.17 1105.35 1087.39C1146.81 1079.43 1187.85 1073.3 1229.31 1070.56C1305.64 1065.48 1387.29 1071.74 1454.26 1100.95C1483.18 1113.61 1507.85 1130.17 1528.04 1148.82C1535.7 1156 1542.72 1163.56 1549.09 1171.26C1617.13 1254.74 1599.27 1363.13 1504.66 1435.52" stroke="#B09ED8" stroke-width="2" stroke-miterlimit="10"/>
<path d="M-247.366 54.8727C-135.739 51.351 -24.3236 56.9597 80.0749 77.5683C181.071 97.6551 278.878 134.307 347.769 185.307C399.224 223.524 433.243 268.002 443.237 318.089C452.167 362.827 441.111 408.349 413.469 448.392C392.42 478.653 362.44 505.522 330.546 532.131C317.151 543.218 303.33 554.435 289.084 565.783C270.799 580.522 251.875 596.696 237.417 614.696C214.028 643.652 195.105 682.913 220.194 712.521C245.922 742.521 303.118 757.26 355.423 762.738C387.529 765.999 419.848 766.39 450.041 766.782C476.406 767.173 501.496 768.216 525.522 770.173C578.891 774.608 627.157 784.39 666.705 805.129C674.359 809.173 682.014 813.477 688.818 818.564C724.326 844.39 738.572 875.564 738.784 909.216C738.997 933.476 733.681 958.911 732.831 985.389C732.831 986.302 732.831 987.346 732.831 988.259C732.193 1018.91 735.382 1054.13 766.213 1079.56C790.239 1099.26 828.937 1110.08 869.336 1113.21C890.173 1114.78 911.01 1114.52 930.784 1113.08C952.472 1111.39 973.947 1108.39 994.784 1104.74C1031.99 1098.08 1067.71 1089.48 1103.43 1082.04C1145.32 1073.17 1186.57 1066 1228.46 1062.21C1305.85 1055.04 1389.63 1059.35 1458.94 1088.3C1488.71 1100.82 1514.44 1117.52 1535.06 1136.43C1542.93 1143.74 1550.16 1151.3 1556.75 1159.13C1626.92 1243.91 1608.42 1354.52 1511.04 1427.69" stroke="#B5A1D4" stroke-width="2" stroke-miterlimit="10"/>
<path d="M-266.29 60.2209C-153.599 56.1775 -40.9083 60.6122 65.4038 80.3078C167.889 99.4816 268.247 135.481 338.838 186.611C391.357 224.829 426.014 269.698 435.795 320.567C444.3 365.828 431.968 411.871 402.2 451.914C379.45 482.175 347.769 508.784 314.174 535.001C299.928 545.957 285.47 557.044 270.799 568.392C251.663 583 232.101 599.305 217.005 617.305C192.766 646.131 172.566 686.043 197.869 716.043C223.596 746.173 281.43 761.304 333.948 766.521C366.267 769.652 398.798 769.521 429.204 769.782C455.569 770.043 481.084 770.304 505.11 771.738C559.117 774.999 608.446 783.086 649.695 802.651C657.775 806.434 665.642 810.608 673.084 815.434C710.505 840.216 727.728 871.26 729.854 905.042C731.343 929.433 726.877 955.129 726.24 981.737C726.24 982.65 726.24 983.694 726.24 984.607C726.027 1015.39 728.578 1051 759.409 1076.43C783.861 1096.52 823.409 1107.48 864.445 1110.48C885.495 1112.04 906.757 1111.65 926.957 1109.95C949.069 1108.13 970.757 1104.87 992.02 1100.95C1029.65 1093.91 1065.8 1084.65 1101.73 1076.3C1144.05 1066.52 1185.72 1058.3 1228.03 1053.35C1306.28 1044.22 1392.39 1046.56 1464.04 1075.13C1494.88 1087.52 1521.24 1104.35 1542.5 1123.52C1550.58 1130.95 1558.02 1138.65 1564.83 1146.48C1637.12 1232.43 1617.98 1345.52 1517.63 1419.47" stroke="#BAA4CF" stroke-width="2" stroke-miterlimit="10"/>
<path d="M-285.213 65.438C-171.247 61.0032 -57.2803 64.1337 50.7327 82.7857C154.706 101.046 257.616 136.525 329.696 187.655C383.277 225.872 418.785 271.132 427.928 322.915C436.008 368.697 422.4 415.262 390.506 455.305C366.267 485.566 332.672 511.783 297.377 537.74C282.493 548.566 267.397 559.653 252.088 570.739C232.101 585.348 211.902 601.522 196.168 619.522C171.078 648.217 149.603 688.782 174.905 719.043C200.42 749.304 259.104 764.825 311.622 769.782C344.154 772.782 376.685 772.651 407.516 772.39C434.094 772.13 459.609 772.13 484.061 773.043C538.492 774.999 589.097 781.651 632.26 799.912C640.765 803.434 649.057 807.477 656.711 812.042C696.047 835.781 716.459 866.694 720.286 900.607C723.05 925.129 719.435 951.085 719.01 977.824C719.01 978.737 719.01 979.781 719.01 980.694C719.01 1011.74 721.137 1047.48 752.18 1073.17C777.057 1093.65 817.243 1104.87 858.917 1107.74C880.392 1109.3 901.867 1108.78 922.491 1106.95C945.03 1105 966.93 1101.48 988.405 1097.17C1026.68 1089.61 1063.04 1079.69 1099.18 1070.69C1141.71 1060 1183.81 1050.61 1226.76 1044.61C1306.07 1033.39 1394.3 1033.78 1468.08 1062.08C1499.77 1074.35 1526.98 1091.3 1548.88 1110.61C1557.39 1118.04 1565.04 1125.87 1571.85 1133.95C1646.26 1221.21 1626.49 1336.65 1523.37 1411.39" stroke="#BEA7CB" stroke-width="2" stroke-miterlimit="10"/>
<path d="M-303.924 70.7855C-188.895 65.829 -73.4398 67.7855 36.2742 85.5246C141.948 102.742 246.985 137.829 320.765 188.959C375.41 227.045 411.768 272.828 420.486 325.393C428.14 371.697 413.044 418.784 379.237 458.827C353.509 489.087 318.001 515.044 281.217 540.609C265.696 551.304 249.749 562.261 234.015 573.348C213.177 587.956 192.34 604 175.968 622.13C150.241 650.695 127.49 691.912 152.792 722.564C178.094 752.956 237.629 768.868 290.147 773.694C322.892 776.564 355.636 776.173 386.679 775.521C413.257 774.868 439.197 774.477 463.861 774.738C518.931 775.521 570.598 780.477 615.462 797.564C624.18 800.955 632.897 804.738 641.19 809.173C682.439 831.868 706.04 862.651 711.781 896.694C716.033 921.346 712.844 947.563 713.057 974.432C713.057 975.345 713.057 976.389 713.057 977.302C713.269 1008.48 714.758 1044.61 746.226 1070.3C771.528 1091.17 812.565 1102.52 854.877 1105.39C876.777 1106.82 898.677 1106.17 919.515 1104.21C942.265 1102 964.803 1098.21 986.491 1093.78C1025.19 1085.69 1061.97 1075.13 1098.54 1065.34C1141.49 1053.74 1183.81 1043.3 1227.18 1036.13C1307.55 1022.82 1398.13 1021.26 1474.04 1049.3C1506.78 1061.3 1534.64 1078.52 1557.17 1098.08C1565.89 1105.65 1573.76 1113.61 1580.78 1121.69C1657.32 1210.26 1636.91 1328.04 1531.02 1403.43" stroke="#C3AAC6" stroke-width="2" stroke-miterlimit="10"/>
<path d="M-322.848 76.1333C-206.542 70.655 -90.0244 71.4376 21.6032 88.1332C128.766 104.437 236.354 139.002 311.623 190.133C367.33 228.219 404.539 274.263 412.832 327.74C420.061 374.566 403.689 422.175 367.968 462.087C340.539 492.348 303.33 517.913 264.845 543.217C248.686 553.783 232.101 564.609 215.729 575.565C194.041 590.174 172.566 606.087 155.556 624.217C128.978 652.521 104.952 694.521 130.254 725.564C155.344 756.086 215.729 772.259 268.46 776.955C301.417 779.825 334.373 779.173 365.629 777.999C392.42 777.086 418.36 776.042 443.237 775.912C498.944 775.39 551.463 778.781 598.24 794.694C607.383 797.825 616.525 801.346 625.03 805.651C668.193 827.303 694.771 857.955 702.426 892.128C707.954 917.041 705.615 943.389 706.04 970.258C706.04 971.302 706.04 972.215 706.04 973.258C706.678 1004.56 707.529 1040.95 738.997 1066.91C764.937 1088.04 806.399 1099.78 849.562 1102.52C871.674 1103.95 894 1103.17 915.262 1100.95C938.438 1098.61 961.189 1094.56 983.089 1089.74C1022.21 1081.13 1059.42 1070.04 1096.21 1059.48C1139.58 1047.08 1182.11 1035.48 1226.12 1027.13C1307.55 1011.87 1400.26 1008.21 1478.29 1036C1511.89 1047.87 1540.59 1065.21 1563.77 1085.04C1572.7 1092.74 1580.78 1100.69 1588.01 1108.91C1666.68 1198.65 1645.63 1318.78 1536.98 1395.08" stroke="#FFB5EA" stroke-width="2" stroke-miterlimit="10"/>
<path d="M-341.771 81.3506C-224.19 75.3507 -106.397 74.9594 6.93212 90.7419C115.796 106.133 225.722 140.176 302.48 191.437C359.25 229.524 397.31 275.958 405.177 330.219C412.194 377.566 394.333 425.696 356.486 465.609C327.569 496 288.446 521.044 248.26 546.087C231.251 556.522 214.241 567.217 197.231 578.174C174.693 592.652 152.58 608.565 135.144 626.695C107.929 654.869 82.6263 697.651 107.929 728.955C133.018 759.738 194.041 776.173 246.772 780.607C279.941 783.347 312.898 782.433 344.579 780.868C371.582 779.564 397.735 778.129 422.825 777.347C478.958 775.651 532.751 777.477 581.442 792.086C591.01 794.955 600.579 798.346 609.509 802.39C654.585 822.998 684.352 853.52 693.708 887.824C700.512 912.867 699.024 939.346 699.661 966.476C699.661 967.519 699.661 968.432 699.661 969.476C700.512 1000.91 700.725 1037.69 732.618 1063.78C758.984 1085.3 801.296 1097.17 845.096 1099.91C867.634 1101.34 890.172 1100.43 911.86 1098.08C935.461 1095.61 958.425 1091.3 980.75 1086.21C1020.51 1077.08 1057.93 1065.34 1094.93 1054C1138.52 1040.69 1181.47 1027.91 1226.12 1018.65C1308.62 1001.3 1403.45 995.693 1483.82 1023.08C1518.26 1034.82 1547.82 1052.3 1571.63 1072.39C1580.78 1080.08 1589.07 1088.3 1596.51 1096.65C1677.31 1187.69 1655.62 1310.17 1544.2 1387.13" stroke="#FFB3DA" stroke-width="2" stroke-miterlimit="10"/>
<path d="M-360.695 86.6983C-242.051 80.1766 -122.981 78.4809 -7.95146 93.3504C102.4 107.698 214.666 141.22 293.124 192.611C350.958 230.697 389.868 277.523 397.098 332.697C403.689 380.566 384.34 429.218 344.579 469.131C314.174 499.522 272.925 524.304 231.251 548.956C213.603 559.391 195.742 569.826 178.307 580.782C154.919 595.261 132.168 611.173 114.095 629.304C86.0284 657.347 59.4504 700.782 84.7527 732.477C109.63 763.39 171.503 780.216 224.447 784.39C257.616 786.998 290.998 785.825 322.892 783.868C349.895 782.172 376.26 780.346 401.775 779.042C458.546 776.172 513.403 776.303 563.795 789.738C573.788 792.346 583.569 795.607 592.924 799.39C639.914 818.955 672.871 849.346 683.927 883.78C692.007 908.954 691.369 935.693 692.22 962.954C692.22 963.997 692.22 964.91 692.432 965.954C693.495 997.519 693.283 1034.69 725.176 1060.78C751.967 1082.69 794.917 1094.82 839.356 1097.43C862.319 1098.74 885.07 1097.82 907.183 1095.21C930.997 1092.47 954.385 1087.91 976.923 1082.56C1017.11 1072.91 1054.96 1060.52 1092.38 1048.52C1136.39 1034.3 1179.55 1020.48 1224.84 1010.04C1308.19 990.736 1405.57 983.171 1488.07 1010.17C1523.58 1021.78 1553.77 1039.39 1578.22 1059.74C1587.58 1067.56 1596.08 1075.78 1603.74 1084.26C1686.66 1176.47 1664.34 1301.43 1550.16 1379.17" stroke="#FFBCEC" stroke-width="2" stroke-miterlimit="10"/>
<path d="M-379.618 91.9161C-259.698 84.8726 -139.353 82.0031 -22.6226 95.9595C89.2177 109.394 204.035 142.394 283.981 193.785C342.878 231.741 382.639 278.958 389.443 335.045C395.609 383.566 374.984 432.61 333.098 472.523C300.991 502.914 258.041 527.305 214.666 551.696C196.38 562 177.882 572.305 159.809 583.131C135.57 597.609 112.181 613.391 93.4702 631.522C64.5533 659.434 36.9122 703.521 62.2144 735.477C86.8788 766.521 149.603 783.738 202.546 787.782C235.928 790.26 269.523 788.825 301.629 786.477C328.845 784.521 355.423 782.173 381.151 780.216C438.347 776.042 494.479 774.608 546.572 786.868C556.778 789.347 567.197 792.216 576.977 795.999C625.881 814.52 662.027 844.781 674.784 879.346C684.14 904.65 684.353 931.65 685.416 959.041C685.416 960.085 685.416 960.998 685.628 962.041C687.117 993.737 686.054 1031.17 718.372 1057.52C745.801 1079.82 789.176 1092.21 834.465 1094.69C857.641 1096 881.03 1094.82 903.355 1092.08C927.595 1089.21 951.196 1084.39 973.947 1078.78C1014.56 1068.61 1052.83 1055.69 1090.46 1042.78C1134.9 1027.65 1178.49 1012.65 1223.99 1001.17C1308.4 979.78 1407.91 970.259 1492.54 996.998C1528.9 1008.48 1559.94 1026.21 1585.03 1046.82C1594.6 1054.78 1603.31 1063.13 1611.18 1071.74C1696.23 1165.26 1673.05 1292.43 1556.32 1371.08" stroke="#FFA9E7" stroke-width="2" stroke-miterlimit="10"/>
<path d="M-398.542 97.2636C-277.559 89.6985 -155.725 85.655 -37.2938 98.568C76.2475 111.09 193.403 143.568 275.051 194.959C335.224 232.915 375.41 280.523 382.001 337.393C387.742 386.436 365.841 436.001 321.828 475.914C288.234 506.305 243.37 530.435 198.506 554.435C179.583 564.609 160.447 574.783 141.736 585.609C116.646 600.087 92.6196 615.739 73.2708 634C43.716 661.782 14.5865 706.521 39.8888 738.869C64.3405 770.042 127.703 787.651 180.859 791.433C214.453 793.781 248.048 792.216 280.579 789.477C307.795 787.129 334.586 784.26 360.526 781.781C418.36 776.434 475.555 773.303 529.349 784.39C539.981 786.607 550.612 789.346 560.818 792.868C611.635 810.346 650.758 840.607 665.429 875.303C676.06 900.737 676.911 927.998 678.399 955.519C678.399 956.563 678.612 957.476 678.612 958.519C680.313 990.345 678.824 1028.17 711.356 1054.52C739.209 1077.08 783.435 1089.74 829.362 1092.21C852.963 1093.52 876.565 1092.21 899.315 1089.34C923.98 1086.21 948.006 1081.26 970.97 1075.26C1012.22 1064.56 1050.7 1051 1088.76 1037.3C1133.41 1021.26 1177.43 1005.21 1223.57 992.563C1309.04 969.085 1410.68 957.606 1497.64 984.085C1535.06 995.432 1566.74 1013.3 1592.47 1034.17C1602.25 1042.13 1611.18 1050.61 1619.26 1059.34C1706.44 1154.17 1682.62 1283.69 1563.13 1363" stroke="#FD92DF" stroke-width="2" stroke-miterlimit="10"/>
<path d="M-417.466 102.612C-295.207 94.5246 -172.31 89.3073 -51.9648 101.307C63.0648 112.916 182.772 144.872 265.908 196.263C327.144 234.219 368.18 282.219 374.347 339.871C379.662 389.436 356.273 439.523 310.347 479.305C275.264 509.696 228.486 533.435 181.922 557.174C162.148 567.217 142.374 577.391 123.237 587.957C97.2973 602.304 72.6329 617.956 52.6462 636.217C22.241 663.869 -8.16422 709.26 17.138 741.999C41.5898 773.303 105.59 791.173 158.958 794.825C192.765 797.042 226.573 795.216 259.317 792.086C286.745 789.477 313.749 786.086 339.901 783.086C398.16 776.434 456.632 771.738 512.339 781.651C523.396 783.608 534.452 786.216 545.084 789.477C597.814 805.912 640.339 836.042 656.499 870.868C668.618 896.433 670.107 923.955 671.808 951.607C671.808 952.65 672.02 953.694 672.02 954.607C673.934 986.693 672.02 1024.65 704.552 1051.26C732.831 1074.21 777.694 1087.13 824.472 1089.48C848.498 1090.65 872.312 1089.34 895.701 1086.21C920.578 1082.95 945.03 1077.74 968.206 1071.48C1009.88 1060.26 1048.79 1046.04 1087.06 1031.69C1132.14 1014.74 1176.36 997.65 1223.14 983.824C1309.68 958.389 1413.44 944.824 1502.53 971.041C1540.8 982.259 1573.33 1000.26 1599.7 1021.39C1609.69 1029.48 1618.84 1038.08 1627.13 1046.82C1716.43 1142.82 1691.98 1274.82 1569.72 1354.91" stroke="#FF8DDF" stroke-width="2" stroke-miterlimit="10"/>
<path d="M-436.176 107.829C-312.854 99.22 -188.469 92.8287 -66.4231 103.785C50.3075 114.35 172.141 145.785 256.978 197.437C319.277 235.393 361.164 283.784 366.905 342.219C371.795 392.305 347.131 442.914 299.29 482.696C262.719 513.087 214.028 536.565 165.762 559.913C145.35 569.826 124.939 579.869 105.165 590.434C78.3739 604.782 53.0716 620.434 32.4471 638.565C1.40394 666.086 -30.2771 712.129 -4.9748 745.26C19.2643 776.694 84.1147 794.955 137.483 798.346C171.503 800.564 205.31 798.346 238.48 794.825C266.121 791.825 293.124 788.042 319.702 784.39C378.599 776.564 438.134 770.173 495.542 778.912C507.024 780.607 518.293 783.086 529.349 786.216C583.994 801.607 629.495 831.607 647.569 866.563C660.964 892.259 663.303 920.041 665.216 947.693C665.216 948.737 665.429 949.78 665.429 950.693C667.768 982.91 665.004 1021.26 697.96 1048C726.665 1071.34 772.379 1084.39 819.581 1086.61C844.033 1087.78 868.272 1086.34 891.874 1083.08C917.176 1079.56 941.84 1074.08 965.442 1067.56C1007.54 1055.95 1046.88 1041.08 1085.36 1025.82C1130.86 1007.95 1175.3 989.693 1222.72 974.823C1310.11 947.302 1416.42 931.78 1507.63 957.606C1546.76 968.693 1580.14 986.823 1607.14 1008.08C1617.56 1016.3 1626.91 1024.91 1635.21 1033.91C1726.64 1131.21 1701.55 1265.56 1576.52 1346.3" stroke="#FF6DD6" stroke-width="2" stroke-miterlimit="10"/>
<path d="M-455.1 113.176C-330.502 104.176 -205.054 96.4805 -81.0942 106.524C37.1248 116.176 161.51 147.089 247.835 198.741C311.197 236.697 353.935 285.349 359.038 344.827C363.503 395.435 337.563 446.565 287.596 486.348C249.324 516.739 198.932 539.826 148.965 562.912C127.915 572.695 106.653 582.608 86.4536 593.043C58.8124 607.26 32.8723 622.912 11.6099 641.173C-20.0711 668.694 -53.2404 715.39 -27.9382 748.781C-3.91165 780.346 61.7892 798.998 115.158 802.259C149.39 804.346 183.41 801.998 216.792 797.955C244.433 794.694 271.862 790.259 298.652 786.216C357.975 777.085 418.785 769.129 477.895 776.694C489.589 778.129 501.496 780.346 512.978 783.346C569.536 797.824 618.226 827.563 638 862.65C652.672 888.476 655.861 916.519 657.987 944.302C657.987 945.345 658.2 946.389 658.2 947.432C660.751 979.78 657.562 1018.39 690.731 1045.26C720.073 1069 766.213 1082.3 814.266 1084.39C838.93 1085.43 863.595 1083.87 887.621 1080.47C913.349 1076.82 938.226 1071.08 962.04 1064.3C1004.56 1052.17 1044.11 1036.65 1083.24 1020.74C1128.95 1001.95 1173.81 982.649 1221.65 966.736C1310.11 937.258 1418.54 919.78 1512.1 945.215C1552.28 956.171 1586.3 974.432 1613.95 995.953C1624.58 1004.17 1634.14 1013.04 1642.65 1022.04C1736.2 1120.65 1710.48 1257.21 1582.69 1338.86" stroke="#FF41CA" stroke-width="2" stroke-miterlimit="10"/>
<path d="M-474.024 118.394C-348.363 108.872 -221.426 100.003 -95.7654 109.003C24.1546 117.742 150.879 148.133 238.692 199.785C303.117 237.61 346.493 286.784 351.383 347.045C355.423 398.175 327.994 449.827 276.114 489.609C236.353 520 183.835 542.826 132.38 565.522C110.693 575.174 88.7923 584.956 67.9552 595.391C39.4635 609.608 12.8855 625.13 -8.80215 643.391C-41.3336 670.651 -75.5661 718.129 -50.2639 751.912C-26.45 783.738 40.1014 802.65 93.6827 805.65C128.128 807.607 162.36 804.998 195.955 800.564C223.809 796.911 251.237 792.085 278.24 787.39C338.2 777.085 400.074 767.433 461.097 773.825C473.217 775.129 485.336 777.085 497.243 779.825C555.715 793.39 607.595 822.868 629.07 858.085C645.017 884.041 648.844 912.215 651.608 940.258C651.608 941.302 651.821 942.345 651.821 943.389C654.798 975.867 650.758 1014.87 684.14 1041.87C713.907 1066 760.684 1079.43 809.588 1081.52C834.678 1082.56 859.555 1080.87 884.006 1077.21C909.947 1073.43 935.249 1067.43 959.488 1060.26C1002.65 1047.61 1042.41 1031.43 1081.75 1014.74C1127.89 995.041 1173.18 974.693 1221.44 957.606C1310.96 926.041 1421.52 906.606 1517.2 931.78C1558.24 942.606 1593.11 960.997 1621.39 982.78C1632.23 991.128 1642.01 999.997 1650.73 1009.13C1746.41 1108.91 1720.04 1247.95 1589.49 1330.39" stroke="#FF1BBF" stroke-width="2" stroke-miterlimit="10"/>
<path d="M-492.947 123.742C-366.01 113.698 -237.798 103.655 -110.436 111.742C99.849 125.177 333.31 205.133 343.729 349.523C347.343 401.175 318.639 453.349 264.633 493C223.384 523.392 168.952 545.826 116.008 568.261C62.8524 590.696 9.48369 614.174 -29.4265 645.739C-62.8085 672.869 -98.3167 720.999 -73.0145 755.042C-49.2006 786.999 17.9887 806.303 71.57 809.042C134.719 812.433 196.806 800.303 257.403 788.694C318.001 777.086 380.725 765.868 443.662 771.086C517.655 777.216 591.648 811.129 619.715 853.781C637.575 880.781 642.04 910.389 644.805 939.606C647.994 972.215 643.529 1011.61 677.123 1038.61C707.316 1063 754.944 1076.82 804.485 1078.78C857.003 1080.87 909.096 1070.82 956.299 1056.61C1051.13 1027.91 1130.01 982.519 1220.59 948.998C1311.17 915.476 1423.86 893.955 1521.88 918.868C1579.93 933.607 1626.06 963.346 1658.38 996.867C1756.19 1097.95 1729.19 1239.34 1595.87 1322.43" stroke="#F900B3" stroke-width="2" stroke-miterlimit="10"/>
</svg>
