<svg width="1440" height="2906" viewBox="0 0 1440 2906" fill="none" xmlns="http://www.w3.org/2000/svg">
<path d="M-149.398 1989.9C-161.909 1874.22 -106.261 1729.62 -30.3079 1680.42C49.0723 1629.13 130.394 1677.5 210.728 1635.01C287.802 1594.21 347.751 1478.06 388.479 1361.59C429.208 1245.11 457.419 1120.38 506.242 1010.4C555.065 900.417 633.698 803.754 709.104 810.171C774.378 815.85 818.132 894.129 864.008 956.783C909.969 1019.23 976.354 1069.75 1040.28 1016.31C1115.55 953.562 1131.91 808.157 1170.33 703.292C1235.74 525.418 1350.47 387.954 1469.79 359.271C1591.53 329.848 1707.04 416.461 1756.92 574.437" stroke="#9254FF" stroke-width="2" stroke-miterlimit="10"/>
<path d="M-147.276 1959.54C-157.36 1844.3 -101.532 1702.19 -26.0982 1652.65C35.3881 1612.15 98.1652 1630.14 160.696 1620.87C178.57 1618.15 196.354 1613.43 214.041 1604.48C290.882 1565.22 350.907 1455.88 392.125 1347.1C420.282 1272.66 442.751 1195.12 469.391 1121.07C481.72 1086.67 494.98 1053.32 510.437 1021.26C530.03 980.505 554.436 941.295 581.53 908.472C621.99 859.5 667.722 825.424 712.204 826.735C723.732 826.99 734.452 829.604 744.811 833.849C792.41 853.498 829.377 911.178 867.698 960.33C873.737 968.139 880.169 975.725 886.797 983.199C931.499 1031.89 987.208 1065.77 1041.83 1023.95C1051.28 1016.67 1059.7 1008.25 1067.46 998.453C1097.07 961.665 1116.07 909.377 1133.03 854.286C1146.6 810.153 1158.73 763.989 1173.88 723.388C1177.59 713.519 1181.41 703.745 1185.35 694.064C1206.82 641.636 1232.27 592.808 1260.77 549.844C1320.79 459.821 1394.78 396.379 1470.75 377.096C1494.01 371.154 1517.18 369.544 1539.59 372.001C1634.03 381.962 1716.98 462.905 1756.84 590.352" stroke="#9156FF" stroke-width="2" stroke-miterlimit="10"/>
<path d="M-145.062 1928.98C-152.693 1814.48 -96.7998 1674.77 -21.8008 1624.68C39.2629 1583.62 101.866 1599.29 164.312 1589.73C182.057 1586.91 199.741 1582.39 217.442 1573.75C294.078 1536.34 354.234 1433.29 395.94 1332.19C424.366 1263.01 447.279 1191.43 473.743 1123.37C486.012 1091.71 499.211 1061.1 514.576 1031.47C534.048 993.97 558.411 957.801 585.596 926.2C626.222 879.359 671.458 843.821 715.332 842.448C726.679 842.008 737.415 843.815 747.594 847.362C794.888 863.192 832.512 916.169 871.441 963.341C877.642 970.733 884.068 978.314 890.858 985.371C936.023 1032.79 990.116 1068.65 1043.83 1030.83C1053.05 1024.47 1061.4 1016.56 1069.13 1007.58C1098.58 973.734 1118.05 924.368 1135.74 871.584C1149.86 829.057 1162.53 783.393 1177.78 742.913C1181.49 733.051 1185.31 723.282 1189.24 713.608C1210.61 661.42 1235.5 612.452 1263.75 569.327C1322.85 478.909 1396.48 414.717 1472.1 394.657C1495.32 388.419 1518.23 386.621 1540.71 388.87C1634.98 397.922 1717.83 478.51 1757.15 606.002" stroke="#9158FF" stroke-width="2" stroke-miterlimit="10"/>
<path d="M-142.843 1898.46C-147.943 1784.5 -91.9553 1647.49 -17.5049 1596.75C43.2482 1555.23 105.646 1568.29 167.727 1558.75C185.456 1555.94 203.124 1551.42 220.64 1543.19C296.959 1507.53 357.273 1411.07 399.465 1317.64C428.16 1253.72 451.517 1188.09 477.916 1126.1C490.125 1097.18 503.263 1069.3 518.565 1042.41C538.027 1008.25 562.32 974.824 589.512 944.648C630.272 899.637 674.846 863.053 718.223 859.093C729.39 857.959 739.946 859.07 750.029 861.716C797.016 873.73 835.212 922.215 874.829 967.203C881.109 974.384 887.584 981.454 894.452 988.301C940.049 1034.16 992.528 1071.99 1045.28 1038.66C1054.35 1033.02 1062.56 1025.82 1070.17 1017.86C1099.27 987.07 1119.42 940.813 1137.77 889.734C1152.56 848.905 1165.67 803.648 1180.94 763.495C1184.64 753.639 1188.57 743.972 1192.42 734.51C1213.76 682.357 1238.21 633.344 1265.89 590.078C1324.15 499.06 1397.43 434.123 1472.5 413.399C1495.58 407.07 1518.53 404.767 1540.88 406.92C1634.78 415.177 1717.64 495.502 1756.7 622.718" stroke="#905AFF" stroke-width="2" stroke-miterlimit="10"/>
<path d="M-140.614 1867.95C-143.27 1754.73 -87.2175 1620.11 -13.1177 1568.62C47.3263 1526.64 109.437 1537.29 171.433 1527.45C189.146 1524.64 206.602 1520.24 224.132 1512.32C300.217 1478.19 360.606 1388.52 403.286 1302.76C432.332 1243.88 456.245 1184.28 482.272 1128.38C494.421 1102.19 507.303 1077.16 522.71 1052.59C542.135 1021.47 566.385 991.073 593.668 962.115C634.564 918.932 678.674 881.19 721.36 874.758C732.458 873.025 742.834 873.443 752.821 875.187C799.503 883.391 838.466 927.279 878.576 970.197C884.821 977.074 891.457 983.728 898.402 990.364C944.545 1034.75 995.217 1074.66 1047.17 1045.41C1055.99 1040.39 1064.27 1034.1 1071.74 1026.85C1100.57 998.91 1121.3 955.662 1140.37 906.885C1155.62 867.863 1169.37 822.902 1184.84 782.964C1188.66 773.209 1192.47 763.453 1196.31 753.997C1217.67 702.179 1241.44 652.934 1268.85 609.208C1326.26 517.593 1399 452.022 1473.84 430.617C1496.86 423.992 1519.68 421.597 1541.98 423.448C1635.71 430.798 1718.27 510.88 1757 638.027" stroke="#905DFF" stroke-width="2" stroke-miterlimit="10"/>
<path d="M-138.378 1837.47C-138.624 1724.69 -82.3638 1592.86 -8.80953 1540.73C51.2137 1498.2 113.234 1506.33 174.949 1496.31C192.534 1493.41 209.975 1489.01 227.434 1481.6C303.316 1449.31 363.948 1366 407.002 1287.79C436.429 1234.25 460.672 1180.49 486.72 1130.45C498.809 1106.99 511.631 1084.68 526.975 1062.84C546.392 1035.05 570.488 1007.6 597.862 979.855C638.811 938.702 682.456 899.805 724.619 890.494C735.538 888.07 745.818 887.588 755.709 888.433C802.087 892.832 841.702 932.034 882.416 972.98C888.822 979.441 895.536 985.885 902.363 992.423C948.937 1035.24 998.001 1077.12 1048.97 1052.06C1057.64 1047.76 1065.7 1042.38 1073.21 1035.74C1101.77 1010.64 1123 970.601 1142.84 923.618C1158.64 886.196 1172.94 841.735 1188.51 801.918C1192.32 792.169 1196.16 782.72 1200.08 773.065C1221.33 721.486 1244.75 671.993 1271.6 628.126C1328.08 536.119 1400.48 469.804 1475.04 447.42C1498.02 440.5 1520.71 438.011 1542.96 439.562C1636.52 446.007 1718.89 525.938 1757.16 652.922" stroke="#8F5FFF" stroke-width="2" stroke-miterlimit="10"/>
<path d="M-136.225 1807.24C-134.036 1695.2 -77.7124 1565.76 -4.59331 1513.09C55.2031 1469.89 116.935 1475.62 178.48 1465.52C196.049 1462.62 213.389 1458.43 230.749 1451.22C306.312 1420.67 367.101 1343.93 410.527 1273.28C440.333 1225.06 464.935 1177.44 490.777 1133.06C502.92 1112.41 515.569 1092.74 530.738 1073.53C550.146 1049.07 574.171 1024.35 601.663 998.12C642.858 958.884 685.843 918.946 727.399 906.966C738.137 903.85 748.35 902.771 758.146 902.717C804.217 903.317 844.595 937.932 885.768 976.513C892.335 982.559 898.931 988.904 905.918 995.026C952.837 1036.49 1000.3 1080.33 1050.39 1059.54C1058.92 1055.95 1066.82 1051.29 1074.31 1045.45C1102.71 1023.29 1124.51 986.255 1144.95 941.477C1161.3 905.654 1176.06 861.899 1191.84 822.298C1195.65 812.556 1199.49 803.114 1203.43 793.765C1224.58 742.428 1247.44 692.799 1273.93 648.681C1329.58 556.081 1401.62 489.027 1475.75 466.076C1498.59 459.066 1521.31 456.075 1543.43 457.53C1636.62 463.182 1719 542.85 1756.82 669.665" stroke="#8F61FF" stroke-width="2" stroke-miterlimit="10"/>
<path d="M-134.082 1776.72C-129.38 1665.22 -72.8796 1538.26 -0.389263 1485.15C58.9862 1441.41 120.543 1444.83 181.891 1434.34C199.331 1431.35 216.767 1427.25 233.944 1420.47C309.387 1391.54 370.138 1321.46 414.132 1258.25C444.205 1215.26 469.248 1173.55 495.028 1135.22C507.11 1117.3 519.699 1100.35 534.89 1083.66C554.177 1062.42 578.161 1040.72 605.742 1015.71C647.072 978.295 689.594 937.206 730.461 922.765C741.02 918.96 751.137 916.984 760.866 916.332C806.715 912.932 847.658 943.079 889.432 979.692C895.964 985.434 902.833 991.458 909.785 997.277C957.245 1037.28 1002.88 1082.89 1052.21 1066.46C1060.59 1063.59 1068.35 1059.64 1075.8 1054.61C1103.85 1035.48 1126.23 1001.44 1147.44 958.457C1164.34 924.231 1179.65 880.976 1195.52 841.497C1199.44 831.856 1203.27 822.419 1207.1 812.983C1228.23 761.683 1250.65 712.013 1276.69 667.849C1331.5 574.657 1403.11 507.069 1476.89 483.347C1499.57 475.949 1522.27 472.959 1544.42 473.909C1637.44 478.658 1719.63 558.173 1757 684.821" stroke="#8E63FF" stroke-width="2" stroke-miterlimit="10"/>
<path d="M-131.821 1746.32C-124.804 1635.48 -68.1282 1511 4.01218 1457.15C63.0789 1412.94 124.431 1413.77 185.498 1403.1C202.922 1400.11 220.259 1396.22 237.366 1389.94C312.491 1362.75 373.4 1299.22 417.877 1243.63C448.216 1205.86 473.616 1170.27 499.388 1137.47C511.217 1122.38 523.941 1108.04 538.957 1093.97C558.236 1076.06 582.149 1057.08 609.82 1033.28C651.284 997.684 693.26 955.651 733.605 938.343C744.096 933.943 753.922 931.183 763.556 929.636C809.212 922.541 850.69 947.926 893.062 982.573C899.755 987.901 906.589 993.622 913.535 999.436C961.339 1038.08 1005.45 1085.45 1053.83 1073.49C1061.98 1071.53 1069.8 1068.18 1077.1 1063.86C1104.88 1047.57 1127.84 1016.52 1149.76 975.829C1167.2 943.197 1183.06 900.443 1199.03 861.086C1202.94 851.452 1206.77 842.022 1210.62 832.892C1231.65 781.833 1253.51 732.029 1279.28 687.41C1333.28 593.928 1404.43 525.508 1477.83 500.719C1500.46 493.027 1523.11 489.74 1545.13 490.594C1637.97 494.442 1719.87 573.711 1756.98 700.077" stroke="#8E65FF" stroke-width="2" stroke-miterlimit="10"/>
<path d="M-129.558 1715.94C-120.037 1605.64 -63.2692 1483.85 8.32549 1429.36C66.971 1384.61 128.23 1382.93 189.127 1372.18C206.534 1369.19 223.743 1365.21 240.779 1359.44C315.587 1333.98 376.652 1276.99 421.694 1228.81C452.381 1196.05 478.055 1166.77 503.735 1139.7C515.504 1127.33 528.057 1115.61 543.123 1104.35C562.393 1089.75 586.153 1073.69 613.912 1051.1C655.426 1017.53 697.022 974.148 736.568 954.294C746.879 949.207 756.721 945.647 766.176 943.409C811.609 932.327 853.679 953.554 896.619 985.938C903.388 991.058 910.187 996.475 917.404 1001.97C965.746 1039.15 1008.07 1088.58 1055.66 1080.68C1063.67 1079.42 1071.25 1076.99 1078.61 1073.27C1106.11 1059.8 1129.64 1031.75 1152.27 993.348C1170.38 962.403 1186.66 920.055 1202.85 880.915C1206.67 871.493 1210.69 861.96 1214.43 852.742C1235.46 802.02 1256.86 751.878 1282.07 707.123C1335.23 613.053 1405.92 543.805 1478.99 518.547C1501.5 510.767 1524.09 507.184 1546.06 507.739C1638.62 510.593 1720.44 589.8 1757.1 715.995" stroke="#8D67FF" stroke-width="2" stroke-miterlimit="10"/>
<path d="M-127.373 1685.83C-115.434 1576.27 -58.6042 1456.87 12.5578 1401.84C70.8948 1356.63 131.866 1352.57 192.564 1341.43C209.926 1338.14 227.065 1334.67 244.002 1329.11C318.688 1305.28 379.714 1254.92 425.238 1214.34C456.19 1186.79 482.108 1163.52 507.921 1142.36C519.548 1132.9 532.124 1123.69 547.099 1114.84C566.249 1103.46 590.05 1090.21 617.815 1069.04C659.573 1037.37 700.401 992.861 739.455 970.448C749.588 964.673 759.334 960.221 768.694 957.09C813.904 942.026 856.534 958.803 900.153 989.022C906.888 993.839 913.958 998.936 921.14 1004.13C969.823 1039.96 1010.52 1091.04 1057.16 1087.59C1065.02 1087.05 1072.46 1085.32 1079.79 1082.41C1106.94 1071.97 1131.16 1047 1154.44 1010.28C1173.09 980.929 1189.92 939.081 1206.11 900.269C1210.04 890.947 1213.86 881.532 1217.71 872.415C1238.64 821.936 1259.48 771.661 1284.33 726.659C1336.66 632.005 1406.92 562.229 1479.64 536.205C1502.1 528.132 1524.53 524.159 1546.48 524.713C1638.78 526.872 1720.5 605.72 1756.71 731.742" stroke="#8D69FF" stroke-width="2" stroke-miterlimit="10"/>
<path d="M-125.09 1655.51C-110.768 1546.4 -53.7354 1429.77 16.8817 1374.11C74.798 1328.36 135.675 1321.8 196.203 1310.57C213.549 1307.29 230.559 1303.73 247.425 1298.67C321.794 1276.57 382.946 1232.44 428.979 1199.75C460.307 1177.49 486.44 1159.92 512.273 1144.57C523.73 1137.72 536.275 1131.52 551.271 1125.17C570.495 1116.89 594.143 1106.55 621.912 1086.79C663.803 1056.94 704.169 1011.29 742.62 986.227C752.574 979.767 762.253 974.722 771.517 970.699C816.505 951.66 859.806 964.087 903.907 992.254C910.801 996.658 917.836 1001.45 925.011 1006.64C974.228 1041.01 1013.22 1093.94 1058.99 1094.74C1066.6 1094.81 1074.01 1093.89 1081.3 1091.78C1108.19 1084.15 1132.97 1062.17 1156.96 1027.74C1176.15 999.972 1193.44 958.829 1209.93 920.029C1213.85 910.714 1217.78 901.4 1221.51 892.197C1242.42 841.757 1262.83 791.445 1287.2 746.103C1338.62 651.071 1408.52 580.565 1480.9 553.777C1503.3 545.412 1525.6 541.348 1547.5 541.603C1639.63 542.865 1721.04 621.463 1756.92 747.403" stroke="#8C6BFF" stroke-width="2" stroke-miterlimit="10"/>
<path d="M-122.799 1625.21C-106.069 1516.85 -48.9748 1402.6 21.2935 1346.2C78.9849 1299.79 139.574 1290.86 199.821 1279.45C217.038 1276.08 234.061 1272.82 250.828 1267.97C324.88 1247.59 386.189 1209.97 432.784 1184.66C464.376 1167.59 490.752 1156.01 516.718 1146.55C528.004 1142.32 540.601 1138.9 555.507 1134.96C574.723 1129.98 598.218 1122.55 626.158 1103.8C668.181 1075.75 708.087 1028.96 745.854 1001.46C755.823 994.208 765.212 988.384 774.41 983.768C819.176 960.761 863.034 968.751 907.727 994.962C914.698 999.158 921.697 1003.65 929.032 1008.43C978.671 1041.24 1015.97 1096.03 1060.9 1101.36C1068.36 1102.13 1075.63 1101.92 1082.89 1100.61C1109.39 1095.71 1134.77 1077 1159.53 1044.35C1179.26 1018.17 1197.09 977.524 1213.67 938.848C1217.59 929.541 1221.52 920.234 1225.36 911.131C1246.16 860.935 1266.02 810.493 1290.15 764.999C1340.73 669.387 1410.29 598.152 1482.31 570.601C1504.58 562.149 1526.83 557.79 1548.68 557.747C1640.52 558.019 1721.86 636.553 1757.37 762.114" stroke="#8C6EFF" stroke-width="2" stroke-miterlimit="10"/>
<path d="M-120.499 1594.97C-101.284 1487.16 -44.0176 1375.38 25.623 1318.56C83.0051 1271.71 143.304 1260.4 203.352 1248.61C220.552 1245.24 237.447 1241.88 254.143 1237.54C328.071 1218.78 389.339 1187.77 436.412 1170.03C468.349 1157.94 494.773 1152.45 520.87 1148.87C532.098 1147.34 544.635 1146.62 559.479 1145.38C578.686 1143.69 602.11 1138.97 630.055 1121.62C672.125 1095.59 711.571 1047.66 748.735 1017.52C758.526 1009.59 767.848 1003.17 776.839 997.574C821.27 970.512 865.712 974.369 910.967 998.329C917.984 1002.02 925.171 1006.4 932.47 1010.87C982.529 1042.14 1018.24 1098.86 1062.31 1108.42C1069.62 1109.9 1076.66 1110.6 1083.89 1110.09C1110.13 1108 1136.19 1092.35 1161.53 1061.89C1181.73 1037.5 1200.18 997.152 1216.88 958.899C1220.91 949.693 1224.83 940.393 1228.47 931.409C1249.17 881.457 1268.68 830.776 1292.25 785.15C1342 688.961 1411.13 617.207 1482.8 588.895C1505.02 580.152 1527.22 575.499 1549.04 575.455C1640.71 574.833 1721.94 653.004 1756.92 778.588" stroke="#8B70FF" stroke-width="2" stroke-miterlimit="10"/>
<path d="M-118.277 1564.97C-96.6638 1457.9 -39.3368 1348.5 29.8725 1291.15C86.8352 1243.76 147.04 1229.97 206.918 1218.09C224.101 1214.73 240.897 1211.58 257.494 1207.45C331.106 1190.4 392.528 1165.88 440.16 1155.5C472.36 1148.59 499.081 1148.56 525.338 1151.15C536.285 1152.13 548.986 1154.29 563.656 1155.65C582.855 1157.25 606.237 1155.52 634.158 1139.29C676.471 1115.15 715.234 1065.91 751.827 1033.43C761.439 1024.81 770.666 1017.51 779.591 1011.32C823.799 980.305 868.907 979.833 914.64 1001.75C921.734 1005.23 928.968 1009.11 936.342 1013.37C986.849 1043.39 1020.83 1101.65 1063.96 1115.64C1071.05 1118.03 1078.02 1119.23 1085.22 1119.52C1111.19 1120.23 1137.82 1107.56 1163.84 1079.07C1184.69 1056.36 1203.56 1016.42 1220.36 978.287C1224.39 969.088 1228.3 959.796 1232.05 950.913C1252.76 901.299 1271.6 850.397 1294.91 804.324C1343.74 707.764 1412.41 635.193 1483.73 606.122C1505.79 596.995 1527.96 592.345 1549.74 592.004C1641.15 590.693 1722.28 668.501 1756.8 793.906" stroke="#8B72FF" stroke-width="2" stroke-miterlimit="10"/>
<path d="M-115.954 1534.79C-91.9765 1428.17 -34.4496 1321.54 34.2167 1263.56C90.8713 1215.73 150.87 1199.37 210.466 1187.32C227.521 1183.86 244.411 1180.8 260.856 1177.38C334.15 1162.06 395.696 1143.72 443.833 1141.18C476.295 1139.43 503.229 1145.07 529.534 1153.73C540.423 1157.39 552.982 1162.45 567.756 1166.1C586.834 1170.89 610.258 1171.94 638.266 1156.91C680.709 1134.58 718.93 1084.41 755.006 1049.09C764.44 1039.8 773.572 1031.61 782.402 1024.53C826.387 989.569 871.965 984.885 918.45 1004.45C925.702 1007.52 933.011 1011.19 940.267 1015.35C991.192 1043.82 1023.6 1104.02 1065.86 1122.23C1072.81 1125.32 1079.75 1127.31 1086.8 1128.31C1112.51 1131.82 1139.62 1122.31 1166.42 1095.89C1187.81 1074.76 1207.14 1035.52 1224.11 997.316C1228.14 988.125 1232.08 979.138 1235.71 970.169C1256.32 920.801 1274.72 869.865 1297.55 823.458C1345.57 726.327 1413.88 653.035 1484.77 623.411C1506.69 614.198 1528.9 609.051 1550.55 608.616C1641.67 606.321 1722.6 683.968 1756.79 809.284" stroke="#8A74FF" stroke-width="2" stroke-miterlimit="10"/>
<path d="M-113.623 1504.62C-87.2572 1398.76 -29.6718 1294.49 38.6449 1235.79C94.8795 1187.42 154.7 1168.79 214.124 1156.66C231.162 1153.2 247.841 1150.26 264.298 1147.13C337.467 1133.42 398.972 1121.66 447.665 1126.45C480.47 1129.66 507.699 1140.75 533.998 1155.96C544.718 1162.22 557.328 1170.06 571.929 1176.29C590.999 1184.36 614.269 1188.31 642.474 1174.56C685.046 1154.03 722.809 1102.74 758.203 1065.01C767.569 1055.12 776.523 1046.25 785.259 1038.29C828.909 999.297 875.148 990.299 922.218 1007.92C929.435 1010.69 936.819 1014.15 944.344 1018C995.795 1045.02 1026.4 1106.95 1067.91 1129.46C1074.6 1133.16 1081.52 1135.95 1088.53 1137.74C1113.97 1144.05 1141.65 1137.5 1169.13 1113.06C1191.05 1093.5 1210.92 1054.76 1228.01 1016.98C1232.14 1007.89 1235.97 998.817 1239.71 989.949C1260.29 940.624 1278.15 889.563 1300.55 843.12C1347.73 745.422 1415.61 671.617 1486.23 641.034C1508.1 631.531 1530.18 626.296 1551.77 625.564C1642.72 622.379 1723.46 699.864 1757.2 824.994" stroke="#8A76FF" stroke-width="2" stroke-miterlimit="10"/>
<path d="M-111.28 1474.51C-82.4484 1369.19 -24.7761 1267.6 42.9979 1208.27C99.0068 1159.26 158.537 1138.28 217.679 1125.96C234.589 1122.42 251.362 1119.57 267.637 1116.86C340.489 1104.86 402.145 1099.56 451.311 1111.87C484.376 1120.23 512.01 1136.84 538.164 1158.22C548.797 1166.86 561.376 1177.67 575.998 1186.38C595.059 1197.72 618.259 1204.35 646.467 1192.01C689.085 1173.48 726.472 1120.86 761.185 1080.71C770.374 1070.15 779.233 1060.4 787.902 1051.85C831.412 1008.72 878.228 995.619 925.771 1011.2C933.145 1013.57 940.493 1016.73 948.093 1020.37C1000.04 1045.64 1028.99 1109.7 1069.56 1136.61C1076.11 1141.01 1082.88 1144.5 1089.86 1147.09C1115.04 1156.19 1143.3 1152.89 1171.45 1130.42C1193.91 1112.44 1214.31 1074.2 1231.5 1036.54C1235.63 1027.46 1239.56 1018.49 1243.19 1009.53C1263.66 960.457 1281.09 909.366 1303.21 862.481C1349.48 764.421 1417.02 689.901 1487.29 658.565C1509.11 648.774 1531.13 643.246 1552.59 642.422C1643.25 638.256 1723.91 715.671 1757.28 840.41" stroke="#8978FF" stroke-width="2" stroke-miterlimit="10"/>
<path d="M-108.92 1444.45C-77.8208 1339.79 -19.8973 1240.45 47.3631 1180.81C102.953 1131.27 162.387 1107.82 221.358 1095.42C238.25 1091.88 254.813 1089.15 271.1 1086.73C343.744 1076.54 405.412 1077.3 455.079 1097.41C488.402 1110.91 516.523 1132.84 542.643 1160.45C553.19 1171.47 565.655 1185.46 580.187 1196.55C599.239 1211.16 622.368 1220.47 650.58 1209.52C693.436 1192.88 730.062 1139.15 764.371 1096.28C773.382 1085.04 782.146 1074.42 790.638 1065.19C833.814 1018.04 881.205 1000.84 929.413 1014.29C936.861 1016.45 944.367 1019.2 951.848 1022.74C1004.13 1046.68 1031.47 1112.36 1071.19 1143.46C1077.59 1148.56 1084.22 1152.75 1091.06 1156.04C1115.97 1167.93 1144.8 1167.58 1173.61 1147.07C1196.61 1130.66 1217.54 1092.92 1234.94 1055.48C1239.06 1046.41 1242.99 1037.45 1246.64 1028.8C1267.12 980.061 1283.98 928.551 1305.66 881.633C1351.11 783.01 1418.29 707.779 1488.13 675.895C1509.81 666.02 1531.68 660.107 1553.2 659.081C1643.59 654.231 1724.15 731.279 1757.07 855.828" stroke="#897AFF" stroke-width="2" stroke-miterlimit="10"/>
<path d="M-106.743 1414.54C-73.1879 1310.44 -15.2893 1213.67 51.5406 1153.51C106.823 1103.53 165.967 1077.73 224.738 1064.96C241.695 1061.22 258.159 1058.69 274.265 1056.68C346.674 1047.99 408.41 1055.39 458.629 1082.79C492.294 1101.22 520.736 1128.87 546.71 1162.61C557.2 1176.3 569.606 1192.96 584.076 1206.72C603.036 1224.79 626.095 1236.77 654.475 1226.82C697.458 1211.97 733.628 1157.12 767.258 1111.85C776.092 1099.93 784.79 1088.72 793.187 1078.62C836.029 1027.46 884.106 1006.27 932.754 1017.39C940.249 1019.05 947.829 1021.59 955.384 1024.93C1008.19 1047.42 1033.93 1114.71 1072.63 1150.41C1078.89 1156.21 1085.37 1161.1 1092.19 1165.17C1116.8 1179.55 1146.21 1182.44 1175.73 1164.19C1199.37 1149.44 1220.83 1112.2 1238.13 1075C1242.36 1066.03 1246.28 1057.08 1249.93 1048.44C1270.31 999.946 1286.73 948.409 1307.94 901.162C1352.57 801.979 1419.21 726.149 1488.78 693.313C1510.42 683.151 1532.15 677.151 1553.7 675.625C1643.92 669.891 1724.17 746.681 1756.75 871.132" stroke="#887CFF" stroke-width="2" stroke-miterlimit="10"/>
<path d="M-104.358 1384.55C-68.4339 1281.2 -10.3671 1186.89 56.0047 1125.91C110.869 1075.4 169.917 1047.16 228.407 1034.21C245.236 1030.38 261.6 1028.06 277.718 1026.35C349.81 1019.36 411.861 1032.78 462.386 1068.06C496.39 1091.4 525.346 1124.65 550.982 1164.62C561.386 1180.68 573.762 1200.3 588.141 1216.43C606.982 1237.66 630.082 1252.4 658.464 1243.85C701.575 1230.78 737.179 1174.73 770.242 1127.15C778.981 1114.36 787.502 1102.47 795.723 1091.7C838.232 1036.54 886.963 1011.06 936.273 1020.05C943.842 1021.5 951.386 1023.75 959.098 1026.68C1012.31 1047.63 1036.38 1116.74 1074.33 1156.71C1080.45 1163.2 1086.71 1168.99 1093.57 1173.65C1117.92 1190.8 1147.93 1196.93 1178.08 1180.34C1202.25 1167.17 1224.16 1130.63 1241.74 1093.44C1245.89 1084.68 1249.81 1075.74 1253.45 1067.1C1273.81 1018.66 1289.69 967.001 1310.55 919.52C1354.38 820.076 1420.56 743.446 1489.78 709.863C1511.37 699.415 1533.05 693.124 1554.47 691.507C1644.4 684.797 1724.56 761.514 1756.71 885.773" stroke="#887FFF" stroke-width="2" stroke-miterlimit="10"/>
<path d="M-101.956 1354.59C-63.588 1251.79 -5.43764 1160.14 60.3921 1098.55C114.948 1047.61 173.787 1016.83 232.104 1003.8C248.915 999.971 265.262 997.653 281.199 996.349C353.081 991.163 415.17 1010.9 466.243 1053.44C500.504 1081.89 529.86 1120.62 555.544 1166.59C565.89 1185.31 578.124 1207.79 592.524 1226.38C611.355 1250.85 634.302 1268.46 662.768 1261.1C705.922 1250.02 741.07 1192.86 773.619 1142.48C782.292 1129.11 790.608 1116.26 798.845 1104.7C841.102 1045.35 890.513 1015.89 940.288 1022.86C948.014 1023.9 955.632 1025.95 963.225 1028.78C1016.96 1048.3 1039.44 1119.01 1076.37 1163.55C1082.35 1170.73 1088.46 1177.22 1095.29 1182.67C1119.38 1202.59 1149.94 1211.64 1180.78 1197.31C1205.4 1185.9 1227.93 1149.66 1245.6 1112.61C1249.74 1103.86 1253.76 1095.01 1257.4 1086.39C1277.66 1038.19 1293.1 986.51 1313.5 938.705C1356.51 838.71 1422.35 761.379 1491.13 727.255C1512.47 716.631 1534.21 710.143 1555.58 708.232C1645.24 700.844 1725.3 777.189 1757.19 901.139" stroke="#8781FF" stroke-width="2" stroke-miterlimit="10"/>
<path d="M-99.5347 1324.69C-58.838 1222.35 -0.604889 1133.36 64.7937 1071.27C119.041 1019.9 177.589 986.781 235.704 973.377C252.387 969.458 268.634 967.345 284.693 966.43C356.338 962.741 418.49 989.075 470.029 1039.06C504.545 1072.61 534.411 1116.91 559.839 1168.88C570.21 1190.06 582.191 1215.29 596.529 1236.54C615.351 1264.25 638.226 1284.52 666.694 1278.54C710.083 1269.34 744.665 1210.98 776.538 1158.21C785.034 1144.18 793.173 1130.65 801.426 1118.31C843.349 1054.98 893.328 1021.46 943.759 1026.31C951.448 1027.06 959.222 1028.69 966.889 1031.32C1020.94 1049.51 1042.03 1121.71 1078.03 1170.61C1083.75 1178.39 1089.95 1185.76 1096.63 1191.91C1120.54 1214.38 1151.49 1226.77 1183.18 1214.28C1208.33 1204.43 1231.39 1168.69 1249.07 1131.97C1253.31 1123.32 1257.22 1114.39 1260.86 1105.77C1281.01 1057.83 1296 1005.83 1316.07 958.092C1358.26 857.55 1423.66 779.723 1492.09 744.858C1513.38 733.949 1535.07 727.173 1556.31 725.171C1645.79 716.905 1725.65 793.078 1757.09 916.827" stroke="#8783FF" stroke-width="2" stroke-miterlimit="10"/>
<path d="M-97.1875 1295.06C-18.3561 1109.12 111.656 973.135 239.225 943.231C381.782 909.902 492.722 1007.25 563.941 1171.29C587.782 1225.97 620.312 1304.46 670.619 1295.96C725.712 1286.59 765.569 1193.99 803.899 1131.82C851.813 1054.37 911.904 1015.86 970.44 1033.77C1033.69 1053.19 1049.6 1149.73 1097.67 1201.15C1121.31 1226.38 1152.81 1241.68 1185.09 1231.34C1216.87 1221.13 1245.27 1169.6 1264.04 1125.45C1284.2 1077.85 1298.64 1025.73 1318.33 977.471C1372.51 845.117 1467.62 751.145 1556.73 742.112C1645.92 732.876 1725.59 808.878 1756.69 932.516" stroke="#8685FF" stroke-width="2" stroke-miterlimit="10"/>
<path d="M-100.808 1317.14C-60.9791 1221.7 -8.60718 1138.4 50.4378 1074.8C108.192 1012.56 172.424 969.033 236.358 952.926C285.016 940.558 330.308 943.812 371.458 960.952C410.373 977.031 445.278 1005.21 475.806 1042.74C498.729 1070.9 519.025 1104.46 537.268 1142C544.864 1157.59 552.022 1173.9 558.935 1190.81C567.347 1211.7 576.981 1235.78 588.397 1257.28C607.795 1294.16 632.71 1325.08 664.81 1319.99C699.497 1314.35 728.789 1274.9 754.816 1231.08C770.186 1205.18 784.395 1177.76 798.449 1154.01C811.217 1132.71 824.737 1113.94 838.872 1098.4C870.822 1063.34 905.878 1043.64 941.577 1044.27C948.38 1044.28 955.269 1045.18 962.022 1046.77C998.903 1055.45 1020.86 1090.4 1042.3 1128.44C1057.5 1155.57 1072.33 1184 1092.56 1205.3C1093.25 1206.15 1094.02 1206.8 1094.72 1207.65C1118.34 1231.52 1149.02 1246.39 1180.52 1236.19C1201.98 1229.23 1221.98 1203.95 1238.44 1174.63C1246.94 1159.51 1254.49 1143.05 1260.8 1127.46C1268.04 1109.94 1274.4 1091.67 1280.54 1073.22C1291.48 1040.35 1301.48 1007.24 1313.56 975.593C1327.82 938.184 1345.09 903.57 1364.44 872.597C1400.14 815.469 1443.63 770.558 1489.5 746.084C1509.38 735.357 1529.66 728.761 1549.62 726.238C1557.35 725.401 1565.04 725.062 1572.59 725.423C1654.54 728.763 1725.4 804.445 1753.48 920.744" stroke="#8B88FB" stroke-width="2" stroke-miterlimit="10"/>
<path d="M-104.619 1339.39C-64.7044 1242.28 -12.7879 1156.86 46.0821 1090.84C103.689 1026.48 168.521 980.119 233.086 962.58C282.198 949.188 328.08 951.82 369.876 970.028C409.105 986.898 443.99 1016.69 473.724 1056.27C496.011 1086.09 515.448 1121.11 532.718 1160.02C539.965 1176.14 546.772 1192.98 553.334 1210.42C561.425 1232.13 570.711 1256.75 581.891 1278.88C600.867 1316.5 625.865 1349.13 658.407 1344.11C693.264 1338.86 723.132 1298.75 748.962 1254.71C764.317 1228.49 778.399 1200.66 792.217 1176.41C804.747 1154.61 817.947 1135.55 831.706 1119.12C862.825 1082.5 897.025 1060.95 932.388 1058.84C939.141 1058.26 945.979 1058.56 952.791 1059.66C989.642 1065.57 1012.65 1097.62 1034.88 1134.17C1050.7 1160.2 1066.09 1188.03 1086.42 1209.14C1087.11 1209.99 1087.89 1210.64 1088.66 1211.29C1112.5 1235.08 1143.37 1250.64 1175.1 1240.32C1197.07 1233.23 1217.56 1207.51 1234.14 1177.16C1242.69 1161.53 1250.33 1144.86 1256.7 1128.75C1263.9 1110.62 1270.32 1091.85 1276.32 1072.99C1287.1 1039.41 1296.73 1005.4 1308.31 972.77C1321.98 934.275 1338.35 898.595 1356.99 866.448C1391.4 807.071 1434.06 758.41 1480.65 731.501C1500.77 719.861 1521.5 712.542 1541.95 709.595C1549.78 708.555 1557.66 708.106 1565.41 708.357C1649.25 710.508 1722.03 788.623 1749.73 908.212" stroke="#8F8BF6" stroke-width="2" stroke-miterlimit="10"/>
<path d="M-108.325 1361.74C-68.4068 1263.17 -16.8657 1175.42 41.9384 1107.08C99.3678 1040.3 164.746 991.595 230.024 972.42C279.479 957.911 326.09 960.307 368.615 979.383C408.155 997.044 442.939 1028.65 471.959 1070.09C493.69 1101.35 512.072 1137.95 528.479 1178.33C535.293 1195.18 541.942 1212.43 548.152 1230.41C555.921 1252.95 564.858 1278.1 575.912 1300.95C594.465 1339.33 619.737 1373.55 652.447 1368.92C687.446 1363.75 717.918 1323.28 743.631 1278.81C758.972 1252.28 772.927 1224.04 786.507 1199.29C798.798 1176.99 811.649 1157.34 825.089 1140.62C855.486 1102.53 888.687 1078.74 923.824 1073.96C930.554 1073.09 937.341 1072.8 944.213 1073.4C981.032 1076.55 1005.1 1105.69 1028.11 1140.74C1044.56 1165.66 1060.51 1192.89 1081.13 1213.71C1081.9 1214.36 1082.6 1215.21 1083.37 1215.86C1107.51 1239.35 1138.3 1255.93 1170.44 1245.38C1193.01 1237.95 1213.87 1211.69 1230.71 1180.71C1239.44 1164.66 1246.94 1147.59 1253.37 1130.98C1260.63 1112.33 1266.91 1093.15 1272.67 1073.8C1283.19 1039.42 1292.43 1004.51 1303.45 971.091C1316.43 931.713 1332.09 894.856 1350.01 861.24C1383.09 799.317 1424.95 747.196 1472.26 717.849C1492.61 705.296 1513.8 697.252 1534.73 693.88C1542.84 692.526 1550.84 692.169 1558.68 692.218C1644.52 693.271 1719.11 773.728 1746.32 896.515" stroke="#948DF2" stroke-width="2" stroke-miterlimit="10"/>
<path d="M-112.027 1384.14C-71.9121 1283.99 -21.022 1194.24 37.6874 1123.27C94.9673 1054.37 160.946 1002.82 226.938 982.002C276.847 966.467 324.16 968.332 367.14 988.59C406.993 1007.04 441.756 1040.26 469.869 1083.67C491.043 1116.38 508.286 1154.76 523.992 1196.2C530.454 1213.58 536.669 1231.57 542.72 1249.97C550.25 1273.14 558.672 1299.23 569.571 1322.51C587.7 1361.63 613.055 1397.57 646.208 1393C681.265 1388.13 712.425 1347.09 737.94 1302.4C753.265 1275.55 767.011 1247.11 780.435 1221.65C792.405 1199.06 805.017 1178.9 818.079 1161.3C847.559 1121.85 879.982 1096 914.783 1088.47C921.461 1087 928.308 1086.21 935.129 1086.22C971.722 1086.71 996.964 1113.04 1020.85 1146.38C1037.91 1170.2 1054.34 1197.02 1075.25 1217.55C1076.03 1218.2 1076.72 1219.05 1077.5 1219.7C1101.96 1243.19 1132.83 1260.37 1165 1249.81C1188.09 1242.25 1209.44 1215.55 1226.43 1183.85C1235.24 1167.58 1242.89 1149.79 1249.19 1132.78C1256.31 1113.73 1262.54 1093.94 1268.28 1074.28C1278.53 1039.09 1287.39 1003.29 1297.94 969.172C1310.32 928.706 1325.09 890.782 1342.38 855.787C1374.24 791.406 1415.18 735.729 1463.03 704.05C1483.69 690.38 1505.26 681.814 1526.68 678.015C1534.99 676.55 1543.16 675.787 1551.23 676.022C1638.99 676.178 1715.36 758.685 1742.3 884.859" stroke="#9990EE" stroke-width="2" stroke-miterlimit="10"/>
<path d="M-115.83 1406.47C-75.7123 1304.85 -25.199 1212.77 33.4443 1139.47C90.5746 1068.44 157.155 1014.04 223.781 991.786C274.145 975.223 322.049 976.464 365.678 997.794C405.844 1017.04 440.587 1051.88 467.901 1097.36C488.435 1131.71 504.813 1171.56 519.542 1214.39C525.651 1232.3 531.514 1250.82 537.13 1269.95C544.336 1293.95 552.408 1320.58 563.07 1344.48C580.857 1384.15 606.211 1422 639.726 1417.71C674.842 1413.13 706.58 1371.43 732.117 1326.71C747.345 1299.75 761.046 1270.69 774.232 1244.73C785.962 1221.64 798.335 1200.99 811.048 1182.8C839.803 1141.86 871.225 1113.78 905.716 1103.78C912.343 1101.71 919.138 1100.33 925.937 1100.04C962.498 1097.76 988.72 1121.37 1013.47 1153.01C1031.15 1175.72 1048.15 1201.94 1069.28 1222.37C1070.05 1223.02 1070.75 1223.87 1071.52 1224.52C1096.28 1247.72 1127.15 1265.71 1159.65 1255.13C1183.15 1247.34 1205.1 1220.29 1222.32 1187.65C1231.2 1170.87 1238.94 1152.87 1245.29 1135.34C1252.47 1115.78 1258.57 1095.58 1264.15 1075.22C1274.21 1039.03 1282.72 1002.62 1292.67 967.42C1304.56 925.958 1318.42 886.964 1335.09 850.589C1365.61 783.655 1405.95 724.399 1454.32 690.385C1475.23 675.798 1497.25 666.506 1519.05 662.188C1527.45 660.519 1535.93 659.738 1544.16 659.567C1633.83 658.528 1712.12 743.476 1738.57 872.857" stroke="#9D93E9" stroke-width="2" stroke-miterlimit="10"/>
<path d="M-119.527 1428.9C-79.3234 1325.61 -29.353 1231.6 29.1945 1155.67C86.1453 1082.22 153.163 1025.37 220.726 1001.66C271.545 984.069 320.07 984.98 364.319 1007.09C404.716 1027.33 439.438 1063.79 466.033 1111.13C486.008 1146.94 501.326 1188.37 515.186 1232.67C520.942 1251.11 526.452 1270.16 531.825 1289.91C538.598 1314.65 546.54 1342.01 556.963 1366.54C574.214 1406.87 599.844 1446.32 633.608 1442.22C668.783 1437.93 701.211 1395.66 726.631 1350.52C741.843 1323.24 755.417 1293.77 768.475 1267.4C779.993 1244.1 791.904 1222.77 804.349 1203.79C832.184 1161.49 862.906 1131.13 897.059 1118.37C903.663 1116 910.407 1114.03 917.348 1113.04C953.793 1108.18 981.162 1128.67 1006.71 1158.8C1025.01 1180.4 1042.57 1206.01 1063.91 1226.35C1064.68 1227 1065.38 1227.85 1066.15 1228.5C1091.12 1251.61 1122.11 1270.5 1154.72 1259.71C1178.82 1251.58 1201.14 1223.99 1218.63 1190.72C1227.68 1173.52 1235.28 1155.11 1241.7 1137.07C1248.83 1116.9 1254.91 1096.4 1260.35 1075.63C1270.13 1038.63 1278.26 1001.32 1287.75 965.428C1298.96 923.08 1312.19 882.702 1327.95 845.259C1357.06 775.973 1396.67 713.04 1445.69 676.782C1466.91 661.074 1489.32 651.258 1511.6 646.513C1520.2 644.733 1528.77 643.748 1537.32 643.559C1628.99 641.417 1709.1 728.715 1735.16 861.397" stroke="#A296E5" stroke-width="2" stroke-miterlimit="10"/>
<path d="M-123.234 1451.05C-83.0269 1346.3 -33.4351 1249.96 24.9631 1171.89C81.7632 1096.31 149.383 1036.6 217.582 1011.45C268.857 992.832 318.004 993.413 362.985 1016.39C403.697 1037.43 438.397 1075.51 464.273 1124.72C483.688 1161.98 498.054 1205.09 510.933 1250.77C516.254 1269.94 521.521 1289.62 526.512 1309.61C532.96 1335.18 540.55 1363.08 550.817 1388.03C567.641 1429.11 593.354 1470.29 627.48 1466.46C662.797 1462.26 695.833 1419.63 721.053 1374.27C736.361 1346.76 749.614 1316.99 762.515 1289.91C773.792 1266.12 785.463 1244.28 797.474 1224.91C824.582 1181.13 854.217 1148.74 888.142 1133.29C894.694 1130.33 901.498 1127.86 908.305 1126.48C944.607 1118.74 973.152 1136.4 999.49 1165.01C1018.41 1185.5 1036.54 1210.51 1058.09 1230.75C1058.87 1231.4 1059.56 1232.26 1060.34 1232.91C1085.52 1255.92 1116.7 1275.51 1149.54 1264.6C1174.15 1256.34 1196.96 1228.31 1214.69 1194.11C1223.71 1176.6 1231.57 1157.57 1237.97 1139.21C1245.07 1118.73 1250.99 1097.52 1256.37 1076.15C1265.89 1038.34 1273.64 1000.13 1282.63 963.244C1293.24 919.806 1305.57 878.356 1320.7 839.53C1348.58 767.777 1387.27 701.273 1437.02 662.563C1458.48 645.937 1481.34 635.392 1504.11 630.22C1512.91 628.328 1521.69 627.232 1530.32 626.84C1624.01 623.593 1705.83 713.152 1731.61 849.232" stroke="#A799E1" stroke-width="2" stroke-miterlimit="10"/>
<path d="M-126.921 1473.54C-86.6285 1367.11 -37.6101 1268.55 20.7203 1188.15C77.4513 1110.22 145.592 1047.86 214.427 1021.27C266.129 1001.32 316.01 1001.66 361.448 1025.83C402.473 1047.67 437.152 1087.37 462.224 1138.65C480.995 1177.57 494.379 1222.06 506.387 1269.21C511.353 1288.92 516.265 1309.13 521.013 1329.75C527.136 1356.15 534.374 1384.58 544.513 1410.26C560.91 1452.1 586.787 1494.78 621.193 1491.43C656.568 1487.53 690.214 1444.54 715.398 1398.55C730.691 1370.73 743.815 1340.54 756.476 1312.96C767.43 1288.87 778.75 1266.44 790.492 1246.28C816.676 1201.13 845.498 1166.37 879.111 1148.44C885.612 1144.89 892.364 1141.82 899.231 1139.94C935.417 1129.62 965.142 1144.44 992.355 1171.34C1011.9 1190.71 1030.48 1215.02 1052.24 1235.16C1053.02 1235.81 1053.8 1236.47 1054.61 1237.42C1080.09 1260.13 1111.19 1280.74 1144.43 1269.6C1169.57 1261.21 1192.84 1232.43 1210.74 1197.8C1219.94 1179.87 1227.78 1160.52 1234.12 1141.56C1241.18 1120.48 1247.15 1098.75 1252.32 1077.17C1261.65 1038.35 1269.04 999.54 1277.46 961.863C1287.46 917.333 1299 874.904 1313.39 834.6C1339.93 760.286 1377.81 690.299 1428.28 649.135C1449.98 631.589 1473.31 620.315 1496.57 614.715C1505.46 612.618 1514.43 611.411 1523.27 610.908C1618.86 606.462 1702.61 698.469 1727.9 837.763" stroke="#AC9CDC" stroke-width="2" stroke-miterlimit="10"/>
<path d="M-130.603 1496.05C-90.3065 1388.16 -41.7505 1287.45 16.5955 1204.51C73.0643 1124.36 141.839 1059.43 211.393 1031.19C263.553 1010.2 314.141 1010.01 360.12 1035.17C401.46 1057.8 436.035 1099.32 460.274 1152.39C478.482 1192.76 490.912 1238.93 502.018 1287.27C506.629 1307.51 511.186 1328.25 515.579 1349.4C521.377 1376.65 528.262 1405.62 538.162 1431.93C554.213 1474.31 580.201 1519.01 614.942 1515.64C650.487 1512.13 684.715 1468.48 709.81 1422.36C725.088 1394.22 738.195 1363.71 750.423 1335.74C761.246 1311.24 772.213 1288.22 783.492 1267.37C808.835 1220.65 836.872 1183.82 870.256 1163.2C876.734 1159.35 883.434 1155.69 890.249 1153.21C926.32 1140.31 957.197 1151.99 985.205 1177.37C1005.37 1195.63 1024.44 1219.53 1046.5 1239.37C1047.28 1240.02 1048.05 1240.68 1048.94 1241.42C1074.64 1264.05 1105.94 1285.36 1139.21 1274.21C1164.76 1265.59 1188.63 1236.46 1206.77 1200.89C1216.14 1182.54 1223.85 1162.79 1230.33 1143.12C1237.45 1121.51 1243.28 1099.38 1248.4 1077.19C1257.46 1037.56 1264.46 997.846 1272.3 959.378C1281.62 913.959 1292.33 870.252 1306.1 828.56C1331.4 751.774 1368.45 678.002 1419.37 634.695C1441.39 616.024 1465.1 604.224 1488.85 598.194C1497.94 595.985 1507.11 594.667 1516.15 594.053C1613.76 588.5 1699.26 683.069 1724.24 825.472" stroke="#B09ED8" stroke-width="2" stroke-miterlimit="10"/>
<path d="M-134.385 1518.49C-94.0033 1408.92 -45.9116 1306.08 12.2546 1220.7C68.6534 1138.21 137.95 1070.62 208.253 1041.02C260.869 1019 312.052 1018.18 358.684 1044.42C400.337 1067.85 434.891 1111 458.323 1166.14C475.967 1207.97 487.247 1255.94 497.56 1305.55C501.815 1326.32 506.017 1347.6 510.165 1369.38C515.637 1397.45 522.085 1427.17 531.828 1453.9C547.45 1497.04 573.603 1543.26 608.624 1540.38C644.228 1537.16 679.038 1492.84 704.043 1446.6C719.306 1418.14 732.201 1387.43 744.27 1358.75C754.852 1333.75 765.495 1310.43 776.503 1288.79C801.031 1240.78 828.14 1201.49 861.212 1178.39C867.638 1173.94 874.287 1169.68 881.273 1166.79C917.115 1151.2 949.258 1159.84 978.061 1183.7C998.85 1200.84 1018.49 1224.13 1040.76 1243.88C1041.54 1244.53 1042.43 1245.28 1043.21 1245.93C1069.12 1268.46 1100.42 1290.58 1134.11 1279.21C1160.25 1270.25 1184.54 1240.88 1202.91 1204.37C1212.34 1185.51 1220.22 1165.34 1226.68 1145.35C1233.66 1123.34 1239.45 1100.6 1244.43 1078C1253.22 1037.56 1259.75 997.151 1267.29 957.577C1276 911.064 1285.91 866.376 1298.97 823.501C1322.93 744.147 1359.16 666.885 1410.82 621.117C1433.07 601.524 1457.32 588.79 1481.48 582.535C1490.77 580.214 1500.04 578.69 1509.28 577.966C1608.91 571.303 1696.12 668.139 1720.72 813.856" stroke="#B5A1D4" stroke-width="2" stroke-miterlimit="10"/>
<path d="M-138.056 1541.05C-97.6701 1430.01 -50.0427 1325.03 8.13868 1237.1C64.3855 1152.46 134.178 1081.91 205.313 1050.75C258.388 1027.7 310.198 1026.55 357.454 1053.57C399.423 1077.79 433.955 1122.58 456.579 1179.8C473.576 1223.29 483.98 1272.74 493.305 1323.74C497.122 1345.25 500.967 1367.06 504.953 1389.27C509.987 1418.08 516.304 1448.53 525.806 1475.9C540.999 1519.79 567.234 1567.73 602.702 1564.92C638.447 1561.79 673.87 1517.12 698.757 1470.45C714.004 1441.67 726.548 1410.36 738.599 1381.36C749.079 1356.25 759.227 1331.95 769.8 1309.92C793.595 1260.42 819.693 1218.86 852.452 1193.28C858.826 1188.23 865.452 1183.67 872.469 1179.98C908.195 1161.8 941.412 1167.49 971.095 1189.62C992.509 1205.65 1012.72 1228.32 1035.2 1247.98C1035.98 1248.63 1036.87 1249.38 1037.65 1250.03C1063.86 1272.26 1095.27 1295.3 1128.99 1283.91C1155.66 1274.82 1180.4 1244.71 1198.93 1207.47C1208.46 1188.39 1216.39 1167.7 1222.8 1147.1C1229.85 1124.57 1235.5 1101.43 1240.43 1078.22C1249.05 1037.06 1255.2 995.745 1262.05 955.286C1270.16 907.678 1279.35 861.802 1291.58 817.648C1314.22 736.021 1349.72 655.058 1402 606.733C1424.57 586.012 1449.2 572.751 1473.85 566.066C1483.35 563.632 1492.82 561.998 1502.15 561.068C1603.69 553.202 1692.84 652.494 1716.97 801.734" stroke="#BAA4CF" stroke-width="2" stroke-miterlimit="10"/>
<path d="M-141.827 1563.55C-101.244 1450.93 -54.1949 1343.72 3.80563 1253.34C59.8987 1166.57 130.296 1093.14 202.071 1060.54C255.603 1036.45 308.121 1034.76 355.948 1063.06C398.231 1088.09 432.74 1134.51 454.554 1193.81C470.985 1238.76 480.317 1289.8 488.764 1342.28C492.224 1364.33 495.824 1386.77 499.341 1409.41C504.048 1439.07 510.009 1470.05 519.271 1498.05C534.033 1542.69 560.349 1592.37 596.07 1589.74C631.873 1586.91 667.991 1541.66 692.676 1494.78C707.907 1465.68 720.462 1434.35 732.243 1404.55C742.368 1378.84 752.303 1354.34 762.604 1331.51C785.47 1280.63 810.859 1236.8 843.276 1208.42C849.598 1202.78 856.283 1197.71 863.166 1193.63C898.775 1172.85 933.149 1175.39 963.63 1196C985.669 1210.9 1006.45 1232.96 1029.14 1252.52C1029.92 1253.18 1030.82 1253.92 1031.6 1254.58C1058.14 1276.81 1089.52 1300.36 1123.57 1288.95C1150.76 1279.72 1176 1249.16 1194.68 1211.19C1204.37 1191.69 1212.29 1170.69 1218.76 1149.58C1225.86 1126.53 1231.38 1102.98 1236.06 1079.27C1244.49 1037.1 1250.18 995.082 1256.56 953.923C1263.97 905.425 1272.33 858.268 1283.93 812.723C1305.22 728.525 1339.91 644.063 1392.83 593.476C1415.65 571.831 1440.74 557.837 1465.77 550.629C1475.44 547.786 1485.11 546.039 1494.67 545.296C1598.24 536.317 1689.22 637.974 1712.96 790.533" stroke="#BEA7CB" stroke-width="2" stroke-miterlimit="10"/>
<path d="M-145.395 1585.93C-104.809 1471.83 -58.1429 1362.27 -0.210461 1269.55C55.7013 1180.33 126.653 1104.53 199.151 1070.27C253.032 1045.05 306.372 1042.91 354.743 1072.21C397.342 1098.03 431.746 1146.29 452.832 1207.47C468.696 1253.89 477.067 1306.61 484.605 1360.28C487.707 1382.87 490.867 1406.04 494.221 1429.11C498.6 1459.61 504.206 1491.13 513.338 1519.86C527.752 1565.05 554.15 1616.45 590.236 1614.1C626.098 1611.57 662.914 1565.76 687.509 1518.74C702.724 1489.33 715.15 1457.58 726.689 1427.28C736.489 1401.27 746.263 1376.06 756.097 1352.55C778.227 1300.18 802.603 1254.08 834.705 1223.21C841.004 1217.26 847.638 1211.59 854.663 1206.8C890.156 1183.43 925.69 1182.8 957.054 1201.68C979.803 1215.26 1000.99 1237.12 1024.06 1256.17C1024.84 1256.82 1025.74 1257.57 1026.52 1258.23C1053.27 1280.36 1084.77 1304.83 1119.01 1293C1146.73 1283.64 1172.43 1252.33 1191.37 1213.73C1201.14 1193.71 1209.11 1172.19 1215.56 1150.76C1222.53 1127.31 1228.07 1102.94 1232.73 1078.92C1240.89 1035.93 1246.19 993.012 1252.07 950.854C1258.88 901.258 1266.44 853.117 1277.2 806.29C1297.14 719.515 1331.1 631.344 1384.67 578.492C1407.7 555.624 1433.28 541.194 1458.81 533.555C1468.68 530.599 1478.55 528.74 1488.2 527.793C1593.81 517.7 1686.62 621.726 1709.86 777.516" stroke="#C3AAC6" stroke-width="2" stroke-miterlimit="10"/>
<path d="M-149.043 1608.58C-108.371 1492.8 -62.255 1381.3 -4.42072 1285.93C51.337 1194.56 122.897 1115.89 196.035 1080.17C250.376 1053.91 304.314 1051.15 353.34 1081.52C396.256 1108.15 430.636 1158.04 450.88 1221.01C466.094 1269.09 473.472 1323.21 480.129 1378.37C482.873 1401.49 485.674 1425.2 488.67 1448.8C492.72 1480.14 497.97 1512.2 506.86 1541.56C520.73 1587.42 547.322 1640.64 583.773 1638.57C619.693 1636.33 657.095 1589.86 681.682 1542.52C696.993 1512.88 709.289 1480.72 720.475 1449.82C730.142 1423.4 739.366 1397.71 748.957 1373.69C770.238 1319.74 793.626 1271.67 825.496 1238.09C831.743 1231.55 838.324 1225.28 845.327 1220.19C880.702 1194.21 917.315 1190.63 949.562 1207.78C973.051 1220.33 994.699 1241.47 1017.87 1260.33C1018.77 1261.08 1019.55 1261.73 1020.44 1262.48C1047.5 1284.32 1078.99 1309.6 1113.49 1297.95C1141.7 1288.16 1167.92 1256.7 1187.1 1217.16C1196.95 1196.92 1204.99 1174.89 1211.39 1152.85C1218.42 1128.88 1223.83 1104.1 1228.24 1079.58C1236.12 1035.78 1241.14 992.047 1246.44 949.096C1252.75 898.496 1259.4 849.275 1269.42 800.962C1288.11 711.703 1321.14 619.931 1375.37 564.812C1398.63 541.017 1424.68 525.853 1450.7 517.783C1460.77 514.714 1470.73 512.65 1480.59 511.591C1588.12 500.29 1682.77 606.685 1705.73 765.894" stroke="#FFB5EA" stroke-width="2" stroke-miterlimit="10"/>
<path d="M-152.789 1631.12C-112.031 1513.66 -66.3835 1400.03 -8.61853 1302.29C47.0681 1208.58 119.154 1127.22 193.046 1090.14C247.847 1062.84 302.497 1059.54 352.068 1090.91C395.382 1118.14 429.656 1169.87 449.086 1234.93C463.842 1284.57 470.031 1340.19 475.806 1396.83C478.108 1420.69 480.633 1444.74 483.383 1468.97C486.992 1501.05 491.997 1533.75 500.728 1563.54C514.248 1609.95 541.034 1665 577.737 1663.11C613.911 1661.06 651.817 1614.13 676.202 1566.57C691.497 1536.62 703.58 1504.24 714.606 1472.63C724.029 1445.71 733.009 1419.51 742.132 1394.81C762.592 1339.57 785.156 1289.12 816.682 1252.74C822.877 1245.6 829.518 1238.82 836.469 1233.13C871.726 1204.54 909.503 1197.8 942.552 1213.41C966.67 1224.84 988.78 1245.27 1012.28 1264.13C1013.17 1264.88 1013.96 1265.53 1014.85 1266.28C1042.12 1288.02 1073.72 1314.21 1108.53 1302.24C1137.27 1292.32 1163.96 1260.12 1183.4 1219.93C1193.43 1199.27 1201.44 1176.93 1207.9 1154.37C1214.99 1129.88 1220.26 1104.69 1224.62 1079.56C1232.32 1034.74 1236.86 990.306 1241.58 946.56C1247.2 895.066 1253.01 844.56 1262.5 794.945C1279.84 703.105 1312.05 607.822 1366.9 550.135C1390.41 525.412 1416.92 509.513 1443.43 501.012C1453.6 497.736 1463.87 495.653 1473.93 494.483C1583.5 482.066 1679.99 590.832 1702.45 753.278" stroke="#FFB3DA" stroke-width="2" stroke-miterlimit="10"/>
<path d="M-156.417 1653.8C-115.657 1534.87 -70.5916 1418.99 -12.8975 1318.9C42.5215 1222.94 115.132 1138.91 189.861 1100.26C245.121 1071.92 300.483 1068.08 350.626 1100.74C394.256 1128.77 428.423 1182.34 447.12 1249.29C461.305 1300.4 466.444 1357.91 471.305 1415.75C473.359 1440.23 475.331 1464.93 477.916 1489.58C481.195 1522.5 485.954 1555.84 494.442 1586.26C507.528 1633.43 534.396 1690.21 571.464 1688.61C607.696 1686.85 646.3 1639.35 670.565 1591.37C685.761 1561.3 697.796 1528.31 708.579 1496.2C717.675 1468.98 726.409 1442.28 735.259 1416.77C754.978 1360.04 776.522 1307.31 807.732 1268.44C813.874 1260.69 820.492 1253.61 827.391 1247.32C862.53 1216.12 901.47 1206.21 935.323 1220.29C960.069 1230.59 982.753 1250.4 1006.46 1269.16C1007.36 1269.91 1008.14 1270.56 1009.12 1271.11C1036.61 1292.75 1068.41 1319.65 1103.24 1307.68C1132.5 1297.61 1159.68 1264.97 1179.28 1224.05C1189.37 1202.87 1197.48 1180.31 1203.88 1157.14C1210.84 1132.24 1216.06 1106.44 1220.28 1080.9C1227.7 1035.27 1231.86 989.927 1236.19 945.275C1241.19 892.683 1246.2 841.19 1254.94 790.086C1270.95 695.963 1302.51 596.757 1357.89 536.705C1381.72 510.849 1408.62 494.42 1435.63 485.486C1445.99 482.098 1456.36 479.809 1466.63 478.526C1578.11 464.899 1676.56 576.131 1698.62 741.906" stroke="#FFBCEC" stroke-width="2" stroke-miterlimit="10"/>
<path d="M-160.143 1676.41C-119.297 1555.8 -74.7028 1437.78 -17.0798 1335.33C38.1831 1237.22 111.403 1150.3 186.773 1110.2C242.382 1080.72 298.456 1076.34 349.256 1110.09C393.314 1139.02 427.344 1194.13 445.223 1263.17C458.754 1315.95 462.895 1374.86 466.87 1434.18C468.564 1459.21 470.175 1484.43 472.401 1509.63C475.35 1543.39 479.751 1577.27 487.996 1608.32C500.647 1656.24 527.679 1714.56 565.001 1713.14C601.29 1711.68 640.594 1663.62 664.767 1615.51C679.947 1585.13 691.852 1551.72 702.391 1519.1C711.353 1491.47 719.731 1464.17 728.111 1437.98C746.893 1379.87 767.611 1324.75 798.504 1283.37C804.622 1275.31 811.159 1267.34 818.23 1260.63C853.249 1226.82 893.356 1213.73 928.012 1226.28C953.39 1235.45 976.647 1254.65 1000.57 1273.31C1001.47 1274.06 1002.25 1274.71 1003.23 1275.26C1031.02 1296.6 1062.73 1324.52 1097.98 1312.32C1127.85 1301.91 1155.45 1269.02 1175.29 1227.17C1185.47 1205.77 1193.61 1182.39 1199.98 1158.91C1207 1133.49 1212.09 1107.29 1216.17 1081.33C1223.31 1034.89 1227.2 988.735 1230.83 943.193C1235.22 889.501 1239.39 836.723 1247.33 784.632C1261.97 687.925 1292.71 585.201 1348.75 522.875C1372.82 496.09 1400.18 478.925 1427.68 469.559C1438.25 466.058 1448.83 463.656 1459.29 462.262C1572.82 447.516 1672.91 561.234 1694.78 730.229" stroke="#FFA9E7" stroke-width="2" stroke-miterlimit="10"/>
<path d="M-163.753 1699.13C-122.905 1577.04 -78.6988 1456.66 -21.2585 1351.76C33.9318 1251.29 107.679 1161.69 183.776 1119.92C239.929 1089.2 296.551 1084.69 347.981 1119.22C392.355 1148.95 426.361 1205.71 443.421 1276.85C456.38 1331.09 459.55 1391.7 462.608 1452.21C463.942 1477.77 465.192 1503.54 467.169 1529.36C469.787 1563.96 473.829 1598.39 481.943 1630.17C494.242 1678.64 521.272 1738.9 558.961 1737.77C595.308 1736.61 635.23 1688.18 659.282 1639.65C674.446 1608.94 686.249 1575.43 696.627 1542.09C705.261 1514.16 713.281 1486.27 721.304 1459.48C739.343 1399.87 759.038 1342.47 789.614 1298.58C795.679 1289.92 802.192 1281.64 809.211 1274.33C844.112 1237.91 885.417 1221.94 920.961 1232.75C946.97 1240.79 970.72 1259.57 994.943 1277.92C995.839 1278.67 996.707 1279.13 997.603 1279.88C1025.61 1301.12 1057.52 1329.76 1092.88 1317.34C1123.16 1306.71 1151.34 1273.16 1171.44 1230.66C1181.8 1208.85 1189.91 1185.15 1196.35 1161.15C1203.32 1135.12 1208.46 1108.39 1212.29 1081.94C1219.25 1034.48 1222.66 987.616 1225.79 941.073C1229.48 886.485 1232.93 832.513 1240.11 778.93C1253.4 679.636 1283.31 573.39 1340.09 508.583C1364.48 480.662 1392.23 462.965 1420.23 453.166C1430.89 449.458 1441.67 446.944 1452.33 445.438C1567.9 429.572 1669.84 545.667 1691.2 717.904" stroke="#FD92DF" stroke-width="2" stroke-miterlimit="10"/>
<path d="M-167.354 1721.87C-126.42 1598.1 -82.7699 1475.78 -25.3176 1368.31C29.7162 1265.68 104.074 1173.19 180.816 1129.96C237.43 1098.19 294.767 1093.14 346.743 1128.67C391.434 1159.21 425.331 1217.81 441.542 1290.75C453.927 1346.46 456.013 1408.67 458.182 1470.67C459.071 1496.98 460.072 1523.37 461.659 1549.44C463.834 1584.79 467.629 1619.85 475.498 1652.27C487.361 1701.5 514.473 1763.49 552.528 1762.64C589.016 1761.57 629.445 1712.68 653.488 1663.82C668.635 1632.8 680.307 1598.87 690.441 1565.03C698.941 1536.69 706.603 1508.2 714.267 1480.81C731.367 1419.82 750.232 1360.03 780.574 1313.42C786.586 1304.16 793.159 1295.37 800.126 1287.46C834.908 1248.41 877.466 1229.07 913.734 1238.53C940.458 1245.24 964.7 1263.6 989.138 1281.86C990.035 1282.61 991.015 1283.15 991.8 1283.81C1020.13 1305.05 1052.01 1334.21 1087.63 1321.97C1118.44 1311.21 1147.11 1277.21 1167.45 1233.78C1177.87 1211.44 1186.08 1187.53 1192.55 1162.71C1199.49 1136.36 1204.58 1109.02 1208.28 1082.16C1214.96 1033.88 1217.97 986.11 1220.63 938.862C1223.71 883.174 1226.34 828.212 1232.78 773.135C1244.81 671.346 1273.79 561.482 1331.22 494.396C1355.85 465.544 1384.07 447.11 1412.56 436.878C1423.43 433.055 1434.41 430.429 1445.17 428.717C1562.67 411.636 1666.57 530.204 1687.53 705.779" stroke="#FF8DDF" stroke-width="2" stroke-miterlimit="10"/>
<path d="M-170.957 1744.35C-130.02 1619.1 -86.7595 1494.42 -29.4905 1384.49C25.358 1279.41 100.162 1184.43 177.856 1139.73C234.933 1106.91 292.985 1101.32 345.509 1137.85C390.517 1169.19 424.389 1229.44 439.862 1304.26C451.672 1361.45 452.784 1425.36 453.951 1488.76C454.477 1515.6 455.117 1542.54 456.455 1569.23C458.297 1605.43 461.844 1641.12 469.357 1674.09C480.866 1723.87 508.059 1787.6 546.481 1787.03C583.027 1786.26 624.159 1736.81 647.998 1687.73C663.242 1656.49 674.586 1622.25 684.559 1587.7C692.814 1558.85 700.145 1530.06 707.421 1501.78C723.776 1439.29 741.615 1377.21 771.638 1328.09C777.598 1318.22 784.148 1309.13 791.175 1300.71C825.838 1259.04 869.484 1236.71 906.643 1244.44C934.001 1250 958.82 1267.75 983.36 1285.81C984.258 1286.56 985.239 1287.11 986.025 1287.77C1014.66 1308.7 1046.57 1338.98 1082.49 1326.42C1113.83 1315.52 1142.97 1280.78 1163.38 1236.81C1173.98 1214.05 1182.25 1189.62 1188.69 1164.49C1195.58 1137.53 1200.54 1109.77 1204.18 1082.29C1210.69 1033.3 1213.32 984.617 1215.28 936.478C1217.74 879.687 1219.45 823.641 1225.24 767.163C1235.82 662.987 1264.14 549.183 1322.12 479.723C1346.99 449.938 1375.68 430.766 1404.56 420.006C1415.71 415.865 1426.78 413.032 1437.78 411.507C1557.33 393.304 1663.08 514.253 1683.53 693.075" stroke="#FF6DD6" stroke-width="2" stroke-miterlimit="10"/>
<path d="M-174.541 1767.1C-133.408 1640.27 -90.8183 1513.55 -33.5396 1401.05C21.15 1293.82 96.5636 1195.94 174.902 1149.77C232.439 1115.92 291.094 1109.69 344.305 1147.61C389.629 1179.75 423.474 1241.64 438.123 1318.57C449.274 1377.43 449.381 1442.74 449.656 1507.63C449.82 1535.01 450.013 1562.69 451.073 1589.72C452.469 1626.66 455.769 1662.99 463.149 1696.68C474.415 1747.11 501.606 1812.79 540.281 1812.41C576.884 1811.94 618.719 1761.92 642.464 1712.72C657.69 1681.16 669.016 1646.6 678.631 1611.45C686.667 1582.4 693.61 1552.71 700.639 1523.92C716.051 1460.04 733.058 1395.57 762.761 1343.93C768.584 1333.67 775.164 1323.76 782.252 1314.84C816.906 1270.64 861.612 1245.03 899.579 1251.21C927.57 1255.64 952.966 1272.77 977.72 1290.73C978.619 1291.48 979.6 1292.02 980.499 1292.78C1009.35 1313.62 1041.34 1344.51 1077.49 1331.83C1109.44 1320.59 1138.99 1285.61 1159.64 1240.7C1170.22 1217.63 1178.54 1192.67 1185.05 1167.02C1192 1139.54 1196.82 1111.38 1200.32 1083.49C1206.56 1033.68 1208.71 984.295 1210.36 935.042C1212.12 877.355 1213.1 820.114 1218.17 762.44C1227.49 655.768 1254.99 538.435 1313.59 466.393C1338.79 435.471 1367.86 415.767 1397.23 404.573C1408.48 400.224 1419.87 397.372 1430.95 395.641C1552.55 376.315 1660.04 499.55 1680.21 681.804" stroke="#FF41CA" stroke-width="2" stroke-miterlimit="10"/>
<path d="M-178.212 1789.83C-137.076 1661.52 -94.8781 1532.44 -37.7838 1417.48C16.8317 1307.88 92.7749 1207.31 171.759 1159.68C229.647 1124.68 289.048 1118.21 342.891 1156.92C388.533 1189.87 422.268 1253.62 436.176 1332.44C446.75 1392.77 445.797 1459.98 445.149 1526.07C444.95 1553.99 444.78 1582.21 445.589 1609.87C446.652 1647.66 449.591 1684.53 456.809 1718.66C467.525 1769.75 494.993 1837.06 534.035 1836.96C570.808 1836.88 613.235 1786.2 636.858 1736.58C652.068 1704.7 663.262 1669.73 672.631 1634.07C680.421 1604.51 687.032 1574.52 693.589 1545.04C708.253 1479.66 724.231 1412.91 753.698 1358.54C759.58 1347.76 766.025 1337.46 773.06 1327.93C807.707 1281.19 853.476 1252.3 892.253 1256.94C920.879 1260.23 946.657 1276.84 971.906 1294.39C972.805 1295.14 973.787 1295.69 974.686 1296.44C1003.84 1316.98 1035.86 1348.99 1072.23 1336.19C1104.71 1324.82 1134.65 1289.3 1155.65 1243.54C1166.4 1220.04 1174.71 1194.77 1181.16 1168.51C1188.09 1140.71 1192.85 1111.93 1196.19 1083.33C1202.23 1032.5 1203.91 982.411 1204.97 932.359C1206.11 873.569 1206.36 815.13 1210.59 756.165C1218.54 646.897 1245.21 526.029 1304.47 451.703C1329.91 419.846 1359.45 399.403 1389.32 387.774C1400.77 383.311 1412.25 380.252 1423.54 378.409C1547.09 357.865 1656.54 483.579 1676.31 669.178" stroke="#FF1BBF" stroke-width="2" stroke-miterlimit="10"/>
<path d="M-181.772 1812.64C-140.552 1682.65 -98.8302 1551.42 -41.8093 1434.09C52.4082 1240.43 213.093 1072.34 341.691 1166.41C387.65 1200.17 421.358 1265.57 434.327 1346.39C444.324 1408.2 442.279 1477.02 440.82 1544.4C439.276 1611.99 438.549 1680.53 450.477 1740.92C460.753 1792.77 488.302 1861.83 527.599 1861.91C564.512 1861.94 607.56 1810.89 630.977 1761.05C658.716 1702.43 672.654 1633.64 686.456 1566.67C700.259 1499.69 715.234 1430.95 744.464 1373.85C778.827 1306.72 837.145 1259.63 884.952 1263.25C915.251 1265.45 942.537 1282.49 968.816 1300.89C998.187 1321.33 1030.4 1354.06 1066.88 1341.05C1099.78 1329.44 1130.41 1293.36 1151.57 1246.86C1174.01 1197.58 1185.82 1139.96 1192.11 1084.06C1204.63 971.66 1196.48 862.638 1203.17 750.868C1209.86 639.098 1235.59 514.599 1295.59 437.782C1331.1 392.281 1374.88 369.113 1416.48 362.039C1542.08 340.371 1653.39 468.469 1672.65 657.318" stroke="#F900B3" stroke-width="2" stroke-miterlimit="10"/>
</svg>
